<svg xmlns="http://www.w3.org/2000/svg" viewBox="0 0 285.28 220.06"><defs><style>.cls-1{fill:#e3bd96;}.cls-1,.cls-10,.cls-11,.cls-13,.cls-2,.cls-3,.cls-4,.cls-5,.cls-6,.cls-7,.cls-8,.cls-9{fill-rule:evenodd;}.cls-12,.cls-2,.cls-3{fill:#eecba5;}.cls-3{stroke:#eecba5;stroke-miterlimit:22.93;stroke-width:0.22px;}.cls-4{fill:#dd992c;}.cls-5{fill:#cd8b25;}.cls-14,.cls-6{fill:#fff;}.cls-7{fill:#e0dddd;}.cls-8{fill:#f1f1f1;}.cls-9{fill:#bd485e;}.cls-10{fill:#d7d2d2;}.cls-11{fill:#ad3d52;}.cls-13{fill:#97d6d9;}</style></defs><title>Livre_1</title><g id="Calque_2" data-name="Calque 2"><g id="Calque_1-2" data-name="Calque 1"><path class="cls-1" d="M162.06,145.89h0a5.09,5.09,0,0,0-5.33,4.92l-.24,26.84A5.2,5.2,0,0,0,161.4,183h0a5.16,5.16,0,0,0,5.33-4.91l.24-26.84A5.22,5.22,0,0,0,162.06,145.89Z"/><path class="cls-1" d="M172.53,150.37h0a5.1,5.1,0,0,0-6.05,4L162,180.83a5.2,5.2,0,0,0,4,6h0a5.15,5.15,0,0,0,6.05-4l4.51-26.46A5.21,5.21,0,0,0,172.53,150.37Z"/><polygon class="cls-1" points="199.28 188.41 167.02 196.25 151.31 174.74 153.8 157.66 194.57 171.36 199.28 188.41"/><path class="cls-1" d="M183.27,155.85h0a5.09,5.09,0,0,0-6.9,2.21L164.85,182.3a5.19,5.19,0,0,0,2.21,6.9h0A5.14,5.14,0,0,0,174,187l11.52-24.24A5.19,5.19,0,0,0,183.27,155.85Z"/><path class="cls-2" d="M191.13,188.58c7.75,7.34,22.49-.45,24.87-7.75s-3.82-15.31-13.85-19.21-19.37,1.44-20.52,5.31S183.38,181.23,191.13,188.58Z"/><path class="cls-2" d="M204.77,187.91h0c-.18-2.81-2.73-5.54-5.44-4.79l-33.05,9.16c-2.71.75-5,2.62-4.79,5.44h0a5.15,5.15,0,0,0,5.44,4.79l33-9.16C202.7,192.6,205,190.72,204.77,187.91Z"/><path class="cls-2" d="M148.43,176.53h0a5.18,5.18,0,0,0-.28,7.24l14.4,16.75a5.08,5.08,0,0,0,7.24.28h0a5.14,5.14,0,0,0,.28-7.24l-14.4-16.75A5.07,5.07,0,0,0,148.43,176.53Z"/><path class="cls-2" d="M148.51,147.57h0a5.1,5.1,0,0,0-4.78,5.46l2.65,26.71a5.19,5.19,0,0,0,5.45,4.77h0a5.14,5.14,0,0,0,4.77-5.45L154,152.34A5.2,5.2,0,0,0,148.51,147.57Z"/><path class="cls-3" d="M163,186.83c4.79-.6,25.32-3.91,18.43-14S203,176.46,203,176.46L191.74,193S173,200.76,163,186.83Z"/><polygon class="cls-2" points="203.92 163.79 246.93 173.18 248.81 190.41 229.84 198.49 199.4 191.84 203.92 163.79"/><polygon class="cls-4" points="3.61 127.65 13.85 214.61 169.42 214.61 159.17 127.65 3.61 127.65"/><polygon class="cls-4" points="3.61 105.47 15.66 187.71 171.23 187.71 159.17 105.47 3.61 105.47"/><path class="cls-5" d="M159.17,127.66H3.61c-2.14-3-3.61-9.09-3.61-16.11s1.47-13.11,3.61-16.1H159.17c-2.14,3-3.6,9.08-3.6,16.1S157,124.66,159.17,127.66Z"/><polygon class="cls-4" points="3.61 95.44 13.85 8.49 169.41 8.49 159.17 95.44 3.61 95.44"/><path class="cls-6" d="M5.8,112.43H161.37l19.2,69.3A133.28,133.28,0,0,1,171.63,205H16.07L3.61,127.66h0C5,124.3,5.72,118.4,5.8,112.43Z"/><path class="cls-7" d="M16.07,205c.11-6.17,7.82-20.18,9.23-24.06l155.27.81A133.28,133.28,0,0,1,171.63,205Z"/><path class="cls-6" d="M3.61,127.66,16.07,205A142.41,142.41,0,0,0,25,181.73L5.8,112.43c-.08,6-.81,11.87-2.19,15.22h0Z"/><path class="cls-8" d="M5.8,112.43H161.37l19.2,69.3L25.3,180.92q-.15.38-.3.81Z"/><path class="cls-6" d="M3.61,97.2,16.07,19.88H171.63c1.41,1.18,3.22,4.24,4.16,9.22l-14.42,83.33H5.8c-.08-6-.81-11.88-2.19-15.23Z"/><path class="cls-6" d="M3.61,97.2,16.07,19.88c1.61,3.24,3.12,6.67,4.52,10.26L5.8,112.43c-.08-6-.81-11.88-2.19-15.23Z"/><path class="cls-8" d="M5.8,112.43H161.37l14.49-83.1-155.27.81q-.15-.39-.3-.81Z"/><path class="cls-6" d="M5.8,112.43H161.37L181.56,38l-155.27.81L26,38Z"/><polygon class="cls-9" points="11.41 132.47 8.6 122.51 4.64 134.08 6.63 146.44 11.41 132.47"/><path class="cls-7" d="M16.07,19.88a106.14,106.14,0,0,1,4.52,10.26l155.27-.81c-.6-3.88-1.69-7-4.23-9.45Z"/><polygon class="cls-7" points="26.08 99.98 33 99.98 46.77 49.17 39.85 49.17 26.08 99.98"/><polygon class="cls-7" points="38.8 99.98 42.61 99.98 50.2 72.01 46.39 72.01 38.8 99.98"/><polygon class="cls-7" points="46.52 99.98 50.33 99.98 57.91 72.01 54.1 72.01 46.52 99.98"/><polygon class="cls-7" points="54.23 99.98 58.04 99.98 65.63 72.01 61.82 72.01 54.23 99.98"/><polygon class="cls-7" points="61.95 99.98 65.76 99.98 73.34 72.01 69.53 72.01 61.95 99.98"/><polygon class="cls-7" points="69.67 99.98 73.47 99.98 81.06 72.01 77.25 72.01 69.67 99.98"/><polygon class="cls-7" points="77.38 99.98 81.19 99.98 88.77 72.01 84.96 72.01 77.38 99.98"/><polygon class="cls-7" points="47.83 68.39 89.92 68.39 95 49.68 52.9 49.68 47.83 68.39"/><polygon class="cls-7" points="105.25 99.98 147.35 99.98 152.42 81.27 110.33 81.27 105.25 99.98"/><polygon class="cls-7" points="92.33 99.98 99.25 99.98 113.02 49.17 106.11 49.17 92.33 99.98"/><polygon class="cls-7" points="111.44 77.17 115.25 77.17 122.83 49.19 119.02 49.19 111.44 77.17"/><polygon class="cls-7" points="119.15 77.17 122.96 77.17 130.55 49.19 126.74 49.19 119.15 77.17"/><polygon class="cls-7" points="126.87 77.17 130.68 77.17 138.26 49.19 134.45 49.19 126.87 77.17"/><polygon class="cls-7" points="134.58 77.17 138.39 77.17 145.98 49.19 142.17 49.19 134.58 77.17"/><polygon class="cls-7" points="142.3 77.17 146.11 77.17 153.69 49.19 149.88 49.19 142.3 77.17"/><polygon class="cls-7" points="150.01 77.17 153.82 77.17 161.41 49.19 157.6 49.19 150.01 77.17"/><polygon class="cls-10" points="41.55 172.18 48.47 172.18 32.75 121.37 25.83 121.37 41.55 172.18"/><polygon class="cls-10" points="54.28 172.18 58.09 172.18 49.43 144.2 45.62 144.2 54.28 172.18"/><polygon class="cls-10" points="61.99 172.18 65.8 172.18 57.14 144.2 53.33 144.2 61.99 172.18"/><polygon class="cls-10" points="69.71 172.18 73.52 172.18 64.86 144.2 61.05 144.2 69.71 172.18"/><polygon class="cls-10" points="77.42 172.18 81.23 172.18 72.57 144.2 68.76 144.2 77.42 172.18"/><polygon class="cls-10" points="85.14 172.18 88.94 172.18 80.29 144.2 76.48 144.2 85.14 172.18"/><polygon class="cls-10" points="92.85 172.18 96.66 172.18 88 144.2 84.19 144.2 92.85 172.18"/><polygon class="cls-10" points="44.96 140.58 87.05 140.58 81.27 121.87 39.17 121.87 44.96 140.58"/><polygon class="cls-10" points="121.02 172.39 163.12 172.39 157.33 153.68 115.23 153.68 121.02 172.39"/><polygon class="cls-10" points="107.8 172.18 114.72 172.18 99 121.37 92.08 121.37 107.8 172.18"/><polygon class="cls-10" points="114.05 149.85 117.86 149.85 109.2 121.87 105.39 121.87 114.05 149.85"/><polygon class="cls-10" points="121.76 149.85 125.57 149.85 116.92 121.87 113.11 121.87 121.76 149.85"/><polygon class="cls-10" points="129.48 149.85 133.29 149.85 124.63 121.87 120.82 121.87 129.48 149.85"/><polygon class="cls-10" points="137.19 149.85 141 149.85 132.35 121.87 128.54 121.87 137.19 149.85"/><polygon class="cls-10" points="144.91 149.85 148.72 149.85 140.06 121.87 136.25 121.87 144.91 149.85"/><polygon class="cls-10" points="152.62 149.85 156.43 149.85 147.78 121.87 143.97 121.87 152.62 149.85"/><polygon class="cls-11" points="11.41 132.47 8.6 122.51 30.95 122.51 28.12 127.49 33.76 132.47 11.41 132.47"/><path class="cls-2" d="M190.76,171.12h0a5.91,5.91,0,0,0-2.65-8.09l-27.49-11.59a6.2,6.2,0,0,0-8.09,2.65h0a6,6,0,0,0,2.64,8.08l27.5,11.59A6.2,6.2,0,0,0,190.76,171.12Z"/><rect class="cls-12" x="170.48" y="18.87" width="40.89" height="29.3" transform="translate(-2.68 23.94) rotate(-7.13)"/><path class="cls-2" d="M144.44,56.17c3.45-.5,7.63-1,12.57-1.65L143.18,66.14c-5.86,4.92-2.08,10.57,1.09,12.54L177.09,55c4.58-3.3,6-11.64,5.27-19.41-1.55-16.06-13.2-24.54-35.2-22.1l-17.31-1.44a5.16,5.16,0,1,0-.62,10.27l7.25.48a6.56,6.56,0,0,0-.9,1.29l-14.34.54c-7.4.2-6.19,10.4,0,10.28l11.9-.22a8.11,8.11,0,0,0,.05,1.14l-15,1.52c-6.78.69-5.65,10.93,1.08,10.23l17.44-1.77c.3.43.61.85.94,1.26l-34.42,7.14c-6.55,1.36-4.69,11.48,2.14,10.06Z"/><polygon class="cls-13" points="285.28 43.45 190.87 55.26 185.52 12.47 285.28 0 285.28 43.45"/><polygon class="cls-13" points="285.28 176.69 222.85 162.6 213.82 204.76 285.28 220.06 285.28 176.69"/><rect class="cls-14" x="181.48" y="15.01" width="6.72" height="38.24" transform="translate(-2.81 23.18) rotate(-7.12)"/><rect class="cls-14" x="195.95" y="179.25" width="38.24" height="6.72" transform="translate(-7.49 356) rotate(-78.25)"/></g></g></svg>