<svg xmlns="http://www.w3.org/2000/svg" viewBox="0 0 224.84 227.7"><defs><style>.cls-1{fill:#e3bd96;}.cls-1,.cls-10,.cls-12,.cls-2,.cls-6,.cls-8{fill-rule:evenodd;}.cls-2{fill:#f3d5b6;}.cls-3{fill:#272424;}.cls-4{fill:#fff;}.cls-5{fill:#8dc3e3;}.cls-12,.cls-6,.cls-9{fill:#eecba5;}.cls-7{fill:#e4e4e4;}.cls-8{fill:#00b4c4;}.cls-10{fill:#d89f00;}.cls-11{fill:#ffc200;}.cls-12{stroke:#eecba5;stroke-miterlimit:22.93;stroke-width:0.22px;}</style></defs><title>Livre_2</title><g id="Calque_2" data-name="Calque 2"><g id="Calque_1-2" data-name="Calque 1"><path class="cls-1" d="M70.34,109h0a5.09,5.09,0,0,0-4.73-5.49l-26.82-1.13a5.21,5.21,0,0,0-5.49,4.73h0A5.13,5.13,0,0,0,38,112.64l26.82,1.13A5.2,5.2,0,0,0,70.34,109Z"/><path class="cls-1" d="M65.52,119.36h0a5.08,5.08,0,0,0-3.8-6.17l-26.29-5.38a5.2,5.2,0,0,0-6.18,3.79h0a5.14,5.14,0,0,0,3.8,6.17l26.3,5.39A5.2,5.2,0,0,0,65.52,119.36Z"/><path class="cls-2" d="M69.11,95.44h0a5.08,5.08,0,0,0-5.29-5L37,92.25a5.2,5.2,0,0,0-4.95,5.29h0a5.13,5.13,0,0,0,5.29,4.95l26.78-1.76A5.18,5.18,0,0,0,69.11,95.44Z"/><rect class="cls-3" x="42.26" width="177.99" height="124.8" rx="25.79" ry="25.79"/><rect class="cls-4" x="57.18" y="8.86" width="146.65" height="107.08" rx="0.38" ry="0.38"/><rect class="cls-5" x="47.3" y="49.91" width="3.16" height="24.99" rx="1.58" ry="1.58"/><circle class="cls-5" cx="211.79" cy="62.4" r="4.56"/><path class="cls-6" d="M44.18,136.89h0a5.89,5.89,0,0,0,8.17-2.38l12.5-27.09a6.2,6.2,0,0,0-2.38-8.17h0a6,6,0,0,0-8.17,2.37l-12.49,27.1A6.19,6.19,0,0,0,44.18,136.89Z"/><rect class="cls-7" x="75.74" y="21.12" width="95.82" height="10.09"/><rect class="cls-7" x="75.74" y="35.3" width="111.03" height="3.48"/><rect class="cls-7" x="75.74" y="43.23" width="67.71" height="3.48"/><rect class="cls-7" x="75.74" y="51.16" width="67.71" height="3.48"/><rect class="cls-7" x="75.74" y="59.08" width="67.71" height="3.48"/><rect class="cls-7" x="75.74" y="67.01" width="111.03" height="3.48"/><rect class="cls-7" x="75.74" y="74.94" width="111.03" height="3.48"/><rect class="cls-7" x="75.74" y="82.87" width="67.71" height="3.48"/><rect class="cls-7" x="75.74" y="90.8" width="67.71" height="3.48"/><rect class="cls-7" x="75.74" y="98.72" width="67.71" height="3.48"/><rect class="cls-7" x="75.74" y="106.65" width="111.03" height="3.48"/><rect class="cls-7" x="149.79" y="43.23" width="36.98" height="19.33"/><rect class="cls-7" x="149.79" y="82.87" width="36.98" height="19.33"/><polygon class="cls-8" points="176.04 8.86 186 8.86 186 31.21 181.02 26.98 176.04 31.21 176.04 8.86"/><rect class="cls-9" x="180.55" y="137.71" width="29.3" height="40.89" transform="translate(-16.68 23.16) rotate(-6.51)"/><path class="cls-6" d="M173.05,111.44c.46,3.44.93,7.63,1.52,12.58l-11.48-14c-4.85-5.9-10.54-2.19-12.55,1l23.32,33.08c3.25,4.61,11.58,6.14,19.36,5.47,16.07-1.38,24.68-12.94,22.47-35l1.63-17.29a5.16,5.16,0,1,0-10.26-.73l-.57,7.25a6.47,6.47,0,0,0-1.27-.92l-.39-14.34c-.12-7.4-10.34-6.3-10.28-.08l.09,11.9a8.21,8.21,0,0,0-1.14,0l-1.36-15.06c-.61-6.8-10.87-5.78-10.24,1l1.59,17.45c-.44.29-.86.6-1.27.93l-6.78-34.49c-1.29-6.57-11.43-4.82-10.09,2Z"/><polygon class="cls-10" points="181.44 227.7 173.47 157.86 216.31 152.97 224.84 227.7 181.44 227.7"/><rect class="cls-11" x="175.43" y="169.64" width="43.12" height="8.39" transform="translate(-18.45 23.47) rotate(-6.51)"/><rect class="cls-11" x="177.76" y="190.04" width="43.12" height="8.39" transform="translate(-20.75 23.86) rotate(-6.51)"/><rect class="cls-11" x="180.09" y="210.43" width="43.12" height="8.39" transform="translate(-23.05 24.26) rotate(-6.51)"/><polygon class="cls-1" points="26.62 144.84 19.86 112.34 41.87 97.35 58.86 100.4 43.81 140.69 26.62 144.84"/><path class="cls-1" d="M59.69,129.92h0a5.08,5.08,0,0,0-2-7L33.87,110.63a5.21,5.21,0,0,0-7,2h0a5.14,5.14,0,0,0,2,7L52.72,131.9A5.2,5.2,0,0,0,59.69,129.92Z"/><path class="cls-6" d="M26.72,136.69c-7.59,7.5-.29,22.49,6.92,25.11s15.43-3.32,19.66-13.2-.8-19.42-4.63-20.69S34.32,129.18,26.72,136.69Z"/><path class="cls-6" d="M26.94,150.34h0c2.82-.09,5.62-2.55,5-5.28l-8-33.33c-.66-2.73-2.47-5-5.28-5h0a5.15,5.15,0,0,0-5,5.28l8.06,33.34C22.32,148.12,24.12,150.43,26.94,150.34Z"/><path class="cls-6" d="M40.17,94.41h0A5.18,5.18,0,0,0,33,93.89L15.73,107.73a5.09,5.09,0,0,0-.52,7.23h0a5.15,5.15,0,0,0,7.23.52l17.21-13.84A5.07,5.07,0,0,0,40.17,94.41Z"/><path class="cls-12" d="M29.4,108.59c.44,4.81,3.07,25.44,13.37,18.88s-4.33,21.46-4.33,21.46L22.26,137.15S15.14,118.21,29.4,108.59Z"/><polygon class="cls-6" points="51.08 150.29 40.27 192.97 22.98 194.27 15.54 175.05 23.19 144.85 51.08 150.29"/><polygon class="cls-10" points="53.81 167.15 43.36 227.7 0 227.7 11.28 160.05 53.81 167.15"/><rect class="cls-11" x="26.21" y="155.14" width="8.39" height="43.12" transform="translate(-148.88 177.62) rotate(-80.53)"/><rect class="cls-11" x="22.84" y="175.39" width="8.39" height="43.12" transform="translate(-171.68 191.21) rotate(-80.53)"/><rect class="cls-11" x="19.46" y="195.64" width="8.39" height="43.12" transform="translate(-194.47 204.8) rotate(-80.53)"/></g></g></svg>