<svg xmlns="http://www.w3.org/2000/svg" viewBox="0 0 42.49 33.22"><defs><style>.cls-1{fill:#fff;}.cls-2{fill:#4980c3;}</style></defs><title>Fichier 3</title><g id="Calque_2" data-name="Calque 2"><g id="Calque_1-2" data-name="Calque 1"><path class="cls-1" d="M37.06,20.11H5.42a2.72,2.72,0,0,0-2.55,1.81L.15,29.61a2.71,2.71,0,0,0,2.56,3.61H39.78a2.7,2.7,0,0,0,2.55-3.61l-2.71-7.69a2.72,2.72,0,0,0-2.56-1.81Z"/><rect class="cls-2" x="18.86" y="31.36" width="4.76" height="0.79"/><path class="cls-1" d="M37.06,19.89H5.42V2.71H37.06m0-2.71H5.42A2.71,2.71,0,0,0,2.71,2.71V22.6H39.78V2.71A2.71,2.71,0,0,0,37.06,0Z"/></g></g></svg>