<svg xmlns="http://www.w3.org/2000/svg" viewBox="0 0 157.67 186.29"><defs><style>.cls-1{fill:#dd992c;}.cls-1,.cls-11,.cls-2,.cls-3,.cls-5,.cls-6,.cls-8,.cls-9{fill-rule:evenodd;}.cls-2,.cls-4{fill:#cd8b25;}.cls-3{fill:#fff;}.cls-5,.cls-7{fill:#a73b4f;}.cls-6{fill:#bd485e;}.cls-10,.cls-8{fill:#86c3c6;}.cls-9{fill:#97d6d9;}.cls-11{fill:#b6e8eb;}</style></defs><title>Fichier 2</title><g id="Calque_2" data-name="Calque 2"><g id="Calque_1-2" data-name="Calque 1"><path class="cls-1" d="M4.83,29.79V180.67c2.44-5.73,4.65-6.49,10.33-6.49H128.31V19.47H15.16A10.36,10.36,0,0,0,4.83,29.79Z"/><path class="cls-2" d="M10.89,186.29H128.31V174.18H10.89a6.08,6.08,0,0,0-6.06,6.06h0A6.07,6.07,0,0,0,10.89,186.29Z"/><path class="cls-3" d="M10.89,184.88H128.31V175.6H10.89a4.64,4.64,0,1,0,0,9.28Z"/><rect class="cls-4" x="15.16" y="19.47" width="4.9" height="154.71"/><path class="cls-5" d="M23.75,161.26l97.51-10.15-1.85-17.79L21.9,143.47a9,9,0,0,0-8,9.82h0A9,9,0,0,0,23.75,161.26Z"/><path class="cls-3" d="M23.54,159.18,121,149l-1.42-13.63-97.5,10.15a6.85,6.85,0,1,0,1.42,13.63Z"/><path class="cls-6" d="M.05,20,13.93,153.29a9,9,0,0,1,8-9.82l97.51-10.15C114.31,84.41,110.62,48.91,105.52,0L8,10.15A9,9,0,0,0,.05,20Z"/><rect class="cls-7" x="15.05" y="9.57" width="4.24" height="136.13" transform="translate(-7.95 2.2) rotate(-5.95)"/><path class="cls-8" d="M61.84,173.75,157.67,153l-3.78-17.49L58.06,156.27a9,9,0,0,0-6.85,10.63h0A9,9,0,0,0,61.84,173.75Z"/><path class="cls-3" d="M61.4,171.71,157.22,151l-2.89-13.4L58.51,158.31a6.85,6.85,0,1,0,2.89,13.4Z"/><path class="cls-9" d="M22.9,35.88l28.31,131a9,9,0,0,1,6.85-10.63l95.83-20.72-28.32-131L29.75,25.25A9,9,0,0,0,22.9,35.88Z"/><rect class="cls-10" x="44.08" y="23.27" width="4.24" height="136.13" transform="translate(-18.25 11.82) rotate(-12.19)"/><polygon class="cls-11" points="53.8 58.91 121.16 44.57 124.01 57.75 56.65 72.09 53.8 58.91"/><polygon class="cls-11" points="58.08 78.69 125.43 64.34 128.28 77.52 60.93 91.87 58.08 78.69"/><polygon class="cls-11" points="63.78 105.05 131.13 90.7 132.11 95.25 64.76 109.6 63.78 105.05"/><polygon class="cls-11" points="65.74 114.15 133.1 99.8 134.08 104.35 66.73 118.7 65.74 114.15"/></g></g></svg>