<svg xmlns="http://www.w3.org/2000/svg" viewBox="0 0 714.94 170.3"><defs><style>.cls-1{fill:#8fa000;}.cls-2{fill:#a6dae9;}.cls-3{fill:#8fc4d7;}.cls-4{fill:#fff;}.cls-5{fill:#2c5871;}.cls-6{fill:#fec00f;}.cls-7{fill:#d1ecfb;}.cls-8{fill:#15b0bf;}.cls-9{fill:#0e303f;}.cls-10{fill:#008a9d;}.cls-11{fill:#cdd3ce;}.cls-12{fill:#6b3a55;}.cls-13{fill:#f99b1c;}.cls-14{fill:#103754;}.cls-15{fill:#f3901d;}</style></defs><title>Application</title><g id="Calque_2" data-name="Calque 2"><g id="Calque_1-2" data-name="Calque 1"><path class="cls-1" d="M563,58.87H539.41a1,1,0,0,1-.95-.95V24.21a.94.94,0,0,1,.95-.95H563a1,1,0,0,1,.95.95V57.92a1,1,0,0,1-.95.95ZM540.35,57H562V25.15H540.35V57Z"/><path class="cls-1" d="M551.26,58.32a1,1,0,0,1-1-1V24.76a1,1,0,0,1,1.9,0V57.37a1,1,0,0,1-1,1Z"/><path class="cls-1" d="M563.12,36.17H539.4a.95.95,0,0,1,0-1.9h23.72a1,1,0,1,1,0,1.9Z"/><path class="cls-1" d="M563.12,47.46H539.4a.95.95,0,0,1,0-1.9h23.72a1,1,0,1,1,0,1.9Z"/><path class="cls-1" d="M533.79,41.3h-7.36a.95.95,0,0,1,0-1.89h7.36a.95.95,0,1,1,0,1.89Z"/><path class="cls-1" d="M517.8,17.72a1,1,0,0,1-.95-.95V12.45a1,1,0,0,1,1.9,0v4.32a1,1,0,0,1-1,.95Z"/><path class="cls-1" d="M542.43,17.72a1,1,0,0,1-.95-.95V12.45a.95.95,0,0,1,1.89,0v4.32a1,1,0,0,1-.94.95Z"/><path class="cls-1" d="M530.11,40.59a.94.94,0,0,1-.94-1V13.73a.95.95,0,0,1,1.89,0V39.64a.94.94,0,0,1-.95,1Z"/><path class="cls-1" d="M542.43,13.4H517.8a.95.95,0,1,1,0-1.89h24.63a.95.95,0,0,1,0,1.89Z"/><path class="cls-1" d="M698.44,143.76V130a2.29,2.29,0,0,0-2.29-2.29H648.6a2.29,2.29,0,0,0-2.29,2.29v13.75a2.3,2.3,0,0,0,2.29,2.29h47.55A2.3,2.3,0,0,0,698.44,143.76Z"/><rect class="cls-1" x="590.35" y="99.75" width="29.74" height="58.53" rx="4.53" ry="4.53"/><polygon class="cls-2" points="684.78 118.1 604.71 118.1 600.58 114.23 604.71 67.48 680.64 63.61 684.78 67.48 684.78 118.1"/><path class="cls-3" d="M661.07,64.6,646.14,79.53l38.57,38.57h.07V67.48l-4.14-3.87Z"/><rect class="cls-4" x="600.58" y="63.61" width="80.07" height="50.62"/><path class="cls-5" d="M606.52,65.67a.78.78,0,0,1-.78.78h0a.78.78,0,0,1-.77-.78v-4.9a.78.78,0,0,1,.77-.78h0a.78.78,0,0,1,.78.78Z"/><path class="cls-5" d="M610.39,65.67a.77.77,0,0,1-.77.78h0a.78.78,0,0,1-.78-.78v-4.9a.78.78,0,0,1,.78-.78h0a.77.77,0,0,1,.77.78Z"/><path class="cls-5" d="M614.27,65.67a.78.78,0,0,1-.78.78h0a.77.77,0,0,1-.77-.78v-4.9a.77.77,0,0,1,.77-.78h0a.78.78,0,0,1,.78.78Z"/><path class="cls-5" d="M618.14,65.67a.78.78,0,0,1-.77.78h0a.78.78,0,0,1-.78-.78v-4.9a.78.78,0,0,1,.78-.78h0a.78.78,0,0,1,.77.78Z"/><path class="cls-5" d="M622,65.67a.78.78,0,0,1-.78.78h0a.77.77,0,0,1-.77-.78v-4.9a.77.77,0,0,1,.77-.78h0a.78.78,0,0,1,.78.78Z"/><path class="cls-5" d="M625.89,65.67a.78.78,0,0,1-.78.78h0a.78.78,0,0,1-.77-.78v-4.9a.78.78,0,0,1,.77-.78h0a.78.78,0,0,1,.78.78Z"/><path class="cls-5" d="M629.76,65.67a.77.77,0,0,1-.77.78h0a.78.78,0,0,1-.78-.78v-4.9A.78.78,0,0,1,629,60h0a.77.77,0,0,1,.77.78Z"/><path class="cls-5" d="M633.64,65.67a.78.78,0,0,1-.78.78h0a.78.78,0,0,1-.77-.78v-4.9a.78.78,0,0,1,.77-.78h0a.78.78,0,0,1,.78.78Z"/><path class="cls-5" d="M637.51,65.67a.78.78,0,0,1-.77.78h0a.78.78,0,0,1-.78-.78v-4.9a.78.78,0,0,1,.78-.78h0a.78.78,0,0,1,.77.78Z"/><path class="cls-5" d="M641.39,65.67a.78.78,0,0,1-.78.78h0a.77.77,0,0,1-.77-.78v-4.9a.77.77,0,0,1,.77-.78h0a.78.78,0,0,1,.78.78Z"/><path class="cls-5" d="M645.26,65.67a.78.78,0,0,1-.77.78h0a.78.78,0,0,1-.78-.78v-4.9a.78.78,0,0,1,.78-.78h0a.78.78,0,0,1,.77.78Z"/><path class="cls-5" d="M649.13,65.67a.77.77,0,0,1-.77.78h0a.78.78,0,0,1-.78-.78v-4.9a.78.78,0,0,1,.78-.78h0a.77.77,0,0,1,.77.78Z"/><path class="cls-5" d="M653,65.67a.78.78,0,0,1-.78.78h0a.78.78,0,0,1-.77-.78v-4.9a.78.78,0,0,1,.77-.78h0a.78.78,0,0,1,.78.78Z"/><path class="cls-5" d="M656.88,65.67a.77.77,0,0,1-.77.78h0a.78.78,0,0,1-.78-.78v-4.9a.78.78,0,0,1,.78-.78h0a.77.77,0,0,1,.77.78Z"/><path class="cls-5" d="M660.76,65.67a.78.78,0,0,1-.78.78h0a.77.77,0,0,1-.77-.78v-4.9A.77.77,0,0,1,660,60h0a.78.78,0,0,1,.78.78Z"/><path class="cls-5" d="M664.63,65.67a.78.78,0,0,1-.77.78h0a.78.78,0,0,1-.78-.78v-4.9a.78.78,0,0,1,.78-.78h0a.78.78,0,0,1,.77.78Z"/><path class="cls-5" d="M668.51,65.67a.78.78,0,0,1-.78.78h0a.77.77,0,0,1-.77-.78v-4.9a.77.77,0,0,1,.77-.78h0a.78.78,0,0,1,.78.78Z"/><path class="cls-5" d="M672.38,65.67a.78.78,0,0,1-.78.78h0a.78.78,0,0,1-.77-.78v-4.9a.78.78,0,0,1,.77-.78h0a.78.78,0,0,1,.78.78Z"/><path class="cls-5" d="M676.25,65.67a.77.77,0,0,1-.77.78h0a.78.78,0,0,1-.78-.78v-4.9a.78.78,0,0,1,.78-.78h0a.77.77,0,0,1,.77.78Z"/><rect class="cls-2" x="606.68" y="75.67" width="42.31" height="1.69"/><rect class="cls-2" x="606.68" y="79.73" width="33.51" height="1.69"/><rect class="cls-2" x="606.68" y="88.84" width="67.63" height="1.69"/><rect class="cls-2" x="606.68" y="93.04" width="67.63" height="1.69"/><rect class="cls-2" x="606.68" y="97.23" width="67.63" height="1.69"/><rect class="cls-2" x="606.68" y="101.43" width="67.63" height="1.69"/><path class="cls-1" d="M561.3,45.4a27.9,27.9,0,1,0,27.89,27.9A27.9,27.9,0,0,0,561.3,45.4Zm0,33.06a5.17,5.17,0,1,1,5.16-5.16A5.16,5.16,0,0,1,561.3,78.46Z"/><path class="cls-4" d="M560.26,45a27.9,27.9,0,1,0,27.9,27.89A27.89,27.89,0,0,0,560.26,45Zm0,33.06a5.17,5.17,0,1,1,5.17-5.17A5.16,5.16,0,0,1,560.26,78.07Z"/><path class="cls-6" d="M560.26,62.57A10.34,10.34,0,1,0,570.59,72.9,10.34,10.34,0,0,0,560.26,62.57Zm0,15.5a5.17,5.17,0,1,1,5.17-5.17A5.16,5.16,0,0,1,560.26,78.07Z"/><polygon class="cls-1" points="321.74 142.14 295.15 142.14 257.64 63.25 284.23 63.25 321.74 142.14"/><path class="cls-1" d="M224.58,143.26h-.06a.26.26,0,0,1-.14-.11,1.51,1.51,0,0,1-.14-.35,7.09,7.09,0,0,1-2.26.2l-.16,0h0a2.63,2.63,0,0,1-1.94-1.27,2.48,2.48,0,0,1-.14-2.06,10.72,10.72,0,0,1,3.09-4,3,3,0,0,1-.47-.63,1.86,1.86,0,0,1-.11-1.56,6.84,6.84,0,0,1,1.58-2.39h0a.19.19,0,0,1-.14-.11,3.09,3.09,0,0,1-.18-2.64,12.75,12.75,0,0,1,3.89-4.88,18.63,18.63,0,0,1,4.86-4.39l-2.26,1.15a.21.21,0,0,1-.3-.1.23.23,0,0,1,.08-.31l1.54-.88a2.8,2.8,0,0,1-1.34.3.39.39,0,0,1-.27-.19.24.24,0,0,1,.08-.32l1.23-.74a2.2,2.2,0,0,1,.11-1.07,3.39,3.39,0,0,1,.35-.68.79.79,0,0,1-.18-.22.23.23,0,0,1,.08-.31l1.89-1.22a20.06,20.06,0,0,1,1.92-1.23L271.3,89.89a1.83,1.83,0,0,0-1.17-.66,7.47,7.47,0,0,0-3.48.55l-31.6,21.56a.23.23,0,0,1-.28-.37c.36-.31,3.39-2.85,7.57-6.11a6.15,6.15,0,0,1-2.85.32,2.62,2.62,0,0,1-.65-.22l-1.64,1a.24.24,0,0,1-.32-.08.23.23,0,0,1,.08-.32l1.42-.86a2.22,2.22,0,0,1-.43-.53,1.25,1.25,0,0,1-.09-1,3.92,3.92,0,0,1,1-1.5,2,2,0,0,1-.82.08.52.52,0,0,1-.34-.23,1,1,0,0,1-.06-.79c.62-2.11,7-6.22,15.83-11.12,2.74-2.16,5.56-4.37,8.25-6.35L243.28,93.84a.23.23,0,0,1-.32-.08.24.24,0,0,1,.08-.32c14.57-8.85,36.34-22.32,37.73-23.8a2,2,0,0,0-1.37-.9,5.17,5.17,0,0,0-2.11.18l-19,12.78L257,82.8c-6.53,5.32-10.59,8.56-12.05,8.29a.67.67,0,0,1-.48-.33.23.23,0,0,1,.07-.31l13.53-9.12c2.69-2.18,5.53-4.47,8.29-6.51l-19.7,11.37a.23.23,0,0,1-.31-.08.23.23,0,0,1,.07-.32l16.92-11.08c-7.44,4.34-15.55,8.16-16.15,8.44a.24.24,0,0,1-.31-.1.23.23,0,0,1,.09-.31L272.55,68a8.9,8.9,0,0,0,2.8-3.37,1.44,1.44,0,0,0,0-.84c-2.38,1.93-20.08,16.07-25.6,16.08a3.28,3.28,0,0,1-.46,0,1.46,1.46,0,0,1-1.05-.7,1.39,1.39,0,0,1-.11-1.18c.29-.88,1.39-1.84,3-2.83,0,0,0-.09,0-.13a5.69,5.69,0,0,1,1.46-2.12.59.59,0,0,1-.39.12.28.28,0,0,1-.17-.12.78.78,0,0,1-.06-.62c.32-1.13,3.07-2.61,6-4.18.59-.32,1.2-.64,1.78-1,1.39-1,2.72-1.9,3.94-2.67a1.37,1.37,0,0,0,.27-.45s0,0,0-.06c-7.6,4.45-9.49,5.52-10,5.76h0c-.16.07-.18.06-.21.06a.24.24,0,0,1-.11-.4l5.17-5c-3.35,2.07-3.58,2-3.68,2a.24.24,0,0,1-.16-.12.22.22,0,0,1,0-.29,11.39,11.39,0,0,0,2.2-2.29c-.44.27-.49.26-.57.24a.29.29,0,0,1-.15-.12.23.23,0,0,1,.09-.31.13.13,0,0,1,.08,0c.11,0,.45-.26.73-.44a.2.2,0,0,1,.18,0,.19.19,0,0,1,.15.11c.27.47-.42,1.35-1.19,2.12,1.05-.61,2.53-1.51,3.89-2.38a.24.24,0,0,1,.31.06.24.24,0,0,1,0,.31l-5.5,5.32c2.1-1.2,6-3.47,8.8-5.13a.22.22,0,0,1,.18,0,.26.26,0,0,1,.14.11.77.77,0,0,1,.1.54c2.07-1.24,3.73-2,4.66-1.78a1,1,0,0,1,.66.46.25.25,0,0,1,0,.19.28.28,0,0,1-.12.14c-.17.07-15.73,7.43-17.88,11.74A98.54,98.54,0,0,1,261.75,70l.1-.07c5-3.71,9.78-7.22,11.38-6.89a.75.75,0,0,1,.57,1c-.49,1.47-5.35,3.56-11,6l-.84.37c-5.53,4.07-9,6.52-10.25,6.26a.63.63,0,0,1-.44-.31,1.55,1.55,0,0,1-.21-.67,5.89,5.89,0,0,0-2.48,2.4.93.93,0,0,0,.07.8,1,1,0,0,0,.73.47c4.93.91,25.72-16,25.93-16.13a.23.23,0,0,1,.35.06,1.79,1.79,0,0,1,.1,1.46A6.29,6.29,0,0,1,274.28,67l7.47-4.31A.23.23,0,0,1,282,63l-28.41,18.6,17.13-9.88a36.57,36.57,0,0,1,3.92-2.27l6.93-4a.23.23,0,0,1,.31.08.24.24,0,0,1-.07.32l-3.53,2.38a4.11,4.11,0,0,1,1.22,0,2.43,2.43,0,0,1,1.75,1.22c.19.32.38.65-18.86,12.6l-4.09,2.53L266.41,80a42.9,42.9,0,0,1,3.78-2.18L280.25,72a.23.23,0,0,1,.18,0,.21.21,0,0,1,.14.1,1.16,1.16,0,0,1,.07.94c-.31,1.08-1.89,2.63-4.25,4.46l.08.13a.25.25,0,0,1,0,.19c0,.14-.05.19-2.63,1.53C266.4,84.51,254.54,91.12,247,95.17c-3.5,2.63-5.78,4.09-6.76,3.9a.69.69,0,0,1-.46-.31,5.37,5.37,0,0,0-1.69,2,.54.54,0,0,0,0,.42c.14.13.56.07,1.21-.17a1,1,0,0,1-.11-.17.24.24,0,0,1,.08-.32l38-22.25a.24.24,0,0,1,.31.08.23.23,0,0,1-.07.32l-.49.32a1.05,1.05,0,0,1,.07.84c-.23.76-1.26,1.71-2.84,2.79.67-.43,1.06-.59,1.28-.55a.31.31,0,0,1,.22.16.22.22,0,0,1-.08.31l-3.55,2.16c-.75.56-1.59,1.2-2.47,1.88l4.95-2.86a.24.24,0,0,1,.31.07.23.23,0,0,1-.07.32l-7.06,4.82a6.08,6.08,0,0,1,2.34-.16,2.24,2.24,0,0,1,1.62,1.06.24.24,0,0,1-.08.31L239,111.24c1.22-.55,2.53-1.1,3.9-1.65l25.05-15.11a.22.22,0,0,1,.31.07.24.24,0,0,1-.05.32c-.28.19-1.83,1.3-4.17,2.93l5.21-3.16a.22.22,0,0,1,.3.06.23.23,0,0,1,0,.32L267.4,96.8a.52.52,0,0,1,.21,0,.45.45,0,0,1,.19.14,1.61,1.61,0,0,1,.12,1.4,4.14,4.14,0,0,1-1.37,1.66,3,3,0,0,1-.18,1.14,6.3,6.3,0,0,1-1.12,1.85l.05.07a.25.25,0,0,1,0,.19.2.2,0,0,1-.13.14l-.47.2a40,40,0,0,1-8.36,6.08c-1.59,1.27-3.31,2.65-5.11,4,1.69-.87,3.28-1.68,4.73-2.4,4.1-2.3,7-3.8,7.54-3.69a.43.43,0,0,1,.2.15.22.22,0,0,1,0,.18.25.25,0,0,1-.13.14c-.11,0-3.29,1.56-7.84,3.86-2.66,1.51-5.84,3.36-9.27,5.39-5.24,3.88-10.53,7.38-14.33,8.61-2.35,1.43-4.64,2.84-6.8,4.17a9.24,9.24,0,0,0-2.73,3.45,1.44,1.44,0,0,0,.07,1.18,3,3,0,0,0,.41.56c5.7-5,17-11.09,25.34-15.23L259.94,113a.23.23,0,0,1,.28.37c-.18.17-1.11,1-2.57,2.32l1-.43a.24.24,0,0,1,.3.1.22.22,0,0,1-.07.3c-.34.25-2.81,2-6.32,4.48-8.18,6.88-20.75,16.5-27,16.5h-.3A4.73,4.73,0,0,1,223,137a1,1,0,0,1-.59-.32,8.85,8.85,0,0,0-2.23,3.13,2,2,0,0,0,.11,1.69,2,2,0,0,0,1.35,1l34.58-22a.24.24,0,0,1,.31.06.22.22,0,0,1,0,.31c-.18.17-1.06.94-2.44,2.11a3.51,3.51,0,0,1,1.82-.44.55.55,0,0,1,.37.26,1.43,1.43,0,0,1,.11,1.2c-.36,1.13-2,2.4-4.34,3.76l-13.79,10.64c5.26-3.4,12.66-8,13.91-7.69a.39.39,0,0,1,.28.19.72.72,0,0,1,.06.58c-.35,1.29-3.95,3.34-7.77,5.51-3.23,1.84-6.89,3.92-7.16,4.91,0,.09,0,.13,0,.16.28.16,1.53-.41,3.32-1.44,1.16-.79,2.93-1.91,5.56-3.55l1.82-1.14,2.72-1.88a.26.26,0,0,1,.19,0,.23.23,0,0,1,.15.11c.14.25.18.32-2.81,2.2a1.28,1.28,0,0,1,.66-.09.48.48,0,0,1,.31.22.23.23,0,0,1,0,.27L245,141.73c.57-.32,1.49-1,2-1.35,1-.74,1.14-.82,1.31-.79a.28.28,0,0,1,.16.12c.09.17.23.4-1.94,1.85a.24.24,0,0,1,.16.11.23.23,0,0,1-.08.32l-.83.48a.23.23,0,0,1-.27,0,.22.22,0,0,1-.05-.08c-.6.39-.72.37-.79.35a.27.27,0,0,1-.17-.12.27.27,0,0,1,0-.23h-.05a.39.39,0,0,1-.25-.18.23.23,0,0,1,0-.27l4.62-5.3c-.92.15-4.17,2.43-6,3.71-2.71,1.91-3.5,2.42-3.84,2.34a.3.3,0,0,1-.19-.14c-.07-.12-.06-.25.11-.47a3.06,3.06,0,0,1-1.5.4.43.43,0,0,1-.31-.22.66.66,0,0,1-.06-.52c.3-1.09,3-2.69,7.38-5.18,3.4-1.94,7.26-4.13,7.55-5.23a.24.24,0,0,0,0-.22c-.9-.39-10.33,5.42-18.75,11.09a.23.23,0,0,1-.27-.38l16.5-12.73-1.44.71-11.45,6.61a60.48,60.48,0,0,1-9.25,5.34l-2.6,1.51a.27.27,0,0,1-.12,0Zm.71-2.61-2.89,1.84a13.72,13.72,0,0,0,2.2-1.07,4.73,4.73,0,0,1,.69-.77Zm-1,1.46c-.24.13-.47.24-.68.34.21,0,.42-.08.63-.13a1.6,1.6,0,0,1,0-.21Zm.67-.36a2.13,2.13,0,0,0-.21.43h0a20.12,20.12,0,0,0,2.34-.86l9-5.21q1.84-1.25,3.68-2.58c-2.21,1-4.43,2-6.47,3-3.57,2.35-6.38,4.14-8.36,5.25Zm16.22-.85c-.43.29-.81.55-1.12.78.4-.26.88-.59,1.39-.94l-.27.16Zm-11.59-2.52a23.88,23.88,0,0,0-3.39,2.12c1-.62,2.17-1.34,3.39-2.12Zm24.11-15.8-23.34,14.86c.86-.44,1.78-.9,2.75-1.36l4.3-2.85c6.5-4.33,11.6-7.68,14.85-9.43l1.44-1.22Zm-30.85,13.85a1,1,0,0,0,.23.08,3,3,0,0,0,1.13-.06,3.32,3.32,0,0,1-.81-.36l-.55.34Zm1-.62a3.52,3.52,0,0,0,1,.3l.42,0c5.72-2,18.91-10.79,26.88-16.32,1-.82,1.9-1.6,2.74-2.33-1.72.82-3.9,1.87-6.32,3.08l-24.7,15.23Zm23.88-12.38c-7.09,4.8-15.86,10.44-21,12.63,5.2-.84,13.86-6.93,21-12.63Zm-4.31-.24c-7,3.68-14.79,8.12-19.38,11.95l19.38-11.95Zm6.72,2.35c-3.52,2.12-8.16,5.2-12.47,8.07l-1.74,1.16,4-1.81,1.61-.72c3.14-2.33,6.13-4.7,8.57-6.7Zm-8.24,7.06-1.08.8,2.42-1.4-1.34.6Zm10.69-8.46c-2.34,2-5.52,4.55-9,7.19,1.47-.67,2.9-1.33,4.24-2l5-2.89a.24.24,0,0,1,.27,0c1.51-1,2.52-1.89,2.78-2.68a1,1,0,0,0-.07-.82s0,0-.07,0c-.46-.11-1.59.35-3.16,1.2Zm-25.61.2a11.08,11.08,0,0,0-3.08,4.07,2.7,2.7,0,0,0,0,2.06l1.25-.77a47.31,47.31,0,0,1,4.23-3.29,3.55,3.55,0,0,1-.47-.06,2.52,2.52,0,0,1-1.81-1.25,1.22,1.22,0,0,1-.15-.76Zm3.28,2c-.7.48-1.37,1-2,1.42l2.43-1.48-.42.06Zm-2.56-2.69a2.15,2.15,0,0,0-.2.45.84.84,0,0,0,0,.72,2.06,2.06,0,0,0,1.49,1,4,4,0,0,0,1.05,0,203.93,203.93,0,0,1,18.87-11c1.67-1.28,3.31-2.56,4.85-3.79a244,244,0,0,1-24.46,11.24c-.59.45-1.14.89-1.64,1.33Zm18.81-6.94c-5.28,2.85-10.88,6-15.33,9l.77-.21c4.19-2.56,9.39-5.7,14.35-8.64a1.66,1.66,0,0,0,.21-.16Zm-4.71,3.39c-2.35,1.4-4.74,2.84-7.1,4.28a60.23,60.23,0,0,0,7.1-4.28Zm-6.25-2.83a51.71,51.71,0,0,0-6,4.25h0a77.89,77.89,0,0,1,6.53-4.33l-.59.08Zm5.72-1.94-9.62,5.55c5.3-2.18,16.37-6.92,24.55-11.71l.19-.15c2.21-1.76,3.94-3.14,5.28-4.15-2.86,1.26-7.16,3.21-11.86,5.53l-2.21,1.27a66.38,66.38,0,0,1-6.33,3.66Zm-10.17,3-.48.29.52-.2a.36.36,0,0,1,0-.09Zm.4-.25,0,.1,1.47-1-1.51.91ZM258,114.71,252.7,118c1.34-.64,2.51-1.2,3.45-1.63l1.88-1.66Zm-26.21,1.66a3.18,3.18,0,0,0-.33.63,1.84,1.84,0,0,0-.11.64l1.59-1a1.5,1.5,0,0,1-.27-.29,2.24,2.24,0,0,1-.82,0Zm6,.45-1.29.76,1.35-.78-.06,0Zm18.65-.06-.22.18.36-.25-.14.07Zm-18.26-2.53-3.67,2.49c3.93-2.2,9.8-5.87,15.11-9.21l-.11,0c-4.05,2.58-8.09,5-11.33,6.68Zm11.8-4.68c-4.72,2.6-9.54,5.15-13.28,7.11l.76-.21c3.57-2.09,7.44-4.12,11.11-6l1.41-1Zm-16.74,6.73a1.07,1.07,0,0,0,.16.14l.56-.34c-.26.08-.49.15-.72.2Zm-1.09-.33h.35a.25.25,0,0,1,.11-.16l7.63-4.6a51.45,51.45,0,0,0-4.67,2.26l-2.29,1.47a7.71,7.71,0,0,0-1.13,1Zm11-6-9.5,5.73a20.15,20.15,0,0,0,2.65-1.06l4.54-2.75c1.21-.81,2.5-1.66,3.82-2.52l-1.51.6Zm8.63-3.29-6,3.78,7.52-4.34-1.51.56Zm4.24-1.6-6.35,3.66c1.8-.94,3.56-1.85,5.21-2.68l1.5-1.12-.36.14Zm6.44-6.76-17,10.23,1-.4c4.62-3,9.49-6,13.38-8.08l2.54-1.75Zm-8.44,9-1.19.86,6.88-4-2,1c-1.18.69-2.42,1.4-3.7,2.12Zm-10.17-3c-1.7,1.31-3.25,2.53-4.55,3.58l6.7-4.58c-.75.39-1.48.73-2.15,1Zm21.58-3.4a.26.26,0,0,1,.21.13.25.25,0,0,1-.09.31l-10.25,5.91c3.53-1.64,6.47-2.93,8.18-3.66a6.45,6.45,0,0,1,1.25-.69,6,6,0,0,0,1.24-2,2.61,2.61,0,0,0,.15-.63,16.34,16.34,0,0,1-1.56,1l.77-.37.1,0Zm-1.91,3.21c-1,.69-2.36,1.75-3.91,3a32.79,32.79,0,0,0,3.91-3Zm-6.43-1.55c-1.82,1.22-3.75,2.51-5.71,3.78l.19-.08,1-.6c5.3-3.35,9-5.66,11.4-7.09l-1.15.53-5.69,3.46Zm6.5-3.25c-2.63,1.58-6.24,3.86-9.87,6.15l2.11-.81,3.79-2.19c1.43-1.11,2.78-2.18,4-3.15Zm-5.52,5-.71.54.28-.14,1.23-.73-.8.33Zm-18.68.36a1,1,0,0,0,.23.06,7.44,7.44,0,0,0,3.87-.72c3.49-2.69,7.62-5.76,11.66-8.43l-15.76,9.09Zm.41-3.25a4.44,4.44,0,0,0-1.46,1.81.79.79,0,0,0,0,.66,1.59,1.59,0,0,0,.45.51l5.29-3.2a7.39,7.39,0,0,1-3.5.55,2.13,2.13,0,0,1-.83-.33Zm20.2,1.4-.52.4c.81-.34,1.58-.67,2.3-1a47.33,47.33,0,0,0,4.08-2.78L260,102.81Zm2.25-11a143.35,143.35,0,0,0-16.82,11.32c4.8-2.39,11.16-7,16.82-11.32Zm-22,9.32a1.69,1.69,0,0,0,.48.16c1.32.25,3.46-.44,6.07-1.7l12.1-7.32c2.2-1.51,4.39-3.07,6.44-4.57-2.14,1.09-4.45,2.21-6.78,3.36l-1.87.91c-6.63,4.05-13.09,7.79-16.44,9.16Zm25.94-3.26c-1,.85-2.27,1.86-3.63,3l3.42-2a.23.23,0,0,1,.31.09l.07.11a3,3,0,0,0,.88-1c0-.11-.06-.18-.23-.22a2,2,0,0,0-.73,0l-.09,0Zm-14.55-3.39a100.33,100.33,0,0,0-10,5.55c2.39-1.17,5.85-3.11,10-5.55Zm-7.53,2.29c-1.67.89-2.91,1.54-3.54,1.86.64,0,1.9-.73,3.54-1.86Zm7.06-5.35a99.47,99.47,0,0,0-10.27,6.52c1.15-.61,3.29-1.74,6-3.2,1.33-1,2.79-2.14,4.28-3.32Zm16,6a.8.8,0,0,1,.42.29,1.07,1.07,0,0,0-.12-.4,2,2,0,0,0-.3.11Zm-.23-.76-1.68,1c.25-.08.47-.15.68-.2l1-.82Zm1.74-12.69L251,94.27c1.78-.9,3.65-1.83,5.56-2.76,3.8-2.32,7.93-4.91,12.14-7.6Zm-14.9,6-.9.71-3.43,2.7c6.28-3.43,14.5-8.07,20.87-12.2-4.24,2.19-10.59,5.47-16.54,8.79Zm5.58,2.58-.85.59,8.26-4.77.46-.36,1.31-1-9.18,5.55Zm5.11-1.82L264,91l.64-.44-.17.08Zm-19.38,0c1.12.12,4.74-2.63,8.95-6l-8.95,6ZM267,88.7l-1.13.88.53-.2,3.17-2.16L267,88.7Zm7.58-8.06c-3.14,2-8.32,5.37-13.82,8.78,2.38-1.17,4.73-2.34,6.86-3.45,2.86-2.14,5.32-4,7-5.33Zm-6.64,5.68c-1,.77-2.1,1.56-3.21,2.37L272,84.32c.7-.52,1.28-.95,1.76-1.28-1.55,1-3.53,2.11-5.77,3.28Zm-1.16-6c-3.33,2.13-7.13,5-10.76,7.86,4.53-2.48,9.58-5.11,14.72-7.76l2.95-1.53c.73-.5,1.41-1,2-1.47a1.73,1.73,0,0,0-.83-.39c-1.08-.2-2.64.27-4.51,1.2l-3.61,2.09Zm10-.77c-.83.66-3.19,2.55-6.36,5,3.5-2,6-3.64,6.32-4.77a.72.72,0,0,0,0-.19Zm-7.15-9.32L253.4,79.55a152.36,152.36,0,0,0,16.22-9.36Zm1.16,2.06c-2.55,1.68-5.35,3.79-8.12,6l12.81-8.64-.42.2-4.27,2.46Zm3.6,4.23a3,3,0,0,1,.61.06,2.09,2.09,0,0,1,1.11.55c2.29-1.75,3.8-3.23,4.1-4.24a1.11,1.11,0,0,0,0-.35L273,76.67a5.76,5.76,0,0,1,1.35-.19Zm-22.81-1.12a1.09,1.09,0,0,0,.13.74.2.2,0,0,0,.13.09c1,.2,4.62-2.33,8.25-5a79.1,79.1,0,0,0-8.51,4.16Zm5.36-6.22c-2.17,1.19-4.23,2.41-4.46,3.2,0,0,0,0,0,.07.47-.28,1.7-1.2,3-2.17l1.48-1.1Zm15.84-.77c-.32.27-.66.55-1,.82l3.05-2-2,1.18Zm.2-4.92c-1.41,0-5.42,2.84-9.33,5.71,4.73-2,9.32-4.08,9.72-5.28a.28.28,0,0,0,0-.27.27.27,0,0,0-.2-.14l-.17,0Zm-13,4-.62.45c4.16-2.51,8.57-4.66,9.79-5.24l-.16-.05c-.9-.18-2.82.77-5,2.15a17.26,17.26,0,0,1-4,2.69Z"/><path class="cls-1" d="M225.25,142.89c-.49,0-.73,0-1,0s-.46,0-.92,0a2.82,2.82,0,0,1-1.08-.19,2.27,2.27,0,0,0-.83-.14,1.82,1.82,0,0,0-.72.18,1.6,1.6,0,0,1-.58.15,1,1,0,0,1-.83-.54,1.21,1.21,0,0,1,.06-1.61,3.93,3.93,0,0,0,.31-.53,2.48,2.48,0,0,1,.65-.87,1.74,1.74,0,0,0,.48-.64,2.23,2.23,0,0,0,.24-.79,3.36,3.36,0,0,1,.31-1c.21-.43.32-.64.43-.85s.22-.4.41-.8.29-.62.37-.83.19-.44.39-.87.28-.61.36-.82a7.39,7.39,0,0,1,.38-.88,5,5,0,0,1,.49-.86,4.5,4.5,0,0,0,.43-.76,3.13,3.13,0,0,1,.6-.87,2.45,2.45,0,0,0,.47-.68,3.75,3.75,0,0,1,.53-.87,3.75,3.75,0,0,0,.44-.72,4.5,4.5,0,0,0,.32-.82,7.67,7.67,0,0,1,.36-.92,7.15,7.15,0,0,0,.35-.82,8.81,8.81,0,0,1,.37-.89c.21-.43.3-.64.4-.85l.39-.83.4-.85.3-.67,0,0,.15-.2a10.39,10.39,0,0,0,.92-1.53,1.57,1.57,0,0,0,.18-.77,2.31,2.31,0,0,1,.25-1.08c.2-.43.31-.64.43-.85s.21-.4.4-.81.33-.64.45-.85.23-.39.42-.8a6,6,0,0,1,.49-.86,4.12,4.12,0,0,0,.43-.76,1.35,1.35,0,0,0,.15-.76A2.15,2.15,0,0,1,234,110a2.28,2.28,0,0,1,.72-.88,1.35,1.35,0,0,0,.5-.6,7.41,7.41,0,0,1,.48-.86,6.56,6.56,0,0,0,.43-.76,3.54,3.54,0,0,0,.28-.81,5.39,5.39,0,0,1,.34-1,1.61,1.61,0,0,0,.18-.77,2.2,2.2,0,0,1,.25-1.09,4,4,0,0,1,.55-.87,2.89,2.89,0,0,0,.46-.7,2.57,2.57,0,0,1,.64-.88,2.05,2.05,0,0,0,.48-.65,1.74,1.74,0,0,0,.18-.77,2.41,2.41,0,0,1,.25-1.08c.2-.43.32-.64.43-.85s.22-.4.41-.8a4.07,4.07,0,0,1,.54-.87,3.75,3.75,0,0,0,.44-.72c.21-.44.34-.65.46-.86a8.67,8.67,0,0,0,.42-.78,1.31,1.31,0,0,0,.13-.76,2,2,0,0,1,.21-1.14,4.73,4.73,0,0,1,.51-.87,4.29,4.29,0,0,0,.44-.74,8.81,8.81,0,0,0,.34-.82,7.55,7.55,0,0,1,.37-.9,2.9,2.9,0,0,1,.62-.87,2,2,0,0,0,.47-.67,2.61,2.61,0,0,1,.64-.87,1.91,1.91,0,0,0,.47-.65,2.12,2.12,0,0,0,.23-.79,2.86,2.86,0,0,1,.3-1c.2-.42.31-.63.42-.84s.21-.41.41-.82a3.62,3.62,0,0,1,.56-.87,2.82,2.82,0,0,0,.45-.71,2.54,2.54,0,0,0,.25-.79,3.13,3.13,0,0,1,.32-1,2.79,2.79,0,0,0,.25-.8,3.37,3.37,0,0,1,.31-1,6.23,6.23,0,0,0,.33-.82,5.83,5.83,0,0,1,.36-.91,3.42,3.42,0,0,1,.56-.87,2.82,2.82,0,0,0,.45-.71,5.63,5.63,0,0,1,.5-.86,4.68,4.68,0,0,0,.44-.76,5.39,5.39,0,0,0,.32-.81,6.55,6.55,0,0,1,.36-.92,2.07,2.07,0,0,0,.23-.79,2.8,2.8,0,0,1,.29-1c.2-.41.28-.62.37-.83s.18-.44.38-.87a4.51,4.51,0,0,1,.52-.87,4.48,4.48,0,0,0,.44-.75,3.56,3.56,0,0,0,.23-.63,1.69,1.69,0,0,1,.87-1.18,1.9,1.9,0,0,1,1.47-.29,3.85,3.85,0,0,0,.67.06,5.31,5.31,0,0,0,.88-.07,4.66,4.66,0,0,1,1-.09,2,2,0,0,1,1.15.35,1.23,1.23,0,0,0,.74.23,1.46,1.46,0,0,0,.78-.19,2.33,2.33,0,0,1,1.12-.27,2.18,2.18,0,0,1,1.12.28,1.48,1.48,0,0,0,.78.2,1.44,1.44,0,0,0,.77-.21,2.06,2.06,0,0,1,1.13-.31c.46,0,.69,0,.93,0s.48,0,1,0a2.45,2.45,0,0,1,1.11.25,1.59,1.59,0,0,0,.79.18,1.7,1.7,0,0,0,.8-.17,2.56,2.56,0,0,1,1.09-.22,2.22,2.22,0,0,1,1.13.28A1.45,1.45,0,0,0,276,63a3.08,3.08,0,0,0,.87-.1,4.21,4.21,0,0,1,1-.12,9.94,9.94,0,0,1,1,0,6.18,6.18,0,0,0,.91.05,3.54,3.54,0,0,0,.87-.09,4.34,4.34,0,0,1,1-.11,2.51,2.51,0,0,0,.81-.18,2.46,2.46,0,0,1,.74-.16,1,1,0,0,1,.91.54c.5.75,0,1.27-.39,1.61a2.16,2.16,0,0,0-.53.64,2,2,0,0,1-.6.77,1.78,1.78,0,0,0-.54.74,1.81,1.81,0,0,0,0,.65,2.62,2.62,0,0,1-.17,1.31,2.77,2.77,0,0,1-.62.78,2.71,2.71,0,0,0-.58.71c-.1.23-.18.49-.27.77a5.87,5.87,0,0,1-.35,1,3.31,3.31,0,0,0-.23.77,5,5,0,0,1-.32,1,7.41,7.41,0,0,1-.46.82,7.82,7.82,0,0,0-.45.8,5.81,5.81,0,0,1-.52.83,4.73,4.73,0,0,0-.48.75,4.18,4.18,0,0,0-.25.8,5,5,0,0,1-.32,1,2.7,2.7,0,0,1-.71.83,2.13,2.13,0,0,0-.56.62,8.58,8.58,0,0,1-.46.83c-.15.26-.3.52-.43.8a2,2,0,0,0-.12.78,2.8,2.8,0,0,1-.19,1.13,6.67,6.67,0,0,1-.54.84,4.51,4.51,0,0,0-.47.73,7.8,7.8,0,0,0-.31.82,8.64,8.64,0,0,1-.35.92,3.72,3.72,0,0,1-.6.85,3.08,3.08,0,0,0-.5.69,3.12,3.12,0,0,0-.23.8,4.64,4.64,0,0,1-.29,1c-.13.26-.25.54-.36.82s-.25.59-.39.88a5.18,5.18,0,0,1-.53.84,6,6,0,0,0-.46.74l-.42.83c-.14.28-.28.55-.41.83a2.37,2.37,0,0,0-.15.8,2.91,2.91,0,0,1-.23,1.08,2.24,2.24,0,0,1-.86.84,1.64,1.64,0,0,0-.59.53,2.1,2.1,0,0,0-.13.8,2.78,2.78,0,0,1-.2,1.1c-.13.27-.25.55-.38.83s-.25.58-.39.86a2.91,2.91,0,0,1-.69.86,2.44,2.44,0,0,0-.53.62,2.71,2.71,0,0,0-.16.81,3.05,3.05,0,0,1-.22,1.07c-.13.28-.26.56-.38.84s-.25.58-.39.86a3,3,0,0,1-.68.86,2.5,2.5,0,0,0-.53.63l-.39.85-.39.84c-.15.3-.32.58-.49.85a8.35,8.35,0,0,0-.43.77,1.68,1.68,0,0,0-.07.8,2.53,2.53,0,0,1-.14,1.16c-.14.28-.27.57-.4.85s-.25.56-.39.84a3.15,3.15,0,0,1-.68.86,2.67,2.67,0,0,0-.52.63,2.44,2.44,0,0,0-.14.81A2.86,2.86,0,0,1,258,119a4.72,4.72,0,0,1-.56.86,4.23,4.23,0,0,0-.48.71,4.52,4.52,0,0,0-.24.83,4,4,0,0,1-.28,1,2.34,2.34,0,0,1-.86.85,1.68,1.68,0,0,0-.58.53c-.13.28-.24.56-.35.85s-.23.59-.37.87a6,6,0,0,1-.5.86,6.49,6.49,0,0,0-.43.75l-.8,1.68c-.12.27-.21.56-.31.86a7.4,7.4,0,0,1-.34.89,3,3,0,0,0-.18.84,3.53,3.53,0,0,1-.24,1c-.15.31-.31.6-.47.88s-.29.51-.41.76-.29.59-.42.87-.27.54-.39.8a5.52,5.52,0,0,1-.6.91,4.44,4.44,0,0,0-.44.66l-.45.93-.36.74a3.14,3.14,0,0,0-.23,1,2.83,2.83,0,0,1-.21.9,3.22,3.22,0,0,0-.27.83,1.1,1.1,0,0,1-1,1,1.73,1.73,0,0,1-1.29-.14,1.47,1.47,0,0,0-.72-.18,2.37,2.37,0,0,0-.84.13,3.35,3.35,0,0,1-1.06.16,4.48,4.48,0,0,1-1-.09,5.56,5.56,0,0,0-.89-.07,5.47,5.47,0,0,1-1-.08,5.46,5.46,0,0,0-.89-.07,1.44,1.44,0,0,0-.77.21,2.17,2.17,0,0,1-1.13.3,2.48,2.48,0,0,1-1.1-.23,1.76,1.76,0,0,0-.8-.17,2,2,0,0,0-.81.16,2.59,2.59,0,0,1-1.09.21,2.86,2.86,0,0,1-1.08-.19,1.85,1.85,0,0,0-.81-.15,4.82,4.82,0,0,0-.9.06,7.2,7.2,0,0,1-1,.06,2.11,2.11,0,0,0-.83.14,3.05,3.05,0,0,1-1.07.17,6.18,6.18,0,0,0-.91,0c-.25,0-.5,0-1,0Zm-3.81-1.17a2.82,2.82,0,0,1,1.08.19,2.11,2.11,0,0,0,.83.14c.49,0,.73,0,1,0s.46,0,.92,0a6.28,6.28,0,0,0,.91-.05c.25,0,.5,0,1,0a2.11,2.11,0,0,0,.83-.14,3.05,3.05,0,0,1,1.07-.17,5.89,5.89,0,0,0,.9-.06,5.57,5.57,0,0,1,1-.07,2.6,2.6,0,0,1,1.08.2,2,2,0,0,0,.81.15,1.91,1.91,0,0,0,.81-.16,2.67,2.67,0,0,1,1.09-.21,2.41,2.41,0,0,1,1.1.23,1.81,1.81,0,0,0,.8.16,1.45,1.45,0,0,0,.77-.2,2.07,2.07,0,0,1,1.13-.3,5.47,5.47,0,0,1,1,.08,5.46,5.46,0,0,0,.89.07,5.47,5.47,0,0,1,1,.08,4.51,4.51,0,0,0,.89.07,2.35,2.35,0,0,0,.83-.13,3.37,3.37,0,0,1,1.07-.16,2.25,2.25,0,0,1,1,.26.88.88,0,0,0,.75.09c.34-.09.34-.09.41-.42a4,4,0,0,1,.33-1,2.61,2.61,0,0,0,.14-.67,3.66,3.66,0,0,1,.3-1.18q.17-.36.36-.75c.14-.29.3-.6.45-.92a4.83,4.83,0,0,1,.53-.8,5.4,5.4,0,0,0,.51-.77c.12-.26.25-.54.39-.81l.42-.86c.13-.27.28-.54.43-.81s.31-.54.45-.83a2.81,2.81,0,0,0,.17-.78,3.22,3.22,0,0,1,.26-1.08,6.73,6.73,0,0,0,.29-.8,7.87,7.87,0,0,1,.35-1l.8-1.68a7.63,7.63,0,0,1,.48-.84,6.15,6.15,0,0,0,.45-.77c.13-.27.24-.55.34-.82s.24-.61.38-.91a2.31,2.31,0,0,1,.84-.83,1.89,1.89,0,0,0,.6-.54,4.54,4.54,0,0,0,.23-.81,4.55,4.55,0,0,1,.29-1,4.63,4.63,0,0,1,.56-.85,4.09,4.09,0,0,0,.48-.72,2.34,2.34,0,0,0,.14-.8,3.16,3.16,0,0,1,.22-1.09,3,3,0,0,1,.68-.85,2.66,2.66,0,0,0,.52-.64l.39-.83c.13-.29.26-.58.4-.86a1.81,1.81,0,0,0,.06-.8,2.45,2.45,0,0,1,.15-1.16,7.9,7.9,0,0,1,.47-.85,8.57,8.57,0,0,0,.45-.77l.39-.84.39-.85a3.35,3.35,0,0,1,.68-.85,2.5,2.5,0,0,0,.53-.64c.13-.28.26-.56.38-.84s.25-.58.39-.86a2.39,2.39,0,0,0,.15-.81,3.07,3.07,0,0,1,.23-1.07,2.87,2.87,0,0,1,.69-.85,2.31,2.31,0,0,0,.53-.63c.14-.28.26-.56.38-.84l.39-.85a2.37,2.37,0,0,0,.13-.81,2.6,2.6,0,0,1,.2-1.09,2.17,2.17,0,0,1,.86-.84,1.73,1.73,0,0,0,.59-.53,2.21,2.21,0,0,0,.15-.81,3.07,3.07,0,0,1,.23-1.07c.13-.29.28-.57.42-.85s.28-.54.41-.81a5.65,5.65,0,0,1,.53-.86,4.2,4.2,0,0,0,.46-.73c.13-.28.25-.56.37-.84s.24-.58.38-.86a3.76,3.76,0,0,0,.23-.82,4.44,4.44,0,0,1,.28-1,3.85,3.85,0,0,1,.62-.86,3.17,3.17,0,0,0,.49-.67,8.18,8.18,0,0,0,.32-.84,6.14,6.14,0,0,1,.34-.9,4.68,4.68,0,0,1,.55-.86,4.54,4.54,0,0,0,.46-.72,2.16,2.16,0,0,0,.12-.81,2.61,2.61,0,0,1,.19-1.1c.14-.29.3-.58.47-.86a7.15,7.15,0,0,0,.42-.77,2.83,2.83,0,0,1,.74-.86,2,2,0,0,0,.53-.59,4.87,4.87,0,0,0,.27-.84,5.4,5.4,0,0,1,.3-.94,5.13,5.13,0,0,1,.55-.87,5.89,5.89,0,0,0,.45-.71,9.16,9.16,0,0,1,.49-.88c.15-.25.3-.49.42-.74a3.75,3.75,0,0,0,.26-.86,4.63,4.63,0,0,1,.29-.94,6.41,6.41,0,0,0,.31-.87,7.22,7.22,0,0,1,.31-.89,3.53,3.53,0,0,1,.73-.92,2.08,2.08,0,0,0,.47-.56,2.06,2.06,0,0,0,.1-.94,2.18,2.18,0,0,1,.11-1,2.53,2.53,0,0,1,.75-1,1.14,1.14,0,0,0,.39-.5,2.85,2.85,0,0,1,.69-.87c.42-.41.4-.45.28-.62s-.2-.19-.26-.19a2,2,0,0,0-.5.12,3.42,3.42,0,0,1-1.05.21,3.32,3.32,0,0,0-.87.1,4.41,4.41,0,0,1-1,.11,7.2,7.2,0,0,1-1-.06,8.72,8.72,0,0,0-.91,0,3,3,0,0,0-.86.1,4.31,4.31,0,0,1-1,.12,2.21,2.21,0,0,1-1.12-.28,1.46,1.46,0,0,0-.78-.2,1.7,1.7,0,0,0-.8.17,2.56,2.56,0,0,1-1.09.22,2.47,2.47,0,0,1-1.11-.24,1.62,1.62,0,0,0-.79-.18c-.46,0-.7,0-.93,0s-.48,0-1,0a1.3,1.3,0,0,0-.76.21,2.35,2.35,0,0,1-2.26,0,1.46,1.46,0,0,0-.78-.19,1.49,1.49,0,0,0-.78.19,2.19,2.19,0,0,1-1.12.27,2,2,0,0,1-1.15-.35,1.17,1.17,0,0,0-.74-.23,4.51,4.51,0,0,0-.89.07,5.27,5.27,0,0,1-1,.09,4.89,4.89,0,0,1-.79-.07c-.27-.05-.37-.18-.94.18a1,1,0,0,0-.54.73,3.73,3.73,0,0,1-.27.76,5.48,5.48,0,0,1-.51.86,4.14,4.14,0,0,0-.45.75c-.19.41-.28.62-.36.83s-.18.44-.39.87a2.11,2.11,0,0,0-.22.79,2.86,2.86,0,0,1-.3,1,5.4,5.4,0,0,0-.32.82,6.25,6.25,0,0,1-.36.92,4.9,4.9,0,0,1-.5.86,5,5,0,0,0-.44.75,4,4,0,0,1-.55.87,2.8,2.8,0,0,0-.46.71,7.25,7.25,0,0,0-.33.82,5.83,5.83,0,0,1-.36.91,2.5,2.5,0,0,0-.25.8,3.37,3.37,0,0,1-.31,1,2.27,2.27,0,0,0-.25.8,3.29,3.29,0,0,1-.32,1,3.52,3.52,0,0,1-.56.88,3,3,0,0,0-.45.7c-.2.43-.31.64-.42.85s-.22.4-.41.82a2.08,2.08,0,0,0-.23.78,2.86,2.86,0,0,1-.3,1,2.62,2.62,0,0,1-.63.87,1.87,1.87,0,0,0-.48.66,2.62,2.62,0,0,1-.62.87,2.18,2.18,0,0,0-.47.67,6.66,6.66,0,0,0-.34.82c-.08.23-.17.46-.37.9a5.48,5.48,0,0,1-.51.86,3.3,3.3,0,0,0-.44.74,1.33,1.33,0,0,0-.14.76,2,2,0,0,1-.2,1.14c-.21.43-.33.64-.45.85a7.44,7.44,0,0,0-.43.79,4,4,0,0,1-.53.87,3,3,0,0,0-.45.72c-.2.43-.31.63-.43.84s-.22.4-.41.81a1.61,1.61,0,0,0-.18.77,2.41,2.41,0,0,1-.25,1.08,2.68,2.68,0,0,1-.64.88,1.81,1.81,0,0,0-.48.65,3.62,3.62,0,0,1-.56.87,2.48,2.48,0,0,0-.45.7,1.59,1.59,0,0,0-.18.77,2.2,2.2,0,0,1-.25,1.09,3.38,3.38,0,0,0-.28.81,4.89,4.89,0,0,1-.34,1,7.41,7.41,0,0,1-.48.86,5,5,0,0,0-.43.77,2.16,2.16,0,0,1-.72.87,1.57,1.57,0,0,0-.65,1.37,2.15,2.15,0,0,1-.22,1.12,5.24,5.24,0,0,1-.49.85,6.08,6.08,0,0,0-.43.77c-.21.43-.33.64-.45.84s-.22.4-.42.8-.31.64-.42.85-.22.4-.41.81a1.61,1.61,0,0,0-.18.77,2.22,2.22,0,0,1-.25,1.09,11.55,11.55,0,0,1-1,1.63l-.37.79c-.1.22-.19.43-.4.86s-.29.62-.38.83l-.41.85c-.19.4-.26.62-.34.82s-.17.46-.38.9a6.17,6.17,0,0,0-.32.81,5.27,5.27,0,0,1-.36.92,3.86,3.86,0,0,1-.53.86,3.9,3.9,0,0,0-.44.73,3.13,3.13,0,0,1-.6.87,2.45,2.45,0,0,0-.47.68,5,5,0,0,1-.49.86,4.5,4.5,0,0,0-.43.76,8.62,8.62,0,0,0-.36.83c-.09.22-.17.44-.38.87s-.28.63-.37.84-.18.43-.39.86-.31.63-.43.84-.21.4-.41.82a2.33,2.33,0,0,0-.24.79,3,3,0,0,1-.31,1,2.54,2.54,0,0,1-.65.88,1.66,1.66,0,0,0-.48.64,5.06,5.06,0,0,1-.37.62c-.25.38-.27.42,0,.76.09.13.15.18.18.18a.92.92,0,0,0,.29-.09,2.49,2.49,0,0,1,1-.24Z"/><path class="cls-1" d="M286.28,133.17l-.31,0a1.59,1.59,0,0,1-1.18-.84.37.37,0,0,1-.05-.11h0a.35.35,0,0,1-.3,0,.35.35,0,0,1-.23-.18,1.29,1.29,0,0,1-.08-1.08s0-.08.05-.13c-2,1-3.32,1.57-3.54,1.67a.38.38,0,0,1-.5-.16.38.38,0,0,1,.12-.51l2.62-1.74-.89.36c-1.76.9-3,1.41-3.37,1.32a.48.48,0,0,1-.32-.23.3.3,0,0,1,0-.08l-1.38.79a.38.38,0,0,1-.52-.13.4.4,0,0,1-.05-.28,6.23,6.23,0,0,1-2.74.54l-.05,0a.33.33,0,0,1-.29.05.38.38,0,0,1-.25-.18h0a2.38,2.38,0,0,1-1.36-1.12.71.71,0,0,1-.09-.3c-2.47,1.33-4.64,2.08-6.15,1.82A2.6,2.6,0,0,1,264,132a4.87,4.87,0,0,1-2.89.87,1.75,1.75,0,0,1-.67-.27,3.79,3.79,0,0,1-1,0,2.23,2.23,0,0,1-1.66-1.09.39.39,0,0,1,.14-.52l1.23-.76-2.94,1.69a.37.37,0,0,1-.52-.13.33.33,0,0,1-.05-.25l-1.24.71a.38.38,0,0,1-.52-.13.39.39,0,0,1,.12-.53l16.92-10.86c-5.55,3.24-12.4,7.3-17.8,10.54a.39.39,0,1,1-.4-.66l12.4-7.85-10.25,6a27.26,27.26,0,0,1-4.71,2.74l-.35.2a.38.38,0,0,1-.27,0L249,132a.35.35,0,0,1-.3,0,.39.39,0,0,1-.21-.15,2.68,2.68,0,0,1-.5,0,9,9,0,0,1-4.67,1.14,2.13,2.13,0,0,1-1.57-1,.39.39,0,0,1,0-.3c0-.11.05-.16.51-.41a1.05,1.05,0,0,1-.2-.27l0,0c-1.63.8-2.8,1.24-3.27,1.13a.53.53,0,0,1-.2-.09,5.26,5.26,0,0,1-2.55.42,1.39,1.39,0,0,1-.74-.35,1.6,1.6,0,0,1-.85.17.57.57,0,0,1-.22-.11,4.81,4.81,0,0,1-2.53.48,1.5,1.5,0,0,1-1.06-.74.44.44,0,0,1-.05-.27l-1.25.48a.37.37,0,0,1-.48-.19.4.4,0,0,1,.15-.51l.06,0a2.44,2.44,0,0,1-1.31.24,1,1,0,0,1-.73-.5v0a3.59,3.59,0,0,1-2.08.51,1.06,1.06,0,0,1-.73-.51.55.55,0,0,1,0-.45c.11-.37.67-.85,1.79-1.54h0a.38.38,0,0,1,.15-.53l.65-.36a2.06,2.06,0,0,1-1.08-.92.45.45,0,0,1,0-.3.46.46,0,0,1,.18-.23l1-.59a.43.43,0,0,1,0-.07.38.38,0,0,1,.11-.52c5-3.4,12.34-8.38,14.42-9.92a9.33,9.33,0,0,0-1.7.74c-.95,1.42-4.55,3.64-9.6,6.5-.61.34-1.19.67-1.44.83l-.17.12a.39.39,0,0,1-.57-.12.39.39,0,0,1,0-.3c0-.11,0-.16.32-.34a98.77,98.77,0,0,1,11-7.26.23.23,0,0,0,0-.14c-.63-.21-4.25,2.44-6.2,3.87-2.78,2-3.8,2.73-4.31,2.63a.49.49,0,0,1-.33-.23.38.38,0,0,1,.09-.49l3.69-3.13-.82.44,0,0h0c-.24.12-.29.11-.35.09a.39.39,0,0,1-.16-.67l1.22-1.07a.08.08,0,0,1,0,0,.37.37,0,0,1-.05-.27c0-.11.05-.22.07-.32l-.57.24a.4.4,0,0,1-.49-.17.39.39,0,0,1,.11-.5,8.11,8.11,0,0,1,1-.66l.06,0a.55.55,0,0,1,.17,0h.07l.23-.19a.37.37,0,0,1,.32-.1.4.4,0,0,1,.28.19.49.49,0,0,1,0,.41,1,1,0,0,1-.34.4c0,.05,0,.1,0,.17l.87-.54a.4.4,0,0,1,.52.1.39.39,0,0,1,0,.48l1.3-.75a.38.38,0,0,1,.51.11.39.39,0,0,1-.07.52L233,118.43c3.11-2.27,5.23-3.71,6.2-3.5a.77.77,0,0,1,.49.35,1.16,1.16,0,0,1,.06.15,4.22,4.22,0,0,1,2.14-.56.79.79,0,0,1,.54.36c.18.32.25.45-6.33,5l8-4.61a.41.41,0,0,1,.29,0,.42.42,0,0,1,.23.18.3.3,0,0,1,0,.1h0a.35.35,0,0,1,.32-.11.4.4,0,0,1,.28.19,1.25,1.25,0,0,1,.16.62l3.18-1.93a.36.36,0,0,1,.3,0,.37.37,0,0,1,.14.07,4.51,4.51,0,0,1,2.16-.5,5.29,5.29,0,0,1,2.89-.57,2.07,2.07,0,0,1,1.47,1,2.4,2.4,0,0,1,.32,1.25l2.36-1.36a.39.39,0,0,1,.4.67l-.58.35a.76.76,0,0,1,.33.31l1.11-.64a.38.38,0,0,1,.52.13.39.39,0,0,1-.12.53l-1.21.78a.15.15,0,0,1,0,.07c1.75-1,2.88-1.42,3.36-1.31a.53.53,0,0,1,.37.27h0l.37-.13a.4.4,0,0,1,.48.21.39.39,0,0,1-.16.49l-1.9,1.1c-2.3,1.77-7.4,5.63-12.5,9l1.33-.8c.75-.51,1.59-1,2.5-1.53,2.78-1.71,5.78-3.61,8.79-5.55,3.61-2.63,6-4.06,7.32-3.8a1.1,1.1,0,0,1,.72.45h.11a.62.62,0,0,1,.41.3.55.55,0,0,1,.09.32l2.19-1.26a.38.38,0,0,1,.53.14.61.61,0,0,1,.07.44,1.86,1.86,0,0,1,.76,0,.91.91,0,0,1,.51.27c1.74-.81,3.09-1.23,3.81-1.08a.92.92,0,0,1,.66.46c.21.35.21.35-4.05,3.09l-.84.54c3.77-2.16,6.08-3.4,6.91-3.72l0,0h0a.62.62,0,0,1,.29-.07.44.44,0,0,1,.25.19.39.39,0,0,1-.13.52l-9.78,6.28c.81-.41,1.63-.82,2.44-1.21l1-.6a38.69,38.69,0,0,1,7.73-4.47l.7-.4a.39.39,0,0,1,.43,0,6.84,6.84,0,0,1,1.26-.25,6.49,6.49,0,0,1,3.86-1.11,2.27,2.27,0,0,1,1.64,1.16.4.4,0,0,1-.13.52l-2.75,1.73,1.47-.61c.81-.42,1.52-.76,2.09-1,1.13-.91,1.39-1,1.63-1a.43.43,0,0,1,.29.2,2.79,2.79,0,0,1,.24.53,3.8,3.8,0,0,1,1,0,1.8,1.8,0,0,1,1.31.87.68.68,0,0,1,.09.41c3.1-1.73,5.75-2.8,7.23-2.53a1.64,1.64,0,0,1,1.21.81.38.38,0,0,1-.12.52l-12.31,7.85,13.87-8a.39.39,0,0,1,.53.14.41.41,0,0,1,0,.09.32.32,0,0,1,.17,0,.38.38,0,0,1,.25.18,1.26,1.26,0,0,1,.15.38c1.58-.76,2.75-1.16,3.25-1a.7.7,0,0,1,.45.31.4.4,0,0,1-.13.52l-1.43.91a1.13,1.13,0,0,1,.51,0,.62.62,0,0,1,.44.31.35.35,0,0,1,.05.2l.07,0a.4.4,0,0,1,.53.15,2.63,2.63,0,0,1,.35,1.66,1.85,1.85,0,0,1,0,1.23.34.34,0,0,1,.22.15l.32-.18a.37.37,0,0,1,.29,0,.43.43,0,0,1,.24.18,1.24,1.24,0,0,1,.14.67l.33-.2a.39.39,0,0,1,.53.15.58.58,0,0,1,.05.5,1.56,1.56,0,0,1-.65.68,3.09,3.09,0,0,1,1.31-.15,1,1,0,0,1,.75.51.37.37,0,0,1,0,.29.41.41,0,0,1-.19.24l-1,.57a5,5,0,0,1-1.69,1.71l1.13-.61c1.07-.75,1.51-.95,1.82-.89a.62.62,0,0,1,.31.22.38.38,0,0,1,0,.31.35.35,0,0,1-.2.23l-1.58.81c-.68.48-1.53,1.11-2.32,1.69a60,60,0,0,1-5.81,4c0,.07-.06.14-.08.2a.39.39,0,0,0,0,.36.3.3,0,0,0,.23.15,1.33,1.33,0,0,0,.2,0h0c.23-.68,1.2-1.3,2.64-2a25.27,25.27,0,0,1,4.54-3l.14-.09a.36.36,0,0,1,.26-.07,2.21,2.21,0,0,1,1.12-.18.92.92,0,0,1,.65.4l.21-.17a.39.39,0,0,1,.53,0,.4.4,0,0,1,0,.54c-.83.79-1.69,1.64-2.41,2.37l1-.58a.39.39,0,0,1,.53.15c.14.24.05.45-.47,1.26,1.13-.77,2.2-1.38,2.64-1.29a.48.48,0,0,1,.34.24c.2.34,0,.8-.28,1.26h0a.39.39,0,0,1,.18.38l-.09.7.14.18c-.29.22-.44.28-.61.25a.4.4,0,0,1-.27-.19.41.41,0,0,1-.05-.19c-.65.41-.79.38-.9.36a.4.4,0,0,1-.2-.68,7.19,7.19,0,0,0,1.27-1.44,26,26,0,0,0-3.27,2.15.38.38,0,0,1-.31.07.4.4,0,0,1-.26-.18c-.16-.27,0-.45.69-1.56l.06-.09-2,1.14a.38.38,0,0,1-.29,0,.36.36,0,0,1-.24-.18c-.09-.15-.14-.25.29-.77-1.94,1.34-4,2.51-4.91,2.33a.85.85,0,0,1-.61-.4l0-.06a1.36,1.36,0,0,1-.35,0,1.07,1.07,0,0,1-.8-.52,1.24,1.24,0,0,1-.14-.5,2.65,2.65,0,0,1-1.53.33.81.81,0,0,1-.58-.41.74.74,0,0,1-.06-.6,1,1,0,0,1,.08-.2c-1.76,1.29-3.08,2-4,1.82l-.1,0-.45.28a.37.37,0,0,1-.51-.11.39.39,0,0,1,.07-.53l.19-.15,0,0a.38.38,0,0,1,.12-.52c1.18-.76,2.53-1.63,3.91-2.54-1.17.6-2.29,1.15-3.27,1.61l-3.16,1.83a.38.38,0,0,1-.53-.15,1.59,1.59,0,0,1-.22-.78l-1,.38a.4.4,0,0,1-.45-.13.48.48,0,0,1-.29,0,.38.38,0,0,1-.23-.18.44.44,0,0,1,0-.34c.08-.23.28-.39,1.7-1.07l.27-.15-2.31.86c-2.09,1.65-3.91,2.77-5.18,2.77Zm-.44-.87a.72.72,0,0,0,.26.08,4.87,4.87,0,0,0,2.86-1.1c-1.39.47-2.48.82-3.12,1Zm-43.18-.4a1.41,1.41,0,0,0,.78.35,7.28,7.28,0,0,0,3.68-.8,1.93,1.93,0,0,1-.22-.28,2.92,2.92,0,0,1-.32-.91,13.9,13.9,0,0,1-2,1l-1.13.66a.4.4,0,0,1-.53-.14v0l-.25.13Zm22.18-.22a2,2,0,0,0,.67.23,3.59,3.59,0,0,0,.88,0,.36.36,0,0,1-.07-.1,2.29,2.29,0,0,1-.24-.59l-1.24.42Zm-33.34.08a1.07,1.07,0,0,0,.27.09,5.67,5.67,0,0,0,3.1-.9.49.49,0,0,1,0-.11,2.71,2.71,0,0,1,.59-.94l-2.86,1.65a.45.45,0,0,1-.3,0,.38.38,0,0,1-.23-.18v0l-.6.37Zm27.18-.35a1.58,1.58,0,0,0,.89.42l.2,0a.36.36,0,0,1,0-.25,2.43,2.43,0,0,1-.14-.76v0l-.95.58Zm51.65-2.17a20.66,20.66,0,0,1-3.9,2.6,21.69,21.69,0,0,0,5.27-3.15l-.79.32-.58.23Zm-74,2.45a5,5,0,0,0,1.81-.34,2.25,2.25,0,0,1-.15-.62l-1.66,1Zm38.22-1.76a3.63,3.63,0,0,0-.89,1.28.74.74,0,0,0-.06.28l.21-.14a.24.24,0,0,1,.09-.08l.76-.5a2.62,2.62,0,0,1-.11-.84Zm11.85,1.33-.22.13c.63-.2,1.47-.48,2.48-.83a.55.55,0,0,1,0-.17,1,1,0,0,1,.21-.36,15.1,15.1,0,0,1-2.5,1.23Zm-13.55-1.13c-.33.28-.51.51-.52.68a1.7,1.7,0,0,0,.5.53,1.86,1.86,0,0,1,.1-.39,4.36,4.36,0,0,1,1.05-1.51l-1.13.69Zm-6,.88a1.71,1.71,0,0,0,.09.3,12.35,12.35,0,0,0,2.42-1.07l.19-.19c-1,.38-1.95.7-2.7,1Zm9.91-.59-1.08.88c2.35-.83,5.51-3,8.66-5.52l-4.9,3-2.68,1.66Zm-38-.13a1.76,1.76,0,0,0,.1.79c3.63-1.47,9.5-5.33,14.69-9-.9.47-1.88.93-2.91,1.38l-11.88,6.86Zm8.61-.49a1.66,1.66,0,0,0,.24,1,.67.67,0,0,0,.36.3l.19-.1a3,3,0,0,1,.17-1.51c0-.1.09-.2.14-.31l-.33.14-.77.5Zm20.88-2.56-6,3.69a18.11,18.11,0,0,0,4.3-1.82l.12-.07a9.41,9.41,0,0,1,1.6-1.8Zm-7.8,3.44a.67.67,0,0,0,.25.22c.5-.41,1.25-1,2.05-1.73l1-.85-3.24,2a1.61,1.61,0,0,0-.07.37Zm-28.23-2.48-4.08,2.62c1-.14,2.86-1.43,5.09-3.18l-1,.56Zm-7.32,2.55a.26.26,0,0,0,.14.06,4.9,4.9,0,0,0,2.54-.95,2.35,2.35,0,0,1-.54,0,1.75,1.75,0,0,1-.57-.2,6.91,6.91,0,0,0-1.57,1.12Zm79.81-2.17c-1.37,1-2.23,1.82-2.22,2.17a3.43,3.43,0,0,0,1.77-.61A13.71,13.71,0,0,1,307.9,127c-1,.55-2.15,1.07-3.22,1.56Zm-34.18,1.89-.22.18c.71-.35,1.46-.77,2.23-1.23l.19-.16c-.79.45-1.53.85-2.2,1.21Zm-20.85-1.82a4.92,4.92,0,0,0-.62,1.1,2.46,2.46,0,0,0-.16.86,72.39,72.39,0,0,0,8.51-5.48c-2.66,1.3-5.38,2.51-7.73,3.52Zm25.91.36-.1.22a2,2,0,0,0-.14,1.09l1.74-1.15c1.61-1.26,4-3.11,6.7-5.1a54,54,0,0,0-8.2,4.94Zm23.54-9.56-18.79,10.84,1.63-.65c3.94-2.1,10.83-6.26,17.16-10.19Zm-60.3,8.72a16.77,16.77,0,0,0-2.45,1.92l2.08-1.35a6.12,6.12,0,0,1,.37-.57Zm.21-4.28-.43.35c-3,2.52-5.45,4.52-7.3,5.79l23.79-13.73a1.68,1.68,0,0,0-.15-1.36,1.24,1.24,0,0,0-.93-.65,3.67,3.67,0,0,0-1.81.26,1.77,1.77,0,0,1,.16.22.4.4,0,0,1-.13.52L240.28,123l-1.27.91Zm40.12-1.12c-3.84,2.31-8,4.87-11.6,7.16,1.18-.42,2.64-.94,4.25-1.55l.35-.24c1.83-1.47,4.32-3.43,7-5.37Zm-51.75,6.32a5.28,5.28,0,0,0,2.09-.46c.86-.58,1.77-1.25,2.73-2a16.91,16.91,0,0,1-2.73,1.29c-.76.4-1.47.78-2.09,1.13Zm70-.34-.05,0c.65-.26,1.32-.55,2-.85l1-.58c-1,.5-2,1-2.95,1.4Zm-4.84-2.12-3.4,2.14,2.95-1.7,1.52-1-1.07.58Zm-24.21-1.12c-1.29,1-2.49,2-3.53,2.93l10-6.16c.93-.81,1.86-1.62,2.77-2.39l-.33.12-8.95,5.5Zm41.25-6.09c-.64,1.42-8.39,5.63-14.28,8.68,1.17-.46,2.36-1,3.54-1.48l9.32-5.38a6.63,6.63,0,0,0,1.51-1.87l-.09,0Zm-20.24,7.94-.52.33,1.47-.76-.95.43Zm23.51-.28-.62.56a8.83,8.83,0,0,0,1.5-.75,1.76,1.76,0,0,0-.88.19Zm-86.34.1a1.21,1.21,0,0,0,.46.28.85.85,0,0,1-.07-.5l-.39.22Zm25.08-1.41-2.5,1.6,1.31-.62h0c.36-.32.76-.65,1.18-1Zm-18.43-1.94c-2.4,1.1-4.62,2.18-5.29,2.92.91-.42,2.85-1.5,5.29-2.92Zm55.78-.82c-1.17,1-2.38,2-3.59,2.95l14.1-9c-2.38,1.26-6.24,3.5-10.51,6.05Zm-15.33,1.38-1,.87,1.9-1.19.09-.07c.33-.23.65-.47,1-.71-.67.36-1.32.73-2,1.1Zm-37.17,0-1.05.81,2.05-1.33-1,.52Zm25.5-2.73c-1.77,1-3.75,2.1-5.85,3.23,1.7-.82,3.35-1.65,4.87-2.47l1-.76Zm36.5,2.62-.59.53.53-.27c1.42-.71,3.07-1.53,4.64-2.36l5-2.87c.59-.42.95-.77,1-1l-.05-.08-10.47,6Zm-10.86-6.22a102.12,102.12,0,0,0-9.25,6.22c1.88-1.11,3.87-2.26,5.79-3.35,1.27-1,2.44-2,3.46-2.87Zm-24.65,4.58-.14.11-1.93,1.5L277,114.93c-2.32.45-8,3.75-14.11,7.73Zm41.77-5.17c-2.64,1.44-6.12,3.51-10,5.9,2.33-1.23,4.76-2.42,6.94-3.46l1.15-.72a11.92,11.92,0,0,0,1.87-1.72Zm6.5,5.52h.07a.48.48,0,0,1,.29.21h0l.86-.5a.22.22,0,0,0,0-.08.11.11,0,0,0-.1-.07h-.13c-.32.11-.67.26-1.06.44h.09Zm-1.89-1.14c-.31.29-.66.59-1,.88l.12,0,1.49-.86a2.77,2.77,0,0,0,.34-.5l-.91.53ZM288,122l-.78.55,1-.65-.21.1Zm-47.45-.76-.77.59,1.49-.79,1.13-.91-1.85,1.11Zm2.44-3.83c-1.61,1.07-4.18,2.64-7.13,4.38,1.18-.52,2.42-1.08,3.58-1.64l1.4-.84c.82-.7,1.55-1.35,2.15-1.9Zm5.25,4.12-.32.19.19-.1.13-.09Zm53.89-.4-.63.53,6.56-3.79c-.94.41-2,.89-3.15,1.42-.87.56-1.82,1.19-2.78,1.84Zm-45.17-2.54c-1,.61-2.12,1.29-3.26,2l3.69-2.16.06-.08-.49.23Zm34.6-.7c-1.18.75-2.55,1.6-4,2.51.81-.35,1.62-.69,2.43-1a11,11,0,0,0,1.58-1.5Zm-25.95-.52c-1.33.7-2.94,1.62-4.74,2.68l3.51-1.47.21-.13a8.25,8.25,0,0,0,1-1.08ZM279.85,119l-.85.7,1.59-1-.74.28Zm-26.09-.7-.92.66.62-.36.3-.3Zm36.92-1.84-2,1.65c-.25.21-.51.42-.77.65,1.79-1,3.36-1.88,4.53-2.52a2,2,0,0,0,.07-.42,12.16,12.16,0,0,0-1.86.64Zm18.88,1.38.07.1a.81.81,0,0,1,.09.47l.2-.12a1.7,1.7,0,0,0-.1-.59l-.26.14Zm-24.36-.75-1.44,1.13,2.18-1.38-.74.25Zm7.86-.19a5.79,5.79,0,0,1-.84,1.32c.41-.27.82-.52,1.23-.77.82-.57,1.33-1,1.34-1.28a.83.83,0,0,0-.36-.33.39.39,0,0,1-.18.3l-1.19.76Zm-37.47.16a5.2,5.2,0,0,1-.25.46l2.41-1.39c-.27-.14-1.07.24-2.16.93Zm26.72,0-.47.35,1.83-.64.7-.59-2.06.88Zm-15.56-.35a.16.16,0,0,1,0,.09,1.83,1.83,0,0,1-.18.41l2.36-1.4a13.09,13.09,0,0,0-2.15.9Zm39.79-.24v0c0,.14-.11.28-.18.43l2-1.31c-.5.2-1.13.49-1.86.85Zm-8.38-.78,0,.07a.38.38,0,0,1-.12.52l-.17.11,2.62-.86q.57-.26,1-.39l.2-.06a.94.94,0,0,1,.38,0l.16.08.83-.53a1.15,1.15,0,0,0-.42-.16c-.95-.17-2.54.32-4.49,1.26Zm-48.72.19a1.12,1.12,0,0,1,0,.24l2-1.26h0a18.3,18.3,0,0,0-1.9,1Zm17.34-.09a.25.25,0,0,1,0,.07q.72-.33,1.29-.54a5,5,0,0,0-1.31.47Zm20.05-1a2.37,2.37,0,0,1,.93.9l1.71-1.08a1.44,1.44,0,0,0-.88-.47,4,4,0,0,0-2.07.38.39.39,0,0,1,.27.18.18.18,0,0,1,0,.09Z"/><path class="cls-1" d="M303.8,132.34a1.81,1.81,0,0,1-1.14-.39,1,1,0,0,0-.69-.26,3.24,3.24,0,0,0-.84.1,4.11,4.11,0,0,1-1,.11,1.49,1.49,0,0,0-.76.18,2.48,2.48,0,0,1-2.17,0,1.49,1.49,0,0,0-.76-.18,3.71,3.71,0,0,1-1-.12,2.72,2.72,0,0,0-.83-.1,4.27,4.27,0,0,1-1-.1,4,4,0,0,0-.85-.08,5.9,5.9,0,0,0-.88.05,9.17,9.17,0,0,1-1,0,1.1,1.1,0,0,0-.61.13,2.41,2.41,0,0,1-1.23.25,4.44,4.44,0,0,1-.86-.12,8,8,0,0,0-1.81-.13,11.36,11.36,0,0,1-1.92-.07,7.3,7.3,0,0,0-.92-.08,2.36,2.36,0,0,0-.75.19,3.23,3.23,0,0,1-1.1.26h-.89a15.73,15.73,0,0,0-1.81,0c-.32,0-.65.06-1,.06a3.42,3.42,0,0,1-1-.2,3.41,3.41,0,0,0-.83-.17c-.31,0-.63,0-.94-.05-.6-.05-1.21-.05-1.83-.08l-.92,0a2.78,2.78,0,0,0-.79.18,3.33,3.33,0,0,1-1.05.22h-.92c-.6,0-1.21,0-1.82,0a7.37,7.37,0,0,1-1.94-.1,4.68,4.68,0,0,0-1.71,0,16.75,16.75,0,0,0-1.8.23,3.89,3.89,0,0,1-1,.17c-.33,0-.65,0-1-.07-.61-.07-1.21-.07-1.82-.1s-1.22,0-1.84,0a7.67,7.67,0,0,0-1.76.11,5.36,5.36,0,0,1-1,.13,2.47,2.47,0,0,1-1.1-.36,1.87,1.87,0,0,0-.74-.27h-1.85a1.79,1.79,0,0,0-.74.29,2.34,2.34,0,0,1-1.1.38,2.13,2.13,0,0,1-1.14-.46,1.76,1.76,0,0,0-.71-.33,2.33,2.33,0,0,0-.79.21,3.12,3.12,0,0,1-1,.26h-.93l-.92,0a2.75,2.75,0,0,1-1.08-.29,2.35,2.35,0,0,0-.76-.22,5.4,5.4,0,0,0-.87.1,7.94,7.94,0,0,1-2,0,10.58,10.58,0,0,0-1.78,0c-.64.06-1.27.06-1.87.07s-1.26,0-1.85,0a13.27,13.27,0,0,0-1.81.1,7.32,7.32,0,0,1-.93.09,3.54,3.54,0,0,1-1.12-.24,2.7,2.7,0,0,0-.72-.16,2.77,2.77,0,0,0-.92.23,2.42,2.42,0,0,1-.92.24,3.43,3.43,0,0,0-1,.2,2.31,2.31,0,0,1-.58.12.58.58,0,0,1-.44-.18.89.89,0,0,1-.18-.68,1.73,1.73,0,0,1,.47-1.17,2.68,2.68,0,0,0,.37-.57,1.82,1.82,0,0,0,.19-.74,2.28,2.28,0,0,1,.26-1,1.87,1.87,0,0,1,.78-.85,1.06,1.06,0,0,0,.5-.52,1.9,1.9,0,0,0,.2-.75,2.52,2.52,0,0,1,.27-1,6.82,6.82,0,0,0,.32-.79,6.16,6.16,0,0,1,.35-.87,5,5,0,0,1,.49-.84,4.15,4.15,0,0,0,.42-.72,5.44,5.44,0,0,1,.48-.83,3.16,3.16,0,0,0,.42-.72,4.74,4.74,0,0,1,.5-.83,3.55,3.55,0,0,0,.42-.71,5.8,5.8,0,0,1,.48-.83,5.57,5.57,0,0,0,.41-.73,1.08,1.08,0,0,0,0-.73,1.09,1.09,0,0,1,.47-1.32,1.64,1.64,0,0,1,1.42-.16,2.27,2.27,0,0,0,.71.12,2.18,2.18,0,0,1,1.11.27,1.48,1.48,0,0,0,.76.19,1.23,1.23,0,0,0,.74-.23,2,2,0,0,1,1.13-.33,3.28,3.28,0,0,1,1.05.16,2.28,2.28,0,0,0,.82.13,2.77,2.77,0,0,1,1.06.18,2.18,2.18,0,0,0,.81.13,1.44,1.44,0,0,0,.76-.19,2.22,2.22,0,0,1,1.11-.27,5.39,5.39,0,0,1,1,.07,5.85,5.85,0,0,0,.89.06,2.58,2.58,0,0,0,.82-.12,3,3,0,0,1,1.05-.16,5.69,5.69,0,0,0,.88-.06,6.56,6.56,0,0,1,1-.07H251a5.22,5.22,0,0,1,1,.08,5.42,5.42,0,0,0,.88.07,2.46,2.46,0,0,1,1.09.23,1.72,1.72,0,0,0,.78.16c.45,0,.63,0,.83,0s.42,0,1,0a4.12,4.12,0,0,0,.72-.1,6.88,6.88,0,0,1,2.05,0,18.2,18.2,0,0,0,1.85.09,6.71,6.71,0,0,0,1.79-.13,4.13,4.13,0,0,1,1.07-.18,3.58,3.58,0,0,0,.81-.13,4.52,4.52,0,0,1,1.06-.17l.89,0c.32,0,.65,0,1,0a2.08,2.08,0,0,1,1.13.49,1.7,1.7,0,0,0,.74.37,1.66,1.66,0,0,0,.7-.36,2.12,2.12,0,0,1,1.17-.5,3.9,3.9,0,0,1,1,.18,5,5,0,0,0,1.74.11,13.81,13.81,0,0,1,1.93,0c.3,0,.61,0,.92,0a2.68,2.68,0,0,1,1.08.3,2.18,2.18,0,0,0,.79.23,1.7,1.7,0,0,0,.72-.34,2.22,2.22,0,0,1,1.15-.48,2.65,2.65,0,0,1,1.1.33,2.12,2.12,0,0,0,.77.26l1,0a6.39,6.39,0,0,0,1.77-.12,4.34,4.34,0,0,1,1-.16,2.74,2.74,0,0,1,1.1.31,2.23,2.23,0,0,0,.78.24l.93,0a14.36,14.36,0,0,0,1.83-.11,6.38,6.38,0,0,1,1-.11,2.28,2.28,0,0,0,.8-.23,2.83,2.83,0,0,1,1.07-.28c.33,0,.67,0,1,.06.64.07,1.28.07,1.87.13.3,0,.59.07.88.07a5,5,0,0,1,1,.14c.7.14,1.29.13,1.86.2s1.27.08,1.85.11l.87,0a1.79,1.79,0,0,0,.79-.4,2,2,0,0,1,1.08-.49,2.4,2.4,0,0,1,1.31.57,1.56,1.56,0,0,0,.56.33A1.27,1.27,0,0,0,308,115a1.06,1.06,0,0,1,.66-.32.93.93,0,0,1,.66.35,4.89,4.89,0,0,1,1.07,1.6,2,2,0,0,1,.19,1.12,1.22,1.22,0,0,0,.11.72,1,1,0,0,0,.51.51,1.94,1.94,0,0,1,.8.85,1.77,1.77,0,0,1,.12,1.18,1,1,0,0,0,.05.71c.19.39.3.57.41.76a8.32,8.32,0,0,1,.44.82,1,1,0,0,0,.51.51,1.77,1.77,0,0,1,.81.84,1.89,1.89,0,0,1,.17,1.14,1.11,1.11,0,0,0,.09.72,2.84,2.84,0,0,1,.29,1,2,2,0,0,0,.21.75,1.08,1.08,0,0,0,.53.56,2.47,2.47,0,0,1,.77.64l.25.3c.44.52.85,1,.27,1.89a.83.83,0,0,1-.69.44,1.21,1.21,0,0,1-.69-.31,1.22,1.22,0,0,0-.7-.32.92.92,0,0,0-.68.28,1.68,1.68,0,0,1-1.17.46,1.78,1.78,0,0,1-1.15-.42,1,1,0,0,0-.69-.27.93.93,0,0,0-.67.3,1.64,1.64,0,0,1-1.17.48,1.88,1.88,0,0,1-1.13-.36,1.08,1.08,0,0,0-.71-.24,1.36,1.36,0,0,0-.74.2,2.16,2.16,0,0,1-1.1.28,4.31,4.31,0,0,0-.86.07,6.51,6.51,0,0,1-1,.07ZM302,130.92a1.81,1.81,0,0,1,1.14.39,1,1,0,0,0,.69.26,4.23,4.23,0,0,0,.86-.07,5.18,5.18,0,0,1,1-.08,1.37,1.37,0,0,0,.75-.19,2.15,2.15,0,0,1,1.09-.28,1.83,1.83,0,0,1,1.13.36,1.1,1.1,0,0,0,.71.24.9.9,0,0,0,.67-.3,1.64,1.64,0,0,1,1.17-.49,1.76,1.76,0,0,1,1.16.43,1,1,0,0,0,.68.26.92.92,0,0,0,.68-.28,1.72,1.72,0,0,1,1.17-.45,2,2,0,0,1,1.16.46,2.17,2.17,0,0,0,.22.15l.06-.08c.26-.39.21-.45-.22-1l-.26-.31a1.8,1.8,0,0,0-.56-.46,1.85,1.85,0,0,1-.84-.9,2.74,2.74,0,0,1-.28-1,2.09,2.09,0,0,0-.22-.76,1.78,1.78,0,0,1-.16-1.14,1,1,0,0,0-.1-.71,1,1,0,0,0-.5-.51,1.77,1.77,0,0,1-.82-.85,5.45,5.45,0,0,0-.41-.75,8.32,8.32,0,0,1-.44-.82,1.8,1.8,0,0,1-.12-1.19,1,1,0,0,0-.05-.71,1,1,0,0,0-.51-.51,1.89,1.89,0,0,1-.8-.85,2,2,0,0,1-.19-1.11,1.22,1.22,0,0,0-.11-.72,4.07,4.07,0,0,0-.95-1.43c-.07-.08-.11-.09-.11-.09s-.06.09-.13.14a2,2,0,0,1-1.38.56,1.87,1.87,0,0,1-1-.47,1.73,1.73,0,0,0-.85-.42,1.64,1.64,0,0,0-.63.34,2.25,2.25,0,0,1-1.24.54l-.9,0c-.62,0-1.29,0-1.92-.11s-1.31-.09-1.91-.21a17.4,17.4,0,0,0-1.85-.2c-.61-.06-1.23-.06-1.87-.12a7.12,7.12,0,0,0-.92-.07,2.14,2.14,0,0,0-.77.23,3,3,0,0,1-1.1.29,5.47,5.47,0,0,0-.87.09,14.88,14.88,0,0,1-1.92.12l-1,0a2.77,2.77,0,0,1-1.09-.3,2,2,0,0,0-.79-.24,3.35,3.35,0,0,0-.84.14,4.92,4.92,0,0,1-1,.15l-.95,0-.93,0a2.7,2.7,0,0,1-1.1-.33,2,2,0,0,0-.77-.25,1.72,1.72,0,0,0-.73.35,2.18,2.18,0,0,1-1.14.47,2.73,2.73,0,0,1-1.09-.3,2.19,2.19,0,0,0-.78-.23c-.32,0-.65,0-1,0a15.77,15.77,0,0,0-1.82,0c-.32,0-.64.05-.95.05a4,4,0,0,1-1.05-.18,3.29,3.29,0,0,0-.82-.16,1.67,1.67,0,0,0-.73.37,2.15,2.15,0,0,1-1.14.49,2.23,2.23,0,0,1-1.18-.5,1.58,1.58,0,0,0-.69-.36c-.32,0-.63,0-.94,0a9.54,9.54,0,0,0-1.81.17,4.1,4.1,0,0,1-1,.16,3.45,3.45,0,0,0-.88.15,4.1,4.1,0,0,1-1,.16h-1c-.7,0-1.34,0-1.94-.09a5.38,5.38,0,0,0-1.81,0,5.28,5.28,0,0,1-.86.1c-.65,0-.88,0-1.1,0s-.35,0-.77,0a2.43,2.43,0,0,1-1.09-.23,1.58,1.58,0,0,0-.78-.17,5.43,5.43,0,0,1-1-.08,5.16,5.16,0,0,0-.87-.07h-1.87a5.59,5.59,0,0,0-.88.06,6.79,6.79,0,0,1-1,.07,2.43,2.43,0,0,0-.83.12,3.27,3.27,0,0,1-1,.15,6.92,6.92,0,0,1-1-.06,4.65,4.65,0,0,0-.88-.06,1.45,1.45,0,0,0-.77.19,2.21,2.21,0,0,1-1.1.27,3,3,0,0,1-1.06-.18,2.26,2.26,0,0,0-.81-.13,2.92,2.92,0,0,1-1-.17,2.28,2.28,0,0,0-.82-.13,1.23,1.23,0,0,0-.74.23,2,2,0,0,1-1.13.33,2.18,2.18,0,0,1-1.11-.27,1.48,1.48,0,0,0-.76-.19,3,3,0,0,1-.93-.15,1.48,1.48,0,0,0-.36-.08.82.82,0,0,0-.43.16c-.19.11-.19.15-.12.52a1.78,1.78,0,0,1-.09,1.2,5.6,5.6,0,0,1-.47.83,4.8,4.8,0,0,0-.42.73,4,4,0,0,1-.49.83,3.82,3.82,0,0,0-.43.72,4.71,4.71,0,0,1-.48.83,3.91,3.91,0,0,0-.42.72,5.3,5.3,0,0,1-.49.83,4.58,4.58,0,0,0-.42.72,6.16,6.16,0,0,0-.32.79,6.69,6.69,0,0,1-.35.87,1.91,1.91,0,0,0-.2.74,2.52,2.52,0,0,1-.27,1,1.78,1.78,0,0,1-.79.85,1.08,1.08,0,0,0-.49.52,1.82,1.82,0,0,0-.19.75,2.55,2.55,0,0,1-.26,1,3.55,3.55,0,0,1-.47.73,1,1,0,0,0-.29.73l.19-.06a4.45,4.45,0,0,1,1.27-.23,1.9,1.9,0,0,0,.64-.18,3.41,3.41,0,0,1,1.2-.29,3.18,3.18,0,0,1,1,.21,3,3,0,0,0,.88.19,6.13,6.13,0,0,0,.82-.08,16,16,0,0,1,1.9-.11l1.85,0c.59,0,1.2,0,1.82-.07a11.19,11.19,0,0,1,1.92,0,6.48,6.48,0,0,0,1.75,0,6.38,6.38,0,0,1,1-.11,2.79,2.79,0,0,1,1.06.29,2.42,2.42,0,0,0,.78.23l.9,0,1,0a2.29,2.29,0,0,0,.77-.21,3.23,3.23,0,0,1,1.07-.26,2.12,2.12,0,0,1,1.13.46,1.72,1.72,0,0,0,.72.34,1.81,1.81,0,0,0,.73-.29,2.39,2.39,0,0,1,1.11-.39h1.85a2.47,2.47,0,0,1,1.09.36,2,2,0,0,0,.75.28,4.45,4.45,0,0,0,.85-.12,8.18,8.18,0,0,1,1.93-.12c.62,0,1.24,0,1.86,0s1.27,0,1.86.1a4.54,4.54,0,0,0,1.71-.08,4.1,4.1,0,0,1,1-.16,5.47,5.47,0,0,0,.87-.09,5.92,5.92,0,0,1,2,0,6.59,6.59,0,0,0,1.75.09c.63,0,1.26,0,1.87,0l.91,0a2.62,2.62,0,0,0,.81-.19,3.56,3.56,0,0,1,1-.21l.95,0c.63,0,1.25,0,1.87.08.29,0,.58.05.87.05a3.62,3.62,0,0,1,1.05.2,2.74,2.74,0,0,0,.79.17,9.07,9.07,0,0,0,.91-.06c.65-.05,1.28-.05,1.89,0h.88a2.47,2.47,0,0,0,.83-.21,3.23,3.23,0,0,1,1-.24,6.65,6.65,0,0,1,1,.1,11.33,11.33,0,0,0,1.8.06,8.57,8.57,0,0,1,2,.14,4.05,4.05,0,0,0,.7.1A1.65,1.65,0,0,0,290,131a1.83,1.83,0,0,1,.95-.21,8.34,8.34,0,0,0,.88,0,6.64,6.64,0,0,1,1-.06,4.38,4.38,0,0,1,1,.1,3.85,3.85,0,0,0,.84.08,3.5,3.5,0,0,1,1,.13,3.21,3.21,0,0,0,.83.1,2.23,2.23,0,0,1,1.09.25,1.67,1.67,0,0,0,1.51,0,2.23,2.23,0,0,1,1.09-.25,3.15,3.15,0,0,0,.83-.1,4.21,4.21,0,0,1,1-.11Z"/><polygon class="cls-4" points="524.44 167.06 524.44 90.57 524.44 52.21 496.95 24.73 420.29 24.73 420.29 53.12 420.29 90.57 420.29 167.06 524.44 167.06"/><polygon class="cls-5" points="496.95 52.21 524.44 52.21 496.95 24.73 496.95 52.21"/><polygon class="cls-7" points="524.44 52.21 496.95 52.21 524.44 79.69 524.44 52.21"/><path class="cls-8" d="M438.72,37.2A3.31,3.31,0,1,1,442,40.51,3.31,3.31,0,0,1,438.72,37.2Z"/><path class="cls-5" d="M429.5,37.2a3.31,3.31,0,1,1,3.31,3.31A3.31,3.31,0,0,1,429.5,37.2Z"/><path class="cls-6" d="M454.55,37.2a3.31,3.31,0,1,1-3.31-3.3A3.31,3.31,0,0,1,454.55,37.2Z"/><rect class="cls-5" x="429.5" y="46.04" width="29.79" height="1.69"/><rect class="cls-2" x="429.5" y="50.1" width="42.31" height="1.69"/><rect class="cls-2" x="429.5" y="54.17" width="33.51" height="1.69"/><rect class="cls-8" x="456.7" y="89.92" width="118.97" height="52.23"/><path class="cls-5" d="M459.29,94.83l50.64,32.25a12.7,12.7,0,0,0,12.52,0l50.64-32.25a5,5,0,0,0,2.57-3.75v-.49a3.87,3.87,0,0,0-.1-.67H456.82C456.38,91.65,457.19,93.49,459.29,94.83Z"/><rect class="cls-5" x="428.68" y="125.44" width="50.76" height="31.73"/><path class="cls-8" d="M441.1,133.43a2.83,2.83,0,1,1,2.82,2.84A2.82,2.82,0,0,1,441.1,133.43Z"/><path class="cls-4" d="M433.22,133.43a2.83,2.83,0,1,1,2.83,2.84A2.82,2.82,0,0,1,433.22,133.43Z"/><path class="cls-6" d="M454.63,133.43a2.83,2.83,0,1,1-2.83-2.82A2.84,2.84,0,0,1,454.63,133.43Z"/><rect class="cls-4" x="433.22" y="140.99" width="25.46" height="1.45"/><rect class="cls-2" x="433.22" y="144.46" width="36.16" height="1.45"/><rect class="cls-2" x="433.22" y="147.93" width="28.64" height="1.45"/><path class="cls-9" d="M394.51,58.67v86.18a2.78,2.78,0,0,0,2.34-2.36V58.67Z"/><path class="cls-5" d="M402.41,58.67h-5.56v83.82h0v0a.1.1,0,0,1,0,0,2.8,2.8,0,0,0,5.54,0,0,0,0,0,0,0,0v0h0Z"/><path class="cls-9" d="M402.41,142.49a2.78,2.78,0,0,0,2.34,2.36V58.67h-2.34Z"/><path class="cls-4" d="M404.76,144.86a2.79,2.79,0,0,1-2.35-2.37h0v0a0,0,0,0,1,0,0,2.8,2.8,0,0,1-5.54,0,.1.1,0,0,0,0,0v0h0a2.79,2.79,0,0,1-2.35,2.37l5.13,6.37Z"/><path class="cls-5" d="M397.11,148.1l2.52,3.13,2.52-3.13a10.73,10.73,0,0,0-5,0Z"/><rect class="cls-10" x="394.51" y="55.62" width="2.34" height="3.02"/><rect class="cls-8" x="396.85" y="55.62" width="5.57" height="3.02"/><rect class="cls-10" x="402.41" y="55.62" width="2.34" height="3.02"/><polygon class="cls-4" points="368.13 157.15 368.13 103.19 368.13 76.13 348.75 56.74 294.67 56.74 294.67 76.77 294.67 103.19 294.67 157.15 368.13 157.15"/><polygon class="cls-5" points="348.75 76.13 368.13 76.13 348.75 56.74 348.75 76.13"/><polygon class="cls-11" points="368.13 76.13 348.75 76.13 368.13 95.52 368.13 76.13"/><path class="cls-5" d="M328.24,134.75a24.89,24.89,0,1,1,17.6-7.29,24.72,24.72,0,0,1-17.6,7.29Zm0-48.51A23.63,23.63,0,1,0,345,93.16a23.46,23.46,0,0,0-16.71-6.92Z"/><polygon class="cls-5" points="360.65 109.1 329.01 77.46 329.89 76.57 361.54 108.22 360.65 109.1 360.65 109.1"/><rect class="cls-4" x="308.97" y="90.59" width="4.69" height="4.69" transform="translate(25.43 247.29) rotate(-44.99)"/><path class="cls-5" d="M311.31,97.14l-4.2-4.2,4.2-4.21,4.21,4.21-4.21,4.2Zm-2.43-4.2,2.43,2.43,2.44-2.43-2.44-2.44-2.43,2.44Z"/><rect class="cls-4" x="342.82" y="124.45" width="4.69" height="4.69" transform="translate(11.37 281.06) rotate(-44.97)"/><path class="cls-5" d="M345.17,131l-4.2-4.2,4.2-4.2,4.2,4.21-4.2,4.19Zm-2.43-4.2,2.43,2.43,2.43-2.43-2.43-2.43-2.43,2.43Z"/><rect class="cls-5" x="342.93" y="90.49" width="4.69" height="4.69" transform="translate(35.56 271.48) rotate(-45.03)"/><path class="cls-5" d="M345.27,97l-4.2-4.2,4.2-4.21,4.21,4.21L345.27,97Zm-2.43-4.2,2.43,2.43,2.44-2.43-2.44-2.44-2.43,2.44Z"/><rect class="cls-4" x="308.63" y="124.79" width="4.69" height="4.69" transform="translate(1.23 257.23) rotate(-45.02)"/><path class="cls-12" d="M311,131.34l-4.2-4.21,4.2-4.2,4.21,4.2L311,131.34Zm-2.43-4.21,2.43,2.44,2.44-2.44L311,124.7l-2.43,2.43Z"/><rect class="cls-5" x="326" y="73.56" width="4.7" height="4.7" transform="translate(42.46 254.34) rotate(-44.99)"/><path class="cls-5" d="M328.34,80.11l-4.2-4.2,4.2-4.21,4.21,4.21-4.21,4.2Zm-2.43-4.2,2.43,2.43,2.44-2.43-2.44-2.44-2.43,2.44Z"/><rect class="cls-5" x="359.85" y="107.42" width="4.69" height="4.69" transform="translate(28.39 288.11) rotate(-44.97)"/><path class="cls-5" d="M362.2,114l-4.2-4.21,4.2-4.2,4.2,4.2L362.2,114Zm-2.43-4.21,2.43,2.44,2.43-2.44-2.43-2.43-2.43,2.43Z"/><path class="cls-6" d="M295,157c-11.55,11.55-25.46-2.35-13.9-13.91,19.07-19.77,7.77-9.17,26.84-29q8,8,16,16C304.2,149.21,314.79,137.91,295,157Z"/><path class="cls-4" d="M299.05,134.15c-1.79,1.69-4.56,4.34-10.13,9.81a18.78,18.78,0,0,1-6.62,4.61,18.92,18.92,0,0,1,4.61-6.62c16.85-17.18,7.1-7.76,23.94-24.93l2.32,2.32C301.85,130.89,303.13,129.84,299.05,134.15Z"/><path class="cls-9" d="M332.52,98.63A10.85,10.85,0,0,0,337,96.08l2,2-.07.07L327.16,110a1.8,1.8,0,0,0-2.22-.06c-.63.63-.42,1.86.48,2.76s2.13,1.11,2.75.48a1.79,1.79,0,0,0-.06-2.22l11.8-11.8.07-.08,2,2a10.94,10.94,0,0,0-2.55,4.48,15.58,15.58,0,0,0,1.66,12.27,39.36,39.36,0,0,0-10.38,5.66,38.6,38.6,0,0,0-6.3,5.9,98.93,98.93,0,0,0-7.46-8.31,100.45,100.45,0,0,0-8.3-7.45A40.91,40.91,0,0,0,320.25,97,15.54,15.54,0,0,0,332.52,98.63Z"/><rect class="cls-13" x="314.59" y="108.54" width="5.05" height="24.91" transform="translate(7.32 259.66) rotate(-45)"/><polygon class="cls-9" points="384.15 148.89 368.29 143.74 352.43 138.58 357.58 154.44 362.73 170.3 368.31 159.46 376.77 167.92 381.76 162.93 373.3 154.46 384.15 148.89"/><polygon class="cls-5" points="368.29 143.74 352.43 138.58 352.6 139.11 379.09 165.6 381.76 162.93 373.3 154.46 384.15 148.89 368.29 143.74"/><path class="cls-5" d="M382.35,60.47H370.19a1,1,0,0,1,0-1.94h12.16a1,1,0,1,1,0,1.94Z"/><path class="cls-13" d="M361.12,29.19a15.15,15.15,0,0,1,30.29,0c0,.5-.36,7.5-6.07,14.84-1.67,2.22-1.39,6.68-1.38,6.68H368.54s.31-4.46-1.35-6.68C361.48,36.68,361.12,29.69,361.12,29.19Z"/><path class="cls-6" d="M376.27,50.71h-7.73s.31-4.46-1.35-6.68c-5.71-7.35-6.07-14.34-6.07-14.84a15.14,15.14,0,0,1,15.15-15.14"/><path class="cls-6" d="M388.2,29.19h-1.33a10.62,10.62,0,0,0-10.6-10.6V17.27A12,12,0,0,1,388.2,29.19Z"/><polygon class="cls-9" points="379.58 51.89 378.26 51.67 380.85 36.02 382.16 36.23 379.58 51.89 379.58 51.89"/><polygon class="cls-9" points="372.96 51.89 370.37 36.23 371.68 36.02 374.27 51.67 372.96 51.89 372.96 51.89"/><path class="cls-9" d="M381.42,38.22c-.54,0-.78-.53-.95-.91-.07-.17-.22-.5-.3-.5s-.24.33-.31.5c-.17.38-.41.91-.95.91s-.78-.53-1-.91c-.07-.16-.22-.5-.31-.5s-.23.33-.3.5c-.17.38-.41.91-1,.91s-.78-.53-.95-.91c-.07-.16-.22-.5-.31-.5s-.23.33-.3.5c-.18.38-.41.91-1,.91s-.78-.53-.95-.91c-.07-.16-.22-.5-.31-.5s-.23.34-.3.5c-.18.38-.41.91-1,.91v-.7c.09,0,.24-.34.31-.5.17-.39.41-.92.95-.92s.78.53,1,.92c.07.16.22.5.3.5s.24-.34.31-.5c.17-.39.41-.92.95-.92s.78.53.95.92c.07.16.22.5.31.5s.23-.34.3-.5c.18-.39.41-.92.95-.92s.79.53,1,.92c.07.16.22.5.3.5s.23-.34.3-.5c.18-.39.41-.92,1-.92s.77.53.95.92c.07.16.22.5.3.5v.7Z"/><path class="cls-9" d="M384,50.72v7.91a1,1,0,0,1-1,1H369.55a1,1,0,0,1-1-1V50.72Z"/><line class="cls-9" x1="384.29" y1="51.48" x2="368.25" y2="51.48"/><path class="cls-5" d="M384.29,52.26h-16a.78.78,0,1,1,0-1.56h16a.78.78,0,0,1,0,1.56Z"/><line class="cls-9" x1="384.29" y1="54.07" x2="368.25" y2="54.07"/><path class="cls-5" d="M384.29,54.84h-16a.77.77,0,0,1-.78-.77.78.78,0,0,1,.78-.78h16a.78.78,0,0,1,.78.78.77.77,0,0,1-.78.77Z"/><line class="cls-9" x1="384.29" y1="56.65" x2="368.25" y2="56.65"/><path class="cls-5" d="M384.29,57.43h-16a.78.78,0,1,1,0-1.55h16a.78.78,0,1,1,0,1.55Z"/><path class="cls-6" d="M376.26,9.11a.39.39,0,0,1-.39-.39V.39a.39.39,0,0,1,.39-.39.4.4,0,0,1,.4.39V8.72a.4.4,0,0,1-.4.39Z"/><path class="cls-6" d="M365.66,12a.4.4,0,0,1-.34-.2l-4.16-7.21a.39.39,0,1,1,.68-.39l4.16,7.2a.4.4,0,0,1-.14.54.41.41,0,0,1-.2.06Z"/><path class="cls-6" d="M357.9,19.72a.46.46,0,0,1-.2,0l-7.21-4.16a.4.4,0,0,1-.14-.54.4.4,0,0,1,.54-.15l7.2,4.16a.4.4,0,0,1,.15.54.4.4,0,0,1-.34.2Z"/><path class="cls-6" d="M355.06,30.33h-8.32a.4.4,0,0,1-.4-.4.39.39,0,0,1,.4-.39h8.32a.38.38,0,0,1,.39.39.39.39,0,0,1-.39.4Z"/><path class="cls-6" d="M350.7,45.09a.38.38,0,0,1-.34-.2.39.39,0,0,1,.14-.54l7.21-4.16a.4.4,0,1,1,.39.69L350.9,45a.49.49,0,0,1-.2.05Z"/><path class="cls-6" d="M401.85,45.08a.46.46,0,0,1-.2,0l-7.21-4.16a.4.4,0,0,1,.4-.69l7.2,4.16a.4.4,0,0,1,.15.54.4.4,0,0,1-.34.2Z"/><path class="cls-6" d="M405.8,30.31h-8.32a.39.39,0,0,1-.4-.39.4.4,0,0,1,.4-.4h8.32a.39.39,0,0,1,.39.4.38.38,0,0,1-.39.39Z"/><path class="cls-6" d="M394.63,19.71a.39.39,0,0,1-.34-.2.4.4,0,0,1,.15-.54l7.2-4.16a.4.4,0,0,1,.4.69l-7.21,4.16a.46.46,0,0,1-.2.05Z"/><path class="cls-6" d="M386.87,12a.36.36,0,0,1-.2-.06.38.38,0,0,1-.14-.53l4.15-7.21a.41.41,0,0,1,.54-.15.4.4,0,0,1,.15.54l-4.16,7.21a.39.39,0,0,1-.34.2Z"/><path class="cls-6" d="M376.26,9.11a.39.39,0,0,1-.39-.39V.39a.39.39,0,0,1,.39-.39.4.4,0,0,1,.4.39V8.72a.4.4,0,0,1-.4.39Z"/><rect class="cls-5" x="587.44" y="96.45" width="29.74" height="58.53" rx="4.53" ry="4.53"/><path class="cls-4" d="M598.41,100h7.8a.4.4,0,0,1,0,.8h-7.8a.4.4,0,0,1,0-.8Z"/><path class="cls-4" d="M602.31,151.64a2.62,2.62,0,1,1,2.62-2.62A2.62,2.62,0,0,1,602.31,151.64Z"/><rect class="cls-6" x="589.43" y="105.36" width="25.77" height="38.17"/><polygon class="cls-13" points="615.19 143.53 589.43 143.53 615.19 105.36 615.19 143.53"/><path class="cls-14" d="M602.31,147.2a1.82,1.82,0,1,0,1.82,1.82A1.83,1.83,0,0,0,602.31,147.2Z"/><path class="cls-14" d="M612.65,96.45H602.13V100h4.08a.4.4,0,0,1,0,.8h-4.08v4.61h13.06v38.17H602.13v2.88h.18a2.62,2.62,0,1,1,0,5.24l-.18,0V155h10.52a4.53,4.53,0,0,0,4.53-4.53V101A4.53,4.53,0,0,0,612.65,96.45Z"/><path class="cls-7" d="M606.61,100.35a.4.4,0,0,0-.4-.4h-4.08v.8h4.08A.4.4,0,0,0,606.61,100.35Z"/><path class="cls-4" d="M604.93,149a2.62,2.62,0,0,0-2.62-2.62h-.18v.81l.18,0a1.82,1.82,0,0,1,0,3.64l-.18,0v.8l.18,0A2.62,2.62,0,0,0,604.93,149Z"/><path class="cls-9" d="M604.13,149a1.82,1.82,0,0,0-1.82-1.82l-.18,0v3.6l.18,0A1.82,1.82,0,0,0,604.13,149Z"/><path class="cls-2" d="M219.29,112.87l-1.17-10-6.4-10.3L181.25,78.73a4.31,4.31,0,1,0-3.58,7.85l27.08,12.36,3.26,5.11.86,5.93a6.36,6.36,0,0,0,8.19,3.74l2-.74A1.75,1.75,0,0,0,219.29,112.87Z"/><path class="cls-4" d="M170.05,95.61l26.22,27.21a8.06,8.06,0,0,1-1.35,1.73c-5.16,5-16.19,1.91-24.63-6.85-4.4-4.56-7.23-9.78-8.19-14.43Z"/><path class="cls-4" d="M157.17,93.78a4.66,4.66,0,0,0,5.44,3.7l36.28-6.89c2.53-.48,9.08-4.7,8.6-7.22l-7-9.38a4.66,4.66,0,0,0-5.44-3.7l-36.28,6.89a4.63,4.63,0,0,0-3.7,5.43Z"/><path class="cls-4" d="M178,110.38a11.39,11.39,0,0,0,.16-1.86V89a12,12,0,0,0-12-12H119.55v33.34Z"/><rect class="cls-5" x="130.7" y="70.05" width="22.65" height="44.45"/><rect class="cls-6" y="68.38" width="149.12" height="47.8"/><rect class="cls-13" x="145.56" y="68.38" width="3.56" height="47.8"/><rect class="cls-9" x="149.12" y="92.3" width="4.23" height="22.2"/><rect class="cls-13" y="92.3" width="145.56" height="23.87"/><polygon class="cls-13" points="149.12 92.3 145.56 92.3 145.56 116.17 149.12 116.17 149.12 114.5 149.12 92.3"/><path class="cls-4" d="M138.58,111.05a2.28,2.28,0,1,1,2.27-2.28A2.28,2.28,0,0,1,138.58,111.05Z"/><path class="cls-4" d="M175,85.3l10.85,9.3-1.74,13,7.16,10.07c.93,1.5,7.24,10.36,7.09,12l-12.66-3L166,107Z"/><path class="cls-4" d="M186.06,84.58,212,96.71a8.42,8.42,0,0,0,11.13-4.21L224.26,90c.05-.11.08-.22.12-.33L194.84,76.5Z"/><path class="cls-9" d="M146.35,64.81l87.9,56.73a3.81,3.81,0,0,1-4.31,1.43L144.43,67.79Z"/><path class="cls-5" d="M139.87,74.88l4.56-7.09L229.94,123h0l0,0,0,0c1.23,1.11,1.33,3.29.16,5.11s-3.2,2.62-4.71,2l0,0h0Z"/><path class="cls-9" d="M225.37,130.06a3.81,3.81,0,0,1,.48,4.52L138,77.85l1.92-3Z"/><path class="cls-4" d="M225.85,134.59a3.83,3.83,0,0,0-.48-4.53h0l0,0c1.51.66,3.54-.15,4.71-2s1.07-4-.16-5.11l0,0,0,0h0a3.82,3.82,0,0,0,4.32-1.44l2.27,10.7Z"/><path class="cls-9" d="M235.41,127l1.12,5.25-5.24,1.16a20.46,20.46,0,0,1,4.12-6.41Z"/><rect class="cls-3" x="142.05" y="63.47" width="3.55" height="3.64" transform="translate(11 150.76) rotate(-57.18)"/><rect class="cls-2" x="136.37" y="68.5" width="8.43" height="3.64" transform="translate(5.33 150.42) rotate(-57.21)"/><rect class="cls-3" x="135.57" y="73.53" width="3.54" height="3.64" transform="translate(-0.4 149.98) rotate(-57.2)"/><path class="cls-4" d="M183.76,115.1l19.63,4.72a7.82,7.82,0,0,1,5.78,9.43l-.61,2.53c0,.11-.06.21-.1.32l-16.77-4Z"/><path class="cls-4" d="M198.58,73.29,196.26,81l13.56,6.2L221.26,112a8.47,8.47,0,0,0,11.14,4.4l2.58-1.12.32-.16L222.18,85.3Z"/><path class="cls-6" d="M697.28,142.46V128.71a2.3,2.3,0,0,0-2.29-2.29H647.44a2.3,2.3,0,0,0-2.29,2.29v13.75a2.29,2.29,0,0,0,2.29,2.29H695A2.29,2.29,0,0,0,697.28,142.46Zm-48.69-6.87a2,2,0,1,1,2,2A2,2,0,0,1,648.59,135.59Z"/><path class="cls-13" d="M697.28,132v-3.24a2.3,2.3,0,0,0-2.29-2.29H647.44a2.3,2.3,0,0,0-2.29,2.29V132Z"/><polygon class="cls-5" points="649.45 130.24 648.87 130.24 648.87 126.42 649.45 126.42 649.45 130.24 649.45 130.24"/><polygon class="cls-5" points="653.38 130.24 652.81 130.24 652.81 126.42 653.38 126.42 653.38 130.24 653.38 130.24"/><polygon class="cls-5" points="657.32 130.24 656.75 130.24 656.75 126.42 657.32 126.42 657.32 130.24 657.32 130.24"/><polygon class="cls-5" points="660.69 130.24 660.69 126.42 661.26 126.42 661.26 130.24 660.69 130.24 660.69 130.24"/><polygon class="cls-5" points="665.2 130.24 664.63 130.24 664.63 126.42 665.2 126.42 665.2 130.24 665.2 130.24"/><polygon class="cls-5" points="669.14 130.24 668.56 130.24 668.56 126.42 669.14 126.42 669.14 130.24 669.14 130.24"/><polygon class="cls-5" points="673.08 130.24 672.5 130.24 672.5 126.42 673.08 126.42 673.08 130.24 673.08 130.24"/><polygon class="cls-5" points="677.01 130.24 676.44 130.24 676.44 126.42 677.01 126.42 677.01 130.24 677.01 130.24"/><polygon class="cls-5" points="680.95 130.24 680.38 130.24 680.38 126.42 680.95 126.42 680.95 130.24 680.95 130.24"/><polygon class="cls-5" points="684.89 130.24 684.32 130.24 684.32 126.42 684.89 126.42 684.89 130.24 684.89 130.24"/><polygon class="cls-5" points="688.25 130.24 688.25 126.42 688.83 126.42 688.83 130.24 688.25 130.24 688.25 130.24"/><polygon class="cls-5" points="692.77 130.24 692.19 130.24 692.19 126.42 692.77 126.42 692.77 130.24 692.77 130.24"/><polygon class="cls-1" points="255.24 58 254.08 58 254.08 46.42 255.24 46.42 255.24 58 255.24 58"/><path class="cls-1" d="M254.66,45.84a1.26,1.26,0,1,0,1.26,1.25,1.25,1.25,0,0,0-1.26-1.25Z"/><polygon class="cls-1" points="261.99 35.42 247.33 35.42 247.33 33.1 261.99 33.1 261.99 35.42 261.99 35.42"/><path class="cls-1" d="M255.59,59.92h-1.85l-9.1-11.62,4-8.13V36h12.12v4.17l4,8.13-9.09,11.62ZM247.36,48l7.3,9.34L262,48l-3.55-7.31V38.31h-7.49V40.7L247.36,48Z"/><path class="cls-1" d="M329.32,39.83h-2.09A21.13,21.13,0,0,0,311.1,19.25l.5-2a23.22,23.22,0,0,1,17.72,22.62Z"/><path class="cls-1" d="M284.82,39.83h-2.09a23.37,23.37,0,0,1,17-22.44l.56,2a21.26,21.26,0,0,0-15.49,20.42Z"/><path class="cls-1" d="M290.1,49.93H277.82V37.65H290.1V49.93Zm-10.18-2.09H288V39.75h-8.09v8.09Z"/><path class="cls-1" d="M334.23,49.93H322V37.65h12.28V49.93ZM324,47.84h8.09V39.75H324v8.09Z"/><path class="cls-1" d="M312.16,24.29H299.88V12h12.28V24.29ZM302,22.19h8.09V14.11H302v8.08Z"/><polygon class="cls-1" points="300.18 17.72 281.98 17.72 281.98 15.62 300.18 15.62 300.18 17.72 300.18 17.72"/><path class="cls-1" d="M281.44,16.2a.47.47,0,0,1,.47.47.46.46,0,0,1-.47.47.47.47,0,1,1,0-.94m0-2.1A2.57,2.57,0,1,0,284,16.67a2.57,2.57,0,0,0-2.57-2.57Z"/><polygon class="cls-1" points="330.73 17.72 312.53 17.72 312.53 15.62 330.73 15.62 330.73 17.72 330.73 17.72"/><path class="cls-1" d="M330.61,16.2a.47.47,0,0,1,.47.47.46.46,0,0,1-.47.47.47.47,0,1,1,0-.94m0-2.1a2.57,2.57,0,1,0,2.57,2.57,2.57,2.57,0,0,0-2.57-2.57Z"/><path class="cls-7" d="M599.14,46c-2.09,1.31-5-1.63-3.72-3.73,2.42-3.58,3.85-5.92,6.12-9.62a46.57,46.57,0,0,1,7.23,7.22C605.07,42.18,602.73,43.61,599.14,46Z"/><path class="cls-13" d="M627.69,18.32c4.32-4.82.25-8.88-4.56-4.56C615,21,609.85,25.51,601.67,32.69l7.09,7.09C615.94,31.6,620.43,26.43,627.69,18.32Z"/><rect class="cls-15" x="603.88" y="31.44" width="1.57" height="10.67" transform="translate(151.08 438.32) rotate(-45)"/><path class="cls-13" d="M590,45.37c-.34,1.77-.23,6.29-3.13,6.71,0,0,6.08,1.4,9.88-.59A7.26,7.26,0,0,0,599,49.75,5.18,5.18,0,0,0,591.14,43,5.12,5.12,0,0,0,590,45.37Z"/><path class="cls-4" d="M598.52,42.51l5.38-5.38L600.75,34c-1.64,2.66-2.9,4.69-4.65,7.32a5.28,5.28,0,0,1,2.35,1.15Z"/><path class="cls-6" d="M605,36l23.6-23.6c-1.15-.87-3.23-.68-5.48,1.34C615,21,609.85,25.51,601.67,32.68Z"/><polygon class="cls-13" points="605.01 36.02 601.67 32.68 601.45 32.45 600.34 33.56 600.75 33.97 603.9 37.13 605.01 36.02"/><path class="cls-6" d="M592.64,47.33c1.55-5.25,5.88-4.82,5.88-4.82l-.07-.07a5.28,5.28,0,0,0-2.35-1.15,5.21,5.21,0,0,0-5,1.71A5.12,5.12,0,0,0,590,45.37c-.34,1.77-.23,6.29-3.13,6.71C586.85,52.08,591.1,52.57,592.64,47.33Z"/><path class="cls-1" d="M572.3,167.79H558a1.14,1.14,0,0,1-1.14-1.13V152.4a1.13,1.13,0,0,1,1.14-1.13H572.3a1.13,1.13,0,0,1,1.13,1.13v14.26a1.14,1.14,0,0,1-1.13,1.13Zm-13.13-2.26h12v-12h-12v12Z"/><path class="cls-1" d="M552.32,169.4a.57.57,0,0,1-.56-.57v-18.6a.57.57,0,1,1,1.13,0v18.6a.57.57,0,0,1-.57.57Z"/><path class="cls-1" d="M554.87,168.15a.56.56,0,0,1-.56-.56V151.47a.57.57,0,1,1,1.13,0v16.12a.56.56,0,0,1-.57.56Z"/><path class="cls-1" d="M578,169.4a.57.57,0,0,1-.57-.57v-18.6a.57.57,0,1,1,1.13,0v18.6a.57.57,0,0,1-.56.57Z"/><path class="cls-1" d="M575.46,168.15a.56.56,0,0,1-.57-.56V151.47a.57.57,0,1,1,1.13,0v16.12a.56.56,0,0,1-.56.56Z"/><path class="cls-1" d="M637.52,51.42H620.73a.77.77,0,0,1-.77-.78v-14a.76.76,0,0,1,.77-.77h16.79a.76.76,0,0,1,.77.77v14a.77.77,0,0,1-.77.78Zm-16-1.55h15.24V37.43H621.5V49.87Z"/><path class="cls-1" d="M637,48.62a.77.77,0,0,1-.51-.19l-3.11-2.67-3.88,2.58-4.91-5.28-3.31,3.41a.77.77,0,0,1-1.12-1.07l4.45-4.6,5.13,5.52,3.76-2.5,4,3.43a.78.78,0,0,1-.5,1.37Z"/><path class="cls-1" d="M630.05,43.56a2.78,2.78,0,1,1,2.77-2.78,2.77,2.77,0,0,1-2.77,2.78Zm0-4a1.23,1.23,0,1,0,1.22,1.22,1.23,1.23,0,0,0-1.22-1.22Z"/><path class="cls-1" d="M706,92.57a9.24,9.24,0,0,1-8.88-6.25.79.79,0,0,1,0-.48,9.43,9.43,0,0,1,17.76,0,.79.79,0,0,1,0,.48A9.24,9.24,0,0,1,706,92.57Zm-7.33-6.49a7.91,7.91,0,0,0,14.66,0,7.91,7.91,0,0,0-14.66,0Z"/><path class="cls-1" d="M706,90.27a4.2,4.2,0,0,1-4.2-4.19.78.78,0,1,1,1.55,0A2.65,2.65,0,1,0,706,83.43a.78.78,0,1,1,0-1.55,4.2,4.2,0,1,1,0,8.39Z"/></g></g></svg>