<svg xmlns="http://www.w3.org/2000/svg" viewBox="0 0 385.63 245.86"><defs><style>.cls-1{opacity:0.09;}.cls-2{fill:#090909;}.cls-3{fill:#5e88a3;}.cls-4{fill:#262626;}.cls-5{fill:#3b4856;}.cls-6{fill:#f4f3f3;}.cls-7{fill:#fff;}.cls-8{fill:#c64c4b;}.cls-9{fill:#5e6374;}.cls-10{fill:#3e6b76;}.cls-11{fill:#c74b4c;}.cls-12{fill:#5d85a0;}.cls-13{fill:#47687a;}.cls-14{fill:#eecba5;}.cls-15{fill:#333;}.cls-16{fill:#1a1a1a;}.cls-17{fill:#f9ebdb;}.cls-18{fill:#ebf3f1;}</style></defs><title>Ecran </title><g id="Calque_2" data-name="Calque 2"><g id="Calque_1-2" data-name="Calque 1"><g class="cls-1"><path class="cls-2" d="M138.7,137.91c-2.93-.74-3.09.14-3.42-1.33s-2.28-1.47-4.07-1.47a4.89,4.89,0,0,1-3.91-1.33c-1.46-1.17-4.56-1.32-5.54-1.62s-.49-2.8-2.44-5.15-6-2.8-8.63-4.12-1.79-6.48-5.54-6-4.07,1.77-7.49.15-5.7-2.65-7.49-1.48-4.07,3.39-5.21,4-3.1-.44-4.24-.29-2.44-1-3.25-2.06,1.46-6.19-.66-6.19-4.88-.88-4.88-1.62,4.39-5.15,3.09-5.89-3.9-.29-6.18,2.5-4.4,2.65-5.54,1.62-3.75-7.06-1.63-10.45,4.91-5.38,7.52-5.24,3.65-.58,6.26-.72,5.11,1,5.76,1.84-.65,2.35,1,4.12,2.61,1,2.77,1.77-1.31,1.47-2,1.47-6,1.32-3.91,2.21,5.87.14,6.68,1.32-2.6,3.68,2.28,3.83,8.14.74,10.91.88,4.73.3,5.05.89,2.28-2.21-2.28-2.21-8.14-2.36-10.58-2.8-4.08-1.91-4.24-3.68.16-3.09-.81-4.56-3.42-5-1.14-6.48,6.84-4.27,8-6.19,1.14-2.35,3.74-3.83A47.91,47.91,0,0,0,103.85,75c1.46-1.32,3.91-3.38,4.39-2.35s2.78,1.32,5.54.44S120,70,117,70s-4.72-.74-3.91-1.77-1.95-1.47-2.77-1.32-.81-1.48,2-1.92.53,2.24,2.81,2.1,3.7-2.24,5.33-2.54,2.28,1,.16,2.36-2.77.88,0,1.47,3.59,1.91,5.22.59-.33-1.77-.49-3.54,1.16-5.28-.62-6.46-2.64-2.37-2.64-3.55.33-3.68-1.47-2.5-3.25,1.91-3.9,1.32.32-1.76-1.14-2.65-1.63-2.2-3.42-2.06-3.59-1.18-4.56.74-2,3.53-2.29,4.12,1.15,2.65-.16,3.68-4.88,2.51-5.37,3.54-2.44,3.68-2.93,1.91,1.62-4.42-1.31-5.15-5.21-.15-5.7-1.77S88.05,53.54,91,52.21s5.87-3.68,8.63-4,.82,1.76,3.1,1.62-.33-1.18,2.44-1.62,2.28-.44,1.47-1.33-.33-1,1.79-1.91.49-1.47,2.61-2.21,2.6-1.47,3.74-1.47,1,.44.33,1.76-1.14,2.21.81,1.33,2.93-1.47,1.47-.15-2.45,1.33-4.56,1.62-1.47.59-.49,1.62,3.42,1.18,4.23,1.77,1.79,2.65,3.75,1.62.49-1.18,3.09-2.21,6.36-1.62,6-3-2.93-2.06-3.26-3.68,3.59-2.5-1.47-3.24-2.11-1.32-4.55-1.32-7,0-8.64.73-2.6-.44-3.42.74.16,2.8-.65,2.8-2.28,1.18-2.93,0-2.12-2.36-.16-2.8,2.28-.15,2.6-1.47-2.76-1.18-1-1.47,2.6.14,5,.14,8,.89,8.79-.44-1.3-1.32-3.75-1.47-6.67-.88-8.46-.15-4.08,1.92-4.89,3.1-.82-.3-2.44,0-4.4,1.91-2.93,2.79,1.46,1.92-.17,1.92-2.12,1.47-3.25,1.47-4.24-.15-2.77-.89,3.09-.73,2.93-2.5,1.62-2.35,1.62-2.94-3.9,1.32-7,.44-4.39-2.21-7.49-2.06S74.05,39.26,76,39.55s3.42-.29,3.75.59-.33,1.62.81,2.06,3.26,1.62.49,1-1.47-1.62-5.7-1.77-6.84-1.32-11.24-.29-3.74,1.91-6.68,1-10-4.21-14.9-3.32a39.17,39.17,0,0,0-11.48,4.5c-1.47.88-2.26-1.36-4.87-1.21s-8.86-.72-7.56.75,2.93,1.62,1,1.92-4.56.44-5.54,1.76-4.56,2.06-2.28,2.66,6,1.91,4.4,2.06S6.24,54.41,2.66,55.14s-3.4,9.1-.31,8.07c3.93-1.31,11.38-9.1,13.34-9.83s2.76-.15,2.6.88,2.28-.44,4.24-1.77S25,48,26.64,48.92s2.08.48,3.38.19,7.72,1.77,8.86,2.36a33.67,33.67,0,0,1,3.57,2.8c.82.59,1.14,1.92.33,2.07s-1,.88-.82,2.06.82,2.21-.81,2.5-1.3,2.06-.33,1.91a1.83,1.83,0,0,0,1.79-1.47c.17-.88,2.28-2.5,2-1.32s-1.14,2.35-1.14,3.24-1.14.73-1.3,1.62.16.88,1,1.61.33,1.18.17,2.8-5.05,6-5.7,7.51-.33,3.53-.33,5.15-.65,3.69,1.14,4.27,1.95.89,1.95,2.36,0,3.24,1,4.27.49.88.49,2.5,1.14.74,1.3,2.06-.81,1.92.82,3,3.42,1.77,2.6.15a39.91,39.91,0,0,1-2.11-5.3c-.82-2.36-1.31-6.63-.33-5.3s2.28,5.3,3.75,8.09,3.25,2.51,3.25,4.57-1.79,4,1.8,5.3,6.18,4.12,8.3,3.83,3.42-1.48,4.24-.15,2.6,3.09,4.55,3.09,2.61,1.18,2.93,3,1.63,2.06,3.59,2.65,2.44,2.5,3.91,2.35,3.42-.73,3.42.59.65,4.57-1.79,6.63-3.58,3.53-2.28,4.85.16,2.66-.49,3.69.49,1.91,1.79,3.53a21.25,21.25,0,0,1,4.23,6.77c1.14,3.24,2.77,4.42,5.54,5.45s4.88,2.8,4.88,5.3-.16,11-.16,13.55,1.47,5,1,6.92a4.89,4.89,0,0,0,.65,4.27c.65.73.49,2.35.65,4s2.12.44,2.12,1.92-.81,3.68.16,4.41-1.14,3.39,3.26,5.89,4.72,2.65,5,3.1,1.79-.89,1.79-.15-2.44,5.06,2.12,5.06,7.33-1.53,4.56-3.44-4.4-1-4.89-3-1.14-1.62-1.46-2.94,1.14-1.92.65-3.24-2.84-1.46-2.67-2.79,1.69-2.51,2-3.1a1.23,1.23,0,0,0-.49-1.77c-.82-.59-.65-.73.49-1s1.3.15,1.79-1.32,2-1.33,2.6-1.77,2.93-1,2.12-2.94-3-3-1.19-3,4.12.07,5.26-2,.65-2.5,2-4.12.71-3,.71-4.2a2.72,2.72,0,0,1,1.89-3c1.79-.73,7.66-1.62,8.47-3.83s1.63-4.56,1.3-6.92-.48-3.83,1.31-5.74,4.07-3.53,4.07-5.3S141.63,138.64,138.7,137.91Z" transform="translate(0)"/><path class="cls-2" d="M169.16,38.25c1.79-1.77,1.31-2.65,3.75-3.53s1.79-2.06,1.46-3.83,1-1.06,2-1.65a6.2,6.2,0,0,1,3.72-1.15c2.29-.15.17-.88.17-1.77s-1.63-.73-3.91-.44-2,0-3.58-.59-11.24-.59-13.68-.59-6.84.44-9.12.59-2.12,0-6.52-.44a154.19,154.19,0,0,0-20.19.29c-4.24.45-6.65-.66-9.42,1s-4,.9-7.15,1.2-5.23-.43-6.7-.43-1.3-.74-3.91.15-1.79,1.47-2.77.29-2.28,0-6.84,1,2.26,4.61,3.73,5.05a33.51,33.51,0,0,0,4.88-.59c1.79-.44,2.61.59,3.75.3s1.46-1.33,8-2.65,11.07-.3,13.68.73,2.6.44,4.88-.88,6.19-2.36,10.26-2.95,1.47.74-1.14,1.62-4.88.59-4.39,2.06,5.53,1,7,1,1.63,2.06,1.79,3.23-.16,1.77.16,3,1.15,1-.32,2.21-2.28,1-2.28,3.09a6.79,6.79,0,0,0,3.26,5.74c2.28,1.47,3.58,1.62,4.88-.73s4.4-3.83,6-4.57,3.9,0,6-1.77,4.89-1,8-1.91S167.37,40,169.16,38.25Z" transform="translate(0)"/><path class="cls-2" d="M172,46.61c-4.89.59-9.45-.88-8.63,1.47s1.17,6.83,3.78,6.09c4.47-1.26,8.5-2.82,7.35-4.74S176.92,46,172,46.61Z" transform="translate(0)"/><path class="cls-2" d="M203.52,35.3c.17.05.35.06.5.11A2,2,0,0,0,207,33.94c1.79-2.35,1.14,1.91,3.09,1.18s4.72-2.5,7-3.53-2.77-.59-6.84-1.18-9.78.44-11.41,1.47S201.14,34.69,203.52,35.3Z" transform="translate(0)"/><path class="cls-2" d="M227.61,29.21s-.82,1,1.14,1,6-1.18,9.28-1.18,2.28-1,1.63-1-2.44-1.62-5-1.47-2.44,1.17-4.07,1.17-1.3-.44-4.72-.29S225.82,28.91,227.61,29.21Z" transform="translate(0)"/><path class="cls-2" d="M380.84,37.63c-.33-1.76-.12-4.92-5.62-4.64a84.56,84.56,0,0,1-14-.26c-1.79,0-.87-1.13.43-1.13s1.27-1.3,0-1.89a2.7,2.7,0,0,0-3.6,1.18c-.49,1.33,1.85,1.74-1.9,1.74s-8.82,4.95-13.22,4.21-5.74-3.39-9.48-3.53-6.88,3.26-10.79,3.26-2.61-1.33-4.24-3-2.44-1.17-7.32-1.17-2.28,1.76-1.31,2.06A15.94,15.94,0,0,1,315.1,37c1.79,1.47-3.26.89-5.38,1s-2-1-4.39-2.35-8.47-.59-11.9-.74-3.58,0-4.88-2.21-4.07-1-7.65-1-5.54-1.62-7.33-2.65-4.56-1.18-8.47-1.77-1.79,2.21-.32,2.36a15.25,15.25,0,0,0,3.25.73c1.63.15,5.05.3,6.84,2.21s-5.54,1.18-8.79,2.8-5.86.89-8.14,1.76,1.14,2.36,1.95,4.28,0,1.91-1.47,2.35.49-2.06-.16-2.79-3.1-4.57-5-5.75-1.63,1-1.3,2.66.81,1.61,1.3,2.79-2.12,0-3.42-.88-5.54,1.18-7.49.29.65-.59.65-1.47-2.28-.15-2.93-1.48,4.07-2.94,7-3.38,2.61-.44,2.61-1.77-5.21-.88-9.61,1-3.26,3.25-3.91,4.57,1.46,1.47,2.44,2.21-1.14,1-3.09,1.62-2.44,0-4.73.73-1,1.62-2.93,2.36-1.78.73-3.41,1.32.32-2.2,2.6-2.5,1.63-1.47,1-1.91-4.89-1.62-9.45-2.8-11.89.44-14.33,1.47-2.28,1.77-2.6,3.24-5.87,3.68-8.63,5-.34,3.09.48,4.27,2.6.58,4.89,0,1.95,1.91,2.28,2.79,1.63,1,3.75.15S206,52.62,206,51.44s-.49-1.77,1-3.39A16.15,16.15,0,0,1,211,44.67c1.3-.74,1.14.58-.82,2.06s-.65,1.91.33,3.68,2.93,0,5.38-.3S213.8,52,212,52s0,1.76-1.14,1.76-1.31.74-1.47,2.51-.81,1.32-2.11,1.77a10.76,10.76,0,0,1-5.38.14c-2.12-.44-1.95-2.21-3.42-3.39s-1.79.59-1.79,1.33-1.47,2.36-2.11,2.36-2.61,1.76-3.76,3.24-1.94.59-2.27,0,.81-1.48.16-3-3.26-2.65-2.45-6-1-1.62-3.58-1.33-3.42,1.33-3.58,2.21-1.63,2.65-3.26,4.27-.49,2.94.33,4.71,2.93-.59,3.58-2.06,1.47-2.21,2.44-1.47-1.46,2.06-1.79,3.83.65,1.61,2.94,1,1.14-1,2.92-.29-1.62,1.33-3.74,1.47-1.3,1.48.49,2.65,1,3-.17,3.09-3.25.44-6.51,1-.33,2.95-1,4.27-.81,4.27.65,4.42,1.47,2.36.66,3.09a14.46,14.46,0,0,1-2.93,2.8c-2,1.33-.5,2.5-1.14,4.27s-2.29.74-4.24,2.65a29.12,29.12,0,0,0-4.23,5.6c-1.47,2.21-1.63,2.35.16,5s0,3.39-1.46,5.74.48,2.51,1.13,4.57,2,1.62,2.45,3.68,1.13,2.65,3.42,4.12,4.56,3.54,5.7,3.1a13.05,13.05,0,0,1,6.67-1.48c3.75.15,2.45-1.47,6.36-2.06s.59.84,1.07,1.87,3.81,1.67,6.74,1.81.49,3.39.33,5.45,0,2.06,1.46,3.83a25.08,25.08,0,0,1,3.91,7.8c.49,2.06-.48,4.42-1.79,6.33s-.81,6.33,2,9.58,1.13,3.08,1.13,6.47,2,2.8,3.43,4.71.81,5.45,2.11,7.37,3.59.14,6.19-.74,3.75-.59,6.84-2.65,5.54-6.18,5.54-7.36,1-1.62,2.61-2.21,1.3-4.42,1.14-5.45a2.77,2.77,0,0,1,1-2.5c.66-.59,4.73-4.13,6.19-5.6s.16-3.53-.16-5.89-1.3-3.23-1.3-6-1-2.51,4.39-7.07,10.43-11.78,10.91-13.4a7,7,0,0,0,0-4.12c-.32-1.18-7.33,1.18-9,1.18s-5.78-3.14-6.11-4.32-1.54-2.46-3.66-4.22-.48-4.28-2.11-6.19A14.78,14.78,0,0,1,228.62,94c-.33-1.62,2.44,1.18,4.55,3.38a49.63,49.63,0,0,1,5.71,7.81,15.56,15.56,0,0,1,1.63,5.45c.16,1.76,1.46,2.06,3.42,1.91s8.79-3.38,11.23-4.42a14,14,0,0,0,6.52-7.06c1.14-3-2.44-2.51-4.07-4s-1.63,0-3.58.44-3.59-1.91-6.68-4.56-1.14-1.77-.49-2.36,3.75,1.33,5.54,3.25S254.51,95,256.63,95s2.61.88,5.38,1.62,4.23-.29,6.6-.06,2,1.24,3.65,3.59,1,1.63,4.57,1.92,1,0,1,2.06.33,2.8,2.45,5.3,2.93,7.22,3.58,9.57,1.95,0,4.07,0-.61,2.24,1.79,4c2.77,2,2.62-.87,2.62-1.75a6.2,6.2,0,0,0-1.8-3.7c-1-.73-2.28-.59-1.15-1.77s-1.32-1.94-1.32-3.55.64-3.81,1.46-4.55,4.75-2.79,6.54-4.71,3.26-2.2,5.71-2.06.48.44,1.95,2.21,1.79,4.27,3.42,6,1.79-.3,3.09-.89.49,1.77,1.47,3.53.32,4.13.32,5.75,2.12,3.24,3.42,4.71.82,2.21,0,2.8-2.44-1.47-3.74-2.65-3.26-.44-2,.88,2.12,3.68,3.58,6.18,4.57,5.45,6.68,8.1,9,3.83,11.57,3.83,7.81,2.07,10.42,2.36a11,11,0,0,0,6.35-.88c1.79-.89,1-1.92.82-2.36s-1.47.44-3.26.74a37.34,37.34,0,0,1-4.56.44c-2.28.14-.82-.74-3.26-.89a31,31,0,0,1-7.65-1.47c-2.77-.88-4.24-1.62-6.19-2.21s-.17-1.62-.33-4.12-1.95-1.47-3.42-2.36-1-2.8-.32-2.21.81,1.33.81-1.77-3.09-5.15-5-7.8-1.63-4.12-1.46-5.45,3.58,1.18,5.37,3.1,1.79,1.91,2.77,1.47,3.91-1.91,4.56-4.27-5.21-7.07-6-9.28,1.14-.88,2.12-2.35,2.12.59,1.47,1.62.16,1.62.81,2.65.65,0,1.3-1.33.17-1.76,1.31-2.64,5.53-2.07,6.68-3.1,1.95-2.21,3.41-5.89-.16-3.53-.81-4.86a32.25,32.25,0,0,0-3.75-4.86c-1.14-1.32-.16-1,.66-1.47s.16-1.47-1.8-2.06-1.62.59-3.41.29-.82-1.47,1.14-3.53,1,.44,2.27,1.32,1.63-.73,2.61-.29a11.91,11.91,0,0,1,4.4,3.09c1.46,1.77,1.45,4.33,2.91,4.19s1.48-1.24,2.14-2.57S343.09,80,341.94,79s-2.58-.88-1.6-1.76S340.5,75,341,74s2.29-.45,4.07-1.18,2-3.24,2-5.89a6.19,6.19,0,0,0-2.28-4.71c-.82-.89,1-.44,2.44.58s3.75,6.63,4.24,8.84.16,2.21,2.11,4.12,1.31,1.62.65,3.83-2.27,2.8-4.72,3.39-1.62,1-3.09,3.24.81,2.35,2.11,2.94,1.47-1.84,3.1-2.87a12.43,12.43,0,0,1,6.67-1.54c2.77,0-.81-3.39-1-5.16a11.23,11.23,0,0,0-1-4.27c-.65-1.32.65-1.32,2.61-2.21s1.79-2.65.65-2.65-2.12.74-4.72.59-2-2.06-2.61-2.8a7.91,7.91,0,0,1-1.63-3.68c-.16-1.32-2.44-3.09-4.07-4.41s-2.61-2.21-2.61-1.62-1-.15-3.26-.3-2.76.3-4.71.15.16-3.09,1-5.16,3.1-.88,4.89-.88,8.09-7,10.69-6.44,1.47-1.47,2-3.09,1.62-.74,3.09-.15,1.95.74,1.95-.59,1.31-1.62,2.45-.44a2.41,2.41,0,0,1,.21,2.37,10.71,10.71,0,0,0-.38,4.77c.24,1.54.69,3.13,1.56,3.55,1.79.89,1.06,5.78,3.18,7.11S368,57.19,368,54.69a20.56,20.56,0,0,0-2.47-9.1c-1.46-2.36-.49-1.33,2.28-1.33s2.93-.88,3.58-1.62,1.14-.88,3.58-.88,1-.89-.16-2.07-3.42-.88-2.6-1.62,5.2.45,7.33,1.18S381.17,39.4,380.84,37.63Zm-151.9,49c-1,1.77-1.46,2.94-2.92,2.5s-6.36-.29-8.8-1-6-2.06-6.68-.44,1.63,2.94-2.44,1.62-8.47-2.94-9-4.12,1.63-4.42-1.3-4.42-7-.15-8.31.73-6.35,2.51-8,2.07-3.74-.89-1.14-1.92,5.71-.44,6-1.91-2.28-1.77.32-3.09,1.63-2.51,3.43-3.24,4.23-.59,5.53-1-.49-.89,2.12.44,4.23,3.83,5.53,4,2.12,1,1.31,1.61a6.05,6.05,0,0,1-2.61,1c-.48,0-.81,1.18-.32,1.33s1.62,2.06,2.44,1.47-.29-1.55,1.17-2,3.23-1,2.58-1.84-1.31-1.91,0-1.32,2.83.49,1.36-.84-2.34-1.52-4.13-2.7-3.75-1.76-3.75-2.65-1.14-2.5.65-1.91,8,3.68,8,4.86,1.62,3.24.15,4.27,1.47,1.32,2.12,1.91.33,2.21,2.12,1.92,3.1-.15,2.12-1.77-2.61-2.35-1-2.94,2-1.33,2.44,1.17-.16,3.39,3.75,3.54,6.51-.89,7,.14A4.89,4.89,0,0,1,228.94,86.63Zm6.36-11c-2.61-.15-6.47,0-8.59,0a20.92,20.92,0,0,0-4.24.51c-1.79-.29-5.25-.37-3.14-2.87s.82-5.74,3.43-4.86,2.71,4,4.34,2,3.47-4.17,4-2.55-2.28,3,1.14,4.27S237.9,75.73,235.3,75.59Zm16,6.25c-2.44,0-5.73-1.25-5.73-2.43a18.07,18.07,0,0,0-.27-2.67c-.83-3.31-3.36-3.64-3.36-5.55s2-3.41,4.58-3.41,5.89,0,3.93,2.1-5.72,1.88-3.12,5.12S253.78,81.84,251.33,81.84Z" transform="translate(0)"/><path class="cls-2" d="M340.2,102.46c1.28.33,1.65-4.47-.73-3.81S338.7,102.07,340.2,102.46Z" transform="translate(0)"/><path class="cls-2" d="M343.14,116.83c1.1.66,1.29,1.82,1.1,3.64s-2,1.66,1.1,2.82,6.77,3.14,5.86-.5-.19-4.14-3.48-7-3.48-1-3.84-3.31-1.29-6.62-2.57-5c-1.13,1.46-2,2-.73,4.47S342.05,116.17,343.14,116.83Z" transform="translate(0)"/><path class="cls-2" d="M336.19,122.62c-1.11,1.29-3.3,4.14-4.76,5.13s-4-.33-3.84,2,.36,3.31.55,5,.55,2.65,3.29,2.65,4,.83,4.94.5.73-1.82,1.83-3.81,2.93-1.49,2.2-3-.73-1.16-.73-2.65.91-.49.36-3S337.47,121.14,336.19,122.62Z" transform="translate(0)"/><path class="cls-2" d="M374.81,138c-2.39-2.31-6.41-4-8.06-3.8s-3.11,2.48-4,1.65-3.66-4.8-5.13-3.64.18,2.48-1.65,2.48-2.38,2-2.74-.66-1.83-4-2.2-2-.55,3.31-1.46,1.82-1.47-.49-1.47-2-3.65-3.15-5.12-1.49a4.8,4.8,0,0,0-1.65,3.47c-.36,2.32-1.28,6,.74,5s2.38-.17,3.29-1.33a2.88,2.88,0,0,1,3.66-1.15c1.65.66.92.66,3.84.33s4.39-.33,6.41.82,6,.5,6,1.66-4.21,2,0,3.14,5.12,3.81,6.4,2.49,3.12-3.15,4.4-1.82,6.22,5,5.3,3-.73-3.8,2.2-5.95,2.19-3.15.91-3.15-1.28,1.49-4.21,1.82S377.19,140.33,374.81,138Z" transform="translate(0)"/><path class="cls-2" d="M376.09,159.36c-1.65-3.81-1.65-6.79-2.57-8.44s-.18-3.64-2.92-3.64c-1.12,0-1.1.66-2,2.81s.18,6.12-2.19,5.62-3.48-1.48-4-3.63.73-4.14-1.1-4.14-6.95-1.16-8.23.66.36,2.48-2.38,2.48-3.85,0-5.31,1.66S341.86,159,334,159.36s-3.84,4.13-3.84,8.27-4.21,6.62-2.38,8.1-.55,3.48,3.29,2.32,7.32-1.49,13.37-2.32,8.78-1.15,9,1.49-.73.83,1.65,1.33-.18,4,2.56,4.3.46,2.69,2.84,2.69,1.75,1.75-.26,1.75-2.08,4.69.85,3.37,5.17-2.52,5.17-4.5-.36-2.15,3.11-4.64,11.53-8.43,11-13.23S377.73,163.16,376.09,159.36Z" transform="translate(0)"/></g><path class="cls-3" d="M75.48,144.32H73.15a12.1,12.1,0,0,0-1.53-3.63v0L73.28,139a.94.94,0,0,0,0-1.33l-2.86-2.87a1,1,0,0,0-1.33,0l-1.63,1.65A12.48,12.48,0,0,0,63.84,135h0v-2.33a1,1,0,0,0-1-1h-4a.9.9,0,0,0-.88,1V135a12.64,12.64,0,0,0-3.66,1.52h0l-1.65-1.65a.94.94,0,0,0-1.33,0l-2.87,2.86a1,1,0,0,0,0,1.33l1.65,1.64a12.71,12.71,0,0,0-1.49,3.64H46.22a.92.92,0,0,0-.91,1v4a.9.9,0,0,0,.91.92h2.33a12.19,12.19,0,0,0,1.52,3.63h0l-1.64,1.65a.94.94,0,0,0,0,1.33l2.86,2.87a1,1,0,0,0,1.33,0l1.66-1.65a12.71,12.71,0,0,0,3.66,1.49h0v2.33a.91.91,0,0,0,.9.94h4.06a1,1,0,0,0,1-.94v-2.33a12.4,12.4,0,0,0,3.62-1.52h0l1.65,1.65a.92.92,0,0,0,1.32,0l2.87-2.86a1,1,0,0,0,0-1.33l-1.65-1.65a12.94,12.94,0,0,0,1.49-3.63h2.34a1,1,0,0,0,1-.94v-4.06A1,1,0,0,0,75.48,144.32Zm-14.6,11.8a8.81,8.81,0,1,1,8.81-8.81A8.81,8.81,0,0,1,60.88,156.12Z" transform="translate(0)"/><path class="cls-3" d="M77.18,166.75h-.81a4.16,4.16,0,0,0-.53-1.26h0l.57-.57a.32.32,0,0,0,0-.46l-1-1a.32.32,0,0,0-.46,0l-.57.57a4.54,4.54,0,0,0-1.25-.52h0v-.81a.35.35,0,0,0-.35-.33H71.38a.31.31,0,0,0-.3.33v.81a4.27,4.27,0,0,0-1.28.53h0l-.58-.58a.34.34,0,0,0-.46,0l-1,1a.32.32,0,0,0,0,.46l.57.57a4.45,4.45,0,0,0-.51,1.27H67a.32.32,0,0,0-.32.33v1.41a.32.32,0,0,0,.32.32h.81a4.32,4.32,0,0,0,.53,1.27h0l-.57.57a.33.33,0,0,0,0,.47l1,1a.32.32,0,0,0,.46,0l.58-.57a4.42,4.42,0,0,0,1.28.52h0v.81a.32.32,0,0,0,.31.33H72.8a.34.34,0,0,0,.34-.33v-.81a4.1,4.1,0,0,0,1.25-.53h0l.58.57a.32.32,0,0,0,.46,0l1-1a.34.34,0,0,0,0-.46l-.58-.57a4.48,4.48,0,0,0,.52-1.27h.81a.35.35,0,0,0,.35-.33v-1.41A.34.34,0,0,0,77.18,166.75Zm-5.07,4.11a3.07,3.07,0,1,1,3.06-3.07A3.07,3.07,0,0,1,72.11,170.86Z" transform="translate(0)"/><rect class="cls-4" x="94.07" y="42.09" width="204.6" height="153.05"/><rect class="cls-5" x="102.93" y="63.84" width="184.46" height="111.97"/><rect class="cls-6" x="252.06" y="46.38" width="14.43" height="12.75"/><rect class="cls-4" x="252.95" y="48.79" width="12.64" height="8.94"/><rect class="cls-6" x="278.71" y="46.72" width="2.19" height="12.82" transform="translate(44.39 213.41) rotate(-45)"/><rect class="cls-6" x="278.71" y="46.72" width="2.19" height="12.82" transform="translate(440.09 288.54) rotate(-135)"/><rect class="cls-6" x="102.61" y="181.14" width="3.59" height="9.93"/><rect class="cls-6" x="107.9" y="181.14" width="3.59" height="9.93"/><rect class="cls-6" x="113.45" y="184.35" width="172.33" height="3.44"/><rect class="cls-6" x="258.28" y="181.6" width="4.43" height="10.17"/><circle class="cls-7" cx="196.37" cy="118.61" r="46.82"/><polygon class="cls-8" points="226 119.82 182.2 145.11 182.2 94.53 226 119.82"/><path class="cls-9" d="M94.84,14.92h0a.22.22,0,0,1,.22.22v1.29a.21.21,0,0,1-.22.21h0a.21.21,0,0,1-.22-.21V15.14A.22.22,0,0,1,94.84,14.92Z" transform="translate(0)"/><path class="cls-10" d="M331.74,98.09h13.85a12.55,12.55,0,0,1,12.53,12.54v.84A12.53,12.53,0,0,1,345.59,124h-4.48l2.81,7.44L333.21,124h-1.47a12.53,12.53,0,0,1-12.52-12.52v-.84A12.54,12.54,0,0,1,331.74,98.09Z" transform="translate(0)"/><path class="cls-11" d="M315.37,109.71a14.37,14.37,0,0,1,1.14-5.65,14.64,14.64,0,0,1,7.73-7.72,14.37,14.37,0,0,1,5.21-1.13v-.76A19.52,19.52,0,0,0,310,75H288.45A19.53,19.53,0,0,0,269,94.45v1.3a19.56,19.56,0,0,0,19.5,19.51h7L291,126.81l16.64-11.55H310a19.33,19.33,0,0,0,5.91-.92,14.19,14.19,0,0,1-.5-3.79Z" transform="translate(0)"/><circle class="cls-7" cx="284.03" cy="94.33" r="3.87"/><circle class="cls-7" cx="297.66" cy="94.33" r="3.87"/><circle class="cls-7" cx="311.28" cy="94.33" r="3.87"/><path class="cls-10" d="M232.83,17.23a17.23,17.23,0,1,0-24.94,15.4v3.93a1.66,1.66,0,0,0,1.64,1.69h12.72a1.66,1.66,0,0,0,1.63-1.69V32.34A17.24,17.24,0,0,0,232.83,17.23Z" transform="translate(0)"/><rect class="cls-7" x="207.89" y="34.12" width="15.95" height="15.61"/><path class="cls-12" d="M207.09,49.19c.62,3.22,4.3,5.69,8.74,5.69s8.11-2.47,8.74-5.69Z" transform="translate(0)"/><path class="cls-13" d="M226.69,35.55c0,.79-.88,1.43-2,1.43H207.09c-1.09,0-2-.64-2-1.43h0c0-.79.89-1.43,2-1.43h17.63c1.09,0,2,.64,2,1.43Z" transform="translate(0)"/><path class="cls-13" d="M226.62,40.34c0,.79-.89,1.43-2,1.43H207c-1.09,0-2-.64-2-1.43h0c0-.79.88-1.43,2-1.43h17.63c1.09,0,2,.64,2,1.43Z" transform="translate(0)"/><path class="cls-12" d="M226.8,45.41c0,.79-.88,1.42-2,1.42H207.19c-1.09,0-2-.63-2-1.42h0c0-.79.88-1.43,2-1.43h17.64c1.09,0,2,.64,2,1.43Z" transform="translate(0)"/><path class="cls-14" d="M98.94,140.61a3.22,3.22,0,0,0,.9.42.57.57,0,0,1,.15.93,2.93,2.93,0,0,0-.88,1.68,3,3,0,0,0,1.11,2.9,4.49,4.49,0,0,0,1.2.75.68.68,0,0,1,.17,1.14,2.4,2.4,0,0,0-.66,2.88,4.07,4.07,0,0,0,1.82,2.1,2.39,2.39,0,0,0,.37.15.55.55,0,0,1,.45.56.67.67,0,0,1-.24.6,2.41,2.41,0,0,0-.89,1.54,2.45,2.45,0,0,0,.24,1.38,5,5,0,0,0,1.34,1.67,7.93,7.93,0,0,0,1.46.79,11.83,11.83,0,0,0,1.42.36c12.79,2.6,21.78-.77,22.92-1.18a11,11,0,0,1,1.25-.61s.31-.06.31-.1V139.42l-1.43-1a.69.69,0,0,1-.13-.11l0-.05c-2.54-3.19-4.17-6.59-6.07-10.2-1.26-2.41-1.58-7.57-1.57-9.51a2,2,0,0,0-2.1-2.05,6,6,0,0,0-1.67.21c-.58.21-1.07,1-1.56,1.92a22.18,22.18,0,0,0-1.48,4.14,13.45,13.45,0,0,0-.36,1.62,5.44,5.44,0,0,0,0,1.21c0,.46.06.92.1,1.39.09.9.22,1.8.38,2.7s.35,1.94.54,2.9v0a.75.75,0,0,0,0,.24c.31,1.24-1,2-1.7,2.28a5.63,5.63,0,0,1-1.24.19c-4.09,0-10.95,0-11.78,0-.55,0-1.1,0-1.65,0a2.37,2.37,0,0,0-2.21,1.85A3.25,3.25,0,0,0,98.94,140.61Z" transform="translate(0)"/><rect class="cls-15" x="131.38" y="136.59" width="13.06" height="25.77" rx="6.53" ry="6.53"/><path class="cls-16" d="M131.38,149.3h13.06a0,0,0,0,1,0,0v6.53a6.53,6.53,0,0,1-6.53,6.53h0a6.53,6.53,0,0,1-6.53-6.53V149.3A0,0,0,0,1,131.38,149.3Z"/><path class="cls-14" d="M200.33,230v-3.74s-5.66-.55-9.35-7.4l-17.12-37.09a9.09,9.09,0,0,1-.94-3.29,6.57,6.57,0,0,1,3.45-5.83s3.58-1.2,5.94,1.54c0,0,1.79,1.34,3.42,5.13l3.84,7.36,1.81,3.07,0-30.25.1-28.69s1-4.85,4-5.89c0,0,3.48-1.28,5.44.88a6.78,6.78,0,0,1,2.7,5.33v18.21l-.26,34.52s.2-12.63,1-14.62c0,0,2-5.11,6.15-4.63a6.38,6.38,0,0,1,6,4.09s1.63,2,.82,8.56l.07,6.72s-.14-11.19.44-12.11,1.35-4,5.8-4.13a6.28,6.28,0,0,1,5.36,4.05s.57.2.57,3.77l.17,7.37s-.23-7.41.24-8c0,0,1.53-3.81,4.24-3.81a4.29,4.29,0,0,1,4.89,1.88s1.73,1.12,1.56,5.69l-.8,21.51s-1.23,18.16-8.56,25.89l-.06,3.92Z" transform="translate(0)"/><path class="cls-17" d="M177.6,175.2s-2.56-1.17-3.42,1.32a3.09,3.09,0,0,0,.18,3.22l3.39,7.08a2.75,2.75,0,0,0,2.55-.23,4.08,4.08,0,0,0,1.79-3.11s.33-1.17-1.1-3.62C181,179.86,178.64,175.73,177.6,175.2Z" transform="translate(0)"/><ellipse class="cls-17" cx="197.49" cy="131.24" rx="4.68" ry="4.95"/><rect class="cls-18" x="196.04" y="228.49" width="39.14" height="17.36" rx="8.68" ry="8.68" transform="matrix(1, 0, 0, 1, 0.25, -0.23)"/></g></g></svg>