<svg xmlns="http://www.w3.org/2000/svg" xmlns:xlink="http://www.w3.org/1999/xlink" viewBox="0 0 70.97 61.71"><defs><filter id="luminosity-noclip" x="15.13" y="-9504.71" width="55.85" height="32766" filterUnits="userSpaceOnUse" color-interpolation-filters="sRGB"><feFlood flood-color="#fff" result="bg"/><feBlend in="SourceGraphic" in2="bg"/></filter><mask id="mask" x="15.13" y="-9504.71" width="55.85" height="32766" maskUnits="userSpaceOnUse"><g style="filter:url(#luminosity-noclip)"/></mask><radialGradient id="radial-gradient" cx="5766.64" cy="42886.99" r="27.94" gradientTransform="translate(5806.8 3216.14) rotate(180) scale(1 0.07)" gradientUnits="userSpaceOnUse"><stop offset="0" stop-color="#fff"/><stop offset="0.11" stop-color="#e9e9e9"/><stop offset="0.35" stop-color="#b2b2b2"/><stop offset="0.69" stop-color="#595959"/><stop offset="1"/></radialGradient><linearGradient id="Dégradé_sans_nom_3" x1="23.47" y1="17.8" x2="65.17" y2="17.8" gradientUnits="userSpaceOnUse"><stop offset="0" stop-color="#fff"/><stop offset="1" stop-color="#fff"/></linearGradient><filter id="luminosity-noclip-2" x="15.13" y="57.6" width="55.85" height="4.11" filterUnits="userSpaceOnUse" color-interpolation-filters="sRGB"><feFlood flood-color="#fff" result="bg"/><feBlend in="SourceGraphic" in2="bg"/></filter><mask id="mask-2" x="15.13" y="57.6" width="55.85" height="4.11" maskUnits="userSpaceOnUse"><g style="mask:url(#mask);filter:url(#luminosity-noclip-2)"><ellipse cx="43.05" cy="59.66" rx="27.92" ry="2.06" style="mix-blend-mode:multiply;fill:url(#radial-gradient)"/></g></mask><radialGradient id="radial-gradient-2" cx="5766.64" cy="42886.99" r="27.94" gradientTransform="translate(5806.8 3216.14) rotate(180) scale(1 0.07)" gradientUnits="userSpaceOnUse"><stop offset="0" stop-color="#666"/><stop offset="0.19" stop-color="#7c7c7c"/><stop offset="0.6" stop-color="#b3b3b3"/><stop offset="1" stop-color="#f1f1f1"/></radialGradient><clipPath id="clip-path"><path d="M23.47,8.85S30.32,38.53,60.7,35.37c0,0,9.83-10.19.35-27.57C49.81-4.49,31.37-.81,23.47,8.85Z" style="fill:url(#Dégradé_sans_nom_3)"/></clipPath><linearGradient id="Dégradé_sans_nom_3-3" x1="-3936.8" y1="-2.91" x2="-3919.77" y2="29.75" gradientTransform="matrix(-0.75, -0.67, -0.67, 0.75, -2868.84, -2601.53)" xlink:href="#Dégradé_sans_nom_3"/><linearGradient id="Dégradé_sans_nom_3-4" x1="-3936.22" y1="-3.21" x2="-3919.19" y2="29.45" gradientTransform="matrix(-0.75, -0.67, -0.67, 0.75, -2868.3, -2600.37)" xlink:href="#Dégradé_sans_nom_3"/><linearGradient id="Dégradé_sans_nom_3-5" x1="-3931.69" y1="-5.57" x2="-3914.66" y2="27.08" gradientTransform="matrix(-1, 0, 0, 1, -3890.59, 0)" xlink:href="#Dégradé_sans_nom_3"/><linearGradient id="Dégradé_sans_nom_3-6" x1="-3960.37" y1="-29.47" x2="-3927.28" y2="33.99" gradientTransform="matrix(-1, 0, 0, 1, -3890.59, 0)" xlink:href="#Dégradé_sans_nom_3"/></defs><title>Fichier 1</title><g style="isolation:isolate"><g id="Calque_2" data-name="Calque 2"><g id="Calque_1-2" data-name="Calque 1"><g style="mask:url(#mask-2)"><ellipse cx="43.05" cy="59.66" rx="27.92" ry="2.06" style="opacity:0.5;mix-blend-mode:multiply;fill:url(#radial-gradient-2)"/></g><rect x="23.92" y="34.38" width="2.25" height="4.25" transform="translate(-17.96 25.99) rotate(-41.81)" style="fill:#4980c3"/><rect x="23.28" y="34.86" width="1.25" height="5.34" transform="translate(-18.93 25.49) rotate(-41.81)" style="fill:#4980c3"/><path d="M4.62,50.34a2.24,2.24,0,0,0-.22,3.15l1.47,1.64A2.23,2.23,0,0,0,9,55.26l16.33-14.6c.93-.84.07-1.39-.74-2.3l-1.47-1.64c-.81-.9-1.26-1.83-2.2-1Z" style="fill:#4980c3"/><path d="M27.59,8.21A20.69,20.69,0,1,0,56.81,9.83,20.69,20.69,0,0,0,27.59,8.21ZM30,10.86a17.13,17.13,0,1,1-1.34,24.19A17.14,17.14,0,0,1,30,10.86Z" style="fill:#4980c3"/><g style="opacity:0.5"><path d="M23.47,8.85S30.32,38.53,60.7,35.37c0,0,9.83-10.19.35-27.57C49.81-4.49,31.37-.81,23.47,8.85Z" style="fill:url(#Dégradé_sans_nom_3)"/><g style="clip-path:url(#clip-path)"><rect x="24.22" y="34.09" width="2.71" height="5.13" transform="translate(-17.93 26.39) rotate(-41.81)" style="fill:url(#Dégradé_sans_nom_3-3)"/><rect x="23.45" y="34.67" width="1.5" height="6.44" transform="translate(-19.1 25.79) rotate(-41.81)" style="fill:url(#Dégradé_sans_nom_3-4)"/><path d="M.93,53.36a2.69,2.69,0,0,0-.27,3.8l1.78,2a2.71,2.71,0,0,0,3.81.16L26,41.67c1.13-1,.09-1.67-.89-2.76l-1.78-2c-1-1.09-1.52-2.2-2.65-1.2Z" style="fill:url(#Dégradé_sans_nom_3-5)"/><path d="M28.3,8.21A20.69,20.69,0,1,0,57.52,9.83,20.69,20.69,0,0,0,28.3,8.21Zm2.37,2.65a17.13,17.13,0,1,1-1.34,24.19A17.14,17.14,0,0,1,30.67,10.86Z" style="fill:url(#Dégradé_sans_nom_3-6)"/></g></g></g></g></g></svg>