<svg xmlns="http://www.w3.org/2000/svg" viewBox="0 0 150.39 110"><defs><style>.cls-1{fill:#4980bf;}</style></defs><title>Cochon</title><g id="Calque_2" data-name="Calque 2"><g id="Calque_1-2" data-name="Calque 1"><path class="cls-1" d="M150.39,57c-6.27.82-11.45-4.53-14.13-12.07-4-11.36-8.43-17.48-10.87-20.25-.49-.74-1-1.47-1.54-2.19A37.15,37.15,0,0,1,132.91,4c-8.2-1.17-14.58,3.58-18.48,8.93C104.14,4.93,90.22,0,74.89,0,44.1,0,19,19.86,17.61,44.79a44.76,44.76,0,0,0-.25,8.4C13.5,59.92,9.18,54,8.05,52c-1.58-2.91-4-7.38-8-4.36,6.59-1.55,4.65,6.59,10.08,11.25,2.58,2.2,5.5,1.18,7.86-.5C20,71.19,26.57,82.08,30.29,87.87c6,9.39,5.36,22.13,5.36,22.13H53.76s8.72-15.43,21.47-15.43C89.31,94.57,96.69,110,96.69,110h15.43c4-30.18,27.41-32.51,37-32.51C148.33,74.48,148.56,63.85,150.39,57Zm-70,11.89c-.52.13-1.06.24-1.61.34v5.15a2.41,2.41,0,1,1-4.78,0V72.2c0-1.51-.3-2.74-.67-2.76l-.33,0a23.11,23.11,0,0,1-9-2.39,13.82,13.82,0,0,1-1.48-.9l.9-2.51c.51-1.42,1.68-2.11,2.6-1.53l1,.44A19.94,19.94,0,0,0,75,64.31c5.46,0,9.1-3.11,9.1-7.44,0-4.17-2.95-6.75-8.57-9-7.73-3-12.51-6.6-12.51-13.2,0-5.77,3.76-10.27,9.71-11.86a17,17,0,0,1,1.67-.35V17.59a2.41,2.41,0,1,1,4.77,0v1.89c0,1.5.59,2.76,1.3,2.8l.6.06a20.16,20.16,0,0,1,6.09,1.57,19.1,19.1,0,0,1,1.87.95l-.92,2.45c-.54,1.41-1.64,2.18-2.47,1.71l-1.12-.46a17.85,17.85,0,0,0-6.94-1.34c-5.84,0-8,3.49-8,6.59,0,3.87,2.81,5.84,9.41,8.65,7.81,3.19,11.75,7.06,11.75,13.81C90.73,61.9,87.13,67.15,80.36,68.9Z"/></g></g></svg>