<svg xmlns="http://www.w3.org/2000/svg" viewBox="0 0 44.8 46.04"><defs><style>.cls-1{fill:#fff;}</style></defs><title>Fichier 4</title><g id="Calque_2" data-name="Calque 2"><g id="Calque_1-2" data-name="Calque 1"><path class="cls-1" d="M29.34,31.36c0-.06,0-.13,0-.19h0c0-.48,0-1-.07-1.43a1,1,0,0,0-.95-.73,3.24,3.24,0,0,1-2.22-5.64.82.82,0,0,0,.09-1.11,14.68,14.68,0,0,0-2.32-2.34.82.82,0,0,0-1.12.09,3.41,3.41,0,0,1-3.66.82,3.28,3.28,0,0,1-2-3.19.82.82,0,0,0-.72-.86,15.25,15.25,0,0,0-1.66-.09h-.06a15.11,15.11,0,0,0-1.51.08H13a.81.81,0,0,0-.72.86,3.28,3.28,0,0,1-1.1,2.62,3.13,3.13,0,0,1-.8.49,3.4,3.4,0,0,1-3.64-.83.82.82,0,0,0-1.11-.09l-.06.05,0,0c-.3.24-.56.49-.83.75-.12.11-.24.2-.35.31s-.31.35-.47.53-.42.44-.61.67l0,0,0,.05a.83.83,0,0,0,.09,1.11A3.28,3.28,0,0,1,4.07,27a3.4,3.4,0,0,1-.48.8A3.53,3.53,0,0,1,.94,28.94a.79.79,0,0,0-.85.72v.07h0a1,1,0,0,0,0,.17A14.28,14.28,0,0,0,0,31.36a14.48,14.48,0,0,0,.08,1.47.86.86,0,0,0,0,.16h0v.07a.79.79,0,0,0,.85.72,3.53,3.53,0,0,1,2.65,1.14,3.21,3.21,0,0,1,.48.8,3.28,3.28,0,0,1-.82,3.63.83.83,0,0,0-.09,1.11.12.12,0,0,1,0,.05s0,0,0,0c.19.23.4.45.61.67s.3.36.47.53l.35.31c.27.25.53.51.83.75l0,0,.06,0a.82.82,0,0,0,1.11-.09A3.4,3.4,0,0,1,10.35,42a3.13,3.13,0,0,1,.8.49,3.28,3.28,0,0,1,1.1,2.62A.81.81,0,0,0,13,46h.18a15.11,15.11,0,0,0,1.51.08h.06a13.09,13.09,0,0,0,1.66-.1.8.8,0,0,0,.72-.85,3.28,3.28,0,0,1,2-3.19,3.38,3.38,0,0,1,3.66.83.83.83,0,0,0,1.12.08,14.34,14.34,0,0,0,2.32-2.35.81.81,0,0,0-.09-1.1,3.28,3.28,0,0,1-.82-3.63,3.24,3.24,0,0,1,3-2,1,1,0,0,0,.95-.73c0-.47.07-1,.07-1.43h0C29.35,31.49,29.34,31.43,29.34,31.36ZM14.7,37.75a6.39,6.39,0,1,1,6.41-6.39A6.43,6.43,0,0,1,14.7,37.75Z"/><path class="cls-1" d="M37.16,9.32V9.2h0a9.1,9.1,0,0,0,0-.91.61.61,0,0,0-.61-.46,2.05,2.05,0,0,1-1.4-3.58.54.54,0,0,0,.06-.71,10.43,10.43,0,0,0-1.48-1.49.53.53,0,0,0-.71.06,2.14,2.14,0,0,1-2.32.52,2.1,2.1,0,0,1-1.27-2,.51.51,0,0,0-.45-.55A9.42,9.42,0,0,0,27.87,0h0a7.46,7.46,0,0,0-.95.06h-.12a.52.52,0,0,0-.46.55,2.06,2.06,0,0,1-.69,1.66,2.11,2.11,0,0,1-.52.31,2.14,2.14,0,0,1-2.3-.53A.54.54,0,0,0,22.08,2a.08.08,0,0,1,0,0l0,0c-.19.15-.36.31-.53.47l-.22.2-.3.34c-.13.14-.26.27-.39.43v0s0,0,0,0a.51.51,0,0,0,.06.7,2.09,2.09,0,0,1,.52,2.31,2.14,2.14,0,0,1-.3.51,2.24,2.24,0,0,1-1.69.72.5.5,0,0,0-.53.46.07.07,0,0,0,0,0h0v.1c0,.31-.06.62-.06.93s0,.62.06.93v.11h0a.06.06,0,0,0,0,0,.5.5,0,0,0,.53.46,2.24,2.24,0,0,1,1.69.72,2.14,2.14,0,0,1,.3.51,2.09,2.09,0,0,1-.52,2.31.51.51,0,0,0-.06.7s0,0,0,0a0,0,0,0,1,0,0l.39.43.3.33.22.2a5.93,5.93,0,0,0,.53.47l0,0,0,0a.54.54,0,0,0,.71-.06,2.14,2.14,0,0,1,2.3-.53,2.11,2.11,0,0,1,.52.31A2.06,2.06,0,0,1,26.3,18a.52.52,0,0,0,.46.55h.12c.31,0,.63.05.95.05h0a9.42,9.42,0,0,0,1.06-.06.51.51,0,0,0,.45-.55,2.1,2.1,0,0,1,1.27-2,2.16,2.16,0,0,1,2.32.52.52.52,0,0,0,.71.06,10.43,10.43,0,0,0,1.48-1.49.52.52,0,0,0-.06-.7,2.06,2.06,0,0,1,1.4-3.59.61.61,0,0,0,.61-.46c0-.3,0-.6,0-.9h0Zm-9.31,4a4.05,4.05,0,1,1,4.08-4A4.07,4.07,0,0,1,27.85,13.37Z"/><path class="cls-1" d="M44.8,25.12V25h0c0-.24,0-.49,0-.74a.5.5,0,0,0-.49-.38A1.69,1.69,0,0,1,43.11,21a.42.42,0,0,0,0-.57A7.83,7.83,0,0,0,42,19.15a.42.42,0,0,0-.58.05,1.79,1.79,0,0,1-1.91.43,1.7,1.7,0,0,1-1-1.66.43.43,0,0,0-.38-.45,8.46,8.46,0,0,0-.87-.05h0a6.81,6.81,0,0,0-.78.05h-.1a.41.41,0,0,0-.37.45,1.69,1.69,0,0,1-.57,1.36,1.43,1.43,0,0,1-.43.25A1.72,1.72,0,0,1,33,19.15a.43.43,0,0,0-.58,0l0,0h0a5.56,5.56,0,0,0-.44.39l-.18.16c-.09.09-.16.19-.24.28s-.22.23-.32.35,0,0,0,0l0,0a.41.41,0,0,0,0,.57,1.72,1.72,0,0,1,.43,1.89,1.79,1.79,0,0,1-.25.42,1.84,1.84,0,0,1-1.38.59.41.41,0,0,0-.44.38s0,0,0,0h0v.09a6.33,6.33,0,0,0,0,.76,6.47,6.47,0,0,0,0,.76V26h0s0,0,0,0a.41.41,0,0,0,.44.38,1.84,1.84,0,0,1,1.38.59,1.61,1.61,0,0,1,.25.42,1.72,1.72,0,0,1-.43,1.89.42.42,0,0,0,0,.58l0,0s0,0,0,0,.21.24.32.35.15.19.24.28l.18.16a5.56,5.56,0,0,0,.44.39h0s0,0,0,0a.43.43,0,0,0,.58,0,1.72,1.72,0,0,1,1.88-.43,1.43,1.43,0,0,1,.43.25,1.68,1.68,0,0,1,.57,1.36.41.41,0,0,0,.37.45h.1c.26,0,.52,0,.78,0h0a8.46,8.46,0,0,0,.87,0,.44.44,0,0,0,.38-.45,1.7,1.7,0,0,1,1-1.66,1.79,1.79,0,0,1,1.91.43.42.42,0,0,0,.58,0,7.83,7.83,0,0,0,1.21-1.23.42.42,0,0,0,0-.57,1.69,1.69,0,0,1,1.16-2.94.5.5,0,0,0,.49-.38c0-.24,0-.49,0-.74h0Zm-7.63,3.32a3.33,3.33,0,1,1,3.35-3.32A3.35,3.35,0,0,1,37.17,28.44Z"/></g></g></svg>