<svg xmlns="http://www.w3.org/2000/svg" viewBox="0 0 44.84 43.75"><defs><style>.cls-1{fill:#fff;}</style></defs><title>Fichier 5</title><g id="Calque_2" data-name="Calque 2"><g id="Calque_1-2" data-name="Calque 1"><path class="cls-1" d="M21.17,28.79V25.44A7.29,7.29,0,0,0,21.17,28.79Z"/><path class="cls-1" d="M12.64,31c.88.2,1.8.36,2.74.49a14,14,0,0,1-.6-2.54,27.88,27.88,0,0,1-3.18-.74,28.79,28.79,0,0,1-1.15-7.06H16a13.44,13.44,0,0,1,1.5-2.41H10.45A29.07,29.07,0,0,1,11.6,11.6a28.61,28.61,0,0,1,7.17-1.15v6.92a13.36,13.36,0,0,1,2.4-1.85V10.45a28.79,28.79,0,0,1,7.06,1.15c.19.63.35,1.29.5,2a13.59,13.59,0,0,1,2.55.33c-.09-.42-.17-.85-.26-1.26,1.84.83,6.66,3.82,8.86,7.57,0-.1,0-.2,0-.29A19.94,19.94,0,0,0,20,0h-.13A20,20,0,0,0,.07,18.91a8.42,8.42,0,0,0-.07,1,8.57,8.57,0,0,0,.07,1,20,20,0,0,0,19.77,18.9H20a20.34,20.34,0,0,0,2.94-.22C21.39,39,15,37,12.64,31ZM36,12.78a19.34,19.34,0,0,0-5.78-3.11,19.6,19.6,0,0,0-3.08-5.75A17.63,17.63,0,0,1,36,12.78ZM21.17,2.56c2.39.62,4.53,2.93,6,6.25a33.55,33.55,0,0,0-6-.77Zm-2.4,0V8a32.71,32.71,0,0,0-6.13.77C14.16,5.45,16.34,3.11,18.77,2.54ZM12.69,4a19.83,19.83,0,0,0-3,5.68,19.67,19.67,0,0,0-5.64,3A17.61,17.61,0,0,1,12.69,4ZM8.82,12.64A31.88,31.88,0,0,0,8,18.76H2.54C3.12,16.34,5.45,14.16,8.82,12.64Zm-.77,8.53a31.84,31.84,0,0,0,.77,6c-3.33-1.5-5.64-3.65-6.26-6Zm-4,6a19.44,19.44,0,0,0,5.64,3,20,20,0,0,0,3,5.68A17.67,17.67,0,0,1,4,27.17Z"/><path class="cls-1" d="M44,38.77a2.91,2.91,0,0,1,0,4.12h0a2.91,2.91,0,0,1-4.12,0l-8.25-8.24c-1.14-1.14,3-5.26,4.13-4.12Z"/><path class="cls-1" d="M35.75,19.57A10.66,10.66,0,0,0,20.67,34.65a10.5,10.5,0,0,0,7.53,3.13,10.72,10.72,0,0,0,5.21-1.34,11.37,11.37,0,0,0,2.34-1.79,11,11,0,0,0,1.77-2.35A10.71,10.71,0,0,0,35.75,19.57ZM24.17,31.15a5.71,5.71,0,0,1,4-9.73,5.69,5.69,0,1,1,0,11.38A5.73,5.73,0,0,1,24.17,31.15Z"/></g></g></svg>