<svg xmlns="http://www.w3.org/2000/svg" viewBox="0 0 805.8 805.64"><defs><style>.cls-1{fill:#67b034;}.cls-2{fill:#fbfcfa;}.cls-3{fill:#fcfdfb;}.cls-4{fill:#fafcf9;}.cls-5{fill:#f3f8ef;}.cls-6{fill:#f5f9f2;}.cls-7{fill:#f0f7eb;}.cls-8{fill:#f5f9f1;}.cls-9{fill:#f1f7ed;}.cls-10{fill:#f4f8f0;}.cls-11{fill:#f4f9f1;}.cls-12{fill:#f8faf5;}.cls-13{fill:#eff6e9;}.cls-14{fill:#fafcf8;}.cls-15{fill:#ebf4e3;}.cls-16{fill:#f9fbf7;}.cls-17{fill:#ecf5e5;}.cls-18{fill:#67b134;}.cls-19{fill:#69b238;}.cls-20{fill:#6bb23a;}.cls-21{fill:#6db33c;}.cls-22{fill:#6eb43e;}.cls-23{fill:#69b137;}.cls-24{fill:#6ab238;}.cls-25{fill:#6bb33a;}</style></defs><title>Logo Afpa</title><g id="Calque_2" data-name="Calque 2"><g id="Calque_1-2" data-name="Calque 1"><path class="cls-1" d="M805.74,0V5.48q0,199.49,0,399c-.27,186.62-131,349.78-313,391.09C275.78,844.77,60.14,709.43,10.25,492.76-39.55,276.48,97,58.9,313.27,10.05A408.41,408.41,0,0,1,403.46,0q198,0,396,0Zm-474,445c36.47,49.89,103.64,51,142.12,15.13,37.79-35.2,41.15-92.71,7.15-131.93-16.57-19.11-37.77-30.08-62.92-32.07-35.56-2.81-64,11.18-86.37,40,0-6.37.2-11.51-.06-16.64a9.59,9.59,0,0,0-19.08-.87,30.62,30.62,0,0,0-.27,5q0,136.68,0,273.37a23.76,23.76,0,0,0,.6,6.43,8.92,8.92,0,0,0,8.36,6.78c4.21.35,7.64-1.51,9.31-5.37a19.12,19.12,0,0,0,1.11-7.29q.09-73,0-145.94Zm-101.56-.32c0,10.55,0,19.65,0,28.75,0,7.24,3.59,11.5,9.56,11.58s9.88-4.16,9.89-11.28q.06-76,0-152c0-7-4-11.45-9.83-11.39s-9.55,4.43-9.62,11.57c0,4.37,0,8.74,0,14.06C193.07,285.83,125.33,284.08,86,322.83a94.47,94.47,0,0,0,1.19,136.4C126.93,497.05,193.63,494.24,230.22,444.72Zm457,0c0,10.72-.07,20,0,29.22.06,6.75,3.85,11.08,9.54,11.2,5.9.13,9.89-4.3,9.9-11.28q0-76,0-152c0-7.1-3.77-11.48-9.69-11.48s-9.66,4.39-9.76,11.46c-.06,4.39,0,8.78,0,14-37.44-50.77-106.59-51.55-145.55-11.68a94.77,94.77,0,0,0,3.24,135.7C585,497.16,650.91,493.76,687.18,444.71ZM271.32,291.26v91.56q0,45,0,89.95c0,7.89,3.67,12.46,9.82,12.37s9.6-4.62,9.63-12.6V291.26h59.39c1.33,0,2.66,0,4,0,6.27-.31,10.56-4.36,10.43-9.8s-4.48-9.51-10.69-9.53c-19.15-.07-38.31,0-57.46,0h-5.28c0-10.28-.41-19.93.17-29.52A44.14,44.14,0,0,1,295.08,228c3.65-8.55,10.22-13.15,19.94-13,13,.21,26,.32,39-.15,3-.1,7-2,8.67-4.36,1.56-2.18,1.49-6.38.62-9.23-1.22-4-5-5.49-9.22-5.48q-19.23,0-38.48.06c-18.51,0-32.39,9.06-39,26.36A71.87,71.87,0,0,0,272.05,242c-.76,9.73-.2,19.55-.2,29.89-5.62,0-10.23-.05-14.85,0-6.64.09-11,4-11,9.72s4.32,9.52,11,9.64C261.55,291.33,266,291.26,271.32,291.26ZM487.05,528.72c-3.73-4.14-7.7-5.18-12.35-2.54a2.2,2.2,0,0,1-1.95-.24c-3.16-2.33-4.18-.65-4.23,2.31-.1,6.66-.15,13.33.08,20,0,1.22,1.49,2.4,2.29,3.6.71-1.29,1.94-2.55,2-3.87.26-4.31,0-8.65.12-13,.06-3.62,1.54-6.21,5.57-6.21s5.5,2.51,5.52,6.19c0,4.33-.16,8.67.11,13,.09,1.33,1.36,2.59,2.09,3.89.83-1.35,2.28-2.66,2.39-4.07.32-4.14.13-8.31.11-12.48,0-3.87,1.4-6.6,5.71-6.51,4,.09,5.36,2.78,5.37,6.39,0,4.5-.13,9,.13,13.48.06,1.11,1.44,2.14,2.21,3.2.78-1.08,2.16-2.13,2.23-3.27.28-4.14.15-8.32.11-12.48,0-4.36-.91-8.38-5.37-10.42S490.78,525,487.05,528.72ZM358,597.37c7,3.45,11.18,3.12,14.93-.9,4.84-5.18,5.27-15.27,0-20-2.39-2.16-6.37-2.89-9.76-3.49-2.26-.39-4.76,3.08-7.13-.15-.83.83-2.35,1.65-2.36,2.5q-.26,16.2,0,32.39c0,.86,1.52,1.7,2.33,2.55.66-1,1.81-1.93,1.9-3C358.15,604.16,358,601,358,597.37Zm36.59-58.85h0a79.5,79.5,0,0,0-.07-8.46c-.26-2.47,1.32-8.11-4.61-3.47-.42.32-1.66-.54-2.54-.66-2.41-.35-4.94-1.18-7.22-.76-5.22,1-8.84,6.54-9,12.9s3.31,12.09,8.36,13.38a15.49,15.49,0,0,0,6.36,0c1.94-.34,3.78-3,5.59.17,1-.88,2.85-1.67,2.95-2.64A98.33,98.33,0,0,0,394.58,538.52ZM527,550l4.61,1.57a16.94,16.94,0,0,0,1.14-4.11c.13-5.66.2-11.33,0-17-.09-2.65,1.48-8.17-4.7-3.8-.45.31-1.7-.65-2.61-.83-1.92-.39-3.92-1.11-5.8-.89-5.25.63-8.19,4.13-9.56,9-1.72,6.06.17,12.72,4.52,15.87S523.21,552.71,527,550Zm128,38c5.17,0,10,.19,14.77-.13,1.29-.09,3.38-1.64,3.54-2.74.84-6-4.85-12.2-11-12.38a10.76,10.76,0,0,0-10.52,6.21,15.33,15.33,0,0,0,.66,16.12c3.8,5.93,15,6.55,19.32,1.17.57-.7.39-2,.56-3a8.06,8.06,0,0,0-2.7.1c-1.21.47-2.22,1.47-3.44,2C660.25,597.61,655.54,594.75,655,588Zm-49.12,0c5.56,0,10.55.2,15.5-.14,1.21-.08,3.18-1.8,3.31-2.93.61-5.54-4.28-11.37-9.67-12.1-5.57-.75-10.44,2.22-12.57,7.66-2.52,6.45-.59,14.24,4.36,17.55,4.36,2.92,12.23,2.38,15.82-1.28.82-.84,1-2.28,1.79-4.05-4.39,1.28-7.73,2.86-11.16,3.09C608.8,596.05,606.53,593.07,605.89,588Zm-165,0c4.93,0,9.88.2,14.78-.13,1.22-.08,3.26-1.74,3.35-2.82a11.42,11.42,0,0,0-15.84-11.36c-4.74,2.12-6.88,6.11-7.28,11.05-.44,5.41.71,10.32,5.62,13.51,4.24,2.75,11.74,2.08,15.4-1.39.81-.77,1-2.19,1.47-3.31a14,14,0,0,0-3.44.16c-1.08.31-2,1.24-3,1.65C446,597.59,441.26,594.67,440.93,588Zm-33.14,11.91c6.73,0,11.7-5.54,11.86-13.29.16-7.91-4.88-13.85-11.77-13.87S396.18,578.19,396,586C395.89,594,400.87,599.83,407.79,599.86Zm167.65-14c0,3.67-.15,7.34.1,11,.07,1,1.31,2,2,2.94.8-1,2.22-2,2.29-3.06.27-4.32.1-8.66.13-13,0-4,1.6-6.94,6-7s6.08,2.74,6,6.85c0,4.33-.15,8.68.12,13,.07,1.12,1.48,2.15,2.27,3.22.77-1.1,2.15-2.17,2.21-3.3a122.89,122.89,0,0,0,0-14.49c-.55-7.7-6.77-11.2-13.95-8.23a3.77,3.77,0,0,1-3.06-.06c-2.94-2-4-.59-4.17,2.13C575.29,579.15,575.44,582.49,575.44,585.82Zm21.8-59c-2-.81-3.18-1.65-4.4-1.66-.49,0-1.43,1.78-1.44,2.77-.12,7-.16,14,.06,21,0,1,1.65,1.93,2.52,2.89.66-1,1.82-2,1.87-3,.22-4.32.1-8.65.1-13,0-4,1.57-7,6-7s6.12,2.73,6.13,6.82c0,4.33-.15,8.67.12,13,.07,1.12,1.43,2.17,2.19,3.25.79-1.08,2.17-2.11,2.24-3.24.27-4.14.17-8.31.1-12.47C612.54,525.75,605.63,521.91,597.24,526.85Zm-66.07,73c6.81-.05,11.66-5.67,11.68-13.53,0-8.09-5-13.78-12.08-13.61-6.71.16-11.6,6-11.48,13.77S524.39,599.9,531.17,599.85Zm-84.3-61.49c0-7.85-4.86-13.52-11.63-13.58s-11.8,5.6-11.92,13.38c-.13,8,5,13.84,12,13.78C442.11,551.87,446.88,546.27,446.87,538.36Zm139.39.17c.08-7.87-4.71-13.62-11.44-13.74S563,530.12,562.88,538c-.15,8.21,4.64,13.94,11.66,13.94S586.18,546.48,586.26,538.53ZM548,586.12h0c0,3.32-.21,6.66.11,10,.13,1.29,1.47,2.46,2.25,3.69.74-1.29,2-2.53,2.11-3.86.29-4,.11-8,.11-11.95s1.17-7,5.68-7.28c3.95-.28,6.33,2.23,6.51,7,.16,4.31-.11,8.65.16,12.95.06,1.06,1.46,2,2.24,3.06.65-1,1.84-2,1.87-3a156.72,156.72,0,0,0-.09-15.93c-.43-5.68-5.43-9-11-8-2.42.47-4.83,3.39-7.25,0-.88.93-2.43,1.8-2.52,2.8C547.77,579.12,548,582.63,548,586.12ZM471.34,600.5l.3-.73a17.23,17.23,0,0,0,2.49,0c3.91-.6,7-2.31,7.8-6.53s-1.86-6.41-5.26-8c-1.36-.62-3-.83-4.09-1.76a39.54,39.54,0,0,1-4.2-5c2.41-.43,4.82-.94,7.24-1.23.53-.07,1.11.83,1.72.91a28.49,28.49,0,0,0,3.58,0c-.54-1.25-.89-3.43-1.65-3.57-3.59-.7-7.48-1.65-10.9-.89-2,.44-4.22,3.8-4.59,6.12-.26,1.7,2,4.28,3.76,5.68,2,1.6,4.92,2.06,7.08,3.54,1.25.87,1.81,2.75,2.68,4.18-1.49.86-3,2.49-4.47,2.39-2.34-.16-4.58-1.55-6.93-2.2a9.63,9.63,0,0,0-3,.16c.2,1,0,2.67.64,3C466,598.18,468.7,599.27,471.34,600.5Zm23,0,.31-.73a17.1,17.1,0,0,0,2.48,0c3.91-.59,7-2.31,7.81-6.53s-1.85-6.4-5.26-8c-1.36-.61-3-.83-4.09-1.76a42.27,42.27,0,0,1-4.21-5c2.42-.43,4.83-.93,7.26-1.22.52-.06,1.11.83,1.71.91a26.84,26.84,0,0,0,3.59,0c-.54-1.25-.85-3.37-1.65-3.58-3.27-.85-6.91-2-10-1.3-2.27.55-5,3.68-5.43,6-.33,1.88,2.19,4.72,4.09,6.4s4.63,1.9,6.63,3.31c1.25.89,1.82,2.75,2.7,4.17-1.49.87-3,2.51-4.45,2.41-2.34-.15-4.58-1.54-6.93-2.19a9.9,9.9,0,0,0-3,.14c.19,1.05,0,2.68.62,3C489,598.17,491.69,599.27,494.32,600.5Zm-71.14-84.92-.3-1.54c-2-.25-4.42-1.33-5.81-.54-1.82,1-3.27,3.39-4,5.48-.84,2.31,1.17,5.83-3.1,6.66a9,9,0,0,0,.28,2.9c3.33.36,2.66,2.79,2.67,4.85,0,4.65-.19,9.33.13,14,.1,1.55,1.55,3,2.38,4.5.73-1.47,2-2.91,2.1-4.4.24-6,.1-11.92.1-17.29l4.65-3.1-4.16-3.16C415.75,519.05,418.84,517,423.18,515.58Zm7,55.95c.56-2.24-2.37-6.7,3.78-7,.39,0,1.11-1.35,1-1.89a2.87,2.87,0,0,0-1.73-1.52c-3.77-1.31-7.2,1.6-7.5,6.18-.15,2.38,1.24,5.59-2.94,6.17a11.8,11.8,0,0,0,.15,3c3.69.34,2.76,3.09,2.79,5.24.06,4.65-.16,9.32.12,14,.09,1.41,1.44,2.74,2.21,4.11.67-1.32,1.87-2.62,1.91-4,.21-6.12.09-12.26.09-17.83l4.81-2.87ZM629.9,580c0,5.15-.16,10.3.1,15.44.07,1.46,1.36,2.87,2.08,4.31.84-1.36,2.37-2.7,2.4-4.08q.3-15.44,0-30.87c0-1.3-1.4-2.58-2.15-3.87-.81,1.38-2.24,2.72-2.33,4.14C629.72,570.07,629.9,575.06,629.9,580ZM358,547.64c0-9.75.08-18.73-.09-27.7,0-1.35-1.22-2.67-1.88-4-.78,1.21-2.22,2.39-2.24,3.61-.19,9.49-.21,19,0,28.49,0,1.25,1.7,3.36,2.82,3.51a53.07,53.07,0,0,0,10.47.06c.83-.05,1.57-1.28,2.35-2-.79-.66-1.54-1.82-2.39-1.89C364.26,547.49,361.45,547.64,358,547.64Zm99.95-20.48L453.52,525c-.53,1.28-1.48,2.56-1.52,3.86-.15,6.49-.19,13,.05,19.47,0,1.21,1.53,2.36,2.36,3.54.74-1.12,2-2.2,2.14-3.38.28-3.81.13-7.65.12-11.48a7.25,7.25,0,0,1,4.83-7.36c1.32-.58,2.05-2.5,3.06-3.81a49.7,49.7,0,0,0-5.34.33C458.54,526.26,458,527.11,457.93,527.16Zm87.23,12.41c1.66-3.22-3.27-9.08,3.54-11.63.11-.05-.26-2.35-.58-2.39-3.82-.52-2.61-3.44-3.06-5.7-.2-1-1.39-1.84-2.13-2.75-.69,1-2,1.94-2,2.89,0,2.83,0,5.29-3.55,5.82a62.51,62.51,0,0,1,3.36,5.52c.39.81.07,2,.07,3,0,4.82-.13,9.65.12,14.47,0,1.05,1.49,2,2.28,3,.64-1,1.73-2,1.82-3C545.33,546,545.16,543.13,545.16,539.57Zm99.89,41c0-5.34.11-10.67-.09-16-.05-1.19-1.23-2.33-1.88-3.5-.78,1-2.2,2.09-2.22,3.15-.17,10.83-.15,21.66,0,32.48,0,1,1.23,2,1.88,3,.77-1,2.17-2.05,2.22-3.12C645.17,591.27,645,585.94,645.05,580.61Zm-257.57-5.39-4.24-2.32c-.49,1-1.38,1.93-1.4,2.91-.12,7-.14,14,0,21,0,1,1.25,2,1.91,3,.78-1,2.15-2,2.23-3.12.28-3.8,0-7.64.15-11.47.1-3.36,1.29-6,4.72-7.52,1.41-.63,2.33-2.38,3.47-3.62a53,53,0,0,0-5.64.28C388,574.36,387.48,575.22,387.48,575.22ZM557.88,538c0-3.47.16-7-.1-10.42-.08-1-1.42-1.84-2.17-2.75-.79.89-2.23,1.78-2.25,2.69-.2,7.12-.22,14.25,0,21.36,0,1,1.61,2,2.47,3,.69-1,1.91-1.9,2-2.9C558,545.32,557.9,541.67,557.88,538Zm-48,48.09c0,3.48-.18,7,.11,10.43.09,1.12,1.41,2.14,2.16,3.2.73-1,2.06-1.88,2.09-2.85q.26-10.68,0-21.38c0-.91-1.43-1.78-2.2-2.68-.71.95-1.95,1.85-2,2.84C509.78,579.13,509.93,582.62,509.92,586.11Z"/><path class="cls-2" d="M331.78,445v6.61q0,73,0,145.94a19.12,19.12,0,0,1-1.11,7.29c-1.67,3.86-5.1,5.72-9.31,5.37a8.92,8.92,0,0,1-8.36-6.78,23.76,23.76,0,0,1-.6-6.43q0-136.68,0-273.37a30.62,30.62,0,0,1,.27-5,9.59,9.59,0,0,1,19.08.87c.26,5.13.06,10.27.06,16.64,22.36-28.85,50.81-42.84,86.37-40,25.15,2,46.35,13,62.92,32.07,34,39.22,30.64,96.73-7.15,131.93C435.42,496,368.25,494.93,331.78,445Zm153.34-54.68a75.5,75.5,0,0,0-151-.05c-.19,41.3,33.89,75.48,75.3,75.54A75.38,75.38,0,0,0,485.12,390.36Z"/><path class="cls-3" d="M230.22,444.72c-36.59,49.52-103.29,52.33-143,14.51A94.47,94.47,0,0,1,86,322.83c39.32-38.75,107.06-37,144.21,13.19,0-5.32,0-9.69,0-14.06.07-7.14,3.73-11.52,9.62-11.57s9.83,4.37,9.83,11.39q.06,76,0,152c0,7.12-3.87,11.36-9.89,11.28s-9.53-4.34-9.56-11.58C230.18,464.37,230.22,455.27,230.22,444.72Zm-77.87,21.13a75.62,75.62,0,0,0,75.51-75.3c.06-41.4-33.9-75.48-75.33-75.57a75.44,75.44,0,1,0-.18,150.87Z"/><path class="cls-3" d="M687.18,444.71C650.91,493.76,585,497.16,544.87,459.88a94.77,94.77,0,0,1-3.24-135.7c39-39.87,108.11-39.09,145.55,11.68,0-5.22,0-9.61,0-14,.1-7.07,3.88-11.47,9.76-11.46s9.69,4.38,9.69,11.48q0,76,0,152c0,7-4,11.41-9.9,11.28-5.69-.12-9.48-4.45-9.54-11.2C687.11,464.68,687.18,455.43,687.18,444.71ZM533.87,390.4a75.45,75.45,0,0,0,75.28,75.45c41.58.09,75.6-33.66,75.68-75.08.07-41.76-33.92-75.85-75.57-75.8A75.62,75.62,0,0,0,533.87,390.4Z"/><path class="cls-4" d="M271.32,291.26c-5.29,0-9.77.07-14.24,0-6.72-.12-11-3.93-11-9.64s4.32-9.63,11-9.72c4.62-.06,9.23,0,14.85,0,0-10.34-.56-20.16.2-29.89a71.87,71.87,0,0,1,4.52-19.82c6.62-17.3,20.5-26.34,39-26.36q19.25,0,38.48-.06c4.17,0,8,1.49,9.22,5.48.87,2.85.94,7.05-.62,9.23-1.69,2.38-5.64,4.26-8.67,4.36-13,.47-26,.36-39,.15-9.72-.15-16.29,4.45-19.94,13a44.14,44.14,0,0,0-3.76,14.39c-.58,9.59-.17,19.24-.17,29.52h5.28c19.15,0,38.31,0,57.46,0,6.21,0,10.57,4,10.69,9.53s-4.16,9.49-10.43,9.8c-1.33.06-2.66,0-4,0H290.77V472.54c0,8-3.49,12.51-9.63,12.6s-9.81-4.48-9.82-12.37q0-45,0-89.95V291.26Z"/><path class="cls-5" d="M487.05,528.72c3.73-3.77,7.63-5.1,12.16-3s5.34,6.06,5.37,10.42c0,4.16.17,8.34-.11,12.48-.07,1.14-1.45,2.19-2.23,3.27-.77-1.06-2.15-2.09-2.21-3.2-.26-4.48-.11-9-.13-13.48,0-3.61-1.34-6.3-5.37-6.39-4.31-.09-5.73,2.64-5.71,6.51,0,4.17.21,8.34-.11,12.48-.11,1.41-1.56,2.72-2.39,4.07-.73-1.3-2-2.56-2.09-3.89-.27-4.32-.1-8.66-.11-13,0-3.68-1.49-6.19-5.52-6.19s-5.51,2.59-5.57,6.21c-.08,4.33.14,8.67-.12,13-.08,1.32-1.31,2.58-2,3.87-.8-1.2-2.25-2.38-2.29-3.6-.23-6.65-.18-13.32-.08-20,.05-3,1.07-4.64,4.23-2.31a2.2,2.2,0,0,0,1.95.24C479.35,523.54,483.32,524.58,487.05,528.72Z"/><path class="cls-6" d="M358,597.37c0,3.63.16,6.79-.09,9.93-.09,1-1.24,2-1.9,3-.81-.85-2.31-1.69-2.33-2.55q-.23-16.19,0-32.39c0-.85,1.53-1.67,2.36-2.5,2.37,3.23,4.87-.24,7.13.15,3.39.6,7.37,1.33,9.76,3.49,5.24,4.75,4.81,14.84,0,20C369.17,600.49,365,600.82,358,597.37Zm14.05-11c-.11-4-.79-8.18-5.12-9.21-2.18-.51-5.55.79-7.28,2.43-2.92,2.78-2.93,10.62,0,13.41,1.72,1.65,5.08,3,7.26,2.49C371.22,594.46,371.91,590.3,372,586.33Z"/><path class="cls-7" d="M394.58,538.52a98.33,98.33,0,0,1-.14,10.45c-.1,1-1.92,1.76-2.95,2.64-1.81-3.17-3.65-.51-5.59-.17a15.49,15.49,0,0,1-6.36,0c-5.05-1.29-8.5-7.11-8.36-13.38s3.77-11.94,9-12.9c2.28-.42,4.81.41,7.22.76.88.12,2.12,1,2.54.66,5.93-4.64,4.35,1,4.61,3.47a79.5,79.5,0,0,1,.07,8.46Zm-4,1.34a48.24,48.24,0,0,0-1.16-6.21c-1.48-4.23-5.35-6.06-9-4.44-4.41,1.95-6.1,10.48-3.07,15.47,2.07,3.4,6.69,4.75,9.31,2.1C388.61,544.73,389.58,541.63,390.54,539.86Z"/><path class="cls-5" d="M527,550c-3.76,2.72-8.13,2.91-12.41-.2S508.32,540,510,533.92c1.37-4.85,4.31-8.35,9.56-9,1.88-.22,3.88.5,5.8.89.91.18,2.16,1.14,2.61.83,6.18-4.37,4.61,1.15,4.7,3.8.21,5.66.14,11.33,0,17a16.94,16.94,0,0,1-1.14,4.11Zm-13-11.52c0,5.86,2.8,9.51,7.19,9.54,4.58,0,7.33-3.79,7.19-10-.13-5.89-2.94-9.44-7.39-9.32C516.68,528.84,513.94,532.67,514,538.47Z"/><path class="cls-8" d="M655,588c.53,6.79,5.24,9.65,11.2,7.3,1.22-.49,2.23-1.49,3.44-2a8.06,8.06,0,0,1,2.7-.1c-.17,1,0,2.31-.56,3-4.31,5.38-15.52,4.76-19.32-1.17a15.33,15.33,0,0,1-.66-16.12,10.76,10.76,0,0,1,10.52-6.21c6.14.18,11.83,6.36,11,12.38-.16,1.1-2.25,2.65-3.54,2.74C665,588.15,660.18,588,655,588Zm13.57-3.51c-.47-5.71-2.86-8.14-7.51-7.81-4.23.3-6.16,2.89-5.74,7.81Z"/><path class="cls-6" d="M605.89,588c.64,5.12,2.91,8.1,7.38,7.8,3.43-.23,6.77-1.81,11.16-3.09-.75,1.77-1,3.21-1.79,4.05-3.59,3.66-11.46,4.2-15.82,1.28-5-3.31-6.88-11.1-4.36-17.55,2.13-5.44,7-8.41,12.57-7.66,5.39.73,10.28,6.56,9.67,12.1-.13,1.13-2.1,2.85-3.31,2.93C616.44,588.15,611.45,588,605.89,588Zm0-3.71h14.25c-.44-4.87-2.42-7.65-7.17-7.6S606.55,579.79,605.91,584.24Z"/><path class="cls-6" d="M440.93,588c.33,6.72,5,9.64,11,7.36,1.06-.41,2-1.34,3-1.65a14,14,0,0,1,3.44-.16c-.48,1.12-.66,2.54-1.47,3.31-3.66,3.47-11.16,4.14-15.4,1.39-4.91-3.19-6.06-8.1-5.62-13.51.4-4.94,2.54-8.93,7.28-11.05A11.42,11.42,0,0,1,459.06,585c-.09,1.08-2.13,2.74-3.35,2.82C450.81,588.15,445.86,588,440.93,588Zm13.94-3.52c-.81-4.87-2.66-8-7.67-7.79-4.77.19-6.4,3.24-6.78,7.79Z"/><path class="cls-9" d="M407.79,599.86c-6.92,0-11.9-5.91-11.75-13.88.14-7.79,5-13.31,11.84-13.28s11.93,6,11.77,13.87C419.49,594.32,414.52,599.89,407.79,599.86Zm-7.38-13.72a36,36,0,0,0,1.48,5.79c1.43,3.33,4.25,4.73,7.69,3.74,4.42-1.27,5.3-5.08,5.38-9,.08-4.13-.65-8.18-5.19-9.68-3.36-1.11-6.29.17-7.8,3.5A36.71,36.71,0,0,0,400.41,586.14Z"/><path class="cls-10" d="M575.44,585.82c0-3.33-.15-6.67,0-10,.16-2.72,1.23-4.17,4.17-2.13a3.77,3.77,0,0,0,3.06.06c7.18-3,13.4.53,13.95,8.23a122.89,122.89,0,0,1,0,14.49c-.06,1.13-1.44,2.2-2.21,3.3-.79-1.07-2.2-2.1-2.27-3.22-.27-4.31-.14-8.66-.12-13,0-4.11-1.63-6.89-6-6.85s-6,3-6,7c0,4.33.14,8.67-.13,13-.07,1.06-1.49,2-2.29,3.06-.7-1-1.94-1.92-2-2.94C575.29,593.16,575.44,589.49,575.44,585.82Z"/><path class="cls-5" d="M597.24,526.85c8.39-4.94,15.3-1.1,15.45,9.3.07,4.16.17,8.33-.1,12.47-.07,1.13-1.45,2.16-2.24,3.24-.76-1.08-2.12-2.13-2.19-3.25-.27-4.31-.11-8.65-.12-13,0-4.09-1.75-6.89-6.13-6.82s-6,3-6,7c0,4.33.12,8.66-.1,13-.05,1-1.21,2-1.87,3-.87-1-2.48-1.9-2.52-2.89-.22-7-.18-14-.06-21,0-1,1-2.78,1.44-2.77C594.06,525.2,595.28,526,597.24,526.85Z"/><path class="cls-5" d="M531.17,599.85c-6.78,0-11.76-5.57-11.88-13.37s4.77-13.61,11.48-13.77c7.05-.17,12.1,5.52,12.08,13.61C542.83,594.18,538,599.8,531.17,599.85Zm7.05-13.37c.06-6-2.49-9.64-6.82-9.83s-7.36,3.36-7.51,9.17c-.16,6.11,2.61,10,7.1,10.09S538.16,592.41,538.22,586.48Z"/><path class="cls-11" d="M446.87,538.36c0,7.91-4.76,13.51-11.57,13.58-7,.06-12.11-5.83-12-13.78.12-7.78,5.16-13.44,11.92-13.38S446.87,530.51,446.87,538.36Zm-4.61-.05c0-5.89-2.75-9.55-7.1-9.59-4.5,0-7.36,3.91-7.24,10,.11,5.84,3,9.43,7.4,9.31S442.29,544.29,442.26,538.31Z"/><path class="cls-8" d="M586.26,538.53c-.08,8-4.85,13.41-11.72,13.4S562.73,546.2,562.88,538c.14-7.87,5.08-13.33,11.94-13.2S586.34,530.66,586.26,538.53Zm-4.44-.25c0-5.8-2.89-9.57-7.24-9.57s-7.29,3.79-7.35,9.52c-.07,5.95,3,9.92,7.55,9.79C579.11,547.89,581.86,544.09,581.82,538.28Z"/><path class="cls-12" d="M548,586.12c0-3.49-.19-7,.13-10.46.09-1,1.64-1.87,2.52-2.8,2.42,3.38,4.83.46,7.25,0,5.6-1.09,10.6,2.28,11,8a156.72,156.72,0,0,1,.09,15.93c0,1-1.22,2-1.87,3-.78-1-2.18-2-2.24-3.06-.27-4.3,0-8.64-.16-12.95-.18-4.81-2.56-7.32-6.51-7-4.51.32-5.69,3.36-5.68,7.28s.18,8-.11,11.95c-.1,1.33-1.37,2.57-2.11,3.86-.78-1.23-2.12-2.4-2.25-3.69-.32-3.29-.11-6.63-.11-10Z"/><path class="cls-11" d="M471.34,600.5c-2.64-1.23-5.36-2.32-7.85-3.8-.6-.35-.44-2-.64-3a9.63,9.63,0,0,1,3-.16c2.35.65,4.59,2,6.93,2.2,1.43.1,3-1.53,4.47-2.39-.87-1.43-1.43-3.31-2.68-4.18-2.16-1.48-5.06-1.94-7.08-3.54-1.76-1.4-4-4-3.76-5.68.37-2.32,2.6-5.68,4.59-6.12,3.42-.76,7.31.19,10.9.89.76.14,1.11,2.32,1.65,3.57a28.49,28.49,0,0,1-3.58,0c-.61-.08-1.19-1-1.72-.91-2.42.29-4.83.8-7.24,1.23a39.54,39.54,0,0,0,4.2,5c1.06.93,2.73,1.14,4.09,1.76,3.4,1.54,6.09,3.66,5.26,8s-3.89,5.93-7.8,6.53a17.23,17.23,0,0,1-2.49,0Z"/><path class="cls-11" d="M494.32,600.5c-2.63-1.23-5.35-2.33-7.85-3.8-.59-.35-.43-2-.62-3a9.9,9.9,0,0,1,3-.14c2.35.65,4.59,2,6.93,2.19,1.42.1,3-1.54,4.45-2.41-.88-1.42-1.45-3.28-2.7-4.17-2-1.41-4.84-1.74-6.63-3.31s-4.42-4.52-4.09-6.4c.41-2.35,3.16-5.48,5.43-6,3.07-.74,6.71.45,10,1.3.8.21,1.11,2.33,1.65,3.58a26.84,26.84,0,0,1-3.59,0c-.6-.08-1.19-1-1.71-.91-2.43.29-4.84.79-7.26,1.22a42.27,42.27,0,0,0,4.21,5c1.06.93,2.73,1.15,4.09,1.76,3.41,1.55,6.09,3.66,5.26,8s-3.9,5.94-7.81,6.53a17.1,17.1,0,0,1-2.48,0Z"/><path class="cls-13" d="M423.18,515.58c-4.34,1.38-7.43,3.47-5.1,8.32l4.16,3.16-4.65,3.1c0,5.37.14,11.34-.1,17.29-.07,1.49-1.37,2.93-2.1,4.4-.83-1.5-2.28-3-2.38-4.5-.32-4.63-.1-9.31-.13-14,0-2.06.66-4.49-2.67-4.85a9,9,0,0,1-.28-2.9c4.27-.83,2.26-4.35,3.1-6.66.77-2.09,2.22-4.43,4-5.48,1.39-.79,3.84.29,5.81.54Z"/><path class="cls-14" d="M430.2,571.53l4.66,3.54-4.81,2.87c0,5.57.12,11.71-.09,17.83,0,1.33-1.24,2.63-1.91,4-.77-1.37-2.12-2.7-2.21-4.11-.28-4.64-.06-9.31-.12-14,0-2.15.9-4.9-2.79-5.24a11.8,11.8,0,0,1-.15-3c4.18-.58,2.79-3.79,2.94-6.17.3-4.58,3.73-7.49,7.5-6.18a2.87,2.87,0,0,1,1.73,1.52c.14.54-.58,1.87-1,1.89C427.83,564.83,430.76,569.29,430.2,571.53Z"/><path class="cls-15" d="M629.9,580c0-5-.18-10,.11-14.93.09-1.42,1.52-2.76,2.33-4.14.75,1.29,2.12,2.57,2.15,3.87q.27,15.43,0,30.87c0,1.38-1.56,2.72-2.4,4.08-.72-1.44-2-2.85-2.08-4.31C629.74,590.34,629.9,585.19,629.9,580Z"/><path class="cls-14" d="M358,547.64c3.47,0,6.28-.15,9.06.1.85.07,1.6,1.23,2.39,1.89-.78.69-1.52,1.92-2.35,2a53.07,53.07,0,0,1-10.47-.06c-1.12-.15-2.79-2.26-2.82-3.51-.23-9.49-.21-19,0-28.49,0-1.22,1.46-2.4,2.24-3.61.66,1.34,1.86,2.66,1.88,4C358.06,528.91,358,537.89,358,547.64Z"/><path class="cls-7" d="M457.93,527.16c.05,0,.61-.9,1.29-1a49.7,49.7,0,0,1,5.34-.33c-1,1.31-1.74,3.23-3.06,3.81a7.25,7.25,0,0,0-4.83,7.36c0,3.83.16,7.67-.12,11.48-.09,1.18-1.4,2.26-2.14,3.38-.83-1.18-2.32-2.33-2.36-3.54-.24-6.48-.2-13-.05-19.47,0-1.3,1-2.58,1.52-3.86Z"/><path class="cls-16" d="M545.16,539.57c0,3.56.17,6.4-.09,9.21-.09,1.06-1.18,2-1.82,3-.79-1-2.23-2-2.28-3-.25-4.82-.12-9.65-.12-14.47,0-1,.32-2.16-.07-3a62.51,62.51,0,0,0-3.36-5.52c3.52-.53,3.59-3,3.55-5.82,0-1,1.27-1.93,2-2.89.74.91,1.93,1.74,2.13,2.75.45,2.26-.76,5.18,3.06,5.7.32,0,.69,2.34.58,2.39C541.89,530.49,546.82,536.35,545.16,539.57Z"/><path class="cls-3" d="M645.05,580.61c0,5.33.12,10.66-.11,16-.05,1.07-1.45,2.08-2.22,3.12-.65-1-1.86-2-1.88-3-.13-10.82-.15-21.65,0-32.48,0-1.06,1.44-2.1,2.22-3.15.65,1.17,1.83,2.31,1.88,3.5C645.16,569.94,645.05,575.27,645.05,580.61Z"/><path class="cls-16" d="M387.48,575.22s.56-.86,1.23-1a53,53,0,0,1,5.64-.28c-1.14,1.24-2.06,3-3.47,3.62-3.43,1.52-4.62,4.16-4.72,7.52-.11,3.83.13,7.67-.15,11.47-.08,1.09-1.45,2.08-2.23,3.12-.66-1-1.89-2-1.91-3-.17-7-.15-14,0-21,0-1,.91-1.94,1.4-2.91Z"/><path class="cls-17" d="M557.89,538c0,3.65.15,7.3-.09,10.93-.07,1-1.29,1.93-2,2.9-.86-1-2.44-1.94-2.47-3-.21-7.11-.19-14.24,0-21.36,0-.91,1.46-1.8,2.25-2.69.75.91,2.09,1.78,2.17,2.75C558,531.06,557.88,534.55,557.89,538Z"/><path class="cls-16" d="M509.93,586.11c0-3.49-.15-7,.1-10.44.07-1,1.31-1.89,2-2.84.77.9,2.18,1.77,2.2,2.68q.29,10.69,0,21.38c0,1-1.36,1.9-2.09,2.85-.75-1.06-2.07-2.08-2.16-3.2C509.74,593.08,509.92,589.59,509.93,586.11Z"/><path class="cls-18" d="M485.12,390.36a75.38,75.38,0,0,1-75.7,75.49c-41.41-.06-75.49-34.24-75.3-75.54a75.5,75.5,0,0,1,151,.05Z"/><path class="cls-18" d="M152.35,465.85A75.44,75.44,0,1,1,152.53,315c41.43.09,75.39,34.17,75.33,75.57A75.62,75.62,0,0,1,152.35,465.85Z"/><path class="cls-18" d="M533.87,390.4A75.62,75.62,0,0,1,609.26,315c41.65-.05,75.64,34,75.57,75.8-.08,41.42-34.1,75.17-75.68,75.08A75.45,75.45,0,0,1,533.87,390.4Z"/><path class="cls-19" d="M372,586.33c-.13,4-.82,8.13-5.17,9.12-2.18.49-5.54-.84-7.26-2.49-2.9-2.79-2.89-10.63,0-13.41,1.73-1.64,5.1-2.94,7.28-2.43C371.25,578.15,371.93,582.31,372,586.33Z"/><path class="cls-19" d="M390.54,539.86c-1,1.77-1.93,4.87-4,6.92-2.62,2.65-7.24,1.3-9.31-2.1-3-5-1.34-13.52,3.07-15.47,3.68-1.62,7.55.21,9,4.44A48.24,48.24,0,0,1,390.54,539.86Z"/><path class="cls-20" d="M514,538.47c0-5.8,2.7-9.63,7-9.75,4.45-.12,7.26,3.43,7.39,9.32.14,6.18-2.61,10-7.19,10C516.78,548,514,544.33,514,538.47Z"/><path class="cls-21" d="M668.58,584.45H655.33c-.42-4.92,1.51-7.51,5.74-7.81C665.72,576.31,668.11,578.74,668.58,584.45Z"/><path class="cls-21" d="M605.91,584.24c.64-4.45,2.27-7.55,7.08-7.6s6.73,2.73,7.17,7.6Z"/><path class="cls-22" d="M454.87,584.43H440.42c.38-4.55,2-7.6,6.78-7.79C452.21,576.45,454.06,579.56,454.87,584.43Z"/><path class="cls-23" d="M400.41,586.14a36.71,36.71,0,0,1,1.56-5.7c1.51-3.33,4.44-4.61,7.8-3.5,4.54,1.5,5.27,5.55,5.19,9.68-.08,4-1,7.78-5.38,9-3.44,1-6.26-.41-7.69-3.74A36,36,0,0,1,400.41,586.14Z"/><path class="cls-24" d="M538.22,586.48c-.06,5.93-2.78,9.48-7.23,9.43s-7.26-4-7.1-10.09c.15-5.81,3.06-9.36,7.51-9.17S538.28,580.53,538.22,586.48Z"/><path class="cls-24" d="M442.26,538.31c0,6-2.54,9.59-6.94,9.7s-7.29-3.47-7.4-9.31c-.12-6.07,2.74-10,7.24-10C439.51,528.76,442.23,532.42,442.26,538.31Z"/><path class="cls-25" d="M581.82,538.28c0,5.81-2.71,9.61-7,9.74-4.55.13-7.62-3.84-7.55-9.79.06-5.73,3-9.51,7.35-9.52S581.79,532.48,581.82,538.28Z"/></g></g></svg>