<svg xmlns="http://www.w3.org/2000/svg" viewBox="0 0 369.54 144.61"><defs><style>.cls-1{isolation:isolate;}.cls-2{fill:#e4e4e4;mix-blend-mode:multiply;}.cls-3{fill:#4980bf;}.cls-4{fill:#272424;}.cls-5{fill:#223d54;}.cls-6{fill:#fff;}.cls-7{fill:none;stroke:#fff;stroke-miterlimit:10;stroke-width:2px;}</style></defs><title>label</title><g class="cls-1"><g id="Calque_2" data-name="Calque 2"><g id="Calque_1-2" data-name="Calque 1"><path class="cls-2" d="M364,99.13q-7.31-2.66-14.63-5.23Q343.55,60,337.71,26.1,267.44,18.54,196.77,18l-3.21,0c0-3.91,0-7.83,0-11.74A1429.23,1429.23,0,0,0,16.2,16.12Q10.86,45.36,5.52,74.64q6.77.35,13.53.75c-.15,1-.31,1.93-.47,2.9h0q-5.47,33.13-10.92,66.32A1429.92,1429.92,0,0,1,358,144.13q-.5-2.92-1-5.84h0l-.33-1.9,4,.37Q362.35,117.94,364,99.13Z"/><polygon class="cls-3" points="0 58.97 366.08 123.44 369.54 84.22 11.04 0 0 58.97"/><polygon class="cls-4" points="342.33 12.11 22.32 12.11 2.21 131.37 363.32 131.37 342.33 12.11"/><polygon class="cls-5" points="200.62 58.97 197.12 12.11 22.32 12.11 13.5 64.38 200.62 58.97"/><polygon class="cls-5" points="293.55 128.76 362.28 125.48 356.42 92.17 288.22 92.17 293.55 128.76"/><polygon class="cls-3" points="193.83 54.49 0 58.97 11.04 0 193.81 0 193.83 54.49"/><polygon class="cls-3" points="366.08 123.44 296.58 125.48 290.55 86.7 369.54 84.22 366.08 123.44"/><path class="cls-6" d="M21.71,120.3h.5l1.39,4,1.4-4.07h.35l1.39,4.07,1.4-4h.47L26.92,125h-.38l-1.37-4-1.39,4H23.4Z"/><path class="cls-6" d="M29.41,120.3h.5l1.39,4,1.39-4.07h.36l1.39,4.07,1.39-4h.48L34.62,125h-.38l-1.37-4-1.39,4H31.1Z"/><path class="cls-6" d="M37.11,120.3h.5l1.39,4,1.39-4.07h.36l1.39,4.07,1.39-4H44L42.32,125h-.38l-1.37-4-1.39,4H38.8Z"/><path class="cls-6" d="M44.56,124.14h.6v.77h-.6Z"/><path class="cls-6" d="M46.88,120.7h-.67v-.4h.67v-.46a1.63,1.63,0,0,1,.41-1.2,1.29,1.29,0,0,1,1-.36,1.76,1.76,0,0,1,.68.11v.41a2.17,2.17,0,0,0-.68-.12c-.64,0-.94.38-.94,1.17v.45h1.61v.4H47.32v4.21h-.44Zm3-2.21h.56v.6h-.56ZM50,120.3h.44v4.61H50Z"/><path class="cls-6" d="M52.14,120.3h.44v.86a1.79,1.79,0,0,1,1.66-1,1.76,1.76,0,0,1,1.85,1.9v2.82h-.44v-2.74a1.42,1.42,0,0,0-1.47-1.58,1.59,1.59,0,0,0-1.6,1.65v2.67h-.44Z"/><path class="cls-6" d="M57.38,122.62v0a2.3,2.3,0,0,1,2.25-2.41,2.22,2.22,0,0,1,1.9,1.1v-3H62v6.61h-.44v-1a2.23,2.23,0,0,1-1.9,1.14A2.3,2.3,0,0,1,57.38,122.62Zm4.17,0v0a1.93,1.93,0,0,0-1.88-2,1.81,1.81,0,0,0-1.81,2h0a1.85,1.85,0,0,0,1.81,2A1.93,1.93,0,0,0,61.55,122.61Z"/><path class="cls-6" d="M67.26,120.3h.49l-2,4.77c-.4,1-.88,1.31-1.54,1.31a2.15,2.15,0,0,1-.91-.19l.15-.39a1.74,1.74,0,0,0,.79.17c.48,0,.8-.28,1.14-1.09l-2.22-4.58h.52l1.92,4.12Z"/><path class="cls-6" d="M68.38,122.62v0a2.38,2.38,0,1,1,4.75,0h0A2.39,2.39,0,0,1,70.75,125,2.36,2.36,0,0,1,68.38,122.62Zm4.27,0v0a1.94,1.94,0,0,0-1.9-2,1.91,1.91,0,0,0-1.89,2h0a1.94,1.94,0,0,0,1.9,2A1.9,1.9,0,0,0,72.65,122.62Z"/><path class="cls-6" d="M74.4,123.12V120.3h.44V123a1.41,1.41,0,0,0,1.47,1.57,1.59,1.59,0,0,0,1.6-1.65V120.3h.45v4.61h-.45v-.86a1.81,1.81,0,0,1-1.66,1A1.76,1.76,0,0,1,74.4,123.12Z"/><path class="cls-6" d="M80,120.3h.44v1.31a2.19,2.19,0,0,1,2-1.39v.49h0a2.06,2.06,0,0,0-2,2.31v1.89H80Z"/><path class="cls-6" d="M82.81,126.35V126a2.19,2.19,0,0,0,.36,0c.32,0,.55-.21.55-.65v-5h.44v5a.92.92,0,0,1-1,1.06A1.54,1.54,0,0,1,82.81,126.35Zm.86-7.86h.55v.6h-.55Z"/><path class="cls-6" d="M85.59,122.62v0A2.39,2.39,0,0,1,88,120.19a2.35,2.35,0,0,1,2.36,2.4h0a2.37,2.37,0,1,1-4.74,0Zm4.26,0v0a1.94,1.94,0,0,0-1.9-2,1.91,1.91,0,0,0-1.88,2h0a1.93,1.93,0,0,0,1.9,2A1.9,1.9,0,0,0,89.85,122.62Z"/><path class="cls-6" d="M92.14,123.92v1H91.7V118.3h.44v3a2.23,2.23,0,0,1,1.9-1.14,2.29,2.29,0,0,1,2.25,2.4h0A2.31,2.31,0,0,1,94,125,2.24,2.24,0,0,1,92.14,123.92Zm3.67-1.3v0a1.86,1.86,0,0,0-1.81-2,1.93,1.93,0,0,0-1.88,2v0a1.92,1.92,0,0,0,1.88,2A1.81,1.81,0,0,0,95.81,122.62Z"/><path class="cls-6" d="M97.48,124.14h.6v.77h-.6Z"/><path class="cls-6" d="M99.16,122.62v0a2.39,2.39,0,0,1,2.36-2.41,2.42,2.42,0,0,1,1.84.85l-.32.32a2.09,2.09,0,0,0-1.53-.76,1.91,1.91,0,0,0-1.87,2h0a1.94,1.94,0,0,0,1.9,2,2.05,2.05,0,0,0,1.55-.77l.31.27a2.37,2.37,0,0,1-4.24-1.48Z"/><path class="cls-6" d="M104.19,122.62v0a2.39,2.39,0,0,1,2.38-2.41,2.35,2.35,0,0,1,2.36,2.4h0a2.37,2.37,0,1,1-4.74,0Zm4.26,0v0a1.94,1.94,0,0,0-1.9-2,1.91,1.91,0,0,0-1.88,2h0a1.93,1.93,0,0,0,1.9,2A1.9,1.9,0,0,0,108.45,122.62Z"/><path class="cls-6" d="M110.3,120.3h.44v.82a1.71,1.71,0,0,1,1.54-.93,1.67,1.67,0,0,1,1.56,1,1.83,1.83,0,0,1,1.66-1,1.74,1.74,0,0,1,1.78,1.92v2.8h-.45v-2.74c0-1-.51-1.58-1.36-1.58a1.49,1.49,0,0,0-1.46,1.63v2.69h-.44v-2.77c0-1-.53-1.55-1.35-1.55a1.56,1.56,0,0,0-1.48,1.66v2.66h-.44Z"/><path class="cls-6" d="M300.67,105.05h0a2.24,2.24,0,0,1,2.25-2.3,2.32,2.32,0,0,1,1.73.71l-.35.36a1.93,1.93,0,0,0-1.39-.6,1.74,1.74,0,0,0-1.72,1.81v0a1.76,1.76,0,0,0,1.72,1.83,1.93,1.93,0,0,0,1.43-.64l.33.32a2.3,2.3,0,0,1-1.77.78A2.22,2.22,0,0,1,300.67,105.05Z"/><path class="cls-6" d="M305.46,102.63H306v1.92a1.24,1.24,0,0,1,1.12-.64,1.2,1.2,0,0,1,1.26,1.31v2h-.49v-1.91a.87.87,0,0,0-.91-1,1,1,0,0,0-1,1v1.87h-.49Z"/><path class="cls-6" d="M309.12,106.3h0c0-.7.57-1.07,1.4-1.07a3.49,3.49,0,0,1,1,.14v-.1c0-.58-.36-.89-1-.89a2.23,2.23,0,0,0-1,.24l-.15-.4a2.61,2.61,0,0,1,1.19-.28,1.45,1.45,0,0,1,1.06.36,1.28,1.28,0,0,1,.34,1v2h-.48v-.48a1.44,1.44,0,0,1-1.18.55A1.1,1.1,0,0,1,309.12,106.3Zm2.4-.25v-.3a3.29,3.29,0,0,0-.95-.14c-.61,0-1,.26-1,.65v0c0,.41.38.65.83.65A1,1,0,0,0,311.52,106.05Z"/><path class="cls-6" d="M313,104h.49v.57a1.24,1.24,0,0,1,1.12-.64,1.2,1.2,0,0,1,1.26,1.31v2h-.49v-1.91a.87.87,0,0,0-.91-1,1,1,0,0,0-1,1v1.87H313Z"/><path class="cls-6" d="M316.73,105.63h0a1.71,1.71,0,0,1,3-1.13l-.32.34a1.33,1.33,0,0,0-1-.49,1.21,1.21,0,0,0-1.17,1.27h0a1.22,1.22,0,0,0,1.21,1.27,1.36,1.36,0,0,0,1-.49l.31.3a1.72,1.72,0,0,1-1.34.63A1.68,1.68,0,0,1,316.73,105.63Z"/><path class="cls-6" d="M321.9,106.9a1.33,1.33,0,0,0,1-.46l.31.27a1.69,1.69,0,0,1-1.35.62,1.71,1.71,0,0,1-.07-3.42,1.56,1.56,0,0,1,1.53,1.73,1.28,1.28,0,0,1,0,.18h-2.59A1.13,1.13,0,0,0,321.9,106.9Zm1-1.48a1.08,1.08,0,0,0-1.05-1.1,1.13,1.13,0,0,0-1.06,1.1Z"/><path class="cls-6" d="M325.92,105.63v0a1.6,1.6,0,0,1,1.56-1.7,1.46,1.46,0,0,1,1.25.7v-2h.49v4.62h-.49v-.66a1.45,1.45,0,0,1-1.25.73A1.59,1.59,0,0,1,325.92,105.63Zm2.83,0h0a1.21,1.21,0,0,0-1.18-1.26,1.16,1.16,0,0,0-1.15,1.26h0a1.18,1.18,0,0,0,1.15,1.27A1.22,1.22,0,0,0,328.75,105.62Z"/><path class="cls-6" d="M331.76,106.9a1.35,1.35,0,0,0,1-.46l.3.27a1.69,1.69,0,0,1-1.35.62,1.71,1.71,0,0,1-.06-3.42,1.56,1.56,0,0,1,1.53,1.73,1.28,1.28,0,0,1,0,.18h-2.6A1.14,1.14,0,0,0,331.76,106.9Zm.95-1.48a1.07,1.07,0,0,0-1-1.1,1.13,1.13,0,0,0-1.07,1.1Z"/><path class="cls-6" d="M335.92,107.82l.23-.38a2.1,2.1,0,0,0,1.26.42,1.08,1.08,0,0,0,1.19-1.16v-.39a1.57,1.57,0,0,1-1.29.69,1.52,1.52,0,0,1-1.54-1.53v0a1.55,1.55,0,0,1,2.82-.88V104h.49v2.7a1.55,1.55,0,0,1-.42,1.16,1.73,1.73,0,0,1-1.25.44A2.55,2.55,0,0,1,335.92,107.82Zm2.69-2.36h0a1.15,1.15,0,0,0-1.2-1.11,1.09,1.09,0,0,0-1.14,1.1h0a1.12,1.12,0,0,0,1.14,1.12A1.15,1.15,0,0,0,338.61,105.46Z"/><path class="cls-6" d="M339.92,106.3h0c0-.7.57-1.07,1.4-1.07a3.49,3.49,0,0,1,1,.14v-.1c0-.58-.35-.89-1-.89a2.26,2.26,0,0,0-1,.24l-.15-.4a2.61,2.61,0,0,1,1.19-.28,1.42,1.42,0,0,1,1.06.36,1.28,1.28,0,0,1,.34,1v2h-.48v-.48a1.44,1.44,0,0,1-1.18.55A1.1,1.1,0,0,1,339.92,106.3Zm2.41-.25v-.3a3.37,3.37,0,0,0-1-.14c-.61,0-.95.26-.95.65v0c0,.41.37.65.82.65A1,1,0,0,0,342.33,106.05Z"/><path class="cls-6" d="M343.8,107.82l.22-.38a2.1,2.1,0,0,0,1.26.42,1.08,1.08,0,0,0,1.19-1.16v-.39a1.54,1.54,0,0,1-1.29.69,1.51,1.51,0,0,1-1.53-1.53v0a1.54,1.54,0,0,1,2.81-.88V104H347v2.7a1.55,1.55,0,0,1-.42,1.16,1.71,1.71,0,0,1-1.24.44A2.51,2.51,0,0,1,343.8,107.82Zm2.68-2.36h0a1.15,1.15,0,0,0-1.2-1.11,1.08,1.08,0,0,0-1.13,1.1h0a1.11,1.11,0,0,0,1.13,1.12A1.15,1.15,0,0,0,346.48,105.46Z"/><path class="cls-6" d="M348,104h.49v.57a1.23,1.23,0,0,1,1.12-.64,1.19,1.19,0,0,1,1.25,1.31v2h-.48v-1.91a.87.87,0,0,0-.91-1,1,1,0,0,0-1,1v1.87H348Z"/><path class="cls-6" d="M353.39,106.9a1.35,1.35,0,0,0,1-.46l.3.27a1.68,1.68,0,0,1-1.35.62,1.71,1.71,0,0,1-.06-3.42,1.56,1.56,0,0,1,1.53,1.73,1.28,1.28,0,0,1,0,.18h-2.6A1.14,1.14,0,0,0,353.39,106.9Zm.95-1.48a1.07,1.07,0,0,0-1-1.1,1.13,1.13,0,0,0-1.07,1.1Zm-.64-2.85.51.23-.72.69h-.38Z"/><path class="cls-6" d="M357.14,106.9a1.35,1.35,0,0,0,1-.46l.3.27a1.68,1.68,0,0,1-1.35.62,1.71,1.71,0,0,1-.06-3.42,1.56,1.56,0,0,1,1.53,1.73,1.28,1.28,0,0,1,0,.18H356A1.14,1.14,0,0,0,357.14,106.9Zm.95-1.48a1.07,1.07,0,0,0-1-1.1,1.13,1.13,0,0,0-1.07,1.1Z"/><path class="cls-6" d="M300.67,114.58h0a2.5,2.5,0,0,1,2.49-2.53,2.47,2.47,0,0,1,1.93.86l-.47.5a2,2,0,0,0-1.47-.73,1.79,1.79,0,0,0-1.74,1.88v0a1.81,1.81,0,0,0,1.78,1.88,2,2,0,0,0,1.48-.72l.46.43a2.51,2.51,0,0,1-4.46-1.58Z"/><path class="cls-6" d="M306.32,110.15H307V113a1.85,1.85,0,0,1,1.66-.94,1.76,1.76,0,0,1,1.85,1.94v3h-.72v-2.83a1.29,1.29,0,0,0-1.34-1.46,1.43,1.43,0,0,0-1.45,1.52V117h-.72Z"/><path class="cls-6" d="M311.72,115.58v0c0-1,.85-1.58,2.07-1.58a5.14,5.14,0,0,1,1.48.2V114c0-.86-.52-1.31-1.43-1.31a3.32,3.32,0,0,0-1.47.35l-.22-.59a3.9,3.9,0,0,1,1.76-.41,2.14,2.14,0,0,1,1.57.53A1.89,1.89,0,0,1,316,114v3h-.71v-.72a2.11,2.11,0,0,1-1.74.82A1.62,1.62,0,0,1,311.72,115.58Zm3.56-.38v-.45a5,5,0,0,0-1.41-.2c-.9,0-1.42.39-1.42,1v0c0,.61.57,1,1.22,1A1.44,1.44,0,0,0,315.28,115.2Z"/><path class="cls-6" d="M321.4,116a2.19,2.19,0,0,1-1.86,1.07,2.35,2.35,0,0,1-2.31-2.5v0a2.37,2.37,0,0,1,2.31-2.52,2.19,2.19,0,0,1,1.86,1v-.93h.72v6.34h-.72Zm0-1.44v0a1.8,1.8,0,0,0-1.75-1.87,1.71,1.71,0,0,0-1.7,1.87v0a1.74,1.74,0,0,0,1.7,1.87A1.81,1.81,0,0,0,321.42,114.57Z"/><path class="cls-6" d="M323.65,115.15v-3h.72V115a1.29,1.29,0,0,0,1.34,1.46,1.43,1.43,0,0,0,1.45-1.52v-2.77h.72V117h-.72v-.84a1.83,1.83,0,0,1-1.65.94A1.77,1.77,0,0,1,323.65,115.15Z"/><path class="cls-6" d="M331.63,116.47a2,2,0,0,0,1.53-.69l.45.41a2.52,2.52,0,0,1-2,.9,2.53,2.53,0,0,1-.09-5,2.3,2.3,0,0,1,2.25,2.56v.26h-3.84A1.69,1.69,0,0,0,331.63,116.47Zm1.41-2.19a1.58,1.58,0,0,0-1.54-1.63,1.67,1.67,0,0,0-1.57,1.63Z"/><path class="cls-6" d="M337.85,112.14h.72V113a1.77,1.77,0,0,1,1.56-.92,1.66,1.66,0,0,1,1.56,1,1.92,1.92,0,0,1,1.7-1,1.74,1.74,0,0,1,1.8,1.94v3h-.72v-2.83c0-.93-.47-1.46-1.26-1.46a1.36,1.36,0,0,0-1.34,1.5V117h-.71v-2.85c0-.9-.48-1.44-1.24-1.44a1.41,1.41,0,0,0-1.35,1.53V117h-.72Z"/><path class="cls-6" d="M346.45,114.58h0a2.53,2.53,0,0,1,5.05,0v0a2.51,2.51,0,0,1-2.54,2.52A2.48,2.48,0,0,1,346.45,114.58Zm4.31,0h0a1.84,1.84,0,0,0-1.8-1.9,1.79,1.79,0,0,0-1.77,1.88v0a1.82,1.82,0,0,0,1.79,1.88A1.79,1.79,0,0,0,350.76,114.58Z"/><path class="cls-6" d="M352.82,110.29h.82v.79h-.82Zm.05,1.85h.72V117h-.72Z"/><path class="cls-6" d="M354.86,116.36l.37-.51a2.83,2.83,0,0,0,1.67.62c.58,0,1-.3,1-.77v0c0-.49-.57-.67-1.2-.85s-1.61-.48-1.61-1.37v0a1.47,1.47,0,0,1,1.65-1.38,3.26,3.26,0,0,1,1.74.53l-.32.54a2.75,2.75,0,0,0-1.44-.46c-.57,0-.93.29-.93.7v0c0,.45.6.63,1.24.83s1.56.51,1.56,1.39h0a1.53,1.53,0,0,1-1.73,1.46A3.33,3.33,0,0,1,354.86,116.36Z"/><path class="cls-6" d="M214.73,23.32h-4.2V21.17h10.74v2.15h-4.2V34.4h-2.34Z"/><path class="cls-6" d="M220.76,29.45v0a5,5,0,0,1,4.88-5.2c3.17,0,4.78,2.49,4.78,5.37,0,.21,0,.41,0,.64h-7.33a2.78,2.78,0,0,0,2.87,2.53,3.59,3.59,0,0,0,2.7-1.19L230,32.75a5,5,0,0,1-4.09,1.88A5,5,0,0,1,220.76,29.45Zm7.39-.74a2.59,2.59,0,0,0-2.53-2.63A2.7,2.7,0,0,0,223,28.71Z"/><path class="cls-6" d="M232.72,24.42H235V26a3.58,3.58,0,0,1,3.12-1.76c2.25,0,3.56,1.51,3.56,3.84V34.4H239.4V28.73c0-1.55-.78-2.44-2.14-2.44A2.23,2.23,0,0,0,235,28.77V34.4h-2.29Z"/><path class="cls-6" d="M244.92,31.64V26.38h-1.27v-2h1.27V21.68h2.28v2.74h2.69v2H247.2v4.9a1.09,1.09,0,0,0,1.23,1.25,3.16,3.16,0,0,0,1.42-.34v1.87a4,4,0,0,1-2.06.51C246.11,34.57,244.92,33.83,244.92,31.64Z"/><path class="cls-6" d="M251.36,29.45v0a5,5,0,0,1,4.88-5.2c3.18,0,4.78,2.49,4.78,5.37,0,.21,0,.41,0,.64h-7.33a2.78,2.78,0,0,0,2.87,2.53,3.62,3.62,0,0,0,2.71-1.19l1.34,1.19a5,5,0,0,1-4.08,1.88A5,5,0,0,1,251.36,29.45Zm7.39-.74a2.59,2.59,0,0,0-2.53-2.63,2.7,2.7,0,0,0-2.59,2.63Z"/><path class="cls-6" d="M262.59,32.83l5.77-6.54H262.8V24.42h8.47V26l-5.77,6.54h5.77V34.4h-8.68Z"/><path class="cls-6" d="M278.43,21.17H281l4,10.17,4-10.17h2.51L286,34.49h-2Z"/><path class="cls-6" d="M291.6,29.46v0a5.22,5.22,0,0,1,5.34-5.22,5.17,5.17,0,0,1,5.31,5.18v0a5.22,5.22,0,0,1-5.35,5.2A5.17,5.17,0,0,1,291.6,29.46Zm8.36,0v0a3.09,3.09,0,0,0-3.06-3.22,3,3,0,0,0-3,3.18v0a3.09,3.09,0,0,0,3.05,3.21A3,3,0,0,0,300,29.46Z"/><path class="cls-6" d="M305,31.64V26.38h-1.26v-2H305V21.68h2.29v2.74H310v2h-2.69v4.9a1.09,1.09,0,0,0,1.23,1.25,3.19,3.19,0,0,0,1.42-.34v1.87a4,4,0,0,1-2.06.51C306.23,34.57,305,33.83,305,31.64Z"/><path class="cls-6" d="M312.32,24.42h2.29v2.25a3.52,3.52,0,0,1,3.53-2.44v2.42H318c-2,0-3.4,1.3-3.4,4v3.8h-2.29Z"/><path class="cls-6" d="M319.24,29.45v0a5,5,0,0,1,4.88-5.2c3.17,0,4.78,2.49,4.78,5.37,0,.21,0,.41,0,.64h-7.33a2.78,2.78,0,0,0,2.87,2.53,3.59,3.59,0,0,0,2.7-1.19l1.35,1.19a5,5,0,0,1-4.09,1.88A5,5,0,0,1,319.24,29.45Zm7.39-.74a2.59,2.59,0,0,0-2.53-2.63,2.7,2.7,0,0,0-2.59,2.63Z"/><path class="cls-6" d="M210.81,53.28v-.06A9.9,9.9,0,0,1,221,43.2a9.44,9.44,0,0,1,8.18,4l-4,3.11a5.17,5.17,0,0,0-4.22-2.26c-2.7,0-4.6,2.29-4.6,5.1v0c0,2.89,1.9,5.15,4.6,5.15A5.24,5.24,0,0,0,225.27,56l4,2.87a10.15,10.15,0,0,1-18.48-5.62Z"/><path class="cls-6" d="M231.28,42.76h5.23V50A5.49,5.49,0,0,1,241,47.63c3.17,0,5.07,2.1,5.07,5.48v9.75h-5.23V54.79c0-1.62-.86-2.5-2.1-2.5a2.2,2.2,0,0,0-2.2,2.5v8.07h-5.23Z"/><path class="cls-6" d="M248,58.59v-.05c0-3.09,2.34-4.68,5.83-4.68a11.3,11.3,0,0,1,3.59.58v-.25c0-1.55-1-2.43-3-2.43a10.53,10.53,0,0,0-4.1.83l-1.08-3.69a14.94,14.94,0,0,1,6-1.16c2.68,0,4.49.64,5.68,1.82a6.22,6.22,0,0,1,1.6,4.74v8.56h-5.18V61.32A5.63,5.63,0,0,1,253,63.19C250.17,63.19,248,61.57,248,58.59Zm9.47-1.13v-.68a5.49,5.49,0,0,0-2-.39c-1.51,0-2.39.74-2.39,1.85v0a1.64,1.64,0,0,0,1.84,1.63A2.4,2.4,0,0,0,257.47,57.46Z"/><path class="cls-6" d="M265.24,48h5.23v2.1a5.52,5.52,0,0,1,4.46-2.43c3.17,0,5.07,2.1,5.07,5.48v9.75h-5.23V54.79c0-1.62-.86-2.5-2.1-2.5a2.2,2.2,0,0,0-2.2,2.5v8.07h-5.23Z"/><path class="cls-6" d="M282.09,55.48v0a7.74,7.74,0,0,1,8-7.77A7,7,0,0,1,296.44,51l-3.55,2.65a3.2,3.2,0,0,0-2.78-1.57,3.09,3.09,0,0,0-2.92,3.3v.06a3.09,3.09,0,0,0,3,3.38A3.57,3.57,0,0,0,293,57.27l3.49,2.54a7.39,7.39,0,0,1-6.63,3.41A7.69,7.69,0,0,1,282.09,55.48Z"/><path class="cls-6" d="M297.35,55.48v0a7.47,7.47,0,0,1,7.52-7.8c5.15,0,7.52,3.78,7.52,8.15,0,.33,0,.72,0,1.08h-10a3.08,3.08,0,0,0,3.22,2.45,4.53,4.53,0,0,0,3.31-1.51l2.89,2.39a7.8,7.8,0,0,1-6.47,3C300.66,63.22,297.35,60.11,297.35,55.48Zm10.14-1.29c-.2-1.66-1.16-2.7-2.59-2.7s-2.32,1.07-2.59,2.7Z"/><path class="cls-6" d="M322.33,45.92V43.58h5.95v2.34l-1.6,10.66h-2.75Zm.25,12.26H328v4.68h-5.45Z"/><path class="cls-6" d="M22.18,19.9H33.44v3.33H26.08v2.34h6.65v3.16H26.08v4.9h-3.9Z"/><path class="cls-6" d="M35.28,19.9H39.2V33.63H35.28Z"/><path class="cls-6" d="M41.77,19.9h3.64l5.78,7.26V19.9h3.86V33.63H51.64l-6-7.53v7.53H41.77Z"/><path class="cls-6" d="M57.54,19.9H63c5,0,7.93,2.82,7.93,6.79v0c0,4-3,6.91-8,6.91H57.54ZM63,30.26c2.33,0,3.87-1.26,3.87-3.48v0c0-2.19-1.54-3.47-3.87-3.47H61.44v7Z"/><path class="cls-6" d="M82.53,28.49,77.19,19.9h4.44l2.89,5,2.92-5H91.8l-5.35,8.53v5.2H82.53Z"/><path class="cls-6" d="M91.21,26.8v0a7.29,7.29,0,0,1,7.6-7.14,7.22,7.22,0,0,1,7.55,7.1v0a7.59,7.59,0,0,1-15.15,0Zm11.17,0v0a3.6,3.6,0,0,0-3.61-3.7,3.53,3.53,0,0,0-3.56,3.66v0a3.6,3.6,0,0,0,3.6,3.71A3.53,3.53,0,0,0,102.38,26.8Z"/><path class="cls-6" d="M108.21,27.61V19.9h4v7.63c0,2,1,2.92,2.6,2.92s2.59-.9,2.59-2.82V19.9h4v7.61c0,4.43-2.59,6.38-6.59,6.38S108.21,31.91,108.21,27.61Z"/><path class="cls-6" d="M123.61,19.9h6.66a6.25,6.25,0,0,1,4.58,1.49,4.2,4.2,0,0,1,1.24,3.2v0a4.33,4.33,0,0,1-2.89,4.21l3.36,4.79h-4.51l-2.83-4.16h-1.71v4.16h-3.9Zm6.48,6.59c1.32,0,2.09-.63,2.09-1.63v0c0-1.08-.81-1.63-2.11-1.63h-2.56v3.3Z"/><path class="cls-6" d="M142.46,31.55,145,29.24a2.86,2.86,0,0,0,2.19,1.27c1,0,1.61-.65,1.61-1.92V19.9h3.88v8.71a5,5,0,0,1-1.39,3.86,5.34,5.34,0,0,1-3.86,1.4A5.74,5.74,0,0,1,142.46,31.55Z"/><path class="cls-6" d="M154.47,26.8v0a7.29,7.29,0,0,1,7.6-7.14,7.22,7.22,0,0,1,7.55,7.1v0a7.59,7.59,0,0,1-15.15,0Zm11.18,0v0a3.6,3.6,0,0,0-3.62-3.7,3.53,3.53,0,0,0-3.56,3.66v0a3.6,3.6,0,0,0,3.6,3.71A3.54,3.54,0,0,0,165.65,26.8Z"/><path class="cls-6" d="M171.65,19.9h7.21a5.28,5.28,0,0,1,3.84,1.23,3,3,0,0,1,.91,2.22v0a3.19,3.19,0,0,1-2.17,3.06c1.7.55,2.79,1.49,2.79,3.36v0c0,2.36-2,3.79-5.33,3.79h-7.25Zm6.25,5.47c1.18,0,1.85-.39,1.85-1.2v0c0-.74-.61-1.17-1.77-1.17h-2.53v2.41Zm.56,5.2c1.19,0,1.87-.45,1.87-1.25v0c0-.75-.6-1.24-1.91-1.24h-3v2.53Z"/><path class="cls-6" d="M21.76,85.59h1.38V96.3H30v1.25H21.76Z"/><path class="cls-6" d="M31,88.87c.87-.31,1.24-.75,1.17-1.48h-.63v-1.8h1.61v1.54a2.11,2.11,0,0,1-1.94,2.34Z"/><path class="cls-6" d="M39.19,96.61A3.8,3.8,0,0,0,42,95.36l.84.73a4.72,4.72,0,0,1-3.73,1.66A4.61,4.61,0,0,1,39,88.53c2.67,0,4.21,2.08,4.21,4.68a4.3,4.3,0,0,1,0,.46H36A3.15,3.15,0,0,0,39.19,96.61Zm2.64-4c-.16-1.6-1.1-3-2.89-3a3.09,3.09,0,0,0-2.94,3Z"/><path class="cls-6" d="M45.55,88.72h1.34V90.2a3.32,3.32,0,0,1,2.92-1.67,3.09,3.09,0,0,1,2.91,1.76,3.62,3.62,0,0,1,3.18-1.76,3.21,3.21,0,0,1,3.36,3.55v5.47H57.91V92.39c0-1.71-.87-2.67-2.34-2.67a2.5,2.5,0,0,0-2.5,2.74v5.09H51.74v-5.2c0-1.65-.89-2.63-2.33-2.63a2.59,2.59,0,0,0-2.52,2.79v5H45.55Z"/><path class="cls-6" d="M62.17,88.72h1.35v1.77a4.07,4.07,0,0,1,3.46-2,4.35,4.35,0,0,1,4.32,4.58v0A4.36,4.36,0,0,1,67,97.73a4.1,4.1,0,0,1-3.46-1.88v4.43H62.17Zm7.75,4.44v0a3.21,3.21,0,0,0-3.19-3.41,3.33,3.33,0,0,0-3.27,3.4v0a3.32,3.32,0,0,0,3.27,3.41A3.15,3.15,0,0,0,69.92,93.16Z"/><path class="cls-6" d="M73.9,85.08h1.35V97.55H73.9Z"/><path class="cls-6" d="M77.81,93.17v0a4.72,4.72,0,0,1,9.43,0v0a4.64,4.64,0,0,1-4.74,4.61A4.58,4.58,0,0,1,77.81,93.17Zm8,0v0a3.37,3.37,0,0,0-3.36-3.45,3.3,3.3,0,0,0-3.31,3.42v0a3.35,3.35,0,0,0,3.34,3.43A3.29,3.29,0,0,0,85.86,93.17Z"/><path class="cls-6" d="M89.7,85.34h1.54v1.45H89.7Zm.09,3.38h1.34v8.83H89.79Z"/><path class="cls-6" d="M99.51,88.72h1.34v1.77a4.08,4.08,0,0,1,3.46-2,4.35,4.35,0,0,1,4.32,4.58v0a4.36,4.36,0,0,1-4.32,4.59,4.11,4.11,0,0,1-3.46-1.88v4.43H99.51Zm7.74,4.44v0a3.21,3.21,0,0,0-3.18-3.41,3.33,3.33,0,0,0-3.27,3.4v0a3.32,3.32,0,0,0,3.27,3.41A3.14,3.14,0,0,0,107.25,93.16Z"/><path class="cls-6" d="M111.11,88.72h1.35V91a3.87,3.87,0,0,1,3.69-2.46V90H116c-2,0-3.58,1.38-3.58,4v3.52h-1.35Z"/><path class="cls-6" d="M121.79,96.61a3.78,3.78,0,0,0,2.85-1.25l.84.73a4.71,4.71,0,0,1-3.72,1.66,4.62,4.62,0,0,1-.18-9.22c2.68,0,4.22,2.08,4.22,4.68a4.3,4.3,0,0,1,0,.46h-7.17A3.13,3.13,0,0,0,121.79,96.61Zm2.64-4a2.93,2.93,0,0,0-2.88-3,3.08,3.08,0,0,0-2.94,3Zm-5.37-7.07,1.4-.63,1.65,2.48h-1Z"/><path class="cls-6" d="M127.4,96.42l.68-.94a5.37,5.37,0,0,0,3.13,1.13c1.09,0,1.87-.55,1.87-1.4v0c0-.89-1.06-1.23-2.25-1.55-1.42-.4-3-.87-3-2.49v0c0-1.52,1.29-2.53,3.08-2.53a6.28,6.28,0,0,1,3.25,1l-.61,1a5.2,5.2,0,0,0-2.68-.86c-1.07,0-1.75.55-1.75,1.28v0c0,.84,1.12,1.16,2.33,1.52,1.4.41,2.9.94,2.9,2.53v0c0,1.67-1.41,2.65-3.22,2.65A6.35,6.35,0,0,1,127.4,96.42Z"/><path class="cls-6" d="M141.58,93.16v0a4.38,4.38,0,0,1,4.32-4.59,4.1,4.1,0,0,1,3.46,1.88V85.08h1.35V97.55h-1.35V95.77a4.08,4.08,0,0,1-3.46,2A4.35,4.35,0,0,1,141.58,93.16Zm7.83,0v0a3.31,3.31,0,0,0-3.27-3.4,3.14,3.14,0,0,0-3.18,3.4v0a3.21,3.21,0,0,0,3.18,3.41A3.33,3.33,0,0,0,149.41,93.14Z"/><path class="cls-6" d="M157.7,96.61a3.8,3.8,0,0,0,2.85-1.25l.84.73a4.73,4.73,0,0,1-3.73,1.66,4.61,4.61,0,0,1-.17-9.22c2.67,0,4.21,2.08,4.21,4.68a4.3,4.3,0,0,1,0,.46h-7.17A3.14,3.14,0,0,0,157.7,96.61Zm2.64-4a2.94,2.94,0,0,0-2.89-3,3.09,3.09,0,0,0-2.94,3Z"/><path class="cls-6" d="M168.74,93.17v0a4.6,4.6,0,0,1,4.63-4.61A4.7,4.7,0,0,1,177,90.1l-.89.92a3.68,3.68,0,0,0-2.74-1.33,3.29,3.29,0,0,0-3.24,3.42v0a3.34,3.34,0,0,0,3.32,3.43,3.77,3.77,0,0,0,2.77-1.31l.85.78a4.7,4.7,0,0,1-3.69,1.71A4.58,4.58,0,0,1,168.74,93.17Z"/><path class="cls-6" d="M179.28,85.08h1.35v5.17a3.44,3.44,0,0,1,3.09-1.72,3.25,3.25,0,0,1,3.46,3.53v5.49h-1.34V92.39a2.38,2.38,0,0,0-2.5-2.67,2.63,2.63,0,0,0-2.71,2.77v5.06h-1.35Z"/><path class="cls-6" d="M194,96.61a3.8,3.8,0,0,0,2.86-1.25l.83.73A4.71,4.71,0,0,1,194,97.75a4.62,4.62,0,0,1-.18-9.22c2.68,0,4.22,2.08,4.22,4.68a4.3,4.3,0,0,1,0,.46h-7.17A3.13,3.13,0,0,0,194,96.61Zm2.65-4a2.94,2.94,0,0,0-2.89-3,3.08,3.08,0,0,0-2.94,3Z"/><path class="cls-6" d="M199.61,96.71l6-6.88h-5.79V88.72h7.62v.83l-6,6.89h6v1.11h-7.83Z"/><path class="cls-6" d="M214.2,88.72h1.49l3,7.32,3.06-7.32h1.45l-3.93,8.89h-1.19Z"/><path class="cls-6" d="M224.27,93.17v0a4.72,4.72,0,0,1,9.43,0v0A4.64,4.64,0,0,1,229,97.75,4.58,4.58,0,0,1,224.27,93.17Zm8,0v0A3.38,3.38,0,0,0,229,89.69a3.3,3.3,0,0,0-3.31,3.42v0A3.35,3.35,0,0,0,229,96.57,3.29,3.29,0,0,0,232.32,93.17Z"/><path class="cls-6" d="M236,94.2V88.72h1.35v5.15a2.38,2.38,0,0,0,2.5,2.67,2.64,2.64,0,0,0,2.71-2.77v-5h1.33v8.83h-1.33V96a3.46,3.46,0,0,1-3.09,1.72A3.26,3.26,0,0,1,236,94.2Z"/><path class="cls-6" d="M246.14,96.42l.68-.94A5.34,5.34,0,0,0,250,96.61c1.08,0,1.87-.55,1.87-1.4v0c0-.89-1.07-1.23-2.25-1.55-1.42-.4-3-.87-3-2.49v0c0-1.52,1.29-2.53,3.07-2.53a6.31,6.31,0,0,1,3.26,1l-.62,1a5.2,5.2,0,0,0-2.67-.86c-1.07,0-1.75.55-1.75,1.28v0c0,.84,1.12,1.16,2.33,1.52,1.39.41,2.9.94,2.9,2.53v0c0,1.67-1.42,2.65-3.22,2.65A6.32,6.32,0,0,1,246.14,96.42Z"/><line class="cls-7" x1="21.77" y1="39.13" x2="184.27" y2="39.13"/><path class="cls-6" d="M329.64,88.45a5.85,5.85,0,1,0,5.84,5.85A5.85,5.85,0,0,0,329.64,88.45Zm2.06,10.36h-2.95V92.4l-1.46.33-.54-2.22,2.68-.73h2.27Z"/></g></g></g></svg>