<svg xmlns="http://www.w3.org/2000/svg" viewBox="0 0 202.94 219.4"><defs><style>.cls-1{fill:#2c5871;}.cls-2{fill:#fcc397;}.cls-3{fill:#e5e5e5;}.cls-4{fill:#515151;}.cls-5{fill:#9b4e34;}.cls-6{fill:#333;}.cls-7{fill:#fff;}.cls-8{fill:#ea9f6c;}.cls-9{fill:#663412;}.cls-10{fill:#7b9368;}.cls-11{fill:#ea8c63;}.cls-12{fill:#d87350;}.cls-13{fill:#6b3a25;}.cls-14{fill:#663623;}</style></defs><title>Fichier 1</title><g id="Calque_2" data-name="Calque 2"><g id="Calque_1-2" data-name="Calque 1"><circle class="cls-1" cx="101.47" cy="117.93" r="101.47" transform="translate(-37.4 47.81) rotate(-22.5)"/><path class="cls-2" d="M160.66,103.4a14.51,14.51,0,0,0-13.79-10L125,90.87c-4-1.59-7.64-5.49-8.43-8.4l-.25-11.08c-2.44,1.74-20.4,7-28.59-1.84l-.49,13.23c-1,2.79-4.82,6.36-8.77,8L56.77,93.42a14.52,14.52,0,0,0-14.3,12.07c0,.26-.09.52-.12.79s0,.31,0,.46,0,.2,0,.3l21.2,17.43L71.3,149.7h61.07l8.44-27.24h2.25Z"/><rect class="cls-3" x="82.53" y="97.34" width="36.77" height="67.77"/><path class="cls-4" d="M134.5,116.5,133,91.8,125.66,91a17.21,17.21,0,0,1-3.11-1.65l-3.82,5.2-16.64,65.39L85.39,94.26l-3.83-5.2a17.4,17.4,0,0,1-3.1,1.7l-6.83.84-1.29,24.66,9.37,1.68-1.92,9.62,23,44.19,26.26-43.95-1.92-9.62Z"/><polygon class="cls-5" points="95.1 132.43 102.09 159.89 107.93 136.93 104.39 108.89 108.67 102.7 106.17 95.9 97.44 95.66 95.18 103.06 99.14 108.77 95.1 132.43"/><path class="cls-6" d="M140.41,186l2.33-57.28,4.13-35.25L125,90.87c-.85-.34-3.85-.78-4.64-1.3l-18.17,70.67L83.65,87.46a18.74,18.74,0,0,1-5.19,3.3l-12,1.47-5.88,35.13.11-.17,2.49,60.2v.15l-1.36,23.81a101.69,101.69,0,0,0,80-.31Z"/><polygon class="cls-7" points="86.68 82.38 102.06 95.59 90.76 106.89 79.71 89.83 86.68 82.38"/><polygon class="cls-7" points="117.44 82.38 102.06 95.59 113.35 106.89 124.41 89.83 117.44 82.38"/><path class="cls-8" d="M101,73.2a78.36,78.36,0,0,1-13.48-5.8v7.12c2.2,1.4,5.47,3.54,7.74,5a9.64,9.64,0,0,0,3.29.92h8.36a8.78,8.78,0,0,0,3.3-.9c1.83-1.21,3.94-2.91,6.23-4.42V67.22A101.17,101.17,0,0,1,101,73.2Z"/><path class="cls-2" d="M129.66,36.54a3.24,3.24,0,0,0-2.32.16c.3-9,.22-17.06-.92-18.86-6.33-9.93-13.77-14.25-24.73-14.66h0c-11,.41-17.56,4.73-23.9,14.66-1.17,1.84-1.37,10.27-1.19,19.53a3.79,3.79,0,0,0-3.47-.83c-2.41.81-3.26,4.77-1.89,8.83,1.18,3.51,3.63,6,5.82,6,.22,4.77.46,8.91.61,11.43A7,7,0,0,0,80.08,67c6.17,4.24,10.5,7.22,14.33,9.48a7.22,7.22,0,0,0,2.64.75h8.87a10.91,10.91,0,0,0,3-.83c3.94-2.31,8.42-5.43,14.88-9.77a5.91,5.91,0,0,0,1.94-3.51c.2-2.53.53-6.86.85-11.87,1.93-.61,3.9-2.83,4.92-5.85C132.91,41.33,132.07,37.37,129.66,36.54Z"/><path class="cls-9" d="M107.9,33.45c.75-.42,9.95-4,12.75.77,2.34,4-2,0-4.86,0a41,41,0,0,0-7.38.56C107.25,35,106.88,34,107.9,33.45Z"/><path class="cls-9" d="M94.45,33.57c-.73-.42-9.71-3.61-12.36.71-2.42,3.93,1.93,0,4.72,0a61,61,0,0,1,7.12.6C95.05,35.05,95.42,34.14,94.45,33.57Z"/><path class="cls-7" d="M94.85,40.66A16,16,0,0,1,89,41.77c-2.37,0-4.54-.8-4.54-2.31s2.14-2.58,4.55-2.58S94.51,39.53,94.85,40.66Z"/><path class="cls-10" d="M91.36,39.34a2.29,2.29,0,1,1-2.28-2.41A2.35,2.35,0,0,1,91.36,39.34Z"/><path d="M90.61,39.36a1.47,1.47,0,1,1-1.47-1.55A1.51,1.51,0,0,1,90.61,39.36Z"/><path class="cls-7" d="M91.42,39.39a.77.77,0,1,1-.74-.57A.67.67,0,0,1,91.42,39.39Z"/><path class="cls-8" d="M94.85,40.68s-.84-1.36-4.16-2.37c-2.38-.72-6,.33-6,2-1-.72-1-2.06,1.52-3A7,7,0,0,1,94.53,40,2.17,2.17,0,0,1,94.85,40.68Z"/><path class="cls-7" d="M107.79,40.66c3,1,4.06,1.14,5.81,1.09,2.38-.06,4.55-.66,4.55-2.17s-2.06-2.7-4.47-2.7S108.13,39.53,107.79,40.66Z"/><path class="cls-10" d="M111.24,39.28a2.29,2.29,0,1,0,2.29-2.42A2.36,2.36,0,0,0,111.24,39.28Z"/><path d="M112.06,39.29a1.47,1.47,0,1,0,1.47-1.55A1.5,1.5,0,0,0,112.06,39.29Z"/><path class="cls-7" d="M114.35,39.14a.76.76,0,1,0,.74-.58A.67.67,0,0,0,114.35,39.14Z"/><path class="cls-8" d="M107.78,40.68s.85-1.36,4.17-2.37c2.38-.72,6,.33,6,2,1-.72.89-2.13-1.65-3.08A6.82,6.82,0,0,0,108.11,40,2.46,2.46,0,0,0,107.78,40.68Z"/><path class="cls-8" d="M103.07,53.91H99.25a3,3,0,0,1-2.78-2.13,3.6,3.6,0,0,0-.2,1.2c0,1.82,2.23,2.41,3.87,2.41h2c1.65,0,3.88-.59,3.88-2.41a3.6,3.6,0,0,0-.21-1.2A3,3,0,0,1,103.07,53.91Z"/><path class="cls-8" d="M71.48,39.51c0-.33.61-1.8,1.41-1.55,1.22.39,2,2.77,2.51,5.16s.28,4.11,0,3.47c-.38-.9-.73-3.79-2.19-6.5C72.25,38.29,71.67,42.09,71.48,39.51Z"/><path class="cls-8" d="M131.34,39.51c0-.33-.62-1.8-1.42-1.55-1.23.39-2,2.77-2.51,5.16s-.27,4.11,0,3.47c.38-.9.73-3.79,2.19-6.5C130.56,38.29,131.14,42.09,131.34,39.51Z"/><path class="cls-9" d="M121.28,4.51c-4.12-7.2-27.56-4.12-35-2.06S73.89,8.63,74.15,15.07c.22,5.57.25,18.06.25,21.34a4.51,4.51,0,0,1,1.89.76l1.46,6.75L79.3,33.36s-3.09-20.61,17-17c-2.84,1.55-8,7-8,7s11.85-2.83,16.49-4.63,0,3.86,0,3.86,9-3.35,11.84-4.38,5.67-.26,6.18,4.64,1.81,23.44,1.81,23.44l3.23-9.71a4.22,4.22,0,0,1,.75-.13c.11-2,.24-4.4.4-7.42C130.55-.38,124.37,9.92,121.28,4.51Z"/><path class="cls-11" d="M94.42,62.25c.17.9,1.62,3.07,2.46,3.07h8.47c.85,0,2.29-2.17,2.46-3.07Z"/><path class="cls-12" d="M105.07,62.65c-1.79-.22-7.71-.12-8.63-.08-2.35.11-3.73-1.21-3.65-1.46.14-.41.45-.31.71.08s1.79.24,2.56.08c3.9-.84,2.9.1,4.8.13s1.18-.88,4.56-.11c1.15.26,2.71.65,3.29.36.4-.2.7-.41.81,0S107.94,63,105.07,62.65Z"/><rect class="cls-13" x="104.12" y="170.09" width="54.88" height="46.48" transform="translate(-11.54 8.38) rotate(-3.5)"/><path class="cls-14" d="M134.36,176.08l-8.32.51a10.63,10.63,0,0,1-11.24-10l-.09-1.5a10.63,10.63,0,0,1,10-11.25l8.31-.5a10.62,10.62,0,0,1,11.24,9.94l.09,1.51A10.62,10.62,0,0,1,134.36,176.08Zm-9.46-18.15a6.58,6.58,0,0,0-6.16,7l.09,1.51a6.59,6.59,0,0,0,7,6.15l8.31-.5a6.58,6.58,0,0,0,6.16-7l-.09-1.51a6.58,6.58,0,0,0-7-6.16Z"/><path class="cls-5" d="M152.77,197.78l-42.36,2.58a8.61,8.61,0,0,1-9.1-8.05l-1.13-18.49a8.6,8.6,0,0,1,8-9.09l42.36-2.59a8.61,8.61,0,0,1,9.1,8.05l1.13,18.49A8.62,8.62,0,0,1,152.77,197.78Z"/><path class="cls-6" d="M151,202.74c7.57-6.92,26-34.16,25.63-49.15-.3-12.62-10.75-39.88-16.21-50.73a14.52,14.52,0,0,0-13.59-9.44l-4.13,35.25c6.11,10.55,12.57,23.71,12.67,30.13.07,4.67-11.43,23.92-17,34.76C138.39,193.56,147.54,206.83,151,202.74Z"/><path class="cls-6" d="M63.17,187.54h0c-5.8-9.69-12.64-25.23-14-28.5-2.53-6.2,4.33-20.88,11.39-31.68l5.88-35.13-9.69,1.19c-10.29.14-12.93,7.88-13.32,8.8C38.06,112.75,27.87,142.15,27.56,155c-.36,15,18.65,42.52,26.22,49.44l12.93-9.92Z"/></g></g></svg>