<svg xmlns="http://www.w3.org/2000/svg" viewBox="0 0 747.25 169.68"><defs><style>.cls-1{fill:#2c5871;}.cls-2{fill:#607490;}.cls-3{fill:#15b0bf;}.cls-4{fill:#d1ecfb;}.cls-5{fill:#fff;}.cls-6{fill:#1695a4;}.cls-7{fill:#103754;}.cls-8{fill:#a6dae9;}.cls-9{fill:#c2d64c;}.cls-10{fill:#a1b400;}.cls-11{fill:#8fc4d7;}.cls-12{fill:#2290a6;}.cls-13{fill:#fec00f;}.cls-14{fill:#f99b1c;}.cls-15{fill:#174f78;}</style></defs><title>Reflexion</title><g id="Calque_2" data-name="Calque 2"><g id="Calque_1-2" data-name="Calque 1"><path class="cls-1" d="M663.87,134.81a21.86,21.86,0,0,1-9.25,0l-11.09,24.92a48.65,48.65,0,0,0,31.51,0Z"/><path class="cls-1" d="M679.9,106.59A21.75,21.75,0,0,1,672,131.17l11.17,25c.27-.16.56-.27.82-.43A48.81,48.81,0,0,0,703.38,92.8Z"/><path class="cls-1" d="M663.7,92.3a21.67,21.67,0,0,1,11.71,6.64l23.48-13.79A48.73,48.73,0,0,0,663.75,65Z"/><path class="cls-1" d="M646.5,131.28a21.6,21.6,0,0,1-6.09-6.64A21.57,21.57,0,0,1,654.83,92.3l0-27.29a48.75,48.75,0,0,0-19.45,91.15Z"/><path class="cls-2" d="M590.57,77.29H580.45a.9.9,0,0,1-.9-.89V63.23a.9.9,0,0,1,.9-.89h10.12a.89.89,0,0,1,.89.89V76.4a.89.89,0,0,1-.89.89ZM581,75.86H590V63.77H581V75.86Z"/><path class="cls-2" d="M604.86,77.29H594.74a.89.89,0,0,1-.89-.89V48.65a.89.89,0,0,1,.89-.9h10.12a.9.9,0,0,1,.9.9V76.4a.89.89,0,0,1-.9.89Zm-9.59-1.43h9.06V49.18h-9.06V75.86Z"/><path class="cls-2" d="M619.15,77.29H609a.89.89,0,0,1-.89-.89v-43a.89.89,0,0,1,.89-.89h10.12a.89.89,0,0,1,.9.89v43a.89.89,0,0,1-.9.89Zm-9.58-1.43h9V33.94h-9V75.86Z"/><path class="cls-3" d="M378.37,13.37a.78.78,0,0,1-.78-.78v-11h-11a.77.77,0,0,1-.77-.78.78.78,0,0,1,.77-.78h11.82a.78.78,0,0,1,.78.78V12.59a.78.78,0,0,1-.78.78Z"/><path class="cls-3" d="M354.63,32.07a.76.76,0,0,1-.77-.77v-6h-6a.77.77,0,0,1-.77-.77.78.78,0,0,1,.77-.78h6.78a.78.78,0,0,1,.78.78V31.3a.77.77,0,0,1-.78.77Z"/><path class="cls-3" d="M352.19,34.52a.78.78,0,0,1-.78-.78v-6h-6a.78.78,0,1,1,0-1.55h6.77A.78.78,0,0,1,353,27v6.77a.77.77,0,0,1-.77.78Z"/><path class="cls-3" d="M349.74,37a.78.78,0,0,1-.78-.78v-6h-6a.78.78,0,0,1-.78-.78.77.77,0,0,1,.78-.77h6.77a.77.77,0,0,1,.78.77v6.78a.77.77,0,0,1-.77.78Z"/><path class="cls-3" d="M348.4,31.53a.77.77,0,0,1-.55-1.32L377.19.86a.77.77,0,0,1,1.1,0,.77.77,0,0,1,0,1.1L349,31.31a.79.79,0,0,1-.55.22Z"/><path class="cls-3" d="M286,142.49a1.24,1.24,0,0,0,0,2.48h26a1.24,1.24,0,1,0,0-2.48Z"/><path class="cls-4" d="M266.61,78.81a32.44,32.44,0,0,1,64.87,0c0,1.07-.77,16.06-13,31.79-3.58,4.75-3,14.3-3,14.3h-33s.69-9.55-2.87-14.3C267.37,94.85,266.61,79.88,266.61,78.81Z"/><path class="cls-5" d="M299.05,124.9H282.48s.69-9.55-2.87-14.3c-12.24-15.75-13-30.72-13-31.79a32.43,32.43,0,0,1,32.44-32.43"/><path class="cls-5" d="M324.59,78.81h-2.84a22.71,22.71,0,0,0-22.7-22.69V53.27a25.57,25.57,0,0,1,25.54,25.54Z"/><polygon class="cls-6" points="306.13 127.43 303.32 126.97 308.87 93.44 311.67 93.9 306.13 127.43 306.13 127.43"/><polygon class="cls-6" points="291.96 127.43 286.42 93.9 289.23 93.44 294.77 126.97 291.96 127.43 291.96 127.43"/><path class="cls-6" d="M310.09,98.16c-1.17,0-1.67-1.14-2-2-.16-.34-.47-1.06-.66-1.06s-.37.62-.49.93c-.33.83-.83,2.1-2.2,2.1-.8,0-1.28-.82-1.84-1.76a8.09,8.09,0,0,0-.81-1.2,8,8,0,0,0-.68,1c-.59,1-1.14,1.93-2.05,1.93s-1.42-.92-2-1.89a7.79,7.79,0,0,0-.7-1.06,8.56,8.56,0,0,0-.75,1.11c-.56.94-1.09,1.84-1.94,1.84s-1.57-1-2.15-2a7.7,7.7,0,0,0-.66-1c-.23.08-.4.42-.68,1.12s-.74,1.89-1.9,1.89V96.64c.15-.06.38-.62.5-.93.33-.83.83-2.1,2.19-2.1.8,0,1.29.82,1.85,1.76a7,7,0,0,0,.82,1.2,9.22,9.22,0,0,0,.67-1c.59-1,1.15-1.93,2.06-1.93s1.42.92,2,1.89a7.49,7.49,0,0,0,.7,1.06,7.13,7.13,0,0,0,.74-1.11c.56-.94,1.09-1.84,1.94-1.84s1.57,1,2.15,2a7.7,7.7,0,0,0,.66,1c.22-.08.4-.42.67-1.12s.75-1.89,1.9-1.89,1.67,1.14,2,2c.16.34.48,1.06.66,1.06v1.52Z"/><path class="cls-6" d="M315.57,124.91v17a2.11,2.11,0,0,1-2.11,2.11H284.67a2.11,2.11,0,0,1-2.1-2.11v-17Z"/><line class="cls-7" x1="316.23" y1="126.55" x2="281.87" y2="126.55"/><path class="cls-3" d="M316.23,128.21H281.87a1.66,1.66,0,1,1,0-3.32h34.36a1.66,1.66,0,0,1,0,3.32Z"/><line class="cls-6" x1="316.23" y1="132.09" x2="281.87" y2="132.09"/><path class="cls-3" d="M316.23,133.75H281.87a1.66,1.66,0,0,1,0-3.32h34.36a1.66,1.66,0,0,1,0,3.32Z"/><line class="cls-6" x1="316.23" y1="137.63" x2="281.87" y2="137.63"/><path class="cls-3" d="M316.23,139.3H281.87a1.67,1.67,0,0,1,0-3.33h34.36a1.67,1.67,0,0,1,0,3.33Z"/><path class="cls-5" d="M299,35.8a.85.85,0,0,1-.84-.85V17.13a.85.85,0,0,1,1.69,0V35a.85.85,0,0,1-.85.85Z"/><path class="cls-5" d="M276.32,41.89a.85.85,0,0,1-.73-.42L266.68,26a.84.84,0,1,1,1.46-.85l8.91,15.43a.84.84,0,0,1-.31,1.16.78.78,0,0,1-.42.11Z"/><path class="cls-5" d="M259.7,58.53a.81.81,0,0,1-.42-.12L243.84,49.5a.84.84,0,1,1,.85-1.46L260.12,57a.85.85,0,0,1-.42,1.58Z"/><path class="cls-5" d="M253.62,81.24H235.8a.85.85,0,1,1,0-1.69h17.82a.85.85,0,1,1,0,1.69Z"/><path class="cls-5" d="M267.43,136a.83.83,0,0,1-.42-.11.86.86,0,0,1-.31-1.16l8.91-15.43a.85.85,0,0,1,1.47.85l-8.91,15.43a.85.85,0,0,1-.74.42Z"/><path class="cls-5" d="M330.69,136a.84.84,0,0,1-.73-.42L321,120.14a.85.85,0,0,1,1.47-.84l8.91,15.43a.85.85,0,0,1-.31,1.16.91.91,0,0,1-.42.11Z"/><path class="cls-5" d="M353.83,112.84a.8.8,0,0,1-.42-.11L338,103.82a.85.85,0,0,1,.85-1.47l15.44,8.91a.85.85,0,0,1-.43,1.58Z"/><path class="cls-5" d="M362.3,81.21H344.48a.84.84,0,0,1-.85-.84.85.85,0,0,1,.85-.85H362.3a.85.85,0,0,1,.85.85.84.84,0,0,1-.85.84Z"/><path class="cls-5" d="M338.39,58.5a.85.85,0,0,1-.43-1.58L353.4,48a.85.85,0,0,1,.84,1.47l-15.43,8.91a.8.8,0,0,1-.42.11Z"/><path class="cls-5" d="M321.75,41.88a.91.91,0,0,1-.42-.11.84.84,0,0,1-.31-1.16l8.91-15.43a.84.84,0,0,1,1.46.84l-8.91,15.44a.84.84,0,0,1-.73.42Z"/><path class="cls-5" d="M299,35.8a.85.85,0,0,1-.84-.85V17.13a.85.85,0,0,1,1.69,0V35a.85.85,0,0,1-.85.85Z"/><path class="cls-8" d="M299.06,35.8a.85.85,0,0,1-.84-.85V17.13a.85.85,0,0,1,1.69,0V35a.85.85,0,0,1-.85.85Z"/><path class="cls-8" d="M321.78,41.89a.84.84,0,0,1-.43-.11.86.86,0,0,1-.31-1.16L330,25.19a.85.85,0,1,1,1.47.85l-8.91,15.43a.85.85,0,0,1-.73.42Z"/><path class="cls-8" d="M338.4,58.53A.85.85,0,0,1,338,57L353.41,48a.84.84,0,1,1,.85,1.46l-15.44,8.91a.81.81,0,0,1-.42.12Z"/><path class="cls-8" d="M362.3,81.24H344.48a.85.85,0,1,1,0-1.69H362.3a.85.85,0,1,1,0,1.69Z"/><path class="cls-8" d="M330.66,136a.85.85,0,0,1-.73-.42L321,120.16a.84.84,0,1,1,1.46-.85l8.91,15.43a.84.84,0,0,1-.3,1.16.84.84,0,0,1-.43.11Z"/><path class="cls-8" d="M267.41,136a.88.88,0,0,1-.42-.11.84.84,0,0,1-.31-1.16l8.91-15.43a.84.84,0,1,1,1.46.84l-8.91,15.44a.85.85,0,0,1-.73.42Z"/><path class="cls-8" d="M244.26,112.84a.85.85,0,0,1-.73-.42.86.86,0,0,1,.31-1.16l15.44-8.91a.85.85,0,0,1,.84,1.47l-15.43,8.91a.84.84,0,0,1-.43.11Z"/><path class="cls-8" d="M253.62,81.21H235.8a.84.84,0,0,1-.85-.84.85.85,0,0,1,.85-.85h17.82a.84.84,0,0,1,.84.85.83.83,0,0,1-.84.84Z"/><path class="cls-8" d="M259.71,58.5a.8.8,0,0,1-.42-.11l-15.43-8.91A.85.85,0,0,1,244.7,48l15.43,8.91a.85.85,0,0,1-.42,1.58Z"/><path class="cls-8" d="M276.35,41.88a.86.86,0,0,1-.74-.42L266.7,26a.85.85,0,0,1,1.47-.84l8.91,15.43a.86.86,0,0,1-.31,1.16.91.91,0,0,1-.42.11Z"/><path class="cls-8" d="M299.06,35.8a.85.85,0,0,1-.84-.85V17.13a.85.85,0,0,1,1.69,0V35a.85.85,0,0,1-.85.85Z"/><path class="cls-5" d="M154.35,115.91h45a8.26,8.26,0,0,0,8.26-8.26V94.23A8.26,8.26,0,0,0,199.35,86h-45Z"/><path class="cls-5" d="M230.65,116.14a4.68,4.68,0,0,0-3.35-4.48,11.52,11.52,0,0,0,.35-2.28h3.2a4.67,4.67,0,1,0,0-9.34h-3.16V97.79h7.42a4.67,4.67,0,0,0,0-9.34h-7.45a12,12,0,0,0-.3-2.25h22.18a4.67,4.67,0,1,0,0-9.33H216.09c-.18,0-.35,0-.53,0H203.93l2.15-2.15h9.32a6.9,6.9,0,0,0,6.9-6.9V65.5a2.83,2.83,0,0,0,0-.29l-20.09,0L187.06,80.63A12.08,12.08,0,0,0,183.72,89v19.71a12.14,12.14,0,0,0,12.13,12.13H226A4.67,4.67,0,0,0,230.65,116.14Z"/><rect class="cls-8" x="156.27" y="82.63" width="22.99" height="45.12"/><rect class="cls-9" y="80.92" width="174.97" height="48.52"/><rect class="cls-10" x="171.35" y="80.92" width="3.62" height="48.52"/><rect class="cls-11" x="174.97" y="105.21" width="4.29" height="22.53"/><rect class="cls-10" y="105.21" width="171.35" height="24.23"/><polygon class="cls-10" points="174.97 105.21 171.35 105.21 171.35 129.44 174.97 129.44 174.97 127.74 174.97 105.21"/><path class="cls-8" d="M164.27,124.24a2.31,2.31,0,1,1,2.31-2.31A2.3,2.3,0,0,1,164.27,124.24Z"/><path class="cls-3" d="M450.32,43.35a14.35,14.35,0,0,0-14.16,12.16,10.42,10.42,0,0,0-9.49,10.36,10.31,10.31,0,0,0,1.55,5.44,11.45,11.45,0,0,0-5.65,19,10.38,10.38,0,0,0-5.36,8.93,10.08,10.08,0,0,0,5.55,9,10.65,10.65,0,0,0,5.67,17s0,0,0,0a14.37,14.37,0,0,0,14.35,14.35h7.55a14.36,14.36,0,0,0,14.34-14.35V57.69A14.35,14.35,0,0,0,450.32,43.35Z"/><path class="cls-3" d="M517.37,99.23A10.38,10.38,0,0,0,512,90.3a11.44,11.44,0,0,0-5.64-19,10.4,10.4,0,0,0-7.94-15.8,14.34,14.34,0,0,0-28.51,2.18v67.58a14.36,14.36,0,0,0,14.34,14.35h7.55a14.37,14.37,0,0,0,14.35-14.35v0a10.69,10.69,0,0,0,8-10.33,10.58,10.58,0,0,0-2.36-6.68A10.08,10.08,0,0,0,517.37,99.23Z"/><path class="cls-12" d="M450.32,138.83h-7.55a13.57,13.57,0,0,1-13.55-13.56,1.76,1.76,0,1,1,3.52,0,10,10,0,0,0,10,10h7.55a10,10,0,0,0,10-10V57.69a10,10,0,0,0-20.07,0,1.76,1.76,0,1,1-3.52,0,13.56,13.56,0,0,1,27.12,0v67.58a13.58,13.58,0,0,1-13.56,13.56Z"/><path class="cls-12" d="M437.09,75.5a9.63,9.63,0,1,1,0-19.25h7.65a9.64,9.64,0,0,1,9.62,9.62,1.76,1.76,0,1,1-3.52,0,6.11,6.11,0,0,0-6.1-6.1h-7.65a6.11,6.11,0,1,0,0,12.21,1.76,1.76,0,0,1,0,3.52Z"/><path class="cls-12" d="M430.92,93.14h-.25a10.69,10.69,0,0,1,.25-21.37h3.83a1.76,1.76,0,0,1,0,3.52h-3.83a7.17,7.17,0,0,0,0,14.34,1.76,1.76,0,0,1,0,3.52Z"/><path class="cls-12" d="M444.47,124.8H431.08a9.89,9.89,0,1,1,0-19.78,1.76,1.76,0,0,1,0,3.52,6.37,6.37,0,0,0,0,12.74h13.39a1.76,1.76,0,0,1,0,3.52Z"/><path class="cls-12" d="M435.16,108.54h-7.84A9.32,9.32,0,0,1,418,99.23a9.85,9.85,0,0,1,9.69-9.51h3.87a1.76,1.76,0,0,1,0,3.52h-3.87a6.33,6.33,0,0,0-6.17,6,5.8,5.8,0,0,0,5.8,5.79h7.84a1.76,1.76,0,0,1,0,3.52Z"/><path class="cls-12" d="M448.13,116.73H431.56a1.77,1.77,0,0,1,0-3.53h16.57a3.33,3.33,0,0,0,3.34-3.34V94a3.34,3.34,0,0,0-3.34-3.34,1.76,1.76,0,1,1,0-3.52A6.87,6.87,0,0,1,455,94v15.83a6.88,6.88,0,0,1-6.87,6.87Z"/><path class="cls-12" d="M453.23,81.13a1.76,1.76,0,0,1-1.76-1.76A3.34,3.34,0,0,0,448.13,76a1.76,1.76,0,1,1,0-3.52A6.87,6.87,0,0,1,455,79.37a1.76,1.76,0,0,1-1.77,1.76Z"/><path class="cls-12" d="M448.3,131.18a1.76,1.76,0,1,1,0-3.52,3.18,3.18,0,0,0,3.17-3.18v-16.9a1.77,1.77,0,0,1,3.53,0v16.9a6.71,6.71,0,0,1-6.7,6.7Z"/><path class="cls-12" d="M440.91,84.64H430.5a1.76,1.76,0,1,1,0-3.52h10.41A2.07,2.07,0,0,0,443,79.05V68.85a2.07,2.07,0,0,0-2.07-2.07h-2.76a1.76,1.76,0,1,1,0-3.52h2.76a5.6,5.6,0,0,1,5.59,5.59v10.2a5.6,5.6,0,0,1-5.59,5.59Z"/><path class="cls-12" d="M449.41,101.42H430.5a1.76,1.76,0,1,1,0-3.52h18.91a2.07,2.07,0,0,0,2.07-2.06V94.56a1.76,1.76,0,1,1,3.52,0v1.28a5.59,5.59,0,0,1-5.59,5.58Z"/><path class="cls-12" d="M445.8,116.17a1.76,1.76,0,0,1-1.76-1.76v-3.93a2.07,2.07,0,0,0-2.07-2.07,1.76,1.76,0,0,1,0-3.52,5.6,5.6,0,0,1,5.59,5.59v3.93a1.76,1.76,0,0,1-1.76,1.76Z"/><path class="cls-12" d="M442.4,101.08a1.76,1.76,0,0,1-1.76-1.76V95.39a2.07,2.07,0,0,0-2.07-2.07,1.76,1.76,0,1,1,0-3.52,5.6,5.6,0,0,1,5.59,5.59v3.93a1.76,1.76,0,0,1-1.76,1.76Z"/><path class="cls-12" d="M437.11,135.69a1.76,1.76,0,0,1-1.76-1.76,5.59,5.59,0,0,1,5.59-5.58,1.76,1.76,0,0,1,0,3.52,2.07,2.07,0,0,0-2.07,2.06,1.76,1.76,0,0,1-1.76,1.76Z"/><path class="cls-12" d="M491.81,138.83h-7.55a13.57,13.57,0,0,1-13.55-13.56V57.69a13.56,13.56,0,0,1,27.11,0,1.76,1.76,0,1,1-3.52,0,10,10,0,0,0-20.07,0v67.58a10,10,0,0,0,10,10h7.55a10,10,0,0,0,10-10,1.76,1.76,0,1,1,3.52,0,13.57,13.57,0,0,1-13.56,13.56Z"/><path class="cls-12" d="M497.5,75.5a1.76,1.76,0,1,1,0-3.52,6.11,6.11,0,0,0,0-12.21h-7.65a6.11,6.11,0,0,0-6.11,6.1,1.76,1.76,0,0,1-3.52,0,9.64,9.64,0,0,1,9.63-9.62h7.65a9.63,9.63,0,0,1,0,19.25Z"/><path class="cls-12" d="M503.81,93.14h-.15a1.77,1.77,0,0,1,0-3.53,7.17,7.17,0,1,0,0-14.33h-3.82a1.76,1.76,0,1,1,0-3.52h3.82a10.69,10.69,0,0,1,.25,21.37Z"/><path class="cls-12" d="M503.5,124.8H490.11a1.76,1.76,0,1,1,0-3.52H503.5a6.37,6.37,0,1,0,0-12.74,1.76,1.76,0,1,1,0-3.52,9.89,9.89,0,0,1,0,19.78Z"/><path class="cls-12" d="M507.26,108.54h-7.84a1.76,1.76,0,1,1,0-3.52h7.84a5.8,5.8,0,0,0,5.8-5.79,6.32,6.32,0,0,0-6.16-6H503a1.76,1.76,0,1,1,0-3.52h3.87a9.85,9.85,0,0,1,9.68,9.51,9.33,9.33,0,0,1-9.32,9.31Z"/><path class="cls-12" d="M503,116.73H486.45a6.87,6.87,0,0,1-6.86-6.87V94a6.87,6.87,0,0,1,6.86-6.86,1.76,1.76,0,0,1,0,3.52A3.35,3.35,0,0,0,483.11,94v15.83a3.34,3.34,0,0,0,3.34,3.34H503a1.77,1.77,0,0,1,0,3.53Z"/><path class="cls-12" d="M481.35,81.13a1.76,1.76,0,0,1-1.76-1.76,6.86,6.86,0,0,1,6.86-6.86,1.76,1.76,0,0,1,0,3.52,3.34,3.34,0,0,0-3.34,3.34,1.76,1.76,0,0,1-1.76,1.76Z"/><path class="cls-12" d="M486.29,131.18a6.71,6.71,0,0,1-6.7-6.7v-16.9a1.76,1.76,0,1,1,3.52,0v16.9a3.18,3.18,0,0,0,3.18,3.17,1.77,1.77,0,0,1,0,3.53Z"/><path class="cls-12" d="M504.09,84.63H493.67a5.58,5.58,0,0,1-5.58-5.58V68.85a5.59,5.59,0,0,1,5.58-5.59h2.76a1.76,1.76,0,1,1,0,3.52h-2.76a2.07,2.07,0,0,0-2.06,2.07v10.2a2.06,2.06,0,0,0,2.06,2.06h10.42a1.76,1.76,0,0,1,0,3.52Z"/><path class="cls-12" d="M504.09,101.42H485.17a5.58,5.58,0,0,1-5.58-5.58V94.56a1.76,1.76,0,1,1,3.52,0v1.28a2.06,2.06,0,0,0,2.06,2.06h18.92a1.76,1.76,0,1,1,0,3.52Z"/><path class="cls-12" d="M488.78,116.17a1.76,1.76,0,0,1-1.76-1.76v-3.93a5.59,5.59,0,0,1,5.59-5.59,1.76,1.76,0,0,1,0,3.52,2.07,2.07,0,0,0-2.06,2.07v3.93a1.76,1.76,0,0,1-1.77,1.76Z"/><path class="cls-12" d="M492.18,101.08a1.76,1.76,0,0,1-1.76-1.76V95.39A5.6,5.6,0,0,1,496,89.8a1.76,1.76,0,0,1,0,3.52,2.07,2.07,0,0,0-2.07,2.07v3.93a1.76,1.76,0,0,1-1.76,1.76Z"/><path class="cls-12" d="M497.47,135.69a1.76,1.76,0,0,1-1.76-1.76,2.06,2.06,0,0,0-2.06-2.06,1.76,1.76,0,1,1,0-3.52,5.58,5.58,0,0,1,5.58,5.58,1.76,1.76,0,0,1-1.76,1.76Z"/><path class="cls-13" d="M526.55.6a29.46,29.46,0,0,0-22.47,48.54l-6.87,13,12.5-7.92A29.47,29.47,0,1,0,526.55.6Z"/><path class="cls-14" d="M526.55.6h-.3v59h.3a29.48,29.48,0,0,0,0-59Z"/><path class="cls-5" d="M523.91,50.43V45.69a21,21,0,0,1-8.49-2.14l1.5-5.84a17.54,17.54,0,0,0,8.28,2.2c2.9,0,4.84-1.15,4.84-3.09s-1.6-3.1-5.34-4.35c-5.34-1.8-9-4.29-9-9.12,0-4.45,3.1-7.89,8.43-8.88V9.72H529v4.39a18.24,18.24,0,0,1,7.29,1.65l-1.5,5.64a15.51,15.51,0,0,0-7.19-1.75c-3.23,0-4.29,1.45-4.29,2.84,0,1.6,1.75,2.7,6,4.24,5.94,2.1,8.28,4.84,8.28,9.38s-3.09,8.24-8.83,9.18v5.14Z"/><path class="cls-4" d="M529.39,26.73c-1.26-.45-2.3-.87-3.14-1.27V33c2.64,1.06,3.79,2.17,3.79,3.78s-1.48,2.78-3.79,3V50.43h2.59V45.29c5.74-.94,8.83-4.74,8.83-9.18S535.33,28.83,529.39,26.73Z"/><path class="cls-4" d="M526.25,9.72v10a8.25,8.25,0,0,1,1.39-.11,15.51,15.51,0,0,1,7.19,1.75l1.5-5.64A18.24,18.24,0,0,0,529,14.11V9.72Z"/><polygon class="cls-3" points="417.36 133.33 407.68 169.68 400.63 162.53 390.95 165.23 400.64 128.87 417.36 133.33"/><polygon class="cls-6" points="417.36 133.33 407.68 169.68 400.63 162.53 409 131.1 417.36 133.33"/><polygon class="cls-6" points="405.06 133.33 414.75 169.68 421.8 162.53 431.47 165.23 421.79 128.87 405.06 133.33"/><polygon class="cls-3" points="405.06 133.33 414.75 169.68 421.8 162.53 413.43 131.1 405.06 133.33"/><path class="cls-13" d="M430.23,141.69c-.87.87-3.78-.64-4.73.08s-.35,3.94-1.4,4.51-3.43-1.68-4.55-1.26-1.45,3.68-2.62,3.94-2.81-2.59-4-2.5-2.41,3.12-3.61,3-2-3.27-3.15-3.53-3.19,2.33-4.33,1.91-1-3.69-2-4.27-3.71,1.33-4.69.6.13-3.81-.74-4.67-4,.21-4.67-.74,1.17-3.64.6-4.69-3.85-.91-4.27-2,2.16-3.15,1.9-4.33-3.44-2-3.52-3.15,3-2.41,3-3.62-2.76-2.83-2.5-4,3.51-1.48,3.94-2.62-1.85-3.49-1.27-4.56,3.79-.41,4.52-1.39-.79-3.86.07-4.73,3.78.64,4.73-.07.35-3.95,1.4-4.52,3.43,1.68,4.55,1.26,1.44-3.68,2.62-3.93,2.81,2.58,4,2.5,2.42-3.13,3.62-3,2,3.26,3.15,3.52,3.19-2.33,4.33-1.9,1,3.68,2,4.27,3.71-1.33,4.69-.6-.13,3.8.74,4.67,3.95-.22,4.67.74-1.17,3.64-.6,4.69,3.85.9,4.27,2-2.16,3.15-1.9,4.32,3.44,2,3.52,3.16-3,2.41-3,3.61,2.75,2.83,2.5,4-3.52,1.48-3.94,2.61,1.85,3.49,1.27,4.56S431,136,430.3,137,431.09,140.83,430.23,141.69Z"/><path class="cls-14" d="M425.37,136.84a20,20,0,1,1,0-28.31A20,20,0,0,1,425.37,136.84Z"/><path class="cls-13" d="M423.91,135.38a18,18,0,1,1,0-25.4A18,18,0,0,1,423.91,135.38Z"/><path class="cls-14" d="M423.91,110a18,18,0,1,1-25.39,25.4"/><path class="cls-14" d="M368.66,74.1h3.11a21.41,21.41,0,0,0,.9,3.18l-2.6,1.5a1.3,1.3,0,0,0-.47,1.78l2.6,4.5a1.3,1.3,0,0,0,1.78.48L376.67,84a20.59,20.59,0,0,0,2.37,2.3l-1.5,2.6a1.3,1.3,0,0,0,.47,1.78l4.51,2.61a1.32,1.32,0,0,0,1.78-.48l1.55-2.7a20,20,0,0,0,3.2.81v3a1.3,1.3,0,0,0,1.3,1.3h5.2a1.31,1.31,0,0,0,1.31-1.3V90.8a21.41,21.41,0,0,0,3.18-.9l1.49,2.6a1.33,1.33,0,0,0,1.79.48l4.5-2.61a1.29,1.29,0,0,0,.47-1.77l-1.55-2.7a22.28,22.28,0,0,0,2.3-2.36l2.6,1.5a1.31,1.31,0,0,0,1.78-.48l2.6-4.51a1.29,1.29,0,0,0-.48-1.77l-2.69-1.56a21.11,21.11,0,0,0,.81-3.2h3a1.31,1.31,0,0,0,1.31-1.3V67a1.31,1.31,0,0,0-1.31-1.3h-3.11a19.65,19.65,0,0,0-.89-3.18l2.6-1.5a1.3,1.3,0,0,0,.47-1.78l-2.6-4.5a1.31,1.31,0,0,0-1.78-.48l-2.7,1.55a21.36,21.36,0,0,0-2.36-2.3l1.5-2.6a1.3,1.3,0,0,0-.47-1.78l-4.51-2.6A1.31,1.31,0,0,0,401,47l-1.55,2.69a20.24,20.24,0,0,0-3.2-.8v-3a1.3,1.3,0,0,0-1.3-1.3h-5.21a1.3,1.3,0,0,0-1.3,1.3V49a22.66,22.66,0,0,0-3.18.89l-1.5-2.59a1.29,1.29,0,0,0-1.77-.48l-4.51,2.6a1.3,1.3,0,0,0-.47,1.78l1.55,2.7a20.5,20.5,0,0,0-2.3,2.36l-2.6-1.5a1.3,1.3,0,0,0-1.78.47l-2.6,4.51a1.3,1.3,0,0,0,.47,1.78l2.7,1.56a21.29,21.29,0,0,0-.81,3.19h-3a1.3,1.3,0,0,0-1.29,1.31v5.2A1.29,1.29,0,0,0,368.66,74.1Zm24-17.69a13.5,13.5,0,1,1-13.5,13.5A13.49,13.49,0,0,1,392.66,56.41Z"/><path class="cls-13" d="M393.12,56.42a13.5,13.5,0,0,1,0,27V95.21h2.43a1.31,1.31,0,0,0,1.31-1.3V90.8a21.41,21.41,0,0,0,3.18-.9l1.49,2.6a1.33,1.33,0,0,0,1.79.48l4.5-2.61a1.29,1.29,0,0,0,.47-1.77l-1.55-2.7a22.28,22.28,0,0,0,2.3-2.36l2.6,1.5a1.31,1.31,0,0,0,1.78-.48l2.6-4.51a1.29,1.29,0,0,0-.48-1.77l-2.69-1.56a21.11,21.11,0,0,0,.81-3.2h3a1.31,1.31,0,0,0,1.31-1.3V67a1.31,1.31,0,0,0-1.31-1.3h-3.11a19.65,19.65,0,0,0-.89-3.18l2.6-1.5a1.3,1.3,0,0,0,.47-1.78l-2.6-4.5a1.31,1.31,0,0,0-1.78-.48l-2.7,1.55a21.36,21.36,0,0,0-2.36-2.3l1.5-2.6a1.3,1.3,0,0,0-.47-1.78l-4.51-2.6A1.31,1.31,0,0,0,401,47l-1.55,2.69a20.24,20.24,0,0,0-3.2-.8v-3a1.3,1.3,0,0,0-1.3-1.3h-1.86Z"/><path class="cls-14" d="M392.66,86.35a16.44,16.44,0,1,0-16.44-16.44A16.44,16.44,0,0,0,392.66,86.35Zm0-29.94a13.5,13.5,0,1,1-13.5,13.5A13.49,13.49,0,0,1,392.66,56.41Z"/><path class="cls-13" d="M392.66,86.35h.46V83.4h-.46a13.5,13.5,0,0,1,0-27h.46V53.48h-.46a16.44,16.44,0,0,0,0,32.88Z"/><path class="cls-10" d="M354.15,99H356a1.16,1.16,0,0,1,1,.75l.36.86a1.19,1.19,0,0,1-.21,1.27l-1.33,1.33a.8.8,0,0,0,0,1.13l2.06,2.07a.82.82,0,0,0,1.13,0l1.33-1.34a1.2,1.2,0,0,1,1.28-.21l.85.36a1.17,1.17,0,0,1,.75,1v1.88a.8.8,0,0,0,.8.8H367a.8.8,0,0,0,.8-.8v-1.88a1.17,1.17,0,0,1,.75-1l.86-.36a1.19,1.19,0,0,1,1.27.21l1.34,1.34a.81.81,0,0,0,1.12,0l2.07-2.07a.8.8,0,0,0,0-1.13l-1.34-1.33a1.19,1.19,0,0,1-.21-1.27l.36-.86a1.16,1.16,0,0,1,1-.75H377a.8.8,0,0,0,.8-.8V95.29a.8.8,0,0,0-.8-.8h-1.88a1.18,1.18,0,0,1-1-.75l-.36-.86a1.19,1.19,0,0,1,.21-1.27l1.34-1.34a.79.79,0,0,0,0-1.12l-2.07-2.07a.79.79,0,0,0-1.12,0l-1.34,1.34a1.19,1.19,0,0,1-1.27.21l-.86-.36a1.19,1.19,0,0,1-.75-1V85.34a.8.8,0,0,0-.8-.8H364.1a.8.8,0,0,0-.8.8v1.89a1.19,1.19,0,0,1-.75,1l-.85.36a1.2,1.2,0,0,1-1.28-.21l-1.33-1.34a.8.8,0,0,0-1.13,0l-2.06,2.07a.79.79,0,0,0,0,1.12l1.33,1.34a1.19,1.19,0,0,1,.21,1.27l-.36.86a1.17,1.17,0,0,1-1,.75h-1.89a.8.8,0,0,0-.8.8v2.92A.8.8,0,0,0,354.15,99Zm11.41-6.11a3.85,3.85,0,1,1-3.85,3.85A3.85,3.85,0,0,1,365.56,92.9Z"/><path class="cls-9" d="M365.52,92.9h0a3.85,3.85,0,1,1,0,7.7h0V109H367a.8.8,0,0,0,.8-.8v-1.88a1.17,1.17,0,0,1,.75-1l.86-.36a1.19,1.19,0,0,1,1.27.21l1.34,1.34a.81.81,0,0,0,1.12,0l2.07-2.07a.8.8,0,0,0,0-1.13l-1.34-1.33a1.19,1.19,0,0,1-.21-1.27l.36-.86a1.16,1.16,0,0,1,1-.75H377a.8.8,0,0,0,.8-.8V95.29a.8.8,0,0,0-.8-.8h-1.88a1.18,1.18,0,0,1-1-.75l-.36-.86a1.19,1.19,0,0,1,.21-1.27l1.34-1.34a.79.79,0,0,0,0-1.12l-2.07-2.07a.79.79,0,0,0-1.12,0l-1.34,1.34a1.19,1.19,0,0,1-1.27.21l-.86-.36a1.19,1.19,0,0,1-.75-1V85.34a.8.8,0,0,0-.8-.8h-1.5Z"/><path class="cls-3" d="M714,55.91a17,17,0,0,1,3.54,18.81,17,17,0,1,0-22.35-22.35A17,17,0,0,1,714,55.91Z"/><path class="cls-6" d="M725.39,50.65l-8.73,8.73a17,17,0,0,1,.88,15.34,17,17,0,0,0,7.85-24.07Z"/><path class="cls-9" d="M712.44,57.47A19.51,19.51,0,0,1,716,62.36a48.06,48.06,0,0,0,18-11.67c9-9,13.74-19.77,13.16-28-8.21-.58-19,4.18-28,13.16a48.06,48.06,0,0,0-11.67,18A19.51,19.51,0,0,1,712.44,57.47Z"/><path class="cls-10" d="M747.2,22.71h-.08L712.4,57.43l0,0A19.51,19.51,0,0,1,716,62.36a48.06,48.06,0,0,0,18-11.67C743,41.71,747.78,30.92,747.2,22.71Z"/><path class="cls-3" d="M738.7,31.21Q741.49,34,744,36.87c2.39-5,3.52-9.93,3.22-14.16-4.23-.3-9.16.83-14.16,3.22Q735.89,28.42,738.7,31.21Z"/><path class="cls-6" d="M747.12,22.71l-8.47,8.46.05,0Q741.49,34,744,36.87c2.39-5,3.52-9.93,3.22-14.16Z"/><path class="cls-3" d="M723.45,46.46c-2.53.64-6.41,3.23-10.15,7s-6.32,7.61-7,10.14c2.53-.64,6.41-3.23,10.14-7S722.81,49,723.45,46.46Z"/><path class="cls-6" d="M723.33,46.49l-17,17,0,.12c2.53-.64,6.41-3.23,10.14-7s6.33-7.62,7-10.15Z"/><path class="cls-15" d="M726.63,43.28a5.89,5.89,0,1,1,8.32,0,5.89,5.89,0,0,1-8.32,0Z"/><path class="cls-5" d="M733.68,36.22a4.09,4.09,0,1,0,0,5.79,4.1,4.1,0,0,0,0-5.79Z"/><path class="cls-7" d="M735,35l0,0-1.27,1.27s0,0,0,0A4.09,4.09,0,0,1,727.9,42s0,0,0,0l-1.27,1.27,0,0A5.89,5.89,0,0,0,735,35Z"/><path class="cls-4" d="M733.68,42a4.09,4.09,0,0,0,0-5.79s0,0,0,0L727.86,42s0,0,0,0A4.08,4.08,0,0,0,733.68,42Z"/><path class="cls-3" d="M529.29,151.18a.74.74,0,0,1-.52-.2l-3.58-3.21a.79.79,0,1,1,1-1.17l3,2.74,3.06-2.74a.79.79,0,0,1,1,1.17L529.82,151a.76.76,0,0,1-.53.2Z"/><path class="cls-3" d="M529.45,150.39h-.06a.79.79,0,0,1-.72-.85,10.61,10.61,0,0,0-19.12-7.06.79.79,0,0,1-1.1.16.78.78,0,0,1-.16-1.1,12.18,12.18,0,0,1,21.94,8.12.79.79,0,0,1-.78.73Z"/><path class="cls-3" d="M518.14,161.2c-.29,0-.59,0-.88,0a12.2,12.2,0,0,1-11.28-13,.78.78,0,0,1,.84-.72.77.77,0,0,1,.72.84,10.61,10.61,0,0,0,19.12,7.06.79.79,0,0,1,1.27.94,12.17,12.17,0,0,1-9.79,4.94Z"/><path class="cls-3" d="M510.38,151.41a.79.79,0,0,1-.52-.2l-3.06-2.75-3.06,2.75a.79.79,0,1,1-1.05-1.17l3.58-3.22a.78.78,0,0,1,1.05,0l3.59,3.22a.79.79,0,0,1,.06,1.11.8.8,0,0,1-.59.26Z"/><path class="cls-13" d="M621.2,55.88a21.56,21.56,0,0,0-21.56,21.56v1.93l-6.59,13.95h6.89a19.48,19.48,0,0,0,.73,3,2.06,2.06,0,0,0,.17,2.89,2.05,2.05,0,0,0-.42,1.23,2.11,2.11,0,0,0,1.14,1.86V103a8.29,8.29,0,0,0,8.29,8.29h32.92V77.44A21.56,21.56,0,0,0,621.2,55.88Z"/><circle class="cls-14" cx="610.39" cy="92.36" r="5.84" transform="translate(380.26 665.2) rotate(-76.72)"/><path class="cls-1" d="M607.05,79.65a1.24,1.24,0,1,1-1.24-1.23A1.23,1.23,0,0,1,607.05,79.65Z"/><path class="cls-3" d="M640.2,53.7a6.94,6.94,0,0,0-2.2.35,9.12,9.12,0,0,0-18.2.9,9.61,9.61,0,0,0,.17,1.79h-1.69a5.64,5.64,0,1,0,0,11.27h22.54A5.65,5.65,0,0,0,645,66.15a7.15,7.15,0,0,0-4.8-12.45Z"/><path class="cls-6" d="M640.2,53.7a6.94,6.94,0,0,0-2.2.35,9.12,9.12,0,0,0-8.46-8.2V68h11.28A5.65,5.65,0,0,0,645,66.15a7.15,7.15,0,0,0-4.8-12.45Z"/><polyline class="cls-5" points="635.42 63.05 630.89 69.53 637.55 69.53 630.89 81.62 630.89 74.06 623.4 74.06 627.75 63.05 635.42 63.05"/><polyline class="cls-4" points="635.42 63.05 630.89 69.53 637.55 69.53 630.89 81.62 634.01 72.06 626.72 72.06 630.7 63.05 635.42 63.05"/><path class="cls-10" d="M425,53.93a8.88,8.88,0,1,1,8.88-8.88A8.89,8.89,0,0,1,425,53.93Zm0-16.18a7.31,7.31,0,1,0,7.3,7.3,7.31,7.31,0,0,0-7.3-7.3Z"/><path class="cls-10" d="M424.48,48.88a.74.74,0,0,1-.55-.23.78.78,0,0,1,0-1.11l2.48-2.49-2.48-2.49a.78.78,0,0,1,0-1.11.79.79,0,0,1,1.11,0l3,3a.78.78,0,0,1,0,1.11l-3,3a.76.76,0,0,1-.56.23Z"/><path class="cls-10" d="M426.7,45.84h-5.46a.79.79,0,0,1,0-1.57h5.46a.79.79,0,0,1,0,1.57Z"/><rect class="cls-3" x="646.4" y="114.83" width="5.81" height="14.53" transform="translate(-8.04 188.41) rotate(-16.41)"/><path class="cls-13" d="M673.6,114a3.23,3.23,0,0,0-3.22-3.23S663,111,663,109.26c0-.43,0-.9.06-1.42s.19-1.18.23-1.7c.3-3.69-1-5.71-2.1-5.71-.26,0-2.28.13-2.16,1.22a14.66,14.66,0,0,1-.39,5.28c-1.37,2.51-6.27,7.63-7.59,8l3.58,9.67s1.43-.72,5.37-.35c2.35.2,4.57.37,5.82.52s3.17.08,3.62-1.13a3.4,3.4,0,0,0,.18-.77,2.75,2.75,0,0,0,1.84-2.41,2.64,2.64,0,0,0,0-.63,2.71,2.71,0,0,0,1.34-2.18,2.65,2.65,0,0,0-.22-1.23A3.21,3.21,0,0,0,673.6,114Z"/><path class="cls-3" d="M368.56,118.91c.07-3.38,2.26-5.83,5.73-5.83,4.43,0,5.87,2.76,5.87,4.55,0,4.51-3.89,3.9-4.29,6.75v.9h-3.18v-1.07c.33-4.08,3.84-3.7,3.77-6.25a1.85,1.85,0,0,0-2-2.12c-1.69,0-2.42,1.39-2.42,3.07Zm3.8,7.78h3.7v3.63h-3.7Z"/><path class="cls-3" d="M587.09,99.65a10.14,10.14,0,0,1-.29,2.14c-.19.88-.43,1.93-.71,3.12s-.59,2.54-1,4.23-.73,3.77-1.12,6.25H582.5q-.6-3.77-1.12-6.26c-.36-1.67-.67-3.07-1-4.2s-.48-2.05-.69-3a11.88,11.88,0,0,1-.31-2.24,3.44,3.44,0,0,1,1.12-2.59,3.92,3.92,0,0,1,5.4,0A3.42,3.42,0,0,1,587.09,99.65Zm0,21.77a3.42,3.42,0,0,1-1.13,2.57,3.82,3.82,0,0,1-5.32,0,3.4,3.4,0,0,1-1.14-2.57,3.47,3.47,0,0,1,1.14-2.59,3.79,3.79,0,0,1,5.32,0A3.49,3.49,0,0,1,587.05,121.42Z"/><path class="cls-10" d="M594.12,18.76,564.27,48.61a3.64,3.64,0,0,0,4.39,0l27.65-27.64Z"/><path class="cls-9" d="M601.5,26.13l-5.19-5.19L568.66,48.58h0s0,0,0,0l0,0a3.69,3.69,0,0,0,5.17,5.17l0,0,0,0h0Z"/><path class="cls-10" d="M573.86,53.78a3.66,3.66,0,0,0,0,4.39l29.85-29.85-2.18-2.19Z"/><path class="cls-5" d="M573.84,58.17a3.64,3.64,0,0,1,0-4.39h0l0,0,0,0a3.69,3.69,0,0,1-5.17-5.17l0,0s0,0,0,0h0a3.63,3.63,0,0,1-4.39,0L563.1,59.34Z"/><path class="cls-10" d="M563.67,54.07l-.57,5.27,5.27-.57a14.14,14.14,0,0,0-4.7-4.7Z"/><rect class="cls-6" x="594.67" y="16.86" width="3.98" height="3.09" transform="translate(161.74 427.29) rotate(-45)"/><rect class="cls-3" x="598.36" y="18.42" width="3.98" height="7.35" transform="translate(160.25 431.01) rotate(-45)"/><rect class="cls-6" x="602.05" y="24.24" width="3.98" height="3.09" transform="translate(158.61 434.59) rotate(-44.99)"/></g></g></svg>