<svg xmlns="http://www.w3.org/2000/svg" viewBox="0 0 807.91 244.31"><defs><style>.cls-1{fill:#8fc4d7;}.cls-2{fill:#a6dae9;}.cls-3{fill:#d1ecfb;}.cls-4{fill:#fff;}.cls-5{fill:#2c5871;}.cls-6{fill:#1695a4;}.cls-7{fill:#15b0bf;}.cls-8{fill:#c1e2de;}.cls-9{fill:#0e303f;}.cls-10{fill:#a8c5c2;}.cls-11{fill:#003054;}.cls-12{fill:#70d1dc;}</style></defs><title>Formation</title><g id="Calque_2" data-name="Calque 2"><g id="Calque_1-2" data-name="Calque 1"><path class="cls-1" d="M197.8,135.92A68,68,0,0,1,197.8,0"/><path class="cls-2" d="M197.8,0a68,68,0,1,1,0,135.92"/><path class="cls-3" d="M132.78,86.44c.9,0,2.06.44,2.07.75s1.26.86,1.66,1a5.44,5.44,0,0,1,1.38,1.84c.17.42,1.18.29,1.55.46s1.14.78,1.14,1.16.21.33.47-.1l.49.52.58.64a5.29,5.29,0,0,0,1.81,2.48c.38.1.45,1.94.45,2.67a3.43,3.43,0,0,1-.64,2l-.07.59-.13,1.17a2.13,2.13,0,0,1-.68,1.86,9.5,9.5,0,0,1-2.53-.45,4.15,4.15,0,0,1-.91-.37,67.28,67.28,0,0,1-7-16.24A1.54,1.54,0,0,1,132.78,86.44Z"/><path class="cls-3" d="M245,88.18c.09.18-1.12,1.43-1.6,1.85a12.7,12.7,0,0,0-1.67,3.14,5,5,0,0,0,0,2c.06.26-.23.83-.28,1.06a16.61,16.61,0,0,1,.24,3c-.17.81.94,3.31.92,4.56s-.59,2.87-.82,2.75-.31,1.13.07,1.28.83,1.14.61,1.19,0,1,0,1.43-.39,3-.46,3.62a18,18,0,0,1-1.19,2.75c-.19.54-.39,1.54-.46,1.7l-.18.32a5.48,5.48,0,0,0-1,.44,6,6,0,0,1-2.15,0c-.48-.1,0-.53.17-.76s.41-1.39.65-1.51.35-1.58.14-1.9-1.09-.84-1.18-1.11-.12-1.55.11-1.72-.07-1.72.11-2.49-1.34-1.47-1.42-2.07-1.73-1.27-2.1-1.57a3.82,3.82,0,0,1-.51-2.43c.18-.37-.61-.68-1-.68a4.83,4.83,0,0,1-.87-.25c-.13,0-.55-.77-.77-1s-.68-2-1.09-2.32a3.19,3.19,0,0,1-.74-1.75,5.35,5.35,0,0,0-.83-1.58,8.69,8.69,0,0,0-2-1.11c-.28-.11-.69-2.56-.8-3.44a21.61,21.61,0,0,0-.6-2.35c0-.29-.51-.53-.61-.63A13.7,13.7,0,0,0,223,87.2a7.71,7.71,0,0,1-1.1-1.56,8.92,8.92,0,0,0-.28-1.37V82.72c.26-.74,1.08-1.66,1.29-1.46s1.15-.65,1.63-.83a9.21,9.21,0,0,1,2-.33c.3,0,1.34-.86,1.82-1a19.16,19.16,0,0,0,1.89-.52c.22-.14.52-1.92,1.48-2.51a10.11,10.11,0,0,0,2.85-2.45c.19-.49,2-1.54,2.62-1.86a2.26,2.26,0,0,1,1.55-.27c.11.1.83-1,1.2-1.28s1.48-.56,1.53-.29.79.14,1-.1.75.09,1,.19,1.19,1.49,1.61,1.83.93-.31,1.22-.43a3.17,3.17,0,0,1,1.64.41c.28.21,1-1.49.8-2.27s.7-2.34,1.36-2.38.87-1.68.74-2.28,1.19-1,1.52-1,1.17.8,1.3,1.21,3.16-.55,2.8-2.35a8.37,8.37,0,0,0-2.13-3.9,5.39,5.39,0,0,0-2.71-.08.72.72,0,0,1-.89-.11,5.53,5.53,0,0,0-2.12.21c-.47.19-1.15,2-1.63,2.23s-.67-1.18-.75-1.51a3.49,3.49,0,0,1,.35-1.46,5,5,0,0,0-1.52-2.82,3.46,3.46,0,0,1-1.45-1.83c.07-.21-.59-.38-.76-.47s0-1.88-.27-2.27a8.87,8.87,0,0,0-2.11-1.39,1.7,1.7,0,0,1-.61-1.5c.16-.21-1.13-1.3-1.8-1.52s-1.25.39-1.08.48c-.14-.07-1.06-.55-1.46-.81s0-1.14.29-1.39.12-1.21-.24-1.3-.66-.93-.57-1.1-1.47.14-2.07-.3-.17,1.06.27,1.67a.7.7,0,0,1-.61,1.07c-.28-.12-.58.32-.63.49s-.67-.18-1.06,0-.63-.54-.66-.87.94-1,1.1-1.41a24.88,24.88,0,0,0,.23-3.17c0-.47.66-1.24.86-1.1s.62-1.22,1-1.52a1.7,1.7,0,0,0,.39-1.16c0-.22,1.11-1.4,1.39-1.95s.65-.43.67-.18.81.28,1.14.25.59-1.27.59-1.75,1.45-.55,1.69-.93,1.18-.2,1.34-.46a1.55,1.55,0,0,1,1.15-.41c.18.1.09,3.48.25,4.39s.94,1.72,1.22,1.69.11.66-.08.6.55,1,.64,1.68.81,0,.92-.65.8-1.48.93-1.27.61-.26.81-.12,1.51-.76,2-1,.82-1.89,1.11-2,0-.34.06-.58-1-1.18-1.32-1.55a18.79,18.79,0,0,0-1.88-2.15,2,2,0,0,1-.72-1.31,11.77,11.77,0,0,0-2.44-1c-.54-.18-1-1.68-1.08-2.11a1.77,1.77,0,0,1,.59-1.35c.25-.11-.75-.15-1.08,0s-1.36-.3-1.76-.09-1.22.7-1.81,1.07l.13,1.1.23,1.87c1.57.65,2,1.76,1.47,1.74A13.19,13.19,0,0,0,236.23,31c-.71.51-.93-.73-1.14-1.15a3,3,0,0,1,0-1.84c.17-.23-.82-.15-1.09.12s-.61-.28-.82-.37-.32-1.12-.43-1.33.46-.42.48-.67,1.15-.75,1.51-.92a.89.89,0,0,0,.27-1.09c-.18-.13.12-1.12.3-1.44s1.35-.59,1.75-.59.79-.91,1-1a6,6,0,0,1,2.11-.19c.37.11,1-1.07,1.68-.71s1.28-.42,1.56-.57,1.76,1.42,1.74,2.53a3.08,3.08,0,0,1-.8,2.22c-.23,0,.06,1,.31,1.32s.87-.3.64-.56.64-1.41.94-1.88a3.66,3.66,0,0,1,1.49-.85c.31.32.6.66.9,1a2.41,2.41,0,0,0-.12,1.32c.22.68.78.78.82.49,0-.13.3-.23.63-.27A67.64,67.64,0,0,1,265.29,60a4.19,4.19,0,0,0-.8,1.14c-.19.59-1.22,1-1.42,1.11s-.26-1.14-.12-1.47-.25-.53-.24-.28a9.72,9.72,0,0,1-1.31,1.75c-.32.4-.65,3-1,3.55s-3.3,1.71-4.27,1.91a5.2,5.2,0,0,0-2.37,1.59c-.18.31-1.46.47-1.74.59s-.93,1-1.2,1.18a1.47,1.47,0,0,0-.49.83c0,.14-1.69.78-2.1,1.23a.9.9,0,0,1-1.21.14c-.13-.19-.46.9-.64,1.27a2.47,2.47,0,0,0-.08,1.45A19.45,19.45,0,0,0,247,78.2a8.8,8.8,0,0,1,.76,3.3,3.85,3.85,0,0,1-1.27,1.65.39.39,0,0,0,.08.71c.27,0,.14,2.4-.5,2.75A2.38,2.38,0,0,0,245,88.18Z"/><path class="cls-3" d="M237,46.78Z"/><path class="cls-3" d="M241.64,18.12a6.81,6.81,0,0,1-2.26-.59,1.46,1.46,0,0,1,.08-.94h-.39c-.31,0-.82-1.69-1.15-2.09a18.19,18.19,0,0,0-2.63-1.25A17.29,17.29,0,0,0,233.5,12c-.37-.11-.91-1-.83-1.16s-1.26-1-1.77-1.21-.77-.81-.58-.83,3,1.47,5.56,2.94a68.61,68.61,0,0,1,8.36,6.71C243.43,18.36,242.18,18.21,241.64,18.12Z"/><path class="cls-3" d="M192.49,102.71c-.87-.52-2.35-2.7-2.83-3.16a7.35,7.35,0,0,1-.95-2.47,2.3,2.3,0,0,0-1.11-1c-.27-.08-1.15-3.74-1.92-4.54s-1.69-4.68-1.59-6.07a19.8,19.8,0,0,0-.68-4.69,6.21,6.21,0,0,0-1.46-2,47,47,0,0,1-2.77-4,8.9,8.9,0,0,1-1.06-3.68c.12-.51,1.42-.87,1.66-.62a4.29,4.29,0,0,0,1.86.46c.39,0,1.29-2.09,1.84-2.53s1.06-2.83,1.38-3.28a22.18,22.18,0,0,1,1.5-1.87c.28-.27.33-1.54.39-1.89s-.54.23-.64.74a26.43,26.43,0,0,1-2,3.24c-.44.69-1.62,2.88-1.92,3.57s-2.91.34-3.76-.06a5.46,5.46,0,0,1-1.94-1.31c0-.24-1.39-.86-1.77-1.16s-.71-1.87-.95-2.13.2-1.75.48-2.2a2.37,2.37,0,0,1,1.91-.62c.27.17.86-1,1.07-1.44s1.24-1,1.35-1.26-.28-.77-.44-.87a8.38,8.38,0,0,0-2.63,1.9,15.2,15.2,0,0,0-1.28,2.11,2.78,2.78,0,0,1-2,.07.54.54,0,0,0-.86.14L171,62l-1.65-.26a3.31,3.31,0,0,0-1,1.75,1.64,1.64,0,0,1-.8.93c-.32.08-.56,1.16-.66,1.43s-1,1.89-1.23,2.57a17.32,17.32,0,0,1-1.19,2.37,5.74,5.74,0,0,0-.35,1.67,1.22,1.22,0,0,1-1,.81c-.37,0-1.13-2.4-1.31-3.28a2.46,2.46,0,0,0-.95-1.61c-.18,0-.31-.49-.31-.68s-1-.17-1.05-.41-.37-1.81-.71-2a14.91,14.91,0,0,0-2-1.18c-.42-.15-1.5.79-1.75,1.23a3.87,3.87,0,0,0-.37,1.73c.09.19-.57,1.15-1.16,1.13s-.75.74-.77,1-.79,1-.94,1.4a2.92,2.92,0,0,0,0,1.5,5.38,5.38,0,0,1-.08,1.81,18,18,0,0,1-2.56,2.7c-.67.55-1-1.12-.65-1.64s1.51-1.72,1.78-2.08a4.36,4.36,0,0,0,.22-2.21c-.1-.4-1,.23-1.4.52a2.83,2.83,0,0,0-.89,1.16c0,.21-2.41-1.12-2.48-2.57a15.5,15.5,0,0,0-1-3.48c-.08-.38.23-.91.43-.92s-.35-1.11-1-1.09-2.28-1.78-2.66-2.49a5.52,5.52,0,0,0-1.24-1.39,13.23,13.23,0,0,1-.71-2.47,7.15,7.15,0,0,1,.45-2.15,6.94,6.94,0,0,1,.78-1.45,3,3,0,0,0,.2-1.42c-.09-.17-.69-.37-.76-.53s-.75-.9-.7-1.23-.43.42-.75.69-.66,2-1.05,2.19-2-1.83-1.78-3.14-.46-3-.84-3.14a8.27,8.27,0,0,1-1.54-1.92A68.08,68.08,0,0,1,150.3,19.41a.75.75,0,0,0,.26,0l.59-.12c1-.21,1.53-1.25,1.37-1.49a.69.69,0,0,1,0-.46c.55-.49,1.11-1,1.67-1.44.46,0,.95,0,1.23,0a5.3,5.3,0,0,0,2.08-.67c.22-.23,1,.2,1,.62s1.38.62,1.51.94a.71.71,0,0,0,1,.16c.13-.18,1.36.44,2,.53a10.42,10.42,0,0,1,2,.71,3,3,0,0,1,1,1c.1.26.89.7,1.15.8s.2,1.25-.13,1.41.61-.13,1-.35.87.49,1,.73.51-.14.49-.49,1-.61,1.15-.34.85-.09,1.15-.25,1.57,1.18,2,1.66a5.62,5.62,0,0,0,3.17.67c.42-.18.84,1,.47,1.09s.93-.06,1.63,0a11.44,11.44,0,0,1,3.24,1.25.53.53,0,0,0,.89-.36c0-.28.78-.53,1-.61s.68,1.53,1.09,1.84.89-1.26,1.85-1.52,2.46-1.18,2.88-1.29a5.68,5.68,0,0,0,1.52-1.26,4.22,4.22,0,0,1,1.85-.47,6,6,0,0,1,2,1c.34.29.85.23,1,.33s1.6,1.5,2.15,1.94a17.34,17.34,0,0,1,1.84,2.78,1.3,1.3,0,0,0,1,.55c.19,0,.34.51.34.7s1.65,1,1.82,1.79a17.74,17.74,0,0,1-.16,3.06c0,.6-.61,1.8-1.07,1.82s-.22,1-.1,1.31-.28.6-.27.84,1.16.58,1.5.72a2.59,2.59,0,0,1,1,1.22c.06.26,1.16.44,1.52.79a7.68,7.68,0,0,0-.31-.79,1.33,1.33,0,0,1,.25-1.24c.17-.14.25-2.12.53-2.54a8.89,8.89,0,0,1,1.14-1.29c.17-.13-.12-.65-.22-.88s.93-.34,1.2-.18.43,2.12.55,2.66a1.73,1.73,0,0,1-.67,1.39c-.17,0-.13,1,.23,1s.69,1.45.51,1.77.25.95.47,1.09-1.38.07-2.11.05-1.29.3-1.21.36,1.39.26,1.62.57,1.12.9,1.3,1.14-.3.77-.68.75-.8,1.3-1.09,1.54-.19.93-.06,1.12,1.9-.12,2.57,0,1.52,1.59,1.58,2.13a13.4,13.4,0,0,1-.19,2.51c-.09.42-1.5.69-1.78.9s-1.64,0-1.92.13-1.18-1.36-1.37-2.06-1.61-2-1.91-2.45-1.84-.41-2.22-.66-.17,1.17-.36,2-1.66.69-1.44-.05-.15-1-.21-.78-1.48.84-1.76,1.26-.18,1.28.13,1.27.33,1,0,1.07-.78-1.1-1.13-1.27-.66-.93-.49-1-.3-.73-.51-.51a8.41,8.41,0,0,1,1.37-2.06c.6-.61.18-.34-1,.6l-.79,1.1c-.15.19-.35.79-.48,1l-.18.32a7.27,7.27,0,0,0-.29,1.72,1.24,1.24,0,0,1-1,.81c-.37,0-.65.18-.58.19s-.24.75-.62.76-.52-.94-.15-1,.31-1.4.36-2-.27-1.09-.39-1.09,0,1.23,0,1.52a3.88,3.88,0,0,1-.34,1.24l-.38.29-.86.66c-1.23-.36-2.88-.08-2.82.17s-.91.31-1-.09-.11,0-.11.29.81,1.37.94,1.88,3,.17,4.2.07,3,.32,3.17.69,2-.84,2.92-1.21,1.56-1.7,1.74-1.87-.15-.61-.07-.87,2.08-.32,2.66-.11,3.57.54,4.28.85a3.88,3.88,0,0,0,2.11-.08c.33-.06,1.13.92,1.53,1.09s.91,1.56,1.13,3.09l.55,1.05.35.68c1,.75,2.08,3.26,2.4,3.77s.58,4.12.58,5.33a17,17,0,0,1-1.36,4.5,10.7,10.7,0,0,1-2.75,2.66,10,10,0,0,1-3.26.42,2,2,0,0,1-1.64-1.38l-1,.09-.44.05c0,.53-1.43,1-1.78,1.15a3,3,0,0,1-1.55,0c-.28-.08-.59,2.42-.39,3.14s-.49,3.25-.69,4-1.08,2.85-1.16,3.6a33.64,33.64,0,0,0,.61,4.1c.09.88-1.09,3.31-1.4,4.15a14.07,14.07,0,0,0-.57,3c0,.42-1.29,2.94-1.59,4S193.36,103.22,192.49,102.71Z"/><path class="cls-3" d="M136.46,71.85c-.08.19-.9-.46-1.39-.54s-.8-1.39-.41-1.48.86-1.11,1.14-1.24.82.44.8.84.88.56,1.06.89.16.57,0,.54S136.55,71.67,136.46,71.85Z"/><path class="cls-3" d="M137.47,79c-.25-.09,0-1.39.53-1.5s1.92,1.72,1.65,2.76-.56,1-.71.76-1,.14-1.23.23-.25-.18,0-.56A1.92,1.92,0,0,0,137.47,79Z"/><path class="cls-3" d="M140.24,77.73c-.05-.47-.14-1.92-.22-2.21s.79-1.12,1.21-1.27S143,77.07,144,77.6a2.79,2.79,0,0,1,1.08,2.76c-.27.42-2.32.64-2.67,1s-.76-.06-1-.11-.14-.19-.06-.24-.72-.9-.83-1.44S140.3,78.19,140.24,77.73Z"/><path class="cls-3" d="M145.83,82.67a1.54,1.54,0,0,1,1.74.46c.08.3-3,.78-4,1.06s-1.64.36-1.41.19S145.06,83,145.83,82.67Z"/><path class="cls-3" d="M139.66,62.9c-.24-.34.34-1.93.63-1.57s.08,1.28,0,1.61S139.91,63.24,139.66,62.9Z"/><path class="cls-3" d="M137.83,66.31c-.18-.41.21-.86.87-1s.56,1.84.27,2.1S138,66.73,137.83,66.31Z"/><path class="cls-3" d="M134.4,78.57c-.78.55-2.54.29-2.59-.77C132.58,77.29,134.47,77.38,134.4,78.57Z"/><path class="cls-3" d="M134.83,54.32a1.09,1.09,0,0,1,.4,1h.13c.26,0,.29,1,0,1.21s-.94-.81-1.28-1a1.89,1.89,0,0,0-1.16-.3,3,3,0,0,1-1.35-.41,1.1,1.1,0,0,1-.38-.46c.15-.76.33-1.5.51-2.25.33.24.7.5.87.65C132.94,53.07,134.4,54,134.83,54.32Z"/><path class="cls-3" d="M152.79,75.18Z"/><path class="cls-3" d="M147.9,79.74A8.23,8.23,0,0,1,150,77.32l.33-.54.35-.59c.33-.65,1.3-1.16,1.39-1.35s.39.57.73.34l-1.06.75c-.91.65-2.67,5.08-3.07,5.39S147.61,80.39,147.9,79.74Z"/><path class="cls-3" d="M161.93,72.59c.25.5-1.3,1.56-1.42,1.32a2.86,2.86,0,0,1,.47-1.74C161.25,71.9,161.68,72.09,161.93,72.59Z"/><path class="cls-3" d="M182.46,96.24c-.06.52-1.12.94-1.43.85a5.76,5.76,0,0,1-1.3-2.13,10.49,10.49,0,0,1-.22-1.68,1.57,1.57,0,0,0-.26-.83,2.71,2.71,0,0,1-.44-1.19,35,35,0,0,1,.67-3.89c0-.49.57.25.71.75s1.54,1.51,1.85,1.93a4.27,4.27,0,0,1,.53,2.09,3.06,3.06,0,0,0,.26,1.49A15.21,15.21,0,0,1,182.46,96.24Z"/><path class="cls-3" d="M232.57,115.56h-.94C231.47,114.54,232.62,114.71,232.57,115.56Z"/><path class="cls-3" d="M207.66,10.4a3.21,3.21,0,0,0,1.58-.35,4.07,4.07,0,0,1,2.13-.16c.44.18.14-1.07-.46-1.21s-.1-1,.55-1,2.25-.24,2.63-.15,1.11-.27,1.38-.31a27,27,0,0,0,3.1.54,21.9,21.9,0,0,1,3.64.18c.48.13.83,1.08.76,1.41s2.17.34,2.87.34A23.76,23.76,0,0,1,231.27,11c1,.54,1.74,1.91,1.42,1.94s.54.81,1.06,1,1.79.26,2.08.56-.31.49-.43.69-.46-.17-.8,0a16.55,16.55,0,0,1-1.71.38c-.29.12.93.35,1.5.39s.44,1.17,0,1.32-1.67.32-1.79.13-1.43.21-2,.28-1,1.54-1.21,1.86a4.76,4.76,0,0,0-.18,1.76c.05.32-1,.91-1.23.71s-.14.51.3.47.14,1.21-.39,1.39-.17.94.14,1.17.14,1,.46,1.23-1.12,2.74-1.11,4-.79,2.31-1.09,2.31-1.36.26-1.49.53-.65-.19-.85-.4a11,11,0,0,1-.94-1.36,34.47,34.47,0,0,1-1.14-3.37c-.1-.28-1.3-.1-1.57-.24a12.12,12.12,0,0,1-1.28-.95c-.22-.18-1.94-.9-2.41-1.24s-1.24-1.79-1.6-2.1.18-.22.64-.52a.49.49,0,0,0,.12-.8,5.59,5.59,0,0,0-2,.41c-.47.19-1.38-.47-1-.72s.16-.24,0-.14-.35-.84-.17-1-1.39-1.34-1.11-2.42-.44-2.21-.86-2.22-.3-1.23.21-1.35,0-.22-.16-.4a2.54,2.54,0,0,1-.32-1.46c.11-.21-.78-.45-.93-.7a4.34,4.34,0,0,0-1.54-.81C207.47,11.31,207.28,10.35,207.66,10.4Z"/><path class="cls-3" d="M198.81,11.29c.49-.17,1.47.37,1.34.67s.8-.39,1.45-.06.82,1.47.53,1.62-.52,1.05-.52,1.22-1.26,0-1.58-.21-.27.92,0,1.23-.11,1-.46,1-.82.87-1.18.86-1-1.38-1.1-1.9-1.33-.11-1.88.06-.74-1.89-.15-2.2,1.32-.16,1.57-.39a2,2,0,0,1,.93-.5C198.07,12.66,198.33,11.45,198.81,11.29Z"/><path class="cls-3" d="M194.06,12.27a3.39,3.39,0,0,1-2.27-.88c-.23-.22,2.66-.81,3.76-.84s2,.11,2,.33A10.71,10.71,0,0,1,194.06,12.27Z"/><path class="cls-3" d="M211.56,38.2c.25-.1.39.85.34,1.21s-1,.33-1.32.26a.74.74,0,0,1-.66-.68c0-.31.55-1.72.77-1.72S211.3,38.31,211.56,38.2Z"/><path class="cls-3" d="M208.72,27.17c.2-.34,1.7-.3,2.07-.33a4.14,4.14,0,0,0,1.7-.63c.21-.24.37.93.72,1.08s-.17.37-.31.25,0,.6.16.84-1,.43-1.13.8a1,1,0,0,1-1.06.55c-.45-.08-1.36-.55-1.68-.58S208.52,27.52,208.72,27.17Z"/><path class="cls-3" d="M177.13,18.56c-.52-.52-2.64-1.22-2.88-1.76a.67.67,0,0,1,.36-1,.86.86,0,0,1,.53.36c.05.08,2.49.66,3.24,1a8.83,8.83,0,0,1,1.94,1.24,31.15,31.15,0,0,1,1,3c.18.28-.81,1.26-1.25,1.54a1.6,1.6,0,0,1-1.22.07,6.35,6.35,0,0,1,.46-2.33C179.55,20.15,177.64,19.08,177.13,18.56Z"/><path class="cls-3" d="M179.74,12.26c-.8.79-1.24-.36-2.13-.24C177.63,10.4,179.82,11,179.74,12.26Z"/><path class="cls-3" d="M164.13,12.56c0,.3-2.22.53-2.88.42s.14-1.13,1.1-1.08S164.11,12.26,164.13,12.56Z"/><path class="cls-3" d="M245.44,29.21c.24.22,0,1.32-.41,1.35s-1.17-1.66-1.72-1.32-.93.47-.83.29a15.28,15.28,0,0,1,1.85-1C244.52,28.43,245.21,29,245.44,29.21Z"/><path class="cls-3" d="M239.7,66.5c0,.19-1,.16-1.14-.14s-.07-.54.19-.54S239.7,66.31,239.7,66.5Z"/><path class="cls-3" d="M244.06,64.89c-.47-.09-.25.67-.36.94s-1.24.49-1.46.68-.81-.35-1.26-.29.15-1.56.91-1.51,1.35-.68,1.52-.77a11.19,11.19,0,0,0,1.31-.81,10.6,10.6,0,0,1,2.82-.37,2.09,2.09,0,0,1,1.46.88c.11.22-1,.37-1.36.19a3.28,3.28,0,0,0-2.15.56A1.69,1.69,0,0,1,244.06,64.89Z"/><path class="cls-3" d="M246.11,66.5c0,.19-1,.07-1.22.08s-.24-.16,0-.36S246.11,66.31,246.11,66.5Z"/><path class="cls-3" d="M245.41,61.41c.26-.1.46.31.46.5a.33.33,0,0,1-.31.34C245.38,62.25,245.15,61.52,245.41,61.41Z"/><path class="cls-3" d="M243.34,61.57a1,1,0,0,1,.64-.34c.13,0,.21.33.19.72S243.25,61.76,243.34,61.57Z"/><path class="cls-3" d="M241.84,63.87c-.39-.19-.44-.67-.21-.64s.68-.69.94-.79.47.42.47.65-.15.4-.33.35S242.25,64.06,241.84,63.87Z"/><path class="cls-3" d="M131.43,79.39c.21.11,1.2.23,1.34,0s.32.4.54.49.09.62-.22.46-1.17.42-1.94.9c-.15-.76-.28-1.53-.41-2.3C131,79.13,131.3,79.33,131.43,79.39Z"/><path class="cls-4" d="M245,88.18c.09.18-1.12,1.43-1.6,1.85a12.7,12.7,0,0,0-1.67,3.14,5,5,0,0,0,0,2c.06.26-.23.83-.28,1.06a16.61,16.61,0,0,1,.24,3c-.17.81.94,3.31.92,4.56s-.59,2.87-.82,2.75-.31,1.13.07,1.28.83,1.14.61,1.19,0,1,0,1.43-.39,3-.46,3.62a18,18,0,0,1-1.19,2.75c-.19.54-.39,1.54-.46,1.7l-.18.32a5.48,5.48,0,0,0-1,.44,6,6,0,0,1-2.15,0c-.48-.1,0-.53.17-.76s.41-1.39.65-1.51.35-1.58.14-1.9-1.09-.84-1.18-1.11-.12-1.55.11-1.72-.07-1.72.11-2.49-1.34-1.47-1.42-2.07-1.73-1.27-2.1-1.57a3.82,3.82,0,0,1-.51-2.43c.18-.37-.61-.68-1-.68a4.83,4.83,0,0,1-.87-.25c-.13,0-.55-.77-.77-1s-.68-2-1.09-2.32a3.19,3.19,0,0,1-.74-1.75,5.35,5.35,0,0,0-.83-1.58,8.69,8.69,0,0,0-2-1.11c-.28-.11-.69-2.56-.8-3.44a21.61,21.61,0,0,0-.6-2.35c0-.29-.51-.53-.61-.63A13.7,13.7,0,0,0,223,87.2a7.71,7.71,0,0,1-1.1-1.56,8.92,8.92,0,0,0-.28-1.37V82.72c.26-.74,1.08-1.66,1.29-1.46s1.15-.65,1.63-.83a9.21,9.21,0,0,1,2-.33c.3,0,1.34-.86,1.82-1a19.16,19.16,0,0,0,1.89-.52c.22-.14.52-1.92,1.48-2.51a10.11,10.11,0,0,0,2.85-2.45c.19-.49,2-1.54,2.62-1.86a2.26,2.26,0,0,1,1.55-.27c.11.1.83-1,1.2-1.28s1.48-.56,1.53-.29.79.14,1-.1.75.09,1,.19,1.19,1.49,1.61,1.83.93-.31,1.22-.43a3.17,3.17,0,0,1,1.64.41c.28.21,1-1.49.8-2.27s.7-2.34,1.36-2.38.87-1.68.74-2.28,1.19-1,1.52-1,1.17.8,1.3,1.21,3.16-.55,2.8-2.35a8.37,8.37,0,0,0-2.13-3.9,5.39,5.39,0,0,0-2.71-.08.72.72,0,0,1-.89-.11,5.53,5.53,0,0,0-2.12.21c-.47.19-1.15,2-1.63,2.23s-.67-1.18-.75-1.51a3.49,3.49,0,0,1,.35-1.46,5,5,0,0,0-1.52-2.82,3.46,3.46,0,0,1-1.45-1.83c.07-.21-.59-.38-.76-.47s0-1.88-.27-2.27a8.87,8.87,0,0,0-2.11-1.39,1.7,1.7,0,0,1-.61-1.5c.16-.21-1.13-1.3-1.8-1.52s-1.25.39-1.08.48c-.14-.07-1.06-.55-1.46-.81s0-1.14.29-1.39.12-1.21-.24-1.3-.66-.93-.57-1.1-1.47.14-2.07-.3-.17,1.06.27,1.67a.7.7,0,0,1-.61,1.07c-.28-.12-.58.32-.63.49s-.67-.18-1.06,0-.63-.54-.66-.87.94-1,1.1-1.41a24.88,24.88,0,0,0,.23-3.17c0-.47.66-1.24.86-1.1s.62-1.22,1-1.52a1.7,1.7,0,0,0,.39-1.16c0-.22,1.11-1.4,1.39-1.95s.65-.43.67-.18.81.28,1.14.25.59-1.27.59-1.75,1.45-.55,1.69-.93,1.18-.2,1.34-.46a1.55,1.55,0,0,1,1.15-.41c.18.1.09,3.48.25,4.39s.94,1.72,1.22,1.69.11.66-.08.6.55,1,.64,1.68.81,0,.92-.65.8-1.48.93-1.27.61-.26.81-.12,1.51-.76,2-1,.82-1.89,1.11-2,0-.34.06-.58-1-1.18-1.32-1.55a18.79,18.79,0,0,0-1.88-2.15,2,2,0,0,1-.72-1.31,11.77,11.77,0,0,0-2.44-1c-.54-.18-1-1.68-1.08-2.11a1.77,1.77,0,0,1,.59-1.35c.25-.11-.75-.15-1.08,0s-1.36-.3-1.76-.09-1.22.7-1.81,1.07l.13,1.1.23,1.87c1.57.65,2,1.76,1.47,1.74A13.19,13.19,0,0,0,236.23,31c-.71.51-.93-.73-1.14-1.15a3,3,0,0,1,0-1.84c.17-.23-.82-.15-1.09.12s-.61-.28-.82-.37-.32-1.12-.43-1.33.46-.42.48-.67,1.15-.75,1.51-.92a.89.89,0,0,0,.27-1.09c-.18-.13.12-1.12.3-1.44s1.35-.59,1.75-.59.79-.91,1-1a6,6,0,0,1,2.11-.19c.37.11,1-1.07,1.68-.71s1.28-.42,1.56-.57,1.76,1.42,1.74,2.53a3.08,3.08,0,0,1-.8,2.22c-.23,0,.06,1,.31,1.32s.87-.3.64-.56.64-1.41.94-1.88a3.66,3.66,0,0,1,1.49-.85c.31.32.6.66.9,1a2.41,2.41,0,0,0-.12,1.32c.22.68.78.78.82.49,0-.13.3-.23.63-.27.32.37.61.74.91,1.12s.59.73.87,1.11.61.81.91,1.21l.79,1.11c.39.55.77,1.11,1.14,1.67s.7,1.09,1,1.64.57,1,.86,1.43.38.66.57,1c.28.51.56,1,.83,1.52l.45.88c.61,1.2,1.19,2.42,1.73,3.66l0,.1c.27.61.52,1.23.77,1.85.09.24.18.47.28.71.24.64.48,1.28.71,1.92l.11.33a64.61,64.61,0,0,1,1.92,6.63c0,.15.08.31.11.46A66.74,66.74,0,0,1,265.28,60a.43.43,0,0,0,0,.05,4.19,4.19,0,0,0-.8,1.14c-.19.59-1.22,1-1.42,1.11s-.26-1.14-.12-1.47-.25-.53-.24-.28a9.72,9.72,0,0,1-1.31,1.75c-.32.4-.65,3-1,3.55s-3.3,1.71-4.27,1.91a5.2,5.2,0,0,0-2.37,1.59c-.18.31-1.46.47-1.74.59s-.93,1-1.2,1.18a1.47,1.47,0,0,0-.49.83c0,.14-1.69.78-2.1,1.23a.9.9,0,0,1-1.21.14c-.13-.19-.46.9-.64,1.27a2.47,2.47,0,0,0-.08,1.45A19.45,19.45,0,0,0,247,78.2a8.8,8.8,0,0,1,.76,3.3,3.85,3.85,0,0,1-1.27,1.65.39.39,0,0,0,.08.71c.27,0,.14,2.4-.5,2.75A2.38,2.38,0,0,0,245,88.18Z"/><line class="cls-4" x1="237" y1="46.78" x2="237" y2="46.78"/><path class="cls-4" d="M241.64,18.12a6.81,6.81,0,0,1-2.26-.59,1.46,1.46,0,0,1,.08-.94h-.39c-.31,0-.82-1.69-1.15-2.09a18.19,18.19,0,0,0-2.63-1.25A17.29,17.29,0,0,0,233.5,12c-.37-.11-.91-1-.83-1.16s-1.26-1-1.77-1.21-.77-.81-.58-.83,3,1.47,5.56,2.94l.08.06c.74.5,1.47,1,2.19,1.56.5.36,1,.74,1.46,1.12l.76.6c.57.46,1.14.94,1.69,1.42l.36.3c.61.54,1.22,1.09,1.82,1.65C243.43,18.36,242.18,18.21,241.64,18.12Z"/><path class="cls-4" d="M198.64,51.3c.32,0,.33,1,0,1.07s-.55-.55-.83-.95V47.63a.27.27,0,0,1,.07-.08c.4-.41.34-.42-.07-.1V24.19a11.55,11.55,0,0,0,.88.79,17.34,17.34,0,0,1,1.84,2.78,1.3,1.3,0,0,0,1,.55c.19,0,.34.51.34.7s1.65,1,1.82,1.79a17.74,17.74,0,0,1-.16,3.06c0,.6-.61,1.8-1.07,1.82s-.22,1-.1,1.31-.28.6-.27.84,1.16.58,1.5.72a2.59,2.59,0,0,1,1,1.22c.06.26,1.16.44,1.52.79a7.68,7.68,0,0,0-.31-.79,1.33,1.33,0,0,1,.25-1.24c.17-.14.25-2.12.53-2.54a8.89,8.89,0,0,1,1.14-1.29c.17-.13-.12-.65-.22-.88s.93-.34,1.2-.18.43,2.12.55,2.66a1.73,1.73,0,0,1-.67,1.39c-.17,0-.13,1,.23,1s.69,1.45.51,1.77.25.95.47,1.09-1.38.07-2.11.05-1.29.3-1.21.36,1.39.26,1.62.57,1.12.9,1.3,1.14-.3.77-.68.75-.8,1.3-1.09,1.54-.19.93-.06,1.12,1.9-.12,2.57,0,1.52,1.59,1.58,2.13a13.4,13.4,0,0,1-.19,2.51c-.09.42-1.5.69-1.78.9s-1.64,0-1.92.13-1.18-1.36-1.37-2.06-1.61-2-1.91-2.45-1.84-.41-2.22-.66-.17,1.17-.36,2-1.66.69-1.44-.05-.15-1-.21-.78-1.48.84-1.76,1.26S198.33,51.31,198.64,51.3Z"/><path class="cls-4" d="M197.8,55.9c.29-.15.56-.29.77-.38.87-.37,1.56-1.7,1.74-1.87s-.15-.61-.07-.87,2.08-.32,2.66-.11,3.57.54,4.28.85a3.88,3.88,0,0,0,2.11-.08c.33-.06,1.13.92,1.53,1.09s.91,1.56,1.13,3.09l.55,1.05.35.68c1,.75,2.08,3.26,2.4,3.77s.58,4.12.58,5.33a17,17,0,0,1-1.36,4.5,10.7,10.7,0,0,1-2.75,2.66,10,10,0,0,1-3.26.42,2,2,0,0,1-1.64-1.38l-1,.09-.44.05c0,.53-1.43,1-1.78,1.15a3,3,0,0,1-1.55,0c-.28-.08-.59,2.42-.39,3.14s-.49,3.25-.69,4-1.08,2.85-1.16,3.6a33.64,33.64,0,0,0,.61,4.1c.09.88-1.09,3.31-1.4,4.15a14.07,14.07,0,0,0-.57,3,9.76,9.76,0,0,1-.69,1.8Z"/><path class="cls-4" d="M232.57,115.56h-.94C231.47,114.54,232.62,114.71,232.57,115.56Z"/><path class="cls-4" d="M213.74,22.62c-.47.19-1.38-.47-1-.72s.16-.24,0-.14-.35-.84-.17-1-1.39-1.34-1.11-2.42-.44-2.21-.86-2.22-.3-1.23.21-1.35,0-.22-.16-.4a2.54,2.54,0,0,1-.32-1.46c.11-.21-.78-.45-.93-.7a4.34,4.34,0,0,0-1.54-.81c-.36-.08-.55-1-.17-1a3.21,3.21,0,0,0,1.58-.35,4.07,4.07,0,0,1,2.13-.16c.44.18.14-1.07-.46-1.21s-.1-1,.55-1,2.25-.24,2.63-.15,1.11-.27,1.38-.31a27,27,0,0,0,3.1.54,21.9,21.9,0,0,1,3.64.18c.48.13.83,1.08.76,1.41s2.17.34,2.87.34A23.76,23.76,0,0,1,231.27,11c1,.54,1.74,1.91,1.42,1.94s.54.81,1.06,1,1.79.26,2.08.56-.31.49-.43.69-.46-.17-.8,0a16.55,16.55,0,0,1-1.71.38c-.29.12.93.35,1.5.39s.44,1.17,0,1.32-1.67.32-1.79.13-1.43.21-2,.28-1,1.54-1.21,1.86a4.76,4.76,0,0,0-.18,1.76c.05.32-1,.91-1.23.71s-.14.51.3.47.14,1.21-.39,1.39-.17.94.14,1.17.14,1,.46,1.23-1.12,2.74-1.11,4-.79,2.31-1.09,2.31-1.36.26-1.49.53-.65-.19-.85-.4a11,11,0,0,1-.94-1.36,34.47,34.47,0,0,1-1.14-3.37c-.1-.28-1.3-.1-1.57-.24a12.12,12.12,0,0,1-1.28-.95c-.22-.18-1.94-.9-2.41-1.24s-1.24-1.79-1.6-2.1.18-.22.64-.52a.49.49,0,0,0,.12-.8A5.59,5.59,0,0,0,213.74,22.62Z"/><path class="cls-4" d="M198.81,11.29c.49-.17,1.47.37,1.34.67s.8-.39,1.45-.06.82,1.47.53,1.62-.52,1.05-.52,1.22-1.26,0-1.58-.21-.27.92,0,1.23-.11,1-.46,1-.82.87-1.18.86c-.18,0-.42-.36-.63-.77V12.7h0C198.07,12.66,198.33,11.45,198.81,11.29Z"/><path class="cls-4" d="M210.58,39.67a.74.74,0,0,1-.66-.68c0-.31.55-1.72.77-1.72s.61,1,.87.93.39.85.34,1.21S211,39.74,210.58,39.67Z"/><path class="cls-4" d="M211.93,29.18a1,1,0,0,1-1.06.55c-.45-.08-1.36-.55-1.68-.58s-.67-1.63-.47-2,1.7-.3,2.07-.33a4.14,4.14,0,0,0,1.7-.63c.21-.24.37.93.72,1.08s-.17.37-.31.25,0,.6.16.84S212.06,28.81,211.93,29.18Z"/><path class="cls-4" d="M245.44,29.21c.24.22,0,1.32-.41,1.35s-1.17-1.66-1.72-1.32-.93.47-.83.29a15.28,15.28,0,0,1,1.85-1C244.52,28.43,245.21,29,245.44,29.21Z"/><path class="cls-4" d="M239.7,66.5c0,.19-1,.16-1.14-.14s-.07-.54.19-.54S239.7,66.31,239.7,66.5Z"/><path class="cls-4" d="M244.06,64.89c-.47-.09-.25.67-.36.94s-1.24.49-1.46.68-.81-.35-1.26-.29.15-1.56.91-1.51,1.35-.68,1.52-.77a11.19,11.19,0,0,0,1.31-.81,10.6,10.6,0,0,1,2.82-.37,2.09,2.09,0,0,1,1.46.88c.11.22-1,.37-1.36.19a3.28,3.28,0,0,0-2.15.56A1.69,1.69,0,0,1,244.06,64.89Z"/><path class="cls-4" d="M246.11,66.5c0,.19-1,.07-1.22.08s-.24-.16,0-.36S246.11,66.31,246.11,66.5Z"/><path class="cls-4" d="M245.41,61.41c.26-.1.46.31.46.5a.33.33,0,0,1-.31.34C245.38,62.25,245.15,61.52,245.41,61.41Z"/><path class="cls-4" d="M243.34,61.57a1,1,0,0,1,.64-.34c.13,0,.21.33.19.72S243.25,61.76,243.34,61.57Z"/><path class="cls-4" d="M241.84,63.87c-.39-.19-.44-.67-.21-.64s.68-.69.94-.79.47.42.47.65-.15.4-.33.35S242.25,64.06,241.84,63.87Z"/><path class="cls-3" d="M239.38,16.74c.07-.07.36.13.23.26S239.27,16.88,239.38,16.74Z"/><path class="cls-3" d="M231.86,39.17c0-.08.34.13.23.27S231.73,39.3,231.86,39.17Z"/><path class="cls-4" d="M550.12,120.22h2.42V86.87a7.19,7.19,0,0,1,14.37,0v33.35h2.41V86.87a9.6,9.6,0,1,0-19.2,0v33.35Z"/><path class="cls-4" d="M576.18,106.34h2.42a7.2,7.2,0,0,1,7.18-7.19h33.35V96.74H585.78a9.61,9.61,0,0,0-9.6,9.6Z"/><path class="cls-4" d="M572.76,130.52a5.85,5.85,0,0,0,5.84-5.84V106.27h-2.41v18.41a3.43,3.43,0,1,1-6.85,0V106.27h-2.42v18.41a5.85,5.85,0,0,0,5.84,5.84Z"/><rect class="cls-5" x="589.31" y="46.48" width="66.51" height="150.9"/><rect class="cls-6" x="587.3" y="46.48" width="66.51" height="150.9"/><rect class="cls-5" x="600.35" y="57.67" width="10.64" height="10.64"/><rect class="cls-5" x="600.35" y="72.4" width="10.64" height="10.64"/><rect class="cls-5" x="600.35" y="87.14" width="10.64" height="10.64"/><rect class="cls-5" x="600.35" y="101.88" width="10.64" height="10.64"/><rect class="cls-5" x="600.35" y="116.61" width="10.64" height="10.64"/><rect class="cls-5" x="600.35" y="131.35" width="10.64" height="10.64"/><rect class="cls-5" x="600.35" y="146.08" width="10.64" height="10.64"/><rect class="cls-5" x="600.35" y="160.82" width="10.64" height="10.64"/><rect class="cls-5" x="600.35" y="175.56" width="10.64" height="10.64"/><rect class="cls-5" x="615.04" y="57.67" width="10.64" height="10.64"/><rect class="cls-5" x="615.04" y="72.4" width="10.64" height="10.64"/><rect class="cls-5" x="615.04" y="87.14" width="10.64" height="10.64"/><rect class="cls-5" x="615.04" y="101.88" width="10.64" height="10.64"/><rect class="cls-5" x="615.04" y="116.61" width="10.64" height="10.64"/><rect class="cls-5" x="615.04" y="131.35" width="10.64" height="10.64"/><rect class="cls-5" x="615.04" y="146.08" width="10.64" height="10.64"/><rect class="cls-5" x="615.04" y="160.82" width="10.64" height="10.64"/><rect class="cls-5" x="615.04" y="175.56" width="10.64" height="10.64"/><rect class="cls-5" x="629.74" y="57.67" width="10.64" height="10.64"/><polygon class="cls-5" points="629.74 137.59 629.74 131.35 629.74 72.4 640.38 72.4 640.38 131.35 640.38 137.59 640.38 141.99 629.74 141.99 629.74 137.59"/><rect class="cls-5" x="629.74" y="146.08" width="10.64" height="10.64"/><rect class="cls-5" x="629.74" y="160.82" width="10.64" height="10.64"/><rect class="cls-5" x="629.74" y="175.56" width="10.64" height="10.64"/><rect class="cls-7" x="598.52" y="57.67" width="10.64" height="10.64"/><rect class="cls-7" x="598.52" y="72.4" width="10.64" height="10.64"/><rect class="cls-7" x="598.52" y="87.14" width="10.64" height="10.64"/><rect class="cls-7" x="598.52" y="101.88" width="10.64" height="10.64"/><rect class="cls-7" x="598.52" y="116.61" width="10.64" height="10.64"/><rect class="cls-7" x="598.52" y="131.35" width="10.64" height="10.64"/><rect class="cls-7" x="598.52" y="146.08" width="10.64" height="10.64"/><rect class="cls-7" x="598.52" y="160.82" width="10.64" height="10.64"/><rect class="cls-7" x="598.52" y="175.56" width="10.64" height="10.64"/><rect class="cls-7" x="613.21" y="57.67" width="10.64" height="10.64"/><rect class="cls-7" x="613.21" y="72.4" width="10.64" height="10.64"/><rect class="cls-7" x="613.21" y="87.14" width="10.64" height="10.64"/><rect class="cls-7" x="613.21" y="101.88" width="10.64" height="10.64"/><rect class="cls-7" x="613.21" y="116.61" width="10.64" height="10.64"/><rect class="cls-7" x="613.21" y="131.35" width="10.64" height="10.64"/><rect class="cls-7" x="613.21" y="146.08" width="10.64" height="10.64"/><rect class="cls-7" x="613.21" y="160.82" width="10.64" height="10.64"/><rect class="cls-7" x="613.21" y="175.56" width="10.64" height="10.64"/><rect class="cls-7" x="627.9" y="57.67" width="10.65" height="10.64"/><polygon class="cls-7" points="627.9 137.59 627.9 131.35 627.9 72.4 638.55 72.4 638.55 131.35 638.55 137.59 638.55 141.99 627.9 141.99 627.9 137.59"/><rect class="cls-7" x="627.9" y="146.08" width="10.65" height="10.64"/><rect class="cls-7" x="627.9" y="160.82" width="10.65" height="10.64"/><rect class="cls-7" x="627.9" y="175.56" width="10.65" height="10.64"/><path class="cls-4" d="M643.67,161.06a4.43,4.43,0,0,0,4.43,4.43h32.66a4.43,4.43,0,0,0,4.44-4.43h0a4.44,4.44,0,0,0-4.44-4.44H648.1a4.43,4.43,0,0,0-4.43,4.44Z"/><rect class="cls-4" x="655.15" y="145.59" width="41.76" height="41.76" rx="11.52" ry="11.52"/><path class="cls-4" d="M652.34,182.92a4.43,4.43,0,0,0,4.44,4.43h20.91a4.43,4.43,0,0,0,4.44-4.43h0a4.44,4.44,0,0,0-4.44-4.44H656.78a4.44,4.44,0,0,0-4.44,4.44Z"/><path class="cls-4" d="M647.71,172.06a4.44,4.44,0,0,0,4.43,4.44H684.8a4.44,4.44,0,0,0,4.44-4.44h0a4.44,4.44,0,0,0-4.44-4.43H652.14a4.44,4.44,0,0,0-4.43,4.43Z"/><path class="cls-4" d="M630,150.05a4.44,4.44,0,0,0,4.44,4.44h32.66a4.44,4.44,0,0,0,4.44-4.44h0a4.44,4.44,0,0,0-4.44-4.44H634.39a4.44,4.44,0,0,0-4.44,4.44Z"/><path class="cls-4" d="M734.36,182.72H691.77A7.82,7.82,0,0,1,684,174.9V162.2a7.82,7.82,0,0,1,7.82-7.82h42.59Z"/><path class="cls-4" d="M683.74,143.55H666.82a6.56,6.56,0,0,1-6.55-6.56v-2.18a2.45,2.45,0,0,1,0-.27h14.45Z"/><path class="cls-4" d="M681.32,149.19l-11-11a6.55,6.55,0,0,1-1.85-3.69h10.89l14.68,14.69Z"/><path class="cls-4" d="M681.25,109a11.52,11.52,0,0,0,11.52-11.52V78.75a11.52,11.52,0,0,0-11.52-11.52H662.52A11.52,11.52,0,0,0,651,78.75V97.47A11.52,11.52,0,0,0,662.52,109Z"/><path class="cls-4" d="M636.36,71.66a4.44,4.44,0,0,1,4.43-4.43h32.66a4.44,4.44,0,0,1,4.44,4.43h0a4.44,4.44,0,0,1-4.44,4.44H640.79a4.44,4.44,0,0,1-4.43-4.44Z"/><path class="cls-4" d="M625.81,82.52a4.44,4.44,0,0,1,4.44-4.44h32.66a4.44,4.44,0,0,1,4.43,4.44h0A4.43,4.43,0,0,1,662.91,87H630.25a4.43,4.43,0,0,1-4.44-4.43Z"/><path class="cls-4" d="M625.81,104.53a4.43,4.43,0,0,1,4.44-4.43h32.66a4.43,4.43,0,0,1,4.43,4.43h0a4.44,4.44,0,0,1-4.43,4.44H630.25a4.44,4.44,0,0,1-4.44-4.44Z"/><path class="cls-4" d="M615.26,93.52a4.44,4.44,0,0,1,4.44-4.43h32.66a4.43,4.43,0,0,1,4.43,4.43h0A4.43,4.43,0,0,1,652.36,98H619.7a4.44,4.44,0,0,1-4.44-4.44Z"/><path class="cls-4" d="M720.36,71.86H677.77A7.8,7.8,0,0,0,670,79.68v12.7a7.81,7.81,0,0,0,7.81,7.82h42.59Z"/><path class="cls-4" d="M679.59,111H662.67a6.55,6.55,0,0,0-6.55,6.55v2.18a2.45,2.45,0,0,0,0,.27h14.45Z"/><path class="cls-4" d="M677.17,105.4l-11,11a6.47,6.47,0,0,0-1.84,3.69h10.88l14.69-14.68Z"/><rect class="cls-8" x="706.03" y="149.03" width="21.57" height="42.33"/><rect class="cls-5" x="710.06" y="147.44" width="97.85" height="45.53"/><rect class="cls-9" x="710.06" y="147.44" width="3.39" height="45.53"/><rect class="cls-10" x="706.03" y="170.22" width="4.03" height="21.14"/><rect class="cls-9" x="713.45" y="170.22" width="94.46" height="22.74"/><polygon class="cls-9" points="710.06 170.22 713.45 170.22 713.45 192.96 710.06 192.96 710.06 191.37 710.06 170.22"/><path class="cls-10" d="M720.1,188.08a2.17,2.17,0,1,0-2.17-2.17A2.17,2.17,0,0,0,720.1,188.08Z"/><rect class="cls-8" x="697.56" y="62.99" width="21.57" height="42.33"/><rect class="cls-5" x="701.58" y="61.4" width="106.33" height="45.53"/><rect class="cls-9" x="701.58" y="61.4" width="3.39" height="45.53"/><rect class="cls-10" x="697.56" y="62.99" width="4.03" height="21.15"/><rect class="cls-9" x="704.98" y="61.4" width="102.94" height="22.74"/><polygon class="cls-9" points="701.58 84.14 704.98 84.14 704.98 61.4 701.58 61.4 701.58 62.99 701.58 84.14"/><path class="cls-10" d="M711.62,66.28a2.17,2.17,0,1,1-2.16,2.17A2.17,2.17,0,0,1,711.62,66.28Z"/><path class="cls-6" d="M322.37,54.29V60.2a1.49,1.49,0,0,0,1.48,1.48h3.41a24.42,24.42,0,0,0,.92,3.63l-3.06,1.77a1.47,1.47,0,0,0-.54,2l3,5.13a1.48,1.48,0,0,0,2,.54l2.95-1.71a23.69,23.69,0,0,0,2.62,2.68l-1.77,3.07a1.48,1.48,0,0,0,.54,2l5.12,3a1.47,1.47,0,0,0,2-.54l1.7-2.94a26.07,26.07,0,0,0,3.61,1v3.54a1.47,1.47,0,0,0,1.48,1.47h5.91a1.47,1.47,0,0,0,1.48-1.47V81.42a23,23,0,0,0,3.63-.92l1.77,3.06a1.47,1.47,0,0,0,2,.54l5.12-2.95a1.47,1.47,0,0,0,.54-2l-1.71-3a22.86,22.86,0,0,0,2.69-2.61l3.06,1.76a1.47,1.47,0,0,0,2-.54l3-5.12a1.47,1.47,0,0,0-.54-2l-2.95-1.71a22.94,22.94,0,0,0,1-3.61h3.53a1.49,1.49,0,0,0,1.49-1.48V54.94a1.48,1.48,0,0,0-1.48-1.48H375a24.4,24.4,0,0,0-.91-3.63l3.06-1.77a1.49,1.49,0,0,0,.54-2l-3-5.11a1.48,1.48,0,0,0-2-.55l-3,1.71a22.78,22.78,0,0,0-2.61-2.68l1.77-3.07a1.46,1.46,0,0,0-.54-2l-5.12-3a1.47,1.47,0,0,0-2,.54l-1.7,2.95a24.78,24.78,0,0,0-3.61-1V30.31a1.48,1.48,0,0,0-1.49-1.48h-5.9A1.48,1.48,0,0,0,347,30.31v3.41a24.55,24.55,0,0,0-3.64.92l-1.76-3.06a1.49,1.49,0,0,0-2-.55l-5.12,3a1.48,1.48,0,0,0-.54,2l1.7,2.95A23.6,23.6,0,0,0,333,41.58l-3.06-1.77a1.49,1.49,0,0,0-2,.55l-3,5.11a1.49,1.49,0,0,0,.54,2l2.95,1.7a24.44,24.44,0,0,0-1,3.61h-3.53A1.48,1.48,0,0,0,322.37,54.29Zm13.41,3.28a15.34,15.34,0,1,1,15.33,15.34A15.33,15.33,0,0,1,335.78,57.57Z"/><path class="cls-7" d="M351.63,72.89a15.33,15.33,0,0,0,0-30.64V28.83h2.76a1.48,1.48,0,0,1,1.49,1.48v3.53a24.78,24.78,0,0,1,3.61,1l1.7-2.95a1.47,1.47,0,0,1,2-.54l5.12,3a1.46,1.46,0,0,1,.54,2l-1.77,3.07a22.78,22.78,0,0,1,2.61,2.68l3-1.71a1.48,1.48,0,0,1,2,.55l3,5.11a1.49,1.49,0,0,1-.54,2l-3.06,1.77a24.4,24.4,0,0,1,.91,3.63h3.41a1.48,1.48,0,0,1,1.48,1.48v5.91a1.49,1.49,0,0,1-1.49,1.48h-3.53a22.94,22.94,0,0,1-1,3.61l2.95,1.71a1.47,1.47,0,0,1,.54,2l-3,5.12a1.47,1.47,0,0,1-2,.54l-3.06-1.76a22.86,22.86,0,0,1-2.69,2.61l1.71,3a1.47,1.47,0,0,1-.54,2l-5.12,2.95a1.47,1.47,0,0,1-2-.54l-1.77-3.06a23,23,0,0,1-3.63.92v3.42a1.47,1.47,0,0,1-1.48,1.47h-2.11Z"/><path class="cls-6" d="M332.44,57.57A18.68,18.68,0,1,0,351.11,38.9,18.68,18.68,0,0,0,332.44,57.57Zm3.34,0a15.34,15.34,0,1,1,15.33,15.34A15.33,15.33,0,0,1,335.78,57.57Z"/><path class="cls-7" d="M351.11,38.9h.52v3.34l-.52,0a15.34,15.34,0,0,0,0,30.68l.52,0v3.34l-.52,0a18.68,18.68,0,0,1,0-37.35Z"/><path class="cls-7" d="M144.44,84.8l1.33,4.64a1.21,1.21,0,0,0,1.49.84l2.68-.77a19.78,19.78,0,0,0,1.54,2.64l-2,2.08a1.2,1.2,0,0,0,0,1.7L153,99.29a1.21,1.21,0,0,0,1.71,0l1.93-2a20,20,0,0,0,2.66,1.52l-.7,2.8a1.22,1.22,0,0,0,.88,1.47l4.69,1.17a1.22,1.22,0,0,0,1.46-.88l.67-2.7a19.67,19.67,0,0,0,3.07,0l.79,2.78a1.21,1.21,0,0,0,1.5.82l4.64-1.33a1.19,1.19,0,0,0,.82-1.49l-.76-2.68A20.24,20.24,0,0,0,179,97.17l2.08,2a1.2,1.2,0,0,0,1.7,0l3.36-3.47a1.19,1.19,0,0,0,0-1.7l-2-1.94a21.22,21.22,0,0,0,1.52-2.66l2.8.7a1.21,1.21,0,0,0,1.46-.88L191,84.5a1.21,1.21,0,0,0-.88-1.46l-2.7-.67a19.67,19.67,0,0,0,0-3.07l2.77-.79a1.22,1.22,0,0,0,.83-1.5l-1.33-4.64a1.22,1.22,0,0,0-1.5-.83l-2.68.77A18.21,18.21,0,0,0,184,69.67l2-2.08a1.21,1.21,0,0,0,0-1.71l-3.47-3.35a1.23,1.23,0,0,0-1.72,0l-1.93,2a18.8,18.8,0,0,0-2.66-1.51l.7-2.81a1.2,1.2,0,0,0-.87-1.46l-4.69-1.17a1.21,1.21,0,0,0-1.47.88l-.67,2.7a19.54,19.54,0,0,0-3.06,0l-.8-2.77a1.21,1.21,0,0,0-1.49-.83l-4.64,1.33a1.21,1.21,0,0,0-.83,1.5l.77,2.68a18.31,18.31,0,0,0-2.65,1.54l-2.08-2a1.2,1.2,0,0,0-1.7,0l-3.35,3.47a1.21,1.21,0,0,0,0,1.71l2,1.94a18.86,18.86,0,0,0-1.52,2.66l-2.8-.7a1.22,1.22,0,0,0-1.47.88l-1.17,4.68a1.22,1.22,0,0,0,.88,1.47l2.7.67a21,21,0,0,0,0,3.07l-2.77.79A1.2,1.2,0,0,0,144.44,84.8Zm15.13-1.55a8.5,8.5,0,1,1,10.51,5.83A8.5,8.5,0,0,1,159.57,83.25Z"/><path class="cls-1" d="M479.94,153.2q3.33,9.93,6.67,19.88h-58q3.34-9.95,6.68-19.88Z"/><path class="cls-4" d="M425.32,171.21h64.59a3.26,3.26,0,0,1,3,3.49V176H422.35V174.7A3.26,3.26,0,0,1,425.32,171.21Z"/><path class="cls-4" d="M554.74,136.67v13.88a4.83,4.83,0,0,1-4.84,4.83H365.32a4.83,4.83,0,0,1-4.83-4.83V136.67Z"/><path class="cls-9" d="M360.49,136.67V19.17a4.84,4.84,0,0,1,4.83-4.84H549.9a4.83,4.83,0,0,1,4.84,4.84v117.5Z"/><rect class="cls-7" x="368.73" y="22.16" width="177.78" height="106.2"/><rect class="cls-4" x="482.14" y="35.65" width="54.96" height="46.34" rx="2.34" ry="2.34"/><path class="cls-2" d="M484.48,35.94h50.29a2,2,0,0,1,2,2V79.65a2,2,0,0,1-2,2H484.48a2.05,2.05,0,0,1-2.05-2V38a2.05,2.05,0,0,1,2.05-2m0-.59A2.63,2.63,0,0,0,481.85,38V79.65a2.63,2.63,0,0,0,2.63,2.63h50.29a2.63,2.63,0,0,0,2.63-2.63V38a2.63,2.63,0,0,0-2.63-2.63Z"/><path class="cls-2" d="M484.48,35.35h50.29A2.63,2.63,0,0,1,537.4,38v5H481.85V38A2.63,2.63,0,0,1,484.48,35.35Z"/><path class="cls-4" d="M532,39.24a1.47,1.47,0,1,0,1.47-1.47A1.47,1.47,0,0,0,532,39.24Z"/><path class="cls-4" d="M527.91,39.24a1.47,1.47,0,1,0,1.47-1.47A1.47,1.47,0,0,0,527.91,39.24Z"/><path class="cls-4" d="M523.8,39.24a1.47,1.47,0,1,0,1.47-1.47A1.48,1.48,0,0,0,523.8,39.24Z"/><rect class="cls-4" x="485.68" y="37.92" width="34.02" height="2.64"/><rect class="cls-2" x="522.34" y="47.02" width="12.07" height="1.09"/><rect class="cls-2" x="521.46" y="70.05" width="12.95" height="1.09"/><rect class="cls-2" x="486.17" y="73.23" width="48.24" height="1.09"/><rect class="cls-2" x="486.17" y="76.4" width="48.24" height="1.09"/><rect class="cls-2" x="485.93" y="47.02" width="7.67" height="1.09"/><rect class="cls-2" x="495.61" y="47.02" width="7.67" height="1.09"/><rect class="cls-2" x="505.29" y="47.02" width="7.67" height="1.09"/><rect class="cls-2" x="485.93" y="52.24" width="48.49" height="14.51"/><path class="cls-2" d="M485.65,67V52h49V67Zm48.48-.55V52.52H486.21V66.47Z"/><polygon class="cls-2" points="526.21 66.74 485.93 66.74 485.93 52.24 502.29 52.24 526.21 66.74"/><path class="cls-4" d="M466.92,76.27h50.29a2.33,2.33,0,0,1,2.33,2.33v41.66a2.34,2.34,0,0,1-2.34,2.34H466.92a2.33,2.33,0,0,1-2.33-2.33V78.6a2.33,2.33,0,0,1,2.33-2.33Z"/><path class="cls-2" d="M466.92,76.56h50.29a2.05,2.05,0,0,1,2,2v41.66a2,2,0,0,1-2,2H466.92a2,2,0,0,1-2.05-2V78.61a2.05,2.05,0,0,1,2.05-2m0-.58a2.63,2.63,0,0,0-2.63,2.63v41.66a2.63,2.63,0,0,0,2.63,2.63h50.29a2.63,2.63,0,0,0,2.63-2.63V78.61A2.63,2.63,0,0,0,517.21,76Z"/><path class="cls-2" d="M466.92,76h50.29a2.63,2.63,0,0,1,2.63,2.63v5H464.29v-5A2.63,2.63,0,0,1,466.92,76Z"/><path class="cls-4" d="M514.46,79.86a1.47,1.47,0,1,0,1.47-1.46A1.47,1.47,0,0,0,514.46,79.86Z"/><path class="cls-4" d="M510.35,79.86a1.47,1.47,0,1,0,1.47-1.46A1.47,1.47,0,0,0,510.35,79.86Z"/><path class="cls-4" d="M506.25,79.86a1.47,1.47,0,1,0,1.47-1.46A1.47,1.47,0,0,0,506.25,79.86Z"/><rect class="cls-4" x="468.12" y="78.54" width="34.02" height="2.64"/><rect class="cls-2" x="504.78" y="87.64" width="12.07" height="1.09"/><rect class="cls-2" x="468.37" y="87.64" width="7.67" height="1.09"/><rect class="cls-2" x="478.05" y="87.64" width="7.67" height="1.09"/><rect class="cls-2" x="487.73" y="87.64" width="7.67" height="1.09"/><rect class="cls-2" x="507.28" y="92.86" width="9.57" height="10.54"/><path class="cls-2" d="M507,103.7V92.57h10.16V103.7Zm9.57-.59v-10h-9v10Z"/><path class="cls-2" d="M507.28,103.7a.3.3,0,0,1-.29-.3V92.86a.28.28,0,0,1,.18-.27.31.31,0,0,1,.33.08l9.57,10.54a.27.27,0,0,1,0,.31.28.28,0,0,1-.27.18Zm8.91-.59-8.62-9.49v9.49Z"/><path class="cls-2" d="M507.28,103.7a.29.29,0,0,1-.27-.18.31.31,0,0,1,.05-.31l9.58-10.54a.3.3,0,0,1,.32-.08.29.29,0,0,1,.19.27V103.4a.3.3,0,0,1-.3.3Zm9.28-.59V93.62l-8.62,9.49Z"/><rect class="cls-2" x="494.31" y="92.86" width="9.58" height="10.54"/><path class="cls-2" d="M494,103.7V92.57h10.16V103.7Zm9.57-.59v-10h-9v10Z"/><path class="cls-2" d="M494.31,103.7a.3.3,0,0,1-.29-.3V92.86a.28.28,0,0,1,.18-.27.31.31,0,0,1,.33.08l9.57,10.53a.29.29,0,0,1,0,.32.28.28,0,0,1-.26.18Zm8.91-.59-8.62-9.49v9.49Z"/><path class="cls-2" d="M494.31,103.7a.29.29,0,0,1-.27-.18.29.29,0,0,1,0-.32l9.58-10.53a.3.3,0,0,1,.32-.08.29.29,0,0,1,.19.27V103.4a.3.3,0,0,1-.29.3Zm9.28-.59V93.62L495,103.11Z"/><rect class="cls-7" x="481.34" y="92.86" width="9.58" height="10.54"/><rect class="cls-2" x="468.37" y="92.86" width="9.57" height="10.54"/><path class="cls-2" d="M468.08,103.7V92.57h10.16V103.7Zm9.57-.59v-10h-9v10Z"/><path class="cls-2" d="M468.37,103.7a.3.3,0,0,1-.29-.3V92.86a.28.28,0,0,1,.18-.27.31.31,0,0,1,.33.08l9.57,10.54a.27.27,0,0,1,0,.31.28.28,0,0,1-.27.18Zm8.91-.59-8.62-9.49v9.49Z"/><path class="cls-2" d="M468.37,103.7a.29.29,0,0,1-.27-.18.27.27,0,0,1,0-.31l9.58-10.54a.3.3,0,0,1,.32-.08.29.29,0,0,1,.19.27V103.4a.3.3,0,0,1-.3.3Zm9.28-.59V93.62L469,103.11Z"/><rect class="cls-2" x="507.28" y="106.35" width="9.57" height="10.54"/><path class="cls-2" d="M507,117.19V106.06h10.16v11.13Zm9.57-.59v-9.95h-9v9.95Z"/><path class="cls-2" d="M507.28,117.19a.29.29,0,0,1-.29-.29V106.35a.28.28,0,0,1,.18-.27.31.31,0,0,1,.33.08l9.57,10.54a.27.27,0,0,1,0,.31.28.28,0,0,1-.27.18Zm8.91-.59-8.62-9.49v9.49Z"/><path class="cls-2" d="M507.28,117.19A.29.29,0,0,1,507,117a.31.31,0,0,1,.05-.31l9.58-10.54a.3.3,0,0,1,.32-.08.29.29,0,0,1,.19.27V116.9a.29.29,0,0,1-.3.29Zm9.28-.59v-9.49l-8.62,9.49Z"/><rect class="cls-2" x="494.31" y="106.35" width="9.58" height="10.54"/><path class="cls-2" d="M494,117.19V106.06h10.16v11.13Zm9.57-.59v-9.95h-9v9.95Z"/><path class="cls-2" d="M494.31,117.19a.29.29,0,0,1-.29-.29V106.35a.28.28,0,0,1,.18-.27.31.31,0,0,1,.33.08l9.57,10.54a.27.27,0,0,1,0,.31.28.28,0,0,1-.26.18Zm8.91-.59-8.62-9.49v9.49Z"/><path class="cls-2" d="M494.31,117.19A.29.29,0,0,1,494,117a.27.27,0,0,1,0-.31l9.58-10.54a.3.3,0,0,1,.32-.08.29.29,0,0,1,.19.27V116.9a.29.29,0,0,1-.29.29Zm9.28-.59v-9.49L495,116.6Z"/><rect class="cls-2" x="481.34" y="106.35" width="9.58" height="10.54"/><path class="cls-2" d="M481.05,117.19V106.06h10.16v11.13Zm9.57-.59v-9.95h-9v9.95Z"/><path class="cls-2" d="M481.34,117.19a.29.29,0,0,1-.29-.29V106.35a.28.28,0,0,1,.18-.27.31.31,0,0,1,.33.08l9.57,10.54a.27.27,0,0,1,.05.31.28.28,0,0,1-.26.18Zm8.91-.59-8.62-9.49v9.49Z"/><path class="cls-2" d="M481.34,117.19a.29.29,0,0,1-.27-.18.27.27,0,0,1,.05-.31l9.58-10.54a.3.3,0,0,1,.32-.08.29.29,0,0,1,.19.27V116.9a.29.29,0,0,1-.29.29Zm9.28-.59v-9.49L482,116.6Z"/><rect class="cls-2" x="468.37" y="106.35" width="9.57" height="10.54"/><path class="cls-2" d="M468.08,117.19V106.06h10.16v11.13Zm9.57-.59v-9.95h-9v9.95Z"/><path class="cls-2" d="M468.37,117.19a.29.29,0,0,1-.29-.29V106.35a.28.28,0,0,1,.18-.27.31.31,0,0,1,.33.08l9.57,10.54a.27.27,0,0,1,0,.31.28.28,0,0,1-.27.18Zm8.91-.59-8.62-9.49v9.49Z"/><path class="cls-2" d="M468.37,117.19a.29.29,0,0,1-.27-.18.27.27,0,0,1,0-.31l9.58-10.54a.3.3,0,0,1,.32-.08.29.29,0,0,1,.19.27V116.9a.29.29,0,0,1-.3.29Zm9.28-.59v-9.49L469,116.6Z"/><polygon class="cls-4" points="483.24 97.81 488.45 96.45 487.09 101.66 486.18 100.01 484.55 101.64 483.26 100.35 484.89 98.72 483.24 97.81"/><rect class="cls-4" x="382.39" y="47.16" width="91.7" height="67.54" rx="4.07" ry="4.07"/><path class="cls-2" d="M386.46,47.45H470a3.78,3.78,0,0,1,3.78,3.78v59.39A3.78,3.78,0,0,1,470,114.4H386.46a3.78,3.78,0,0,1-3.78-3.78V51.23a3.79,3.79,0,0,1,3.78-3.78m0-.58a4.36,4.36,0,0,0-4.36,4.36v59.39a4.37,4.37,0,0,0,4.36,4.37H470a4.37,4.37,0,0,0,4.37-4.37V51.23A4.37,4.37,0,0,0,470,46.87Z"/><rect class="cls-2" x="449.37" y="58.36" width="20.06" height="1.81"/><rect class="cls-2" x="388.87" y="58.36" width="12.74" height="1.81"/><rect class="cls-2" x="404.95" y="58.36" width="12.74" height="1.81"/><rect class="cls-2" x="421.03" y="58.36" width="12.74" height="1.81"/><rect class="cls-2" x="433.15" y="67.03" width="36.27" height="39.92"/><path class="cls-2" d="M432.67,107.44V66.55h37.24v40.89Zm36.26-1V67.52H433.64v39Z"/><path class="cls-2" d="M433.15,107.44a.49.49,0,0,1-.48-.49V67a.48.48,0,0,1,.31-.45.5.5,0,0,1,.54.13l36.26,39.92a.47.47,0,0,1,.09.52.49.49,0,0,1-.45.29Zm35.17-1L433.64,68.29v38.18Z"/><path class="cls-2" d="M433.15,107.44a.48.48,0,0,1-.44-.29.47.47,0,0,1,.08-.52l36.27-39.92a.5.5,0,0,1,.54-.13.49.49,0,0,1,.31.45V107a.49.49,0,0,1-.49.49Zm35.78-1V68.29l-34.67,38.18Z"/><rect class="cls-7" x="406.32" y="67.79" width="21.52" height="2.94"/><rect class="cls-2" x="388.95" y="75.26" width="38.89" height="1.81"/><rect class="cls-2" x="394.79" y="80.81" width="33.05" height="1.81"/><rect class="cls-2" x="391.22" y="86.36" width="36.62" height="1.81"/><rect class="cls-2" x="399.34" y="91.91" width="28.51" height="1.81"/><rect class="cls-7" x="415.26" y="98.94" width="12.59" height="5.28"/><rect class="cls-4" x="417.37" y="100.68" width="8.36" height="1.81"/><path class="cls-2" d="M384.72,46.87h87a2.63,2.63,0,0,1,2.63,2.63v5H382.1v-5A2.62,2.62,0,0,1,384.72,46.87Z"/><path class="cls-4" d="M469,50.75a1.47,1.47,0,1,0,2.93,0,1.47,1.47,0,0,0-2.93,0Z"/><path class="cls-4" d="M464.89,50.75a1.47,1.47,0,1,0,1.47-1.46A1.47,1.47,0,0,0,464.89,50.75Z"/><path class="cls-4" d="M460.79,50.75a1.47,1.47,0,1,0,2.93,0,1.47,1.47,0,0,0-2.93,0Z"/><rect class="cls-4" x="385.92" y="49.43" width="70.76" height="2.64"/><path class="cls-4" d="M705.66,177.64a5.33,5.33,0,0,1-1.72-.25,3.78,3.78,0,0,1-1.26-.67,2.91,2.91,0,0,1-.78-1,3.12,3.12,0,0,1-.27-1.3q0-1.95,2.28-2.46a3.8,3.8,0,0,1-.88-.43,2.77,2.77,0,0,1-.61-.56,2.29,2.29,0,0,1-.36-.67,2.6,2.6,0,0,1-.11-.74,3,3,0,0,1,.23-1.23,2.21,2.21,0,0,1,.72-.92,3.51,3.51,0,0,1,1.26-.59,7.11,7.11,0,0,1,1.86-.21h3.81v11.06Zm2.11-9.47H706a2.5,2.5,0,0,0-1.53.37,1.42,1.42,0,0,0-.49,1.23,1.4,1.4,0,0,0,.54,1.22,2.78,2.78,0,0,0,1.59.38h1.64Zm-2.08,4.62a3.46,3.46,0,0,0-.92.11,1.62,1.62,0,0,0-.63.31,1.18,1.18,0,0,0-.36.49,1.83,1.83,0,0,0-.11.64,2,2,0,0,0,.1.65,1.34,1.34,0,0,0,.34.54,1.61,1.61,0,0,0,.62.36,2.63,2.63,0,0,0,1,.14h2.08v-3.24Z"/><path class="cls-4" d="M693.81,173.32a1.14,1.14,0,0,0-.47.08.83.83,0,0,0-.28.28l-2.33,3.54a.84.84,0,0,1-.31.31,1,1,0,0,1-.46.11h-1.85l2.77-4.08a2,2,0,0,1,.67-.64,3.93,3.93,0,0,1-1-.49,3.09,3.09,0,0,1-.77-.71,3,3,0,0,1-.47-.9,3.32,3.32,0,0,1-.17-1.06,3.37,3.37,0,0,1,.24-1.29,2.54,2.54,0,0,1,.76-1,3.55,3.55,0,0,1,1.32-.65,6.9,6.9,0,0,1,1.94-.24h3.37v11.06h-2v-4.32Zm.88-5.15h-1.32a2.64,2.64,0,0,0-1.69.45,1.59,1.59,0,0,0-.56,1.3,2.15,2.15,0,0,0,.14.77,1.67,1.67,0,0,0,.42.61,1.94,1.94,0,0,0,.71.4,3.37,3.37,0,0,0,1,.14h1.29Z"/><path class="cls-4" d="M678.36,166.58h2.11l4.34,11.06h-1.6a.73.73,0,0,1-.68-.47l-.83-2.25h-4.58l-.82,2.25a.73.73,0,0,1-.25.33.68.68,0,0,1-.44.14H674Zm1.47,3.22c-.07-.17-.13-.36-.2-.59s-.14-.46-.21-.72c-.07.26-.15.5-.22.72s-.14.41-.2.58l-1.35,3.67h3.53Z"/><path class="cls-4" d="M668.75,166.58h1.07v11.06H668v-6.79c0-.13,0-.28,0-.44s0-.32,0-.49l-5.78,7.37a.87.87,0,0,1-.32.27.92.92,0,0,1-.4.08H660.5V166.58h1.81v6.72c0,.15,0,.31,0,.48s0,.35,0,.52l5.8-7.39a.86.86,0,0,1,.15-.17.61.61,0,0,1,.14-.1.69.69,0,0,1,.17,0Z"/><path class="cls-4" d="M645.79,169.88A5,5,0,0,1,648.7,167a6.22,6.22,0,0,1,2.29-.41h4.22v11.06H651a6.22,6.22,0,0,1-2.29-.41,5,5,0,0,1-2.91-2.89,6.42,6.42,0,0,1,0-4.46Zm2,3.86a3.38,3.38,0,0,0,.69,1.22,2.85,2.85,0,0,0,1.1.77A3.76,3.76,0,0,0,651,176h2.14v-7.78H651a3.76,3.76,0,0,0-1.46.27,2.94,2.94,0,0,0-1.1.76,3.51,3.51,0,0,0-.69,1.23,5.44,5.44,0,0,0,0,3.26Z"/><path class="cls-4" d="M638.4,166.58h2.07v11.06H638.4Z"/><path class="cls-4" d="M631.78,166.58h1.08v11.06h-1.81v-6.79c0-.13,0-.28,0-.44l0-.49-5.78,7.37a.85.85,0,0,1-.31.27,1,1,0,0,1-.41.08h-1.06V166.58h1.81v6.72c0,.15,0,.31,0,.48s0,.35,0,.52l5.8-7.39a1.36,1.36,0,0,1,.16-.17.45.45,0,0,1,.14-.1l.16,0Z"/><path class="cls-4" d="M614.62,175.85a3.22,3.22,0,0,0,1.14-.78,3.44,3.44,0,0,0,.75-1.26,5,5,0,0,0,.27-1.7,4.81,4.81,0,0,0-.25-1.61,3.66,3.66,0,0,0-.72-1.23,3.1,3.1,0,0,0-1.13-.78,3.69,3.69,0,0,0-1.48-.28,4.8,4.8,0,0,0-.89.07,4.07,4.07,0,0,0-.69.18,3,3,0,0,0-.57.25l-.5.29a.7.7,0,0,1-.37.12.53.53,0,0,1-.47-.28l-.6-.94a5.63,5.63,0,0,1,1.68-1,6.16,6.16,0,0,1,2.34-.4,6.65,6.65,0,0,1,2.39.41,5.24,5.24,0,0,1,1.81,1.17,5.16,5.16,0,0,1,1.15,1.78,6.3,6.3,0,0,1,.4,2.29,6.19,6.19,0,0,1-.41,2.27,5.48,5.48,0,0,1-1.16,1.79,5.32,5.32,0,0,1-1.76,1.17,5.77,5.77,0,0,1-2.22.42,10,10,0,0,1-1.27-.07,7.27,7.27,0,0,1-1.11-.22,5.9,5.9,0,0,1-1-.37,7.34,7.34,0,0,1-.88-.53v-4.48h3.68v1.17a.4.4,0,0,1-.11.27.46.46,0,0,1-.32.11H611v2a4.63,4.63,0,0,0,2.19.47A3.87,3.87,0,0,0,614.62,175.85Z"/><path class="cls-4" d="M113,122.19l14.91-14.9a8.82,8.82,0,0,1,5-2.5v14.76L113,139.47Z"/><path class="cls-4" d="M120.65,125.48v-23a8.88,8.88,0,0,1,8.88-8.88h3l.37,0v19.6Z"/><path class="cls-5" d="M142.68,101.07l-95.8,33.47a23.61,23.61,0,0,1-32.64,20L27.54,150l3.22-16.31L18.24,122.74,0,129a23.63,23.63,0,0,1,40.85-12.11L136.64,83.4a23.6,23.6,0,0,1,36.69-17.8l-17,5.81-2.63,13.38,10.27,9L183.77,87a23.63,23.63,0,0,1-41.09,14.07Z"/><path class="cls-9" d="M142.68,101.07l-95.8,33.47a23.61,23.61,0,0,1-32.64,20L27.54,150l3.22-16.31-4.34-3.78,128-44.45,9.55,8.35L183.77,87a23.63,23.63,0,0,1-41.09,14.07Z"/><path class="cls-4" d="M67.52,180.78V123a10.59,10.59,0,0,1,10.6-10.6H95.34a10.59,10.59,0,0,1,10.6,10.6v57.77Z"/><rect class="cls-7" x="60.05" y="164.04" width="52.28" height="32.12"/><rect class="cls-6" x="60.05" y="164.04" width="26.11" height="33.73"/><rect class="cls-9" x="58.08" y="194.32" width="28.08" height="49.99"/><rect class="cls-5" x="86.18" y="194.32" width="28.12" height="49.99"/><path class="cls-4" d="M102.91,77.15v9.59a15.35,15.35,0,0,1,2.9.39V77a6,6,0,1,1,12,0v24.7c0,.23,0,.45,0,.68v25.39a15.62,15.62,0,0,1-15.62,15.63H76.86a15.63,15.63,0,0,1-15.63-15.63V88.91A6,6,0,0,1,73,87.21a15.32,15.32,0,0,1,3-.46V82.62a6,6,0,0,1,12,0V86.7h2.9V77.15a6,6,0,1,1,12,0Z"/><path class="cls-9" d="M229,112.35a48.78,48.78,0,1,0,19-66.3A48.77,48.77,0,0,0,229,112.35ZM261,94.59a12.12,12.12,0,1,1,16.47,4.73A12.12,12.12,0,0,1,261,94.59Z"/><path class="cls-9" d="M238.8,53.47a.62.62,0,0,0,.87.1l3.87-3.08a.61.61,0,0,0,.1-.86L240.72,46a.63.63,0,0,0-.87-.1L236,48.93a.62.62,0,0,0-.1.87Z"/><rect class="cls-9" x="251.93" y="38.2" width="6.18" height="5.93" rx="0.62" ry="0.62" transform="translate(0.13 83.1) rotate(-18.51)"/><rect class="cls-9" x="269.32" y="35.26" width="5.93" height="6.18" rx="0.62" ry="0.62" transform="translate(226.89 309.55) rotate(-88.51)"/><rect class="cls-9" x="286.51" y="38.53" width="5.93" height="6.18" rx="0.62" ry="0.62" transform="translate(144.73 295.74) rotate(-68.52)"/><rect class="cls-9" x="301.54" y="47.47" width="5.93" height="6.18" rx="0.62" ry="0.62" transform="translate(64.95 245.22) rotate(-48.52)"/><rect class="cls-9" x="312.61" y="61.02" width="5.93" height="6.18" rx="0.62" ry="0.62" transform="translate(7.66 158.38) rotate(-28.51)"/><path class="cls-9" d="M318.56,77.91a.62.62,0,0,0-.52.7l.73,4.89a.63.63,0,0,0,.71.52l4.64-.69a.62.62,0,0,0,.52-.71l-.73-4.89a.62.62,0,0,0-.71-.51Z"/><path class="cls-9" d="M319.43,94.62a.61.61,0,0,0-.73.48l-1,4.84a.62.62,0,0,0,.49.73l4.6.93a.62.62,0,0,0,.73-.48l1-4.84a.62.62,0,0,0-.48-.73Z"/><path class="cls-9" d="M314.53,110.61a.62.62,0,0,0-.85.2L311.1,115a.63.63,0,0,0,.2.86l4,2.45a.61.61,0,0,0,.84-.21l2.59-4.21a.63.63,0,0,0-.21-.85Z"/><path class="cls-9" d="M304.45,124a.61.61,0,0,0-.86-.1l-3.87,3.08a.61.61,0,0,0-.1.87l2.92,3.67a.62.62,0,0,0,.87.1l3.87-3.08a.63.63,0,0,0,.1-.87Z"/><path class="cls-9" d="M290.42,133.06a.62.62,0,0,0-.78-.39L285,134.24a.62.62,0,0,0-.39.78l1.49,4.45a.61.61,0,0,0,.78.39l4.69-1.57a.61.61,0,0,0,.39-.78Z"/><path class="cls-9" d="M274.12,136.81a.61.61,0,0,0-.6-.63l-4.94-.13a.62.62,0,0,0-.64.6l-.12,4.7a.61.61,0,0,0,.6.63l4.95.13a.63.63,0,0,0,.63-.61Z"/><path class="cls-9" d="M257.52,134.76a.62.62,0,0,0-.35-.8l-4.6-1.81a.62.62,0,0,0-.8.35l-1.72,4.37a.62.62,0,0,0,.35.8l4.6,1.81a.62.62,0,0,0,.8-.35Z"/><path class="cls-9" d="M242.62,127.16a.62.62,0,0,0-.05-.87l-3.7-3.27a.62.62,0,0,0-.88,0l-3.11,3.52a.62.62,0,0,0,.06.87l3.7,3.27a.62.62,0,0,0,.87,0Z"/><path class="cls-9" d="M231.22,114.92a.62.62,0,0,0,.25-.84l-2.36-4.34a.62.62,0,0,0-.84-.25l-4.12,2.24a.63.63,0,0,0-.25.84l2.36,4.34a.61.61,0,0,0,.84.25Z"/><path class="cls-9" d="M224.69,99.52a.62.62,0,0,0,.53-.7l-.74-4.89a.61.61,0,0,0-.7-.52l-4.64.7a.61.61,0,0,0-.52.7l.73,4.89a.63.63,0,0,0,.7.52Z"/><path class="cls-9" d="M223.83,82.82a.62.62,0,0,0,.73-.49l1-4.84a.62.62,0,0,0-.48-.73l-4.6-.93a.62.62,0,0,0-.73.48l-1,4.84a.61.61,0,0,0,.48.73Z"/><path class="cls-9" d="M228.73,66.82a.62.62,0,0,0,.85-.2l2.58-4.21a.62.62,0,0,0-.2-.85l-4-2.46a.61.61,0,0,0-.84.21l-2.59,4.21a.63.63,0,0,0,.21.85Z"/><path class="cls-5" d="M271.61,128.72a40.17,40.17,0,0,1-38.43-29A40,40,0,0,1,260.6,50.27a40,40,0,0,1,49.48,27.42,40,40,0,0,1-38.47,51Zm0-76.11a36.33,36.33,0,0,0-10,1.41,36.09,36.09,0,0,0-24.74,44.65,36,36,0,0,0,44.64,24.74,36.09,36.09,0,0,0,24.74-44.65,36.24,36.24,0,0,0-34.67-26.15Z"/><path class="cls-5" d="M271.62,110.94a22.32,22.32,0,0,1-21.35-16.1,22.24,22.24,0,0,1,21.37-28.35,22.22,22.22,0,0,1,19.42,33,22.27,22.27,0,0,1-19.44,11.45Zm0-43.15a21,21,0,0,0-5.78.82,20.92,20.92,0,0,0-14.34,25.87,21,21,0,0,0,20.1,15.16A20.92,20.92,0,0,0,291.74,83a21,21,0,0,0-20.1-15.16Z"/><path class="cls-5" d="M271.62,115.28a26.59,26.59,0,1,1,7.33-1,26.68,26.68,0,0,1-7.33,1Zm0-51.83a25.27,25.27,0,0,0,0,50.53,25,25,0,0,0,7-1,25.26,25.26,0,0,0-6.95-49.54Z"/><path class="cls-11" d="M273.51,95.28a6.83,6.83,0,1,0-8.45-4.68A6.83,6.83,0,0,0,273.51,95.28Z"/><path class="cls-12" d="M272.31,73.27a.65.65,0,0,0,0-1.3L168.74,68.54a.63.63,0,0,0-.68.63.66.66,0,0,0,.63.67l103.6,3.43Z"/><path class="cls-12" d="M271.57,105.28a.65.65,0,0,0,.08-1.29L165.92,91.83a.64.64,0,0,0-.72.57.65.65,0,0,0,.57.72L271.5,105.28Z"/><path class="cls-2" d="M271.62,105.47a16.82,16.82,0,0,1-16.09-12.13A16.78,16.78,0,0,1,271.64,72a16.76,16.76,0,0,1,0,33.51Zm0-31.87a15.14,15.14,0,0,0-13.23,7.79,15,15,0,0,0-1.31,11.5,15.1,15.1,0,0,0,18.7,10.36,15.12,15.12,0,0,0-4.16-29.65Z"/><path class="cls-3" d="M310.58,185.83l9.88,4.64a2.73,2.73,0,0,0,3.63-1.3l2.68-5.7a43.59,43.59,0,0,0,6.78,1.31l.56,6.51a2.75,2.75,0,0,0,2.95,2.49l10.88-.92a2.73,2.73,0,0,0,2.49-3l-.53-6.28a43.63,43.63,0,0,0,6.54-2.27l3.72,5.37a2.73,2.73,0,0,0,3.8.69l9-6.24a2.71,2.71,0,0,0,.68-3.79L370,172.23a45.5,45.5,0,0,0,4.54-5.24l5.9,2.78a2.73,2.73,0,0,0,3.63-1.31l4.64-9.89a2.72,2.72,0,0,0-1.3-3.62l-5.71-2.68a44.72,44.72,0,0,0,1.32-6.79l6.51-.56A2.71,2.71,0,0,0,392,142l-.91-10.88a2.73,2.73,0,0,0-2.95-2.49l-6.28.53a43.2,43.2,0,0,0-2.26-6.54l5.36-3.73a2.73,2.73,0,0,0,.69-3.8l-6.24-9a2.73,2.73,0,0,0-3.79-.68L370.48,109a43.7,43.7,0,0,0-5.23-4.53L368,98.59a2.74,2.74,0,0,0-1.31-3.65l-9.87-4.64a2.73,2.73,0,0,0-3.64,1.32l-2.68,5.69A44.48,44.48,0,0,0,343.73,96l-.55-6.5a2.74,2.74,0,0,0-2.94-2.5l-10.88.93a2.74,2.74,0,0,0-2.5,3l.53,6.28a43.09,43.09,0,0,0-6.53,2.26L317.13,94a2.73,2.73,0,0,0-3.79-.69l-9,6.23a2.75,2.75,0,0,0-.69,3.82l3.59,5.15a44.49,44.49,0,0,0-4.53,5.23l-5.9-2.78a2.74,2.74,0,0,0-3.64,1.32l-4.64,9.87a2.73,2.73,0,0,0,1.31,3.64l5.7,2.68a44.6,44.6,0,0,0-1.32,6.8l-6.5.54a2.73,2.73,0,0,0-2.49,3l.92,10.87a2.73,2.73,0,0,0,2.95,2.5l6.27-.53a44.25,44.25,0,0,0,2.27,6.53l-5.37,3.73a2.75,2.75,0,0,0-.68,3.81l6.23,8.95a2.73,2.73,0,0,0,3.8.69l5.16-3.59A45.53,45.53,0,0,0,312,176.3l-2.77,5.9A2.73,2.73,0,0,0,310.58,185.83Zm19.89-28.05A19.22,19.22,0,1,1,356,148.56,19.23,19.23,0,0,1,330.47,157.78Z"/><path class="cls-4" d="M364.65,151.57a28.31,28.31,0,0,0-51.2-24.08L291,117l2.18-4.63a2.74,2.74,0,0,1,3.64-1.32l5.9,2.78a44.49,44.49,0,0,1,4.53-5.23l-3.59-5.15a2.75,2.75,0,0,1,.69-3.82l9-6.23a2.73,2.73,0,0,1,3.79.69l3.73,5.37a43.09,43.09,0,0,1,6.53-2.26l-.53-6.28a2.74,2.74,0,0,1,2.5-3L340.24,87a2.74,2.74,0,0,1,2.94,2.5l.55,6.5a44.48,44.48,0,0,1,6.79,1.32l2.68-5.69a2.73,2.73,0,0,1,3.64-1.32l9.87,4.64A2.74,2.74,0,0,1,368,98.59l-2.77,5.89a43.7,43.7,0,0,1,5.23,4.53l5.17-3.59a2.73,2.73,0,0,1,3.79.68l6.24,9a2.73,2.73,0,0,1-.69,3.8l-5.36,3.73a43.2,43.2,0,0,1,2.26,6.54l6.28-.53a2.73,2.73,0,0,1,2.95,2.49L392,142a2.71,2.71,0,0,1-2.48,2.94l-6.51.56a44.72,44.72,0,0,1-1.32,6.79l5.71,2.68a2.72,2.72,0,0,1,1.3,3.62l-1.66,3.54Z"/><path class="cls-3" d="M338.62,175.87a35.49,35.49,0,0,1-32.07-50.58,35.63,35.63,0,0,1,32.12-20.38,35.49,35.49,0,0,1,32.08,50.57,35.65,35.65,0,0,1-32.13,20.39Zm.05-69.66a34.17,34.17,0,0,0-14.56,65.1,33.83,33.83,0,0,0,14.51,3.26,34.18,34.18,0,0,0,14.57-65.1,33.91,33.91,0,0,0-14.52-3.26Z"/><path class="cls-4" d="M338.59,175.86a35.52,35.52,0,0,0,32.16-20.38l-1.18-.55a34.17,34.17,0,0,1-61.85-29.08l-1.17-.56a35.47,35.47,0,0,0,32,50.57Z"/><path class="cls-4" d="M313.61,128.62l7.65,3.59A19.21,19.21,0,1,0,356,148.56l7.65,3.6a27.66,27.66,0,1,1-50.07-23.54Z"/><path class="cls-2" d="M338.63,168.71a28,28,0,0,1-12-2.7,28.31,28.31,0,0,1,12.06-53.94,28,28,0,0,1,12,2.7,28.32,28.32,0,0,1-12.07,53.94Zm0-55.34a27,27,0,0,0-11.51,51.47,26.73,26.73,0,0,0,11.48,2.57,27,27,0,0,0,11.51-51.47,26.73,26.73,0,0,0-11.48-2.57Z"/><path class="cls-2" d="M353.43,117.63a.65.65,0,0,0,.32-1.22l-71.4-40.22a.65.65,0,1,0-.64,1.14l71.4,40.22a.72.72,0,0,0,.32.08Z"/><path class="cls-2" d="M319.36,160.78a.67.67,0,0,0,.46-.18.66.66,0,0,0,0-.92l-55.2-57.1a.65.65,0,1,0-.93.91l55.2,57.09a.59.59,0,0,0,.46.2Z"/><path class="cls-12" d="M167.74,93.26a12.4,12.4,0,0,1-11.87-9,12.36,12.36,0,0,1,11.88-15.75,12.4,12.4,0,0,1,11.86,8.94,12.35,12.35,0,0,1-11.87,15.76Zm0-23.4a11.07,11.07,0,0,0-9.67,5.69A11.05,11.05,0,0,0,167.74,92a11.34,11.34,0,0,0,3-.43,11,11,0,0,0,6.61-5.27,10.9,10.9,0,0,0,1-8.4,11.09,11.09,0,0,0-10.61-8Z"/></g></g></svg>