<svg xmlns="http://www.w3.org/2000/svg" viewBox="0 0 746.01 645.42"><defs><style>.cls-1{fill:#fec00f;}.cls-2{fill:#15b0bf;}.cls-3{fill:#4980bf;}.cls-4{fill:#2c5871;}.cls-5{fill:#ecc197;}.cls-6{fill:#e3e3e3;}.cls-7{fill:#363636;}.cls-8{fill:#525252;}.cls-9{fill:#fff;}.cls-10{fill:#d69d6e;}.cls-11{fill:#5b371b;}.cls-12{fill:#80916a;}.cls-13{fill:#d38a65;}.cls-14{fill:#c07253;}.cls-15{fill:#1c1c1c;}.cls-16{fill:#7c5d44;}.cls-17{fill:#78a3af;}.cls-18{fill:#60472e;}.cls-19{fill:#725837;}.cls-20{fill:#ebae8a;}.cls-21{fill:#828282;}.cls-22{fill:#ac533f;}.cls-23{fill:#de7265;}.cls-24{fill:#a87952;}.cls-25{fill:#c55c53;}.cls-26{fill:#575757;}.cls-27{fill:#c76956;}.cls-28{fill:#926f49;}.cls-29{fill:#fcc397;}.cls-30{fill:#e5e5e5;}.cls-31{fill:#515151;}.cls-32{fill:#9b4e34;}.cls-33{fill:#333;}.cls-34{fill:#ea9f6c;}.cls-35{fill:#663412;}.cls-36{fill:#7b9368;}.cls-37{fill:#ea8c63;}.cls-38{fill:#d87350;}.cls-39{fill:#6b3a25;}.cls-40{fill:#663623;}.cls-41{fill:#828281;}.cls-42{fill:#b77641;}</style></defs><title>Team</title><g id="Calque_2" data-name="Calque 2"><g id="Calque_1-2" data-name="Calque 1"><rect class="cls-1" x="383.07" y="16.7" width="4.97" height="123.89"/><rect class="cls-2" x="541.28" y="324.44" width="123.89" height="4.97"/><rect class="cls-3" x="77.13" y="320.17" width="123.89" height="4.97"/><path class="cls-1" d="M388,171.91h0V155.34h0a169.8,169.8,0,0,0-169.8,169.8h16.57C234.81,240.65,303.55,171.91,388,171.91Z"/><path class="cls-3" d="M251.37,325.17H234.81A153.23,153.23,0,0,0,388,478.38V461.81C312.69,461.81,251.39,400.52,251.37,325.17Z"/><path class="cls-4" d="M524.71,325.19H508.15A120.25,120.25,0,0,1,388,445.25h0v16.56h0A136.66,136.66,0,0,0,524.71,325.19Z"/><rect class="cls-4" x="383.07" y="495.16" width="4.97" height="123.89"/><path class="cls-2" d="M388,205V221.6A103.66,103.66,0,0,1,491.58,325.14v0h16.57v0A120.1,120.1,0,0,0,388,205Z"/><path class="cls-2" d="M635.62,117.06A100.73,100.73,0,1,1,534.89,16.33,100.73,100.73,0,0,1,635.62,117.06Z"/><path class="cls-5" d="M593.64,102.65A14.4,14.4,0,0,0,580,92.74l-21.72-2.53c-4-1.58-7.59-5.46-8.38-8.34l-.24-11c-2.42,1.73-4.72,2.89-7.46,4.66-1.29.31-6.32.46-7.95,0a71.63,71.63,0,0,1-13-9.08l-.49,15.77c-1,2.77-4.79,6.32-8.71,7.92l-21.53,2.65a14.4,14.4,0,0,0-14.19,12c-.05.25-.09.52-.12.78s0,.31,0,.46l0,.29,21.05,17.31,7.75,25.05h60.63l8.37-27h2.24Z"/><rect class="cls-6" x="516.09" y="96.63" width="36.5" height="67.27"/><path class="cls-7" d="M593.44,102.1A14.4,14.4,0,0,0,580,92.74l-21.72-2.53c-.85-.34-3.82-.78-4.61-1.29l-18,70.15L517.2,86.82A18.64,18.64,0,0,1,512,90.09l-21.53,2.65a14.34,14.34,0,0,0-11,5.08l-.06,0a9.07,9.07,0,0,0-.77,1.12,14.12,14.12,0,0,0-1.43,2.58c-5.35,10.45-15.47,39.65-15.77,52.35-.36,14.88,18.51,42.21,26,49.08l18.76-1.41L495.63,208l-.11,1.86A101,101,0,0,0,575,209.5l-.38-6.73c2.43,1.69,5.73,1.85,9.2-2.21,7.52-6.87,26.12-33.21,25.76-48.09C609.24,139.94,598.86,112.88,593.44,102.1Zm-96.57,84.07c-5.76-9.62-12.56-25-13.88-28.3-2.53-6.18,4.36-20.88,11.41-31.61L496.88,186Zm76.84,1.34-.17-2.92,2.32-56.86c6.06,10.47,12.47,23.54,12.57,29.91C588.5,162.28,579.25,176.75,573.71,187.51Z"/><path class="cls-8" d="M567.67,115.65l-1.5-24.52-7.27-.85a16.27,16.27,0,0,1-3.08-1.63L552,93.81,535.5,158.72,518.92,93.57l-3.8-5.16A16.52,16.52,0,0,1,512,90.09l-6.77.84L504,115.41l9.3,1.67-1.9,9.54,22.83,43.88-.41,5.74,26.48-49.38-1.91-9.54Z"/><polygon class="cls-1" points="528.56 131.46 535.5 158.72 541.3 135.93 537.79 108.09 542.04 101.94 539.55 95.2 530.89 94.95 528.64 102.31 532.57 107.97 528.56 131.46"/><polygon class="cls-9" points="520.2 81.78 535.47 94.9 524.26 106.11 513.28 89.17 520.2 81.78"/><path class="cls-5" d="M509.58,204.6a.21.21,0,0,1,0-.08c-3-4.49-2.15-3.23-3.65-5.51a6.1,6.1,0,0,0-8.44-1.71c-6.8,4.51-5.62,3.71-6.21,4.16a13.62,13.62,0,0,0-1.27,5.8,101.43,101.43,0,0,0,10.48,4.51A17.55,17.55,0,0,0,509.58,204.6Z"/><polygon class="cls-9" points="550.74 81.78 535.47 94.9 546.68 106.11 557.65 89.17 550.74 81.78"/><rect class="cls-9" x="487.35" y="197.28" width="15.68" height="3.94" transform="translate(-22.59 328.93) rotate(-35.98)"/><path class="cls-8" d="M515.53,191.57l-3.64.05a17.12,17.12,0,0,1,.39,3.45,17.35,17.35,0,0,1-2.7,9.53,17.55,17.55,0,0,1-9.09,7.17c1,.36,3,1.06,5,1.65A21,21,0,0,0,515.86,195,21.93,21.93,0,0,0,515.53,191.57Z"/><path class="cls-5" d="M579.05,200.56l-5.86-3.78a6.09,6.09,0,0,0-8.41,1.81l-3.58,5.55v.08a17.57,17.57,0,0,0,9.28,7.1,98.33,98.33,0,0,0,10.32-4.58C580.79,204.83,580.17,201.28,579.05,200.56Z"/><path class="cls-8" d="M561.2,204.22a17.31,17.31,0,0,1-2.82-9.48,18,18,0,0,1,.34-3.47h-3.63A21,21,0,0,0,565.53,213c2.05-.65,3.5-1.17,5-1.72A17.57,17.57,0,0,1,561.2,204.22Z"/><rect class="cls-9" x="574.62" y="190.4" width="3.94" height="15.68" transform="translate(77.4 548.33) rotate(-54.02)"/><path class="cls-10" d="M534.37,72.66A78.17,78.17,0,0,1,521,66.91V74c2.18,1.38,5.42,3.51,7.68,4.91a9.38,9.38,0,0,0,3.26.91h8.31a8.75,8.75,0,0,0,3.27-.89c1.82-1.21,3.91-2.89,6.18-4.39V66.73A99.73,99.73,0,0,1,534.37,72.66Z"/><path class="cls-5" d="M562.87,36.28a3.21,3.21,0,0,0-2.31.15c.31-8.93.23-16.94-.9-18.72C553.37,7.85,546,3.56,535.11,3.16h0c-10.87.4-17.44,4.69-23.73,14.55-1.16,1.83-1.36,10.19-1.19,19.39a3.74,3.74,0,0,0-3.43-.83c-2.4.81-3.25,4.73-1.88,8.77,1.17,3.48,3.6,5.9,5.78,6,.36,7.84.76,13.95.76,13.95,7.35,5,12.22,8.43,16.46,10.94a7,7,0,0,0,2.62.74h8.8a11,11,0,0,0,3-.81c4.25-2.5,9.13-6,16.5-10.87,0,0,.53-6.19,1-14.11,1.92-.6,3.87-2.81,4.89-5.81C566.1,41,565.27,37.09,562.87,36.28Z"/><path class="cls-11" d="M541.27,33.2c.74-.41,9.88-4,12.65.77,2.33,4-2,0-4.82,0a40.29,40.29,0,0,0-7.32.56C540.63,34.73,540.25,33.76,541.27,33.2Z"/><path class="cls-11" d="M527.91,33.32c-.71-.41-9.63-3.58-12.27.71-2.4,3.91,1.93,0,4.69,0a59.9,59.9,0,0,1,7.07.6C528.52,34.79,528.89,33.89,527.91,33.32Z"/><path class="cls-9" d="M528.31,40.37a16.11,16.11,0,0,1-5.85,1.09c-2.36,0-4.51-.79-4.51-2.29s2.12-2.56,4.52-2.56S528,39.24,528.31,40.37Z"/><path class="cls-12" d="M524.85,39.05a2.27,2.27,0,1,1-2.27-2.4A2.33,2.33,0,0,1,524.85,39.05Z"/><path d="M524.11,39.07a1.46,1.46,0,1,1-1.46-1.54A1.5,1.5,0,0,1,524.11,39.07Z"/><path class="cls-9" d="M524.91,39.1a.76.76,0,1,1-.74-.57A.67.67,0,0,1,524.91,39.1Z"/><path class="cls-10" d="M528.31,40.38S527.48,39,524.18,38c-2.36-.71-5.91.32-6,2-1-.71-1-2,1.5-3A6.89,6.89,0,0,1,528,39.72,1.92,1.92,0,0,1,528.31,40.38Z"/><path class="cls-9" d="M541.16,40.37a14.28,14.28,0,0,0,5.77,1.08c2.36-.06,4.51-.66,4.51-2.16s-2-2.68-4.44-2.68S541.5,39.24,541.16,40.37Z"/><path class="cls-12" d="M544.59,39a2.27,2.27,0,1,0,2.27-2.4A2.34,2.34,0,0,0,544.59,39Z"/><path d="M545.39,39a1.46,1.46,0,1,0,1.46-1.54A1.51,1.51,0,0,0,545.39,39Z"/><path class="cls-9" d="M547.67,38.85a.75.75,0,1,0,.73-.57A.67.67,0,0,0,547.67,38.85Z"/><path class="cls-10" d="M541.16,40.38S542,39,545.29,38c2.36-.71,5.9.32,6,2,1-.71.89-2.11-1.63-3.05a6.77,6.77,0,0,0-8.15,2.74A2.12,2.12,0,0,0,541.16,40.38Z"/><path class="cls-10" d="M536.47,53.51h-3.79a3,3,0,0,1-2.75-2.1,3.48,3.48,0,0,0-.21,1.18c0,1.81,2.21,2.4,3.85,2.4h2c1.64,0,3.85-.59,3.85-2.4a3.74,3.74,0,0,0-.2-1.18A3,3,0,0,1,536.47,53.51Z"/><path class="cls-10" d="M505.11,39.22c0-.32.61-1.78,1.41-1.53,1.21.38,2,2.74,2.49,5.11s.27,4.09,0,3.45c-.38-.89-.73-3.76-2.17-6.45C505.88,38,505.3,41.78,505.11,39.22Z"/><path class="cls-10" d="M564.53,39.22c0-.32-.61-1.78-1.4-1.53-1.22.38-2,2.74-2.5,5.11s-.27,4.09,0,3.45c.39-.89.73-3.76,2.18-6.45C563.76,38,564.34,41.78,564.53,39.22Z"/><path class="cls-11" d="M554.55,4.48c-4.08-7.15-27.36-4.09-34.77-2.05s-12.27,6.14-12,12.53c.22,5.53.25,17.93.26,21.19a4.29,4.29,0,0,1,1.87.75l1.45,6.7,1.54-10.49s-3.07-20.45,16.87-16.87c-2.81,1.53-7.93,6.9-7.93,6.9s11.77-2.81,16.37-4.6,0,3.84,0,3.84S547.14,19.05,550,18s5.62-.26,6.13,4.6,1.79,23.27,1.79,23.27l3.22-9.64a3.26,3.26,0,0,1,.74-.12c.1-2,.23-4.37.39-7.37C563.76-.38,557.62,9.85,554.55,4.48Z"/><path class="cls-13" d="M527.89,61.79c.16.9,1.6,3.05,2.44,3.05h8.4c.85,0,2.28-2.15,2.45-3.05Z"/><path class="cls-14" d="M538.46,62.19c-1.78-.22-7.65-.12-8.56-.08-2.34.11-3.71-1.2-3.62-1.45s.44-.31.7.09,1.77.23,2.54.07c3.87-.84,2.87.1,4.76.13s1.17-.87,4.53-.11c1.13.26,2.69.65,3.27.36.39-.2.69-.41.8,0S541.31,62.54,538.46,62.19Z"/><path class="cls-3" d="M81.37,545.5a99.92,99.92,0,1,0,99.92-99.92A99.92,99.92,0,0,0,81.37,545.5Z"/><path class="cls-5" d="M204.45,518.86c-3.94-1.57-7.52-5.41-8.31-8.27l-.24-10.91c-2.4,1.71-4.67,2.87-7.4,4.62a26.13,26.13,0,0,1-7.89-.05,71.33,71.33,0,0,1-12.86-9l-.48,15.65c-1,2.75-4.75,6.27-8.64,7.86l23.32,6Z"/><path class="cls-6" d="M196.07,582a3.83,3.83,0,0,1,2.78.66V525.22H162.64V587C170.45,586.16,180.05,584.47,196.07,582Z"/><path class="cls-7" d="M239.37,530.66A14.28,14.28,0,0,0,226,521.37l-21.55-2.51c-.84-.33-3.79-.77-4.57-1.28l-17.1,66.51-1.52.24L163.74,515.5a18.55,18.55,0,0,1-5.11,3.25l-21.36,2.62A14.26,14.26,0,0,0,124.15,530c-4.48,8.76-5.7,40.2-4,57.68.84,10.71,4.75,23,15.33,25.1a50.81,50.81,0,0,0,7.39.83c-.57,25.35-.46,21.31-.6,23.86a100.17,100.17,0,0,0,78.8-.31l-.35-21.55c8.28-1,14.66-2.86,16.1-5.55C243.69,597.19,244.41,540.68,239.37,530.66Z"/><path class="cls-15" d="M219.45,554.09s-3,18.34-4.21,29c-.58.5-6,2.23-6,2.23S213.62,575.65,219.45,554.09Z"/><path class="cls-8" d="M162.08,619.41l-3.6.05a16.74,16.74,0,0,1,.38,3.42,17.29,17.29,0,0,1-11.69,16.56c1,.36,3,1.06,4.92,1.64a20.81,20.81,0,0,0,10.32-18.24A20.45,20.45,0,0,0,162.08,619.41Z"/><path class="cls-10" d="M180.78,501.45a77.12,77.12,0,0,1-13.27-5.7v7c2.16,1.37,5.38,3.48,7.61,4.87a9.5,9.5,0,0,0,3.24.91h8.24a8.82,8.82,0,0,0,3.24-.89c1.81-1.19,3.88-2.87,6.14-4.36v-7.72A98.73,98.73,0,0,1,180.78,501.45Z"/><path class="cls-5" d="M209.05,465.36a3.21,3.21,0,0,0-2.29.15c.3-8.86.22-16.8-.9-18.56-6.24-9.79-13.56-14-24.35-14.45h0c-10.79.41-17.3,4.66-23.54,14.45-1.15,1.81-1.34,10.1-1.17,19.22a3.77,3.77,0,0,0-3.42-.82c-2.38.8-3.21,4.7-1.86,8.7,1.16,3.46,3.57,5.86,5.74,5.94.2,4.39.41,8.23.56,10.74a7.62,7.62,0,0,0,2.4,4.61c6.08,4.17,10.35,7.11,14.12,9.34a7,7,0,0,0,2.59.73h8.74a10.76,10.76,0,0,0,3-.81c3.73-2.18,7.94-5.11,13.91-9.13a7.9,7.9,0,0,0,2.7-4.62c.2-2.54.5-6.5.78-11,1.91-.6,3.84-2.79,4.85-5.76C212.25,470.07,211.42,466.17,209.05,465.36Z"/><path class="cls-16" d="M187.7,461.48c.79-.31,10.23-2.7,12.36,2.35,1.78,4.24-1.94-.25-4.75-.58a40.56,40.56,0,0,0-7.28-.37C186.88,462.91,186.63,461.91,187.7,461.48Z"/><path class="cls-16" d="M174.31,461.82c-.75-.34-9.86-2.6-12,1.9-2,4.09,1.89-.18,4.63-.41a60.27,60.27,0,0,1,7-.1C175.05,463.21,175.33,462.28,174.31,461.82Z"/><path class="cls-9" d="M174.77,469.42A15.84,15.84,0,0,1,169,470.5c-2.34,0-4.47-.78-4.47-2.27s2.1-2.54,4.48-2.54S174.43,468.3,174.77,469.42Z"/><path class="cls-12" d="M171.34,468.12a2.26,2.26,0,1,1-2.26-2.38A2.32,2.32,0,0,1,171.34,468.12Z"/><path d="M170.6,468.13a1.45,1.45,0,1,1-1.45-1.53A1.5,1.5,0,0,1,170.6,468.13Z"/><path class="cls-9" d="M171.39,468.16a.66.66,0,0,1-.73.56.58.58,0,1,1,0-1.12A.66.66,0,0,1,171.39,468.16Z"/><path class="cls-10" d="M174.77,469.43s-.83-1.34-4.1-2.33c-2.34-.71-5.86.32-5.92,2-1-.71-1-2,1.49-3a6.85,6.85,0,0,1,8.21,2.65A2.24,2.24,0,0,1,174.77,469.43Z"/><path class="cls-9" d="M187.51,469.42a14,14,0,0,0,5.73,1.07c2.34-.06,4.47-.65,4.47-2.14s-2-2.66-4.4-2.66S187.85,468.3,187.51,469.42Z"/><path class="cls-12" d="M190.91,468.06a2.26,2.26,0,1,0,2.26-2.38A2.32,2.32,0,0,0,190.91,468.06Z"/><path d="M191.71,468.07a1.45,1.45,0,1,0,1.45-1.53A1.49,1.49,0,0,0,191.71,468.07Z"/><path class="cls-9" d="M194,467.91a.75.75,0,1,0,.73-.56A.66.66,0,0,0,194,467.91Z"/><path class="cls-10" d="M187.51,469.43s.83-1.34,4.1-2.33c2.34-.71,5.86.32,5.92,2,1-.71.89-2.1-1.62-3a6.7,6.7,0,0,0-8.08,2.71A2.24,2.24,0,0,0,187.51,469.43Z"/><path class="cls-10" d="M182.86,482.46H179.1a3,3,0,0,1-2.73-2.09,3.47,3.47,0,0,0-.21,1.17c0,1.8,2.2,2.38,3.82,2.38h2c1.62,0,3.82-.58,3.82-2.38a3.47,3.47,0,0,0-.21-1.17A3,3,0,0,1,182.86,482.46Z"/><path class="cls-10" d="M151.75,468.28c0-.32.61-1.77,1.4-1.52,1.2.38,2,2.72,2.47,5.07s.27,4.05,0,3.42c-.38-.88-.72-3.72-2.16-6.4C152.51,467.08,151.94,470.82,151.75,468.28Z"/><path class="cls-10" d="M210.7,468.28c0-.32-.61-1.77-1.4-1.52-1.2.38-2,2.72-2.47,5.07s-.27,4.05,0,3.42c.38-.88.72-3.72,2.16-6.4C209.94,467.08,210.51,470.82,210.7,468.28Z"/><path class="cls-16" d="M200.8,433.82c-4.06-7.09-27.14-4.06-34.5-2s-12.17,6.09-11.92,12.43c.22,5.48.25,17.78.26,21a4.35,4.35,0,0,1,1.86.75l1.43,6.64,1.52-10.4s-3-20.29,16.74-16.74c-2.79,1.53-7.86,6.85-7.86,6.85s11.67-2.79,16.23-4.56,0,3.8,0,3.8,8.88-3.3,11.67-4.31,5.58-.25,6.09,4.57,1.77,23.07,1.77,23.07l3.19-9.56a3.8,3.8,0,0,1,.74-.12c.1-1.93.23-4.33.38-7.31C209.93,429,203.84,439.15,200.8,433.82Z"/><path class="cls-13" d="M174.34,490.67c.17.89,1.6,3,2.43,3h8.33c.84,0,2.27-2.14,2.43-3Z"/><path class="cls-14" d="M184.84,491.07c-1.77-.22-7.59-.12-8.5-.08-2.32.11-3.68-1.19-3.59-1.44.13-.4.43-.31.69.08s1.76.24,2.52.07c3.84-.82,2.85.1,4.73.13s1.16-.86,4.49-.1c1.13.25,2.67.64,3.24.35.39-.19.69-.41.79,0S187.66,491.42,184.84,491.07Z"/><path class="cls-15" d="M145.86,554.34s1.24,15.12,1.74,18.34,2.22,14.86,2.22,14.86l10.16-.49S150.82,576.89,145.86,554.34Z"/><path class="cls-17" d="M181.26,584.33l1.32-.21,5.07-19.9-3.48-27.62,4.21-6.1-2.46-6.69-8.6-.24-2.22,7.29,3.89,5.62-4,23.3Z"/><path class="cls-8" d="M191.75,582.68l14.73-27.46-1.9-9.47,9.23-1.65-1.53-24.35-7.19-1a17.41,17.41,0,0,1-3.05-1.66l-3.75,5.38-15.71,61.69Z"/><path class="cls-8" d="M158,555l15.87,30.51,7.42-1.16-15.81-62.14-3.77-5.11a16.83,16.83,0,0,1-3.05,1.67l-6.72.82-1.28,24.29,9.23,1.66Z"/><path class="cls-5" d="M142.16,583.87l4.07,3.58c8.19.5,14.51,0,24.5-1.5-4-4.77-4.49-5.48-5.29-6L152.8,568.8c-1.58-1.39-3.53-1.75-4.35-.82s-.21,2.83,1.36,4.21l10,8.83-.22.18-10.93-9.61c-1.58-1.39-3.52-1.75-4.35-.82s-.21,2.82,1.37,4.21l10.42,9.17-.19.16-10.44-9.18c-1.48-1.3-3.31-1.65-4.08-.77s-.21,2.65,1.28,4l10,8.76-.21.18L145,580.68c-1.49-1.3-3.32-1.65-4.09-.76S140.68,582.56,142.16,583.87Z"/><path class="cls-15" d="M170.73,612.37c-10,1-20.17,1.67-28.09,1.26V623l23.29-5.45L220.68,623v-7.33C202.39,618,174.81,616.48,170.73,612.37Z"/><path class="cls-8" d="M207.39,632a17.23,17.23,0,0,1-2.8-9.41c0-.4,0-.78.06-1.17l-3.54-.36c0,.51-.07,1-.07,1.53a20.83,20.83,0,0,0,10.64,18.16c2-.65,3.48-1.17,4.92-1.71A17.4,17.4,0,0,1,207.39,632Z"/><path class="cls-15" d="M161.59,613.31s27.69-2.29,39-7.06c1.33-.56.92-5.7.92-8,.87,2.66,2.44,9.23.56,10.65C197.22,612.61,174.17,614.49,161.59,613.31Z"/><rect class="cls-9" x="198.48" y="581.4" width="4.71" height="16.49" transform="translate(-192.37 106.53) rotate(-20.33)"/><path class="cls-5" d="M215.31,582.85l-12.85-1a3.92,3.92,0,0,0-1.87.33l5.32,14.34c5-2,7.11-3.61,7.92-6.28.41-1.34.93-4.06,1.5-7.41Z"/><path class="cls-15" d="M180.44,618.76v26.65h1.15V618.76Z"/><path class="cls-8" d="M188.61,632.56a2.31,2.31,0,1,1-2.31-2.31A2.32,2.32,0,0,1,188.61,632.56Z"/><path class="cls-7" d="M187.4,632.56a.37.37,0,0,1-.36.37.38.38,0,0,1-.37-.37.37.37,0,0,1,.37-.36A.36.36,0,0,1,187.4,632.56Z"/><path class="cls-7" d="M185.92,632.56a.37.37,0,0,1-.36.37.38.38,0,0,1-.37-.37.37.37,0,0,1,.37-.36A.36.36,0,0,1,185.92,632.56Z"/><polygon class="cls-9" points="166.72 510.5 181.87 523.51 170.75 534.63 159.86 517.83 166.72 510.5"/><polygon class="cls-9" points="197.01 510.5 181.87 523.51 192.99 534.63 203.88 517.83 197.01 510.5"/><circle class="cls-1" cx="101.97" cy="197.18" r="101.97" transform="translate(-63.27 48.94) rotate(-20.76)"/><path class="cls-18" d="M135.89,114.53c0,19-14.76,34.51-33,34.41-23.24-.12-33-15.4-33-34.41s14.76-34.41,33-34.41S135.89,95.52,135.89,114.53Z"/><path class="cls-10" d="M91.28,147.91v5.76a62.11,62.11,0,0,0,9.31,5.35,3.06,3.06,0,0,0,2.44.09,73.94,73.94,0,0,0,10.72-5.53v-5.67Z"/><path class="cls-5" d="M128.78,119.33a3.1,3.1,0,0,0-2.3.19c.81-7.7,1.26-15.46.09-17.3A30.82,30.82,0,0,0,102,88h0a30.84,30.84,0,0,0-24.62,14.2c-1.16,1.82-.73,9.45.07,17.07a2.77,2.77,0,0,0-1.64,0c-2.27.76-3.06,4.47-1.78,8.28,1.06,3.14,3.19,5.36,5.18,5.63.31,2.16.52,3.52.52,3.52,4.67,12.36,17,18.45,21,20.13a3.18,3.18,0,0,0,2.44.05c3.88-1.61,16.39-7.69,21.1-20.18,0,0,.21-1.35.53-3.51,2.13.15,4.6-2.18,5.77-5.62C131.82,123.81,131,120.1,128.78,119.33Z"/><path class="cls-18" d="M108.38,116.35c.66-.46,6.07-4.7,12-.54,3.58,2.52-1.84-1.25-4.53-.94a15.17,15.17,0,0,0-6.82,2.71C108.09,118.21,107.48,117,108.38,116.35Z"/><path class="cls-18" d="M95.76,116.36c-.64-.45-5.84-4.64-11.6-.41-3.49,2.56,1.8-1.27,4.4-1a14.09,14.09,0,0,1,6.59,2.63C96,118.21,96.62,117,95.76,116.36Z"/><path class="cls-5" d="M150.8,180.31c-2.37-4.38-7.21-7.08-10.6-7.08l-16.63-2.51c-5.07-1.74-9.78-7.12-9.78-10.38,0-.1,0-9,0-9A80.59,80.59,0,0,1,101.86,156a64.33,64.33,0,0,1-10.58-4.57s0,8.78,0,8.88c0,3.32-5.58,8.84-11,10.47l-16.56,2.5c-3.37,0-9.53,4-11.61,9.37-3.22,7.23-8.11,21.7-20,50.52.78,10.06,11.38,16.66,17.39,10.12,5.09-5.54,12.75-26.53,17-38.86h73.65c6.33,10.66,15.77,27.74,15.88,34.93.09,5.89,16.17,9.61,15.8-5.46C171.45,220.55,156.75,190.2,150.8,180.31Z"/><path class="cls-9" d="M96.13,123.19c-2.86,1-4,1.54-5.5,1.61-2.26.09-4.11-1.19-4.11-2.6s1.83-2.56,4.09-2.56S95.81,122.13,96.13,123.19Z"/><path class="cls-12" d="M92.82,122.27a2.39,2.39,0,1,1-2.38-2.52A2.45,2.45,0,0,1,92.82,122.27Z"/><path d="M92.13,122a1.62,1.62,0,1,1-1.61-1.7A1.66,1.66,0,0,1,92.13,122Z"/><path class="cls-9" d="M92.4,121.79a.79.79,0,0,1-1.54,0c0-.33.34-.59.77-.59S92.4,121.46,92.4,121.79Z"/><path d="M95.83,122.58c-1.86-3.31-6-3.44-8.73-2.43-2.39.88-2.85.41-2.95.3,0,.92,1.25,2.8,3.82,3.74a2.84,2.84,0,0,1-1.36-1.46c.26-1.5,3.46-2.4,5.62-1.75,3.12.94,3.91,2.22,3.91,2.22A2.57,2.57,0,0,0,95.83,122.58Z"/><path class="cls-9" d="M108,123.19c2.9,1,4,1.54,5.58,1.61,2.29.09,4.17-1.19,4.17-2.6s-1.86-2.56-4.15-2.56S108.34,122.13,108,123.19Z"/><path class="cls-12" d="M111.37,122.27a2.42,2.42,0,1,0,2.42-2.52A2.47,2.47,0,0,0,111.37,122.27Z"/><path d="M112.07,122a1.64,1.64,0,1,0,1.64-1.7A1.68,1.68,0,0,0,112.07,122Z"/><path class="cls-9" d="M114.33,121.92a.81.81,0,0,0,1.56,0c0-.33-.35-.59-.78-.59S114.33,121.59,114.33,121.92Z"/><path d="M120.17,120.45c-.1.11-.57.58-3-.3-2.76-1-7-.88-8.87,2.43a2.57,2.57,0,0,0-.31.62s.8-1.28,4-2.22c2.19-.65,5.44.25,5.7,1.75a2.82,2.82,0,0,1-1.37,1.46C117.87,123.62,120.1,122.1,120.17,120.45Z"/><path class="cls-19" d="M135.89,109.76c0-16.37-14.76-29.64-33-29.64S70,93.39,70,109.76a32,32,0,0,0,3.45,15.06c-.21-2.7.66-4.93,2.36-5.5a2.65,2.65,0,0,1,1.19-.11c.88,3.44,1.81,5.81,1.81,3.89,0-2.26.46-6.43.84-9.5,5.44-6,12.79-11.9,23.31-14.46,9.15,1.93,18.61,9.24,22.53,15.35.33,2.92.67,6.46.67,8.49s.86-.4,1.69-3.78a2.65,2.65,0,0,1,1,.13c1.77.6,2.63,3,2.29,5.88A27.36,27.36,0,0,0,135.89,109.76Z"/><path class="cls-10" d="M103.5,135h-3.09a2.43,2.43,0,0,1-2.24-1.71,3,3,0,0,0-.17,1c0,1.48,1.81,2,3.14,2h1.64c1.33,0,3.13-.47,3.13-2a2.77,2.77,0,0,0-.17-1A2.43,2.43,0,0,1,103.5,135Z"/><path class="cls-10" d="M74.22,122.11c0-.31.58-1.69,1.33-1.45,1.14.36,1.87,2.59,2.35,4.83s.26,3.86,0,3.26c-.36-.85-.69-3.55-2.05-6.1C74.94,121,74.4,124.52,74.22,122.11Z"/><path class="cls-10" d="M130.35,122.11c0-.31-.58-1.69-1.33-1.45-1.15.36-1.87,2.59-2.36,4.83s-.26,3.86,0,3.26c.37-.85.69-3.55,2.05-6.1C129.62,121,130.16,124.52,130.35,122.11Z"/><path class="cls-20" d="M92.91,132.89c-.6,1.91-3.57,2.67-6.63,1.7s-5.06-3.29-4.46-5.2,3.57-2.67,6.64-1.7S93.52,131,92.91,132.89Z"/><path class="cls-20" d="M110.8,132.89c.6,1.91,3.57,2.67,6.63,1.7s5.07-3.29,4.46-5.2-3.57-2.67-6.63-1.7S110.2,131,110.8,132.89Z"/><path class="cls-21" d="M140.2,173.23l-14-2.11c.82,14.77-49.47,13.3-48.73,0l-13.74,2.07c3.42,14.84.47,33.06.86,33.66A17.33,17.33,0,0,0,74.33,229a93.21,93.21,0,0,1,2.45,11.75,124,124,0,0,1,1.38,23A43.47,43.47,0,0,0,66.4,277.32a44.8,44.8,0,0,0-4.84,13.51,102.28,102.28,0,0,0,81.89-.47A45.19,45.19,0,0,0,138.52,277a43.21,43.21,0,0,0-11.88-13.53A125.33,125.33,0,0,1,128,240.7a95.71,95.71,0,0,1,2.37-11.49,17.34,17.34,0,0,0,9.53-21.88C140.27,206.82,137.25,183.91,140.2,173.23Z"/><path class="cls-22" d="M94.38,140.87c-.92-.39-1.06-.22-1.18-.09s-.2.17.39,1l1.28,1.69s2.57,4.85,7.41,4.64a8.42,8.42,0,0,0,7.2-4.94c.21-.45.73-1.17.88-1.42.47-.84.39-.87.27-1-.32-.35-.36-.16-1,.14a34.28,34.28,0,0,1-7.88.69A34,34,0,0,1,94.38,140.87Z"/><path class="cls-9" d="M106.41,143.74c1.16-.36,1.51-1.38,1.8-2.66a38.1,38.1,0,0,1-6.94.4,56.18,56.18,0,0,1-6-.42c.3,1.45.56,1.62,1.77,2.23-1,.05-1.14,1-1,2a9.91,9.91,0,0,0,6,2.41c3-.1,4.89-1,5.9-2.41C107.71,144.64,107.23,143.77,106.41,143.74Z"/><path class="cls-23" d="M94.61,141s.31,1.31,6.76,1.26,7.73-1.2,7.73-1.2-4.83-.56-7.46-.52C99.22,140.53,94.61,141,94.61,141Z"/><path class="cls-23" d="M94,142.29a7.85,7.85,0,0,0,7.56,6.31c6.06.19,8.37-6.33,8.37-6.33s-2.33,3.51-7.93,3.69A9.11,9.11,0,0,1,94,142.29Z"/><path class="cls-10" d="M54.85,202.32c-.63,0-7.59-.61-7.87.61-.08.34-.15,2-.15,2.12L45.57,205c-1.12,0-3.71-.15-3.33,1.84,0,.05.1.48.15.65a20.14,20.14,0,0,0-3.76,2.38c-.45.57-.26.89.15,2,1,2.69,2.62,6.12,3.15,7.24L33.8,229.31l.11,0a7.16,7.16,0,0,0-.42.83c-1.64,4-1.13,10,2.16,15.17,2.79,4.39,5.94,4.69,10.15.05a148.45,148.45,0,0,0,9.47-12.23V202.46A.78.78,0,0,0,54.85,202.32Z"/><path class="cls-5" d="M57.14,209.25A3.66,3.66,0,0,1,55.27,208a50.5,50.5,0,0,0-3.09,4.16s-6.15.95-7.16,2.5-3,1.41-2.55,3.16a6.34,6.34,0,0,0,.61,1.31c1,1.7,2.87,4.29,4.22,6.24.69,1-12-.84-14.57,5.52-1.65,4-1.13,10,2.16,15.16,2.78,4.39,8,4.7,12.16.06A157.43,157.43,0,0,0,57.14,233Z"/><path class="cls-5" d="M56.13,203.18c-.63,0-7.64-.53-7.9.49a10.33,10.33,0,0,0-.14,2.57c1.11.07,5.95.12,6.47.27s1.52,3.56,4.54,2.06c0,0-1.34-3.42-1.76-4.19S56.75,203.22,56.13,203.18Z"/><path class="cls-10" d="M52.15,206.45c-.1-.55-.84-.92-1.27-1l-2.84-.2a13.51,13.51,0,0,0,.44,4.2.58.58,0,0,1,.27.23c.18.31.38,1.06.73,1.89a2.58,2.58,0,0,0,2.52,1.5,6.4,6.4,0,0,0,1.1-.1S52.27,207.33,52.15,206.45Z"/><path class="cls-5" d="M50.64,206c-.52,0-2.7-.22-3.82-.26s-3.71-.15-3.33,1.84c0,.05.35-.06.42-.08a1.67,1.67,0,0,1,1.74.17,41.52,41.52,0,0,1,2.93,3.56L47.72,209s.8-.37,1.06.06.38,1,.73,1.89a2.91,2.91,0,0,0,3.12,1.61s-.67-4.69-.83-5.31S51.16,206,50.64,206Z"/><path class="cls-24" d="M49.23,212.82l0-.06,0,.07Z"/><path class="cls-10" d="M43.84,207a3.57,3.57,0,0,0-.64.33c.22,1,1.07,3.17,1.54,4.61.13.13.6.81,1.14,1.34,1,1,3.84-.36,4-.43s-3.75-5.18-4.28-5.68A1.7,1.7,0,0,0,43.84,207Z"/><path class="cls-5" d="M40,212.54c-.41-1.06-.6-1.38-.14-2A21.18,21.18,0,0,1,44,208a1.7,1.7,0,0,1,1.74.17c.57.53,3.24,4.23,3.24,4.23s-2.46,1.08-3.54,0l-1.07-1.06-.65.61,2,3.34-3,3.25A55.53,55.53,0,0,1,40,212.54Z"/><path class="cls-25" d="M52.7,212.63l-.55-3.28a.83.83,0,0,0-.62.08c-.31.19.1,2.72.34,3A1.36,1.36,0,0,0,52.7,212.63Z"/><path class="cls-25" d="M49.12,212.38l-1.79-2.24a.73.73,0,0,0-.43.33c-.15.26,1.21,2,1.5,2.08A1.2,1.2,0,0,0,49.12,212.38Z"/><path class="cls-26" d="M56.36,197.79h49a1.51,1.51,0,0,1,1.51,1.51v34.2a1.51,1.51,0,0,1-1.51,1.51h-49a1.5,1.5,0,0,1-1.5-1.5V199.3A1.51,1.51,0,0,1,56.36,197.79Z"/><path class="cls-5" d="M94,216.12a2.6,2.6,0,0,0,2,2.23c1.86.37,8-1.11,8-1.11l5.07,4.73s4-.54,3.48-2.36c-1.67-1.51-4.57-4.72-5.57-5.34a4.47,4.47,0,0,0-3.69-.56C102,214.08,94,216.12,94,216.12Z"/><path class="cls-5" d="M168.4,227.35c-4.78-1.95-15.84-1.67-21.82.48-11.2,4-25.17.11-25.17.11h0c-.15-.24-8.81-8.33-8.81-8.33l-5.33,1.16-6.62,9.66a7.94,7.94,0,0,1,1.92,1c.68.55,8.42,6.61,11.71,6.61a5.81,5.81,0,0,0,1.61-.24c4.34,1.48,23.88,7.78,40.92,7.76,10.42,0,11-2.39,14-5.94C172.43,232.71,170,226.89,168.4,227.35Z"/><path class="cls-27" d="M93.92,216.12l3.43-.86a.87.87,0,0,1,.19.64c-.05.38-2.69,1.06-3,.93S93.92,216.12,93.92,216.12Z"/><path class="cls-5" d="M106,228.37l-2-.52a3.36,3.36,0,0,1-.39.38c-.88-.2-11.59-3-12.81-3.42-.28-.09-.59-.19-.89-.32a1.61,1.61,0,0,0-.41.59c-.28,1,1.45,1.84,2.65,2.33s12,4.24,12.85,4.53C106,231.38,108.78,229.08,106,228.37Z"/><path class="cls-10" d="M103.61,228.23a3.36,3.36,0,0,0,.39-.38c-3-.8-4.86-1.39-6.41-1.85s-4.43-1.29-6.17-1.65a1.82,1.82,0,0,0-1.56.14c.31.13.62.23.9.32C92,225.19,102.73,228,103.61,228.23Z"/><path class="cls-27" d="M91.7,226.38a4.65,4.65,0,0,0,.49-1.19,6.84,6.84,0,0,0-1.83-.77.62.62,0,0,0-.65,1A5.87,5.87,0,0,0,91.7,226.38Z"/><path class="cls-5" d="M107.55,224c-5-.58-7.72-1.08-9.93-1.43-1.9-.31-5.27-.8-7.31-1-.73,0-2,.2-2.09,1.12-.16,1.23,1.94,1.89,3.39,2.27S106,228.35,107,228.55C108.06,227.75,110.88,224.37,107.55,224Z"/><path class="cls-27" d="M90.93,224.3a3.47,3.47,0,0,0,.34-1.42,8.86,8.86,0,0,0-2.34-.91c-.57,0-1.07.91-.38,1.55A6.6,6.6,0,0,0,90.93,224.3Z"/><path class="cls-10" d="M105.67,220.44c-4.56-.07-7.07-.29-9.1-.42-1.74-.11-4.83-.26-6.69-.2-.66,0-1.64.39-1.67,1.32,0,1.24,1.69,1.45,3,1.68.62.11,3,.51,6.6.85s7.17,1,7.68,1C106.4,223.81,108.7,220.49,105.67,220.44Z"/><path class="cls-5" d="M107.39,219.84c-5,.08-7.8-.06-10-.12-1.92-.05-5.32-.09-7.37,0-.72,0-1.92.46-1.92,1.39,0,1.24,2.17,1.61,3.66,1.8.64.08,3.54.11,6.61.34,4,.3,8.46.8,9.06.83C108.32,223.18,110.73,219.79,107.39,219.84Z"/><path class="cls-27" d="M91.35,222.11a6.34,6.34,0,0,0,.21-1.73,9.3,9.3,0,0,0-2.66-.33.83.83,0,0,0-.47,1.55A7.76,7.76,0,0,0,91.35,222.11Z"/><path class="cls-28" d="M103.18,94.65s15.14,2.93,20.1,11.43c-.81-2-2.82-8-18.18-12.77a42.23,42.23,0,0,1,22.09,9.28c-2.39-3.28-4.9-6.58-14.77-11.89,2-.23,9.93,3.08,11,4-1.11-1.23-1.55-3.4-10.45-7.57,3.34.68,10.42,4.37,12.38,5.6-5.82-7.06-16.16-9.84-22.21-9.83Z"/><path class="cls-28" d="M102.26,94.56s-15.11,3-20,11.54c.8-2,2.77-8,18.11-12.87a42.22,42.22,0,0,0-22,9.4c2.37-3.29,4.87-6.6,14.71-12-2.05-.22-9.91,3.13-11,4.09,1.1-1.24,1.53-3.4,10.41-7.63C89.06,87.83,82,91.55,80,92.79c5.79-7.09,15.75-9.85,21.79-9.88C101.83,85.23,102.26,94.56,102.26,94.56Z"/><circle class="cls-4" cx="644.54" cy="469.67" r="101.47" transform="translate(-130.67 282.41) rotate(-22.5)"/><path class="cls-29" d="M703.73,455.15a14.51,14.51,0,0,0-13.78-10l-21.89-2.55c-4-1.59-7.64-5.49-8.43-8.4l-.25-11.08c-2.44,1.74-20.4,7-28.59-1.84l-.49,13.23c-1,2.79-4.82,6.36-8.77,8l-21.69,2.66a14.52,14.52,0,0,0-14.3,12.07c0,.26-.09.52-.12.79s0,.31,0,.46l0,.3,21.2,17.43,7.82,25.23h61.07l8.44-27.24h2.25Z"/><rect class="cls-30" x="625.6" y="449.08" width="36.77" height="67.77"/><path class="cls-31" d="M677.57,468.24l-1.51-24.7-7.33-.85a17.5,17.5,0,0,1-3.11-1.64l-3.82,5.19-16.64,65.39L628.46,446l-3.83-5.19a18,18,0,0,1-3.1,1.69l-6.83.84L613.41,468l9.37,1.68-1.92,9.62,23,44.2,26.26-44-1.92-9.61Z"/><polygon class="cls-32" points="638.17 484.17 645.16 511.63 651 488.68 647.46 460.63 651.74 454.44 649.24 447.64 640.51 447.4 638.25 454.8 642.21 460.51 638.17 484.17"/><path class="cls-33" d="M683.48,537.69l2.33-57.27L690,445.16l-21.89-2.55c-.85-.34-3.84-.78-4.64-1.3L645.25,512,626.72,439.2a18.74,18.74,0,0,1-5.19,3.3l-12,1.47-5.88,35.14.11-.18,2.49,60.2v.16l-1.36,23.8a101.74,101.74,0,0,0,80-.3Z"/><polygon class="cls-9" points="629.75 434.12 645.13 447.34 633.83 458.63 622.78 441.57 629.75 434.12"/><path class="cls-29" d="M619,557.84s0-.05,0-.07l-3.67-5.55a6.14,6.14,0,0,0-8.5-1.72c-6.85,4.54-5.66,3.73-6.26,4.19a13.77,13.77,0,0,0-1.27,5.84,101.85,101.85,0,0,0,10.55,4.54A17.62,17.62,0,0,0,619,557.84Z"/><polygon class="cls-9" points="660.51 434.12 645.13 447.34 656.42 458.63 667.48 441.57 660.51 434.12"/><path class="cls-31" d="M625,544.73l-3.66,0a18.18,18.18,0,0,1,.39,3.48,17.45,17.45,0,0,1-2.73,9.59,17.62,17.62,0,0,1-9.15,7.23c1,.36,3.05,1.07,5,1.66a21.16,21.16,0,0,0,10.15-22Z"/><path class="cls-31" d="M671.05,557.47a17.46,17.46,0,0,1-2.84-9.56,18.09,18.09,0,0,1,.34-3.48h-3.66a21.12,21.12,0,0,0,10.52,21.92c2.07-.66,3.53-1.18,5-1.74A17.63,17.63,0,0,1,671.05,557.47Z"/><path class="cls-34" d="M644,424.94a78.36,78.36,0,0,1-13.48-5.8v7.12c2.2,1.4,5.47,3.54,7.74,4.95a9.64,9.64,0,0,0,3.29.92h8.36a8.78,8.78,0,0,0,3.3-.9c1.83-1.21,3.94-2.91,6.23-4.42V419A101.17,101.17,0,0,1,644,424.94Z"/><path class="cls-29" d="M672.73,388.28a3.24,3.24,0,0,0-2.32.16c.31-9,.22-17.06-.92-18.85-6.33-9.94-13.77-14.26-24.72-14.67h0c-11,.41-17.56,4.73-23.9,14.67-1.17,1.83-1.37,10.26-1.19,19.52a3.79,3.79,0,0,0-3.47-.83c-2.41.81-3.26,4.77-1.89,8.83,1.18,3.51,3.63,5.95,5.82,6,.22,4.77.46,8.91.61,11.43a7,7,0,0,0,2.41,4.16c6.17,4.24,10.51,7.22,14.33,9.48a7.22,7.22,0,0,0,2.64.75H649a10.77,10.77,0,0,0,3-.82c4-2.31,8.42-5.44,14.88-9.78a5.91,5.91,0,0,0,1.94-3.51c.2-2.52.53-6.85.85-11.87,1.93-.61,3.9-2.83,4.92-5.85C676,393.07,675.14,389.11,672.73,388.28Z"/><path class="cls-35" d="M651,385.19c.75-.42,9.95-4,12.75.77,2.34,4-2,0-4.86,0a40.91,40.91,0,0,0-7.38.57C650.33,386.73,650,385.75,651,385.19Z"/><path class="cls-35" d="M637.52,385.31c-.72-.42-9.7-3.61-12.36.71-2.42,3.94,1.93,0,4.72.05a62.52,62.52,0,0,1,7.12.61C638.12,386.79,638.5,385.88,637.52,385.31Z"/><path class="cls-9" d="M637.92,392.41a16.18,16.18,0,0,1-5.9,1.1c-2.37,0-4.54-.8-4.54-2.31s2.14-2.58,4.55-2.58S637.58,391.27,637.92,392.41Z"/><path class="cls-36" d="M634.43,391.08a2.29,2.29,0,1,1-2.28-2.41A2.35,2.35,0,0,1,634.43,391.08Z"/><path d="M633.68,391.1a1.47,1.47,0,1,1-1.47-1.55A1.5,1.5,0,0,1,633.68,391.1Z"/><path class="cls-9" d="M634.49,391.13a.77.77,0,1,1-.74-.57A.67.67,0,0,1,634.49,391.13Z"/><path class="cls-34" d="M637.92,392.42s-.84-1.36-4.16-2.37c-2.38-.72-6,.33-6,2-1-.72-1-2.06,1.52-3a7,7,0,0,1,8.34,2.69A2.17,2.17,0,0,1,637.92,392.42Z"/><path class="cls-9" d="M650.86,392.41c3,1,4.06,1.13,5.81,1.08,2.38-.06,4.55-.66,4.55-2.17s-2.06-2.7-4.47-2.7S651.2,391.27,650.86,392.41Z"/><path class="cls-36" d="M654.31,391a2.29,2.29,0,1,0,2.29-2.42A2.36,2.36,0,0,0,654.31,391Z"/><path d="M655.13,391a1.47,1.47,0,1,0,1.47-1.56A1.51,1.51,0,0,0,655.13,391Z"/><path class="cls-9" d="M657.42,390.88a.76.76,0,0,0,1.47,0,.76.76,0,0,0-1.47,0Z"/><path class="cls-34" d="M650.85,392.42s.85-1.36,4.17-2.37c2.38-.72,6,.33,6,2,1-.72.9-2.13-1.65-3.07a6.8,6.8,0,0,0-8.21,2.75A2.46,2.46,0,0,0,650.85,392.42Z"/><path class="cls-34" d="M646.14,405.65h-3.82a3,3,0,0,1-2.78-2.12,3.54,3.54,0,0,0-.2,1.19c0,1.83,2.23,2.42,3.87,2.42h2c1.65,0,3.88-.59,3.88-2.42a3.54,3.54,0,0,0-.21-1.19A3,3,0,0,1,646.14,405.65Z"/><path class="cls-34" d="M614.55,391.25c0-.33.61-1.8,1.41-1.54,1.23.38,2,2.76,2.51,5.15s.28,4.11,0,3.47c-.38-.9-.73-3.78-2.19-6.5C615.32,390,614.74,393.83,614.55,391.25Z"/><path class="cls-34" d="M674.41,391.25c0-.33-.62-1.8-1.42-1.54-1.22.38-2,2.76-2.51,5.15s-.27,4.11,0,3.47c.38-.9.73-3.78,2.19-6.5C673.63,390,674.21,393.83,674.41,391.25Z"/><path class="cls-35" d="M664.35,356.25c-4.12-7.2-27.56-4.12-35-2.06s-12.36,6.18-12.1,12.62c.22,5.57.25,18.06.26,21.34a4.53,4.53,0,0,1,1.88.76l1.46,6.75,1.55-10.56s-3.09-20.6,17-17c-2.84,1.55-8,7-8,7s11.85-2.84,16.49-4.64,0,3.86,0,3.86,9-3.35,11.84-4.37,5.67-.26,6.19,4.63S667.7,398,667.7,398l3.24-9.71a3.26,3.26,0,0,1,.74-.12c.11-2,.24-4.4.4-7.43C673.62,351.36,667.44,361.66,664.35,356.25Z"/><path class="cls-37" d="M637.49,414c.17.9,1.62,3.07,2.46,3.07h8.47c.85,0,2.29-2.17,2.46-3.07Z"/><path class="cls-38" d="M648.14,414.39c-1.79-.22-7.71-.12-8.62-.08-2.36.11-3.74-1.21-3.66-1.46.14-.41.45-.31.71.08s1.79.24,2.56.08c3.9-.84,2.9.1,4.8.13s1.18-.88,4.56-.11c1.15.26,2.71.65,3.29.36.4-.2.7-.41.81,0S651,414.74,648.14,414.39Z"/><rect class="cls-39" x="647.19" y="521.84" width="54.88" height="46.48" transform="translate(-31.98 42.15) rotate(-3.5)"/><path class="cls-40" d="M677.43,527.82l-8.32.51a10.63,10.63,0,0,1-11.24-10l-.09-1.5a10.62,10.62,0,0,1,10-11.24l8.31-.51a10.62,10.62,0,0,1,11.24,10l.09,1.5A10.61,10.61,0,0,1,677.43,527.82ZM668,509.67a6.58,6.58,0,0,0-6.16,7l.1,1.51a6.58,6.58,0,0,0,7,6.16l8.31-.51a6.58,6.58,0,0,0,6.16-7l-.09-1.51a6.59,6.59,0,0,0-7-6.16Z"/><path class="cls-32" d="M695.84,549.52l-42.36,2.59a8.63,8.63,0,0,1-9.1-8.05l-1.13-18.5a8.62,8.62,0,0,1,8-9.09l42.36-2.59a8.62,8.62,0,0,1,9.1,8l1.13,18.49A8.62,8.62,0,0,1,695.84,549.52Z"/><rect class="cls-41" x="670.63" y="546.1" width="7.96" height="7.96" transform="translate(-32.29 42.16) rotate(-3.5)"/><path class="cls-29" d="M677.68,549.36a26.94,26.94,0,0,0-8,5.49c-1.19,1.15-6.16,4.24-10.74,4.32,0,0-.4,2.89,3.33,3.33a15.86,15.86,0,0,0,7.17-1s3-1.6,4.8-.09c1.35,1.14,1.47,2.82-2.07,7.08l-4.5.32a2.15,2.15,0,0,0,.74,2.48c1.34.85,3.24,2,3.24,2s1.69,1.88,3.77-.59h0c-.25.79.5,1.2,1.39,1.72a2.08,2.08,0,0,0,2.85-.78c2.68-4.66,3.63-6.24.89-1.49-.46.81.2,1.17,1,1.64a1.69,1.69,0,0,0,2.31-.62l1.14-2c1.13.72,2,.45,2.4-.3l3.34-5.81c.55-1,.71-5.91.34-10.58-.17-2-5.63-7.73-9.24-6.78A17,17,0,0,0,677.68,549.36Z"/><polygon class="cls-42" points="679.33 566.53 675.42 572.71 679.03 566.36 679.33 566.53"/><polygon class="cls-42" points="684.01 566.59 680.42 572.38 683.72 566.42 684.01 566.59"/><polygon class="cls-42" points="687.78 566.87 685.04 571.21 687.49 566.7 687.78 566.87"/><path class="cls-42" d="M670.62,568.65a1.17,1.17,0,0,0,1.58-.19l-1.65.14Z"/><path class="cls-33" d="M694.11,554.48c7.57-6.92,26-34.15,25.64-49.15-.31-12.62-10.76-39.88-16.22-50.73A14.51,14.51,0,0,0,690,445.16l-4.14,35.26c6.11,10.54,12.57,23.7,12.67,30.12.07,4.68-11.43,23.93-17,34.76C681.46,545.3,690.62,558.57,694.11,554.48Z"/><rect class="cls-9" x="684.57" y="543.55" width="3.96" height="15.8" transform="translate(-163.03 783.08) rotate(-54.02)"/><path class="cls-33" d="M606.24,539.29h0c-5.8-9.7-12.64-25.24-14-28.51-2.53-6.2,4.33-20.88,11.39-31.67L609.53,444l-9.69,1.19c-10.29.14-12.93,7.89-13.32,8.8-5.39,10.53-15.58,39.94-15.89,52.73-.36,15,18.65,42.52,26.22,49.45l12.93-9.93Z"/><rect class="cls-9" x="596.65" y="550.47" width="15.8" height="3.96" transform="translate(-209.23 460.55) rotate(-35.98)"/></g></g></svg>