<svg xmlns="http://www.w3.org/2000/svg" viewBox="0 0 40.67 40.67"><defs><style>.cls-1{fill:#1a9b93;}.cls-2{fill:#fcf9d8;}</style></defs><title>oClock</title><g id="Calque_2" data-name="Calque 2"><path class="cls-1" d="M0,40.67V0H40.67V40.67ZM34,15.92l.83-.48a5.15,5.15,0,1,0-6.14-8.22,1.46,1.46,0,0,1-2,.23C21.13,4.86,15.77,5.28,11,9.11S4.74,18,6.13,23.88A14,14,0,0,0,18.52,34.46,14.29,14.29,0,0,0,34.34,23,15.62,15.62,0,0,0,34,15.92Z"/><path class="cls-2" d="M34,15.92a15.62,15.62,0,0,1,.36,7A14.29,14.29,0,0,1,18.52,34.46,14,14,0,0,1,6.13,23.88C4.74,18,6.3,12.9,11,9.11S21.13,4.86,26.67,7.45a1.46,1.46,0,0,0,2-.23,5.15,5.15,0,1,1,6.14,8.22ZM12.11,20.27a8,8,0,0,0,8,7.94,8.12,8.12,0,0,0,8.06-7.91,8.17,8.17,0,0,0-8-8.07A8.07,8.07,0,0,0,12.11,20.27ZM32,7.31a3.87,3.87,0,0,0-3.74,3.76A3.78,3.78,0,0,0,35.86,11,3.87,3.87,0,0,0,32,7.31Z"/><path class="cls-1" d="M12.11,20.27a8.07,8.07,0,0,1,8-8,8.17,8.17,0,0,1,8,8.07,8.12,8.12,0,0,1-8.06,7.91A8,8,0,0,1,12.11,20.27Z"/><path class="cls-1" d="M32,7.31A3.87,3.87,0,0,1,35.86,11a3.78,3.78,0,0,1-7.56.08A3.87,3.87,0,0,1,32,7.31Z"/></g></svg>